v -0.019160858 -0.050602032 0.37523947
v -0.022422981 -0.056491101 0.38100834
v 0.025264525 -0.076465997 0.27896881
v -0.022517428 0.05697999 0.38123065
v 0.0061537074 0.076529002 0.28715032
v -0.065330605 0.066447448 0.39804053
v 0.025264525 0.076619916 0.27867486
v -0.1465181 0.076619916 0.28900007
v -0.1465181 -0.076465997 0.28892659
v -0.14651808 -0.056032342 0.35421636
v -0.14651808 0.055901436 0.35446212
v -0.019160858 0.050606097 0.37523947
v -0.036637675 0.065041141 0.38451255
v -0.060126151 0.059931046 0.40826358
v 0.0052578952 -0.076414789 0.28657771
v -0.039456632 -0.076465997 0.28877961
v -0.078776546 -0.066427292 0.39897494
v -0.099235182 -0.076465956 0.29018435
v -0.025291136 -0.06315466 0.37350343
v -0.039389371 -0.065077462 0.38648329
v -0.061871104 -0.066096437 0.39772711
v -0.096492859 -0.066163594 0.3974485
v -0.11810065 -0.065332208 0.38648329
v -0.095668586 0.07661966 0.28979293
v -0.1438445 -0.050602032 0.36399565
v -0.13890087 -0.050602032 0.37523947
v -0.13531693 -0.057781105 0.38152349
v -0.11781258 0.065384364 0.38658894
v -0.08986697 0.066411844 0.39858786
v -0.13942214 0.0613353 0.36399565
v -0.078835897 -0.0613562 0.4072864
v -0.073120371 -0.050602032 0.41080815
v -0.084352831 -0.050602032 0.41084493
v -0.052947922 -0.058828084 0.40571231
v -0.061871104 -0.050602032 0.40878719
v -0.03236043 0.056966755 0.39267213
v -0.044843766 0.050421264 0.402056
v -0.033542056 -0.051139966 0.39380817
v -0.12934993 -0.064508035 0.37523947
v -0.13942214 -0.061331235 0.36399565
v -0.12934993 0.0645121 0.37523947
v -0.045220808 -0.056619088 0.40223115
v -0.051782068 0.050606097 0.40533324
v -0.1050665 -0.058747883 0.40577549
v -0.11236401 0.050405789 0.40256341
v -0.11292504 -0.050397964 0.40222264
v -0.13534202 0.057763417 0.38149964
v -0.13890087 0.050606097 0.37523947
v -0.1438445 0.050606097 0.36399565
v -0.10472437 0.058807179 0.40586401
v -0.12564884 -0.057062062 0.39273572
v -0.084352831 0.050606097 0.41084493
v -0.095602104 -0.050602032 0.40893419
v -0.12537257 0.057019272 0.39298944
v -0.073120371 0.050606097 0.41080815
v -0.095602104 0.050606097 0.40893419
v -0.1465181 -0.076465997 0.035462864
v -0.1465181 0.076619916 0.035499611
v 0.025264525 -0.076465997 0.035462864
v 0.025264525 0.076619916 0.035499611
f 5 6 7
f 12 3 7
f 12 7 4
f 13 7 6
f 13 4 7
f 24 7 8
f 24 5 7
f 24 6 5
f 24 8 29
f 24 29 6
f 14 13 6
f 14 6 29
f 14 29 50
f 1 12 4
f 1 4 2
f 1 3 12
f 1 2 3
f 38 37 42
f 38 42 2
f 19 3 2
f 16 3 15
f 40 39 27
f 40 9 39
f 40 27 10
f 40 10 9
f 11 8 9
f 11 9 10
f 11 30 8
f 11 49 47
f 11 47 30
f 25 10 27
f 25 49 11
f 25 11 10
f 43 42 37
f 43 37 14
f 36 37 38
f 36 14 37
f 36 2 4
f 36 38 2
f 36 4 13
f 36 13 14
f 20 3 19
f 20 2 42
f 20 19 2
f 54 45 50
f 41 30 47
f 41 8 30
f 26 27 47
f 26 25 27
f 52 50 56
f 52 55 14
f 52 14 50
f 35 14 55
f 32 35 55
f 44 50 45
f 44 56 50
f 18 9 16
f 28 47 54
f 28 41 47
f 28 54 50
f 28 50 29
f 28 29 8
f 28 8 41
f 48 47 49
f 48 26 47
f 51 47 27
f 51 54 47
f 17 9 18
f 17 18 16
f 17 16 15
f 53 56 44
f 53 44 33
f 46 44 45
f 46 51 44
f 46 45 54
f 46 54 51
f 23 44 51
f 23 27 39
f 23 51 27
f 23 39 9
f 34 20 42
f 34 35 32
f 34 42 43
f 34 43 14
f 34 14 35
f 21 15 3
f 21 17 15
f 21 3 20
f 21 20 34
f 22 44 23
f 22 9 17
f 22 23 9
f 31 44 22
f 31 22 17
f 31 33 44
f 31 17 21
f 31 21 34
f 31 32 33
f 31 34 32
f 60 3 59
f 60 7 3
f 60 8 7
f 60 58 8
f 60 59 57
f 60 57 58
f 9 8 58
f 9 58 57
f 16 59 3
f 16 57 59
f 16 9 57
f 48 25 26
f 48 49 25
f 33 32 55
f 33 55 52
f 53 33 52
f 53 52 56
