v 0.23875525 -0.12326095 0.17463484
v 0.23734009 -0.065237999 0.17533494
v 0.22295039 -0.17039357 0.25984251
v 0.025285437 -0.065238107 0.14880247
v 0.025285437 -0.065238107 0.27771694
v 0.15147348 -0.26575868 0.31442469
v 0.02528544 -0.30933541 0.29924053
v 0.16484081 -0.27024271 0.31450343
v 0.2372129 -0.065238107 0.16257885
v 0.23699764 -0.11585267 0.15600979
v 0.23728207 -0.18380114 0.1659937
v 0.2344698 -0.22212767 0.16937691
v 0.22496373 -0.31064412 0.16074213
v 0.21694059 -0.24385678 0.26916663
v 0.22087115 -0.11751319 0.261479
v 0.16856201 -0.25977371 0.31401966
v 0.025285465 -0.096168872 0.31001894
v 0.025285437 -0.341916 0.17278957
v 0.025285437 -0.31740608 0.14880247
v 0.025286 -0.33783253 0.15573341
v 0.21041892 -0.16312081 0.14880247
v 0.21041892 -0.065238107 0.14880247
v 0.17121021 -0.31871018 0.27610105
v 0.20297805 -0.30063833 0.26893809
v 0.22504903 -0.29319403 0.15586895
v 0.20989175 -0.3236173 0.15358812
v 0.22800986 -0.065238102 0.21701472
v 0.21643426 -0.1211696 0.2711004
v 0.19683382 -0.095625005 0.27413509
v 0.025285438 -0.09406563 0.30928349
v 0.025285437 -0.10447176 0.30975223
v 0.025285437 -0.32222678 0.28525343
v 0.23426095 -0.065238779 0.15726408
v 0.071595337 -0.31714826 0.14871618
v 0.09083125 -0.31164531 0.1488025
v 0.19685471 -0.30933537 0.15218984
v 0.21407361 -0.323636 0.17223784
v 0.20910818 -0.29304455 0.2674786
v 0.025285526 -0.31814367 0.29488148
v 0.16303036 -0.34158855 0.17280686
v 0.16310099 -0.34042644 0.16155778
v 0.17918631 -0.34080057 0.17377602
v 0.16617679 -0.32443137 0.25654878
v 0.17449234 -0.26798575 0.30839212
v 0.21434544 -0.27257158 0.26871073
v 0.22771968 -0.29546768 0.1735442
v 0.20344324 -0.089406262 0.26976786
v 0.22088018 -0.065238379 0.22626459
v 0.21693726 -0.18470249 0.27089063
v 0.21573944 -0.11061567 0.26970934
v 0.15795955 -0.089964699 0.27967806
v 0.20811286 -0.18173303 0.14880238
v 0.19450285 -0.33814204 0.16961613
v 0.026717092 -0.34050771 0.16155778
v 0.18095559 -0.33885819 0.15601662
v 0.065132624 -0.31724189 0.29227773
v 0.14305435 -0.32158949 0.27275292
v 0.21135406 -0.1015329 0.27017577
v 0.19081673 -0.31451526 0.26188533
f 3 1 2
f 4 5 2
f 6 7 8
f 9 2 1
f 9 1 10
f 11 10 1
f 11 1 3
f 11 3 12
f 13 11 12
f 14 12 3
f 15 3 2
f 17 8 16
f 17 6 8
f 20 18 19
f 22 10 21
f 22 4 2
f 22 2 9
f 24 8 23
f 25 10 11
f 25 11 13
f 25 13 26
f 25 21 10
f 27 15 2
f 27 2 5
f 28 3 15
f 29 17 16
f 29 30 17
f 31 7 6
f 31 6 17
f 31 17 30
f 31 32 7
f 31 30 5
f 33 9 10
f 33 10 22
f 33 22 9
f 34 19 4
f 34 22 21
f 34 4 22
f 34 35 26
f 36 26 35
f 37 13 38
f 37 38 24
f 37 26 13
f 39 7 32
f 39 8 7
f 40 32 18
f 40 18 41
f 40 41 42
f 43 42 23
f 43 40 42
f 43 32 40
f 44 45 14
f 44 16 8
f 44 38 45
f 44 8 24
f 44 24 38
f 46 38 13
f 46 45 38
f 46 13 12
f 46 12 14
f 46 14 45
f 48 5 47
f 48 27 5
f 49 28 16
f 49 16 44
f 49 44 14
f 49 14 3
f 49 3 28
f 50 15 27
f 50 28 15
f 51 29 47
f 51 30 29
f 51 47 5
f 51 5 30
f 52 34 21
f 52 35 34
f 52 36 35
f 52 26 36
f 52 25 26
f 52 21 25
f 53 26 37
f 53 23 42
f 54 18 20
f 54 41 18
f 55 34 26
f 55 26 53
f 55 54 20
f 55 41 54
f 55 20 19
f 55 19 34
f 55 42 41
f 55 53 42
f 56 39 32
f 56 23 8
f 56 8 39
f 57 43 23
f 57 32 43
f 57 23 56
f 57 56 32
f 58 50 27
f 58 48 47
f 58 27 48
f 58 47 29
f 58 29 16
f 58 16 28
f 58 28 50
f 59 24 23
f 59 23 53
f 59 37 24
f 59 53 37
f 31 5 4
f 31 19 18
f 31 4 19
f 31 18 32
