v 0.025264526 0.076625148 0.035463101
v 0.025264531 0.29807007 0.035493376
v 0.025264562 0.32208535 0.28579231
v 0.025264528 0.092321109 0.31037193
v 0.025256761 0.076625061 0.27969363
v -0.025587506 0.076625171 0.28857327
v -0.14651163 0.076625061 0.28984002
v -0.14652159 0.088509546 0.3487291
v -0.016635135 0.095849091 0.35142601
v -0.14651389 0.095642242 0.35161607
v -0.16268539 0.1338323 0.32673479
v 0.02526454 0.34191038 0.17291121
v -0.14651388 0.076625148 0.035461871
v -0.013830129 0.089010852 0.34858173
v -0.16268539 0.22192979 0.32533828
v -0.16269911 0.2617267 0.16051329
v -0.039450852 0.30972341 0.30743387
v -0.028143718 0.10533264 0.34997587
v -0.044899204 0.31901506 0.30338895
v -0.069478462 0.31657597 0.29201924
v -0.16268471 0.23379531 0.3175434
v 0.025264526 0.31254619 0.049079709
v -0.16268539 0.23759496 0.30773343
v -0.16268539 0.26423306 0.17302622
v -0.12384805 0.31517012 0.2012144
v -0.11385815 0.32800411 0.20650632
v -0.16268539 0.1338323 0.13907313
v -0.10187803 0.33867876 0.17751688
v -0.14647845 0.23713065 0.041907265
v -0.008899824 0.10346211 0.34839759
v 0.0020467514 0.31535201 0.30237963
v 0.0071830504 0.090456609 0.33410411
v 0.022844359 0.099606377 0.31406623
v -0.0056618451 0.333174 0.25150302
v -0.059256522 0.33462873 0.24854496
v -0.084329999 0.34203308 0.17283614
v -0.14097268 0.10292682 0.35058544
v 0.025264526 0.30807771 0.03945524
v -0.1142813 0.32857564 0.19796497
v -0.10297974 0.33761581 0.20003737
v -0.16268536 0.22863196 0.1390729
v -0.14648877 0.2246651 0.035496194
v -0.032040572 0.30485624 0.041722939
v -0.028497368 0.31700367 0.30519309
v 0.025264526 0.30945132 0.29916233
v -0.0029757955 0.095642242 0.34465301
v -0.04907069 0.33226419 0.26202318
v 0.025264526 0.34050389 0.16158779
v -0.14651389 0.10047445 0.35090429
v -0.16268539 0.22590412 0.32490894
v -0.078141316 0.28236075 0.31330133
v -0.075092164 0.32746567 0.2673272
v -0.021876379 0.29777709 0.035494283
v 0.0027458596 0.095642242 0.33902069
v -0.04017026 0.32101721 0.29885144
v -0.09238815 0.33925326 0.16441859
v -0.012139115 0.30856299 0.039823858
v -0.0033059292 0.31261855 0.049388114
v -0.078609909 0.34049649 0.16158755
v -0.1027276 0.32771828 0.22606472
f 1 2 3
f 4 1 3
f 4 5 1
f 6 7 5
f 8 9 10
f 8 10 11
f 8 11 7
f 8 7 6
f 12 3 2
f 13 5 7
f 13 1 5
f 13 7 11
f 13 2 1
f 14 6 5
f 14 9 8
f 14 8 6
f 15 11 10
f 15 16 11
f 18 9 17
f 19 20 21
f 22 12 2
f 24 16 23
f 24 23 25
f 26 23 21
f 26 25 23
f 27 11 16
f 27 13 11
f 29 16 28
f 31 9 30
f 32 5 4
f 32 14 5
f 32 4 33
f 34 3 12
f 34 12 35
f 36 35 12
f 37 10 9
f 37 9 18
f 38 22 2
f 39 25 26
f 39 24 25
f 39 28 16
f 39 16 24
f 40 36 28
f 40 35 36
f 40 28 39
f 40 39 26
f 41 13 27
f 41 27 16
f 41 16 29
f 42 29 43
f 42 13 41
f 42 41 29
f 44 17 9
f 44 9 31
f 44 19 17
f 44 31 3
f 45 3 31
f 45 31 30
f 45 32 33
f 45 4 3
f 45 33 4
f 46 14 32
f 46 30 9
f 46 9 14
f 46 45 30
f 47 34 35
f 47 3 34
f 48 12 22
f 48 36 12
f 49 10 37
f 50 17 19
f 50 49 37
f 50 19 21
f 50 15 10
f 50 10 49
f 50 21 23
f 50 16 15
f 50 23 16
f 51 18 17
f 51 37 18
f 51 17 50
f 51 50 37
f 52 35 40
f 52 20 19
f 52 47 35
f 52 19 47
f 52 21 20
f 53 2 13
f 53 13 42
f 53 42 43
f 53 38 2
f 54 32 45
f 54 46 32
f 54 45 46
f 55 3 47
f 55 47 19
f 55 44 3
f 55 19 44
f 56 28 36
f 56 29 28
f 56 43 29
f 57 22 38
f 57 58 22
f 57 53 43
f 57 38 53
f 57 43 56
f 59 36 48
f 59 56 36
f 59 48 22
f 59 22 58
f 59 58 57
f 59 57 56
f 60 40 26
f 60 52 40
f 60 26 21
f 60 21 52
