v 0.10265073 -0.18828977 0.049042191
v 0.20250742 -0.17999093 0.077121961
v 0.10265073 -0.19517358 0.14880247
v 0.14061802 0.17433438 0.039534333
v 0.10265073 0.17907653 0.037659397
v 0.10265073 0.18400994 0.040044673
v 0.12936923 0.1630908 0.035473803
v 0.19685138 -0.18523029 0.14880247
v 0.20628515 -0.18377705 0.14880247
v 0.20668614 -0.18278272 0.14880247
v 0.20922928 -0.17433092 0.14880247
v 0.20470231 -0.17433092 0.082791159
v 0.19749506 0.18519548 0.14880247
v 0.20250742 0.17999439 0.077121961
v 0.10265073 0.19552121 0.14880247
v 0.20628515 0.18378051 0.14880247
v 0.10265073 0.18829322 0.049042191
v 0.14673836 0.18010912 0.04318437
v 0.10265073 -0.18400649 0.040044673
v 0.14673836 -0.18010568 0.04318437
v 0.2067178 -0.16308734 0.082791159
v 0.21044277 -0.16308734 0.14880247
v 0.20930314 -0.17398671 0.14880247
v 0.21044277 0.1630908 0.14880247
v 0.2067178 0.1630908 0.082791159
v 0.20922928 0.17433438 0.14880247
v 0.10265073 0.18729889 0.046046718
v 0.10265073 0.17433438 0.036427927
v 0.10265073 -0.16308734 0.035473803
v 0.10265073 0.1630908 0.035473803
v 0.11812045 -0.16308734 0.03546272
v 0.10265073 -0.17433092 0.036427927
v 0.12936923 -0.16308734 0.03546272
v 0.14915483 -0.17433092 0.041786486
v 0.14061802 -0.16308734 0.036516675
v 0.15131807 -0.16308734 0.040488453
v 0.17099815 -0.17234226 0.053335694
v 0.14061802 0.1630908 0.036516675
v 0.14061802 -0.17433092 0.039534333
v 0.19858195 0.1630908 0.068734643
v 0.20350987 0.17433438 0.07572407
v 0.20448073 0.1630908 0.074359464
v 0.19238774 0.17108369 0.065239923
v 0.20470231 0.17433438 0.082791159
v 0.10265073 0.16729758 0.03552928
v 0.16795909 -0.17983798 0.055443622
v 0.19295756 0.1630908 0.064896003
v 0.20350987 -0.17433092 0.07572407
v 0.15131807 0.1630908 0.040488453
v 0.14915483 0.17433438 0.041786486
v 0.16796963 0.17984144 0.055421434
v 0.19237718 -0.17108024 0.065239923
v 0.1569319 -0.16308734 0.043739088
v 0.1569319 0.1630908 0.043739088
v 0.17099815 0.17234571 0.053335694
v 0.19294609 -0.16308733 0.064906461
v 0.19295756 0.11811653 0.064896003
v 0.19857141 -0.16308734 0.068734643
v 0.19858195 -0.039369874 0.068734643
v 0.20448073 -0.16308734 0.074359464
f 24 25 26
f 14 17 15
f 14 18 17
f 21 22 23
f 2 9 8
f 2 3 1
f 2 8 3
f 4 5 6
f 4 6 18
f 4 50 38
f 4 18 50
f 44 26 25
f 51 14 43
f 51 18 14
f 16 26 44
f 16 44 14
f 49 38 50
f 20 2 1
f 48 60 21
f 10 9 2
f 27 17 18
f 27 18 6
f 41 25 42
f 41 44 25
f 41 14 44
f 41 43 14
f 40 43 41
f 40 41 42
f 13 14 15
f 13 16 14
f 33 38 35
f 55 43 49
f 55 49 50
f 55 50 18
f 55 51 43
f 55 18 51
f 19 20 1
f 52 48 2
f 12 10 2
f 12 21 23
f 12 48 21
f 12 2 48
f 31 29 30
f 7 38 33
f 7 30 45
f 7 45 28
f 7 28 5
f 7 5 4
f 7 4 38
f 39 20 19
f 39 33 35
f 58 60 48
f 58 48 52
f 58 59 60
f 58 57 59
f 34 39 35
f 34 20 39
f 37 20 34
f 46 2 20
f 46 52 2
f 46 20 37
f 46 37 52
f 11 12 23
f 11 10 12
f 32 29 31
f 32 31 33
f 32 33 39
f 32 39 19
f 47 43 40
f 36 52 37
f 36 34 35
f 36 37 34
f 56 58 52
f 56 57 58
f 54 49 43
f 54 43 47
f 53 52 36
f 53 56 52
f 53 57 56
f 21 24 22
f 21 25 24
f 42 25 21
f 42 21 60
f 59 42 60
f 59 40 42
f 7 33 31
f 7 31 30
f 11 15 3
f 11 3 8
f 11 23 22
f 11 22 24
f 11 8 9
f 11 9 10
f 11 24 26
f 11 26 16
f 11 13 15
f 11 16 13
f 32 3 15
f 32 1 3
f 32 15 17
f 32 5 28
f 32 6 5
f 32 17 27
f 32 45 30
f 32 30 29
f 32 28 45
f 32 27 6
f 32 19 1
f 47 40 59
f 47 59 57
f 36 35 38
f 36 38 49
f 53 36 49
f 53 49 54
f 53 47 57
f 53 54 47
