v 0.025254608 0.096129427 0.31000091
v 0.025264123 -0.065238096 0.14880418
v 0.025285556 -0.065239061 0.27770321
v 0.23791549 -0.065238145 0.1734827
v 0.02528545 0.30939328 0.2992358
v 0.025285448 0.3180698 0.29488071
v 0.16507661 0.26893999 0.31517755
v 0.23880351 0.12940483 0.17278958
v 0.23745538 -0.065237908 0.1624111
v 0.15078347 0.26530418 0.31437832
v 0.025285448 0.31739227 0.14880248
v 0.085423259 0.31714265 0.14880214
v 0.025285448 0.33775725 0.15572308
v 0.02528485 0.34191614 0.17287506
v 0.025285448 0.34046936 0.16156069
v 0.02528543 0.32177174 0.28751234
v 0.16431548 0.34161084 0.17257996
v 0.21170685 0.10820581 0.2712031
v 0.19685238 0.09564918 0.27415131
v 0.20586131 0.09564918 0.2708936
v 0.16845572 0.26011173 0.31410472
v 0.21640463 0.12153675 0.2711458
v 0.21926011 0.19348802 0.26881037
v 0.23760718 0.1794118 0.16616757
v 0.22468101 0.16725101 0.25029253
v 0.23122582 0.22819279 0.18711692
v 0.21038287 -0.065237156 0.14880843
v 0.23605062 0.1282836 0.18926784
v 0.22801786 -0.065238108 0.21697123
v 0.050640056 -0.065238108 0.27126637
v 0.16908393 -0.065238066 0.23993742
v 0.02526791 0.10510815 0.30973435
v 0.17502151 0.34035969 0.16149989
v 0.19373993 0.33909616 0.1661549
v 0.17850382 0.33776647 0.15573134
v 0.21242694 0.32242339 0.15606031
v 0.21524895 0.26678336 0.26882451
v 0.2134433 0.28375368 0.26279691
v 0.20679574 0.2932585 0.26966037
v 0.21103055 0.32717258 0.17158085
v 0.2260886 0.30342096 0.16136251
v 0.23783543 0.12714201 0.16062883
v 0.20065623 0.30323507 0.2689045
v 0.17200036 0.31352829 0.28041973
v 0.061137169 0.31714966 0.29283651
v 0.16297203 0.32197363 0.26857503
v 0.21043894 0.16316048 0.14880248
v 0.2204094 0.11816623 0.26275744
v 0.22384632 -0.065238102 0.22256875
v 0.17819275 0.26858483 0.30487137
v 0.22913132 0.28402403 0.17314968
v 0.21359779 0.30929199 0.21207537
v 0.22493973 0.29495704 0.15587402
v 0.23429556 -0.065233916 0.15633084
v 0.18490188 0.31570157 0.27060385
v 0.20647337 0.31626312 0.15271843
v 0.21706271 -0.065238248 0.22618952
v 0.23626583 0.12462315 0.15590145
v 0.20809561 0.1817342 0.14880248
v 0.20809788 -0.065238108 0.22928894
f 3 1 2
f 4 3 2
f 5 6 1
f 5 7 6
f 9 8 4
f 9 4 2
f 10 1 7
f 10 7 5
f 12 2 11
f 13 2 1
f 13 11 2
f 13 1 14
f 13 14 15
f 16 17 14
f 16 14 1
f 16 1 6
f 18 19 20
f 21 22 23
f 21 18 22
f 21 19 18
f 21 7 1
f 21 1 3
f 21 3 19
f 24 25 8
f 24 26 25
f 27 9 2
f 28 4 8
f 28 8 25
f 28 25 4
f 29 4 25
f 30 19 3
f 30 3 31
f 30 31 19
f 32 5 1
f 32 1 10
f 32 10 5
f 33 14 17
f 33 15 14
f 33 17 34
f 35 12 11
f 35 11 13
f 35 13 15
f 35 15 33
f 35 34 36
f 35 33 34
f 37 38 39
f 37 23 25
f 37 25 26
f 40 36 34
f 40 41 36
f 42 8 9
f 42 24 8
f 45 6 7
f 45 7 44
f 45 16 6
f 43 7 39
f 43 44 7
f 46 34 17
f 46 17 16
f 46 16 45
f 46 45 44
f 47 2 12
f 47 27 2
f 48 22 29
f 48 29 25
f 48 23 22
f 48 25 23
f 49 22 18
f 49 29 22
f 50 21 23
f 50 23 37
f 50 7 21
f 50 39 7
f 50 37 39
f 51 41 38
f 51 38 37
f 51 37 26
f 51 26 24
f 51 24 41
f 52 41 40
f 52 39 38
f 52 38 41
f 52 43 39
f 52 40 43
f 53 41 24
f 53 36 41
f 54 9 27
f 55 44 43
f 55 46 44
f 55 34 46
f 55 40 34
f 55 43 40
f 56 35 36
f 56 12 35
f 56 36 53
f 57 18 20
f 57 49 18
f 57 20 19
f 57 29 49
f 57 3 4
f 57 4 29
f 58 27 47
f 58 54 27
f 58 47 53
f 58 24 42
f 58 53 24
f 58 42 9
f 58 9 54
f 59 47 12
f 59 12 56
f 59 53 47
f 59 56 53
f 60 19 31
f 60 57 19
f 60 31 3
f 60 3 57
