v 0.025272099 0.30810209 0.039467175
v 0.025272099 -0.31743442 0.14880248
v 0.025272099 0.31736928 0.14880248
v 0.025272099 0.29804722 0.035473602
v 0.025272099 -0.2980454 0.03546252
v 0.025272099 -0.31252263 0.048993749
v 0.10265072 0.16729087 0.035529079
v 0.10265072 0.16306506 0.035473602
v 0.07311579 0.29804241 0.035473602
v 0.025272099 -0.30805062 0.039445385
v 0.025272099 0.31252203 0.049042011
v 0.061874487 0.31743143 0.14880248
v 0.07311579 0.31252203 0.049042011
v 0.084364657 0.28679428 0.036394436
v 0.07311579 0.30804764 0.039445385
v 0.07311579 -0.312525 0.049042011
v 0.084364657 0.31401347 0.14880248
v 0.084364657 0.3088555 0.049042011
v 0.096878569 0.29804241 0.14880248
v 0.094151549 0.28679428 0.049042011
v 0.092689579 0.29804241 0.049042011
v 0.091341243 0.29804241 0.041364715
v 0.090394309 0.3042197 0.04272654
v 0.10265072 0.19550439 0.14880248
v 0.10265072 0.18829565 0.049042011
v 0.097764835 0.28679428 0.14880248
v 0.10265072 -0.16306805 0.035473602
v 0.07311579 -0.2980454 0.03546252
v 0.084364657 -0.28679727 0.036394436
v 0.10265072 -0.18829864 0.049042011
v 0.10265072 -0.19513449 0.14880248
v 0.097764835 -0.28679727 0.14880248
v 0.084364657 0.30624546 0.040909851
v 0.07311579 0.31736928 0.14880248
v 0.094151549 0.30792335 0.14880248
v 0.092068427 0.28679428 0.040366218
v 0.10265072 0.18730134 0.046046539
v 0.10265072 0.18400768 0.040044494
v 0.10265072 0.17903616 0.037659197
v 0.092068427 -0.28679727 0.040366218
v 0.084364657 -0.30624845 0.040909851
v 0.084364657 -0.30885849 0.049042011
v 0.091341243 -0.2980454 0.041364715
v 0.10265072 -0.17431614 0.036427728
v 0.084364657 0.29804241 0.037392932
v 0.062051376 -0.31743439 0.14880248
v 0.07311579 -0.31731012 0.14880248
v 0.077675941 -0.31656438 0.14880248
v 0.086319008 -0.31345717 0.14880248
v 0.096939154 -0.29761038 0.14880248
v 0.096878569 -0.2980454 0.14880248
v 0.092689579 -0.2980454 0.049042011
v 0.10265072 0.17431317 0.036427728
v 0.084364657 -0.2980454 0.037392932
v 0.07311579 -0.30805062 0.039445385
v 0.094469712 -0.30699418 0.14880248
v 0.090394244 -0.30422288 0.042726604
v 0.094151549 -0.30792634 0.14880248
v 0.10265072 -0.18401065 0.040044494
v 0.094151549 -0.28679727 0.049042011
f 11 3 12
f 6 16 2
f 23 18 35
f 47 16 48
f 42 48 16
f 25 26 24
f 17 35 18
f 13 12 34
f 13 11 12
f 13 34 17
f 13 17 18
f 22 45 23
f 46 2 16
f 46 16 47
f 55 6 10
f 55 16 6
f 32 30 31
f 56 58 57
f 49 48 42
f 49 57 58
f 49 42 57
f 9 14 7
f 9 45 14
f 9 15 45
f 9 4 15
f 1 15 4
f 1 11 13
f 1 13 15
f 21 35 19
f 21 23 35
f 21 19 20
f 21 20 22
f 21 22 23
f 33 18 23
f 33 13 18
f 33 15 13
f 33 45 15
f 33 23 45
f 36 45 22
f 36 14 45
f 36 7 14
f 50 30 32
f 50 60 30
f 52 51 56
f 52 56 57
f 52 50 51
f 52 60 50
f 59 30 60
f 41 54 57
f 41 55 54
f 41 16 55
f 41 42 16
f 41 57 42
f 28 54 55
f 28 29 54
f 28 27 29
f 28 5 4
f 28 4 9
f 8 9 7
f 8 27 28
f 8 28 9
f 37 38 20
f 37 20 19
f 37 19 26
f 37 26 25
f 39 22 20
f 39 20 38
f 43 57 54
f 43 59 60
f 43 52 57
f 43 60 52
f 53 7 36
f 53 36 22
f 53 22 39
f 44 59 43
f 40 43 54
f 40 44 43
f 40 54 29
f 40 27 44
f 40 29 27
f 1 2 3
f 1 5 10
f 1 3 11
f 1 6 2
f 1 10 6
f 1 4 5
f 50 3 2
f 50 31 24
f 50 34 12
f 50 12 3
f 50 24 26
f 50 35 17
f 50 2 46
f 50 48 49
f 50 19 35
f 50 47 48
f 50 56 51
f 50 26 19
f 50 17 34
f 50 46 47
f 50 32 31
f 50 58 56
f 50 49 58
f 28 10 5
f 28 55 10
f 44 24 31
f 44 37 25
f 44 7 53
f 44 31 30
f 44 25 24
f 44 27 8
f 44 30 59
f 44 8 7
f 44 38 37
f 44 39 38
f 44 53 39
