v -0.14651898 -0.24654927 0.31133088
v -0.1465181 -0.07646601 0.035524436
v -0.1465181 -0.23718477 0.042086224
v 0.025264526 -0.092451377 0.31031977
v 0.025264526 -0.29806194 0.035462539
v 0.025264526 -0.07646601 0.035515639
v -0.14651661 -0.22446877 0.035477245
v 0.025264526 -0.07646601 0.27899174
v 0.025264526 -0.30806947 0.039486278
v 0.025264526 -0.31254038 0.049081352
v 0.025264526 -0.31807704 0.29487003
v 0.025264526 -0.32221002 0.28524401
v 0.002052808 -0.31549477 0.30235875
v -0.0087187078 -0.1035254 0.34847867
v -0.016422949 -0.095900417 0.3514666
v -0.1465181 -0.07646601 0.28896195
v -0.1465181 -0.088579045 0.34878818
v -0.021857454 -0.29761504 0.035463408
v -0.1465181 -0.23101823 0.3224713
v -0.1465181 -0.10434414 0.35023769
v 0.025264203 -0.34193765 0.17267602
v -0.028413616 -0.31707999 0.30517717
v -0.039389371 -0.30931717 0.30756029
v 0.025264526 -0.30931717 0.29917234
v 0.0090158317 -0.090787158 0.33184195
v 0.002152408 -0.090736682 0.34009094
v -0.013769553 -0.089021774 0.34857728
v -0.011937018 -0.30847015 0.039722879
v -0.13816102 -0.2493498 0.31557683
v -0.10288303 -0.27087254 0.31415305
v -0.079493283 -0.28145198 0.31350305
v -0.1465181 -0.09564932 0.35166668
v -0.1465181 -0.27173033 0.20322159
v -0.14651747 -0.27412728 0.16752187
v -0.10212635 -0.33819613 0.1769125
v -0.11247703 -0.33194553 0.20086063
v 0.025258265 -0.34047548 0.1615296
v -0.002850251 -0.09564932 0.34473346
v 0.022847951 -0.0995898 0.31408199
v -0.00012821235 -0.076466097 0.28716439
v -0.028527181 -0.10545349 0.34996964
v -0.12448108 -0.31430377 0.20108482
v -0.07310356 -0.34048358 0.16156039
v -0.10371514 -0.33778374 0.19844217
v -0.066377283 -0.31930176 0.29128777
v -0.09560211 -0.07646601 0.29010345
v -0.084514864 -0.34201825 0.17277938
v -0.059309179 -0.33465781 0.2480004
v -0.0047350273 -0.31247353 0.049005572
v -0.036608914 -0.32092 0.29870697
v -0.048230099 -0.33175398 0.26361151
v -0.0060178244 -0.33331907 0.25102289
v -0.073894694 -0.32708686 0.26958062
v -0.09237362 -0.33926187 0.16440797
v -0.090927492 -0.27019462 0.042081446
v -0.034395299 -0.30406647 0.042798122
v -0.04759658 -0.3169169 0.30379975
v -0.10273169 -0.32769469 0.22606406
v -0.083612973 -0.33972975 0.16103422
v -0.027927543 -0.30524776 0.040491154
f 3 1 2
f 7 3 2
f 7 6 5
f 7 2 6
f 18 7 5
f 20 1 19
f 24 13 11
f 26 38 24
f 22 15 23
f 22 13 15
f 22 11 13
f 16 2 1
f 16 1 17
f 29 19 1
f 29 30 19
f 31 19 30
f 31 20 19
f 32 15 17
f 32 17 1
f 32 1 20
f 36 34 3
f 36 42 34
f 36 1 42
f 14 38 15
f 14 24 38
f 14 15 13
f 14 13 24
f 25 4 8
f 25 8 26
f 25 26 24
f 27 8 40
f 27 26 8
f 27 17 15
f 27 15 38
f 27 38 26
f 45 29 1
f 60 3 7
f 60 7 18
f 60 54 56
f 46 40 8
f 46 16 17
f 46 17 27
f 46 27 40
f 41 20 31
f 41 15 32
f 41 32 20
f 41 23 15
f 41 31 23
f 12 21 10
f 12 52 21
f 37 21 47
f 37 10 21
f 33 1 3
f 33 3 34
f 33 42 1
f 33 34 42
f 39 24 4
f 39 4 25
f 39 25 24
f 57 22 23
f 57 23 31
f 57 31 30
f 57 30 29
f 57 29 45
f 58 1 36
f 35 36 3
f 35 3 54
f 35 44 36
f 35 54 47
f 35 47 44
f 55 3 60
f 55 60 56
f 55 54 3
f 55 56 54
f 51 52 12
f 59 47 54
f 28 9 10
f 28 10 49
f 28 60 18
f 28 49 59
f 28 5 9
f 28 18 5
f 28 54 60
f 28 59 54
f 43 10 37
f 43 49 10
f 43 59 49
f 43 37 47
f 43 47 59
f 50 57 45
f 50 22 57
f 50 51 12
f 50 12 11
f 50 11 22
f 48 44 47
f 48 52 51
f 48 47 21
f 48 21 52
f 53 50 45
f 53 51 50
f 53 48 51
f 53 44 48
f 53 45 1
f 53 1 58
f 53 36 44
f 53 58 36
f 46 8 6
f 46 6 2
f 46 2 16
f 9 4 24
f 9 8 4
f 9 5 6
f 9 6 8
f 9 24 11
f 9 11 12
f 9 12 10
