v -0.14654247 0.13375978 0.32386663
v -0.16340811 0.23133269 0.32384725
v -0.14654199 0.10754272 0.34952613
v -0.14654247 0.22161509 0.035494731
v -0.14654239 0.23826501 0.13898413
v -0.14654247 -0.27171874 0.20325803
v -0.14654247 -0.27419829 0.16762623
v -0.14654248 -0.24460889 0.31943825
v -0.1465429 -0.091919493 0.35287156
v -0.14654681 0.23739327 0.041402457
v -0.31532406 0.17519123 0.16691189
v -0.16292128 0.26525465 0.16753129
v -0.39446397 -0.06449454 0.16643034
v -0.37120291 -4.8615494e-05 0.26988049
v -0.39830924 0.0085191103 0.15961514
v -0.39380531 -0.023471699 0.15605281
v -0.16262819 0.23726907 0.30959735
v -0.25759034 0.17452447 0.33609805
v -0.14654247 -0.22220391 0.035454454
v -0.24014406 0.16318943 0.035510372
v -0.23054679 -0.17438953 0.035494142
v -0.25137243 -0.16293794 0.039841736
v -0.18086506 -0.25449962 0.16639952
v -0.16397664 -0.22950263 0.32423251
v -0.14654247 0.053503063 0.35301522
v -0.36260404 -0.14625733 0.16647696
v -0.28901854 -0.1552379 0.33674717
v -0.37949004 -0.12959895 0.16532054
v -0.38823856 -0.099131709 0.1720358
v -0.3487073 -0.011215771 0.32464375
v -0.37788815 -0.11290181 0.18938775
v -0.29615392 0.14696935 0.34086653
v -0.37760117 0.1317975 0.16518606
v -0.30929096 0.12461368 0.34293889
v -0.3486787 0.010800301 0.32467195
v -0.31077568 -0.12609778 0.33823798
v -0.29120693 -0.14499671 0.34131243
v -0.39397488 0.067345035 0.16686909
v -0.23234537 0.18638344 0.040455953
v -0.14654253 -0.23711513 0.041293204
v -0.2342378 -0.18556028 0.041520734
v -0.38394646 -0.11262077 0.15692787
v -0.24863178 -0.17224463 0.039732582
v -0.24191734 -0.16296641 0.035863824
v -0.16269324 -0.095556565 0.35227805
v -0.25462418 -0.17624862 0.33571593
v -0.34381368 -0.15697923 0.17345525
v -0.16422345 0.094817395 0.35236917
v -0.309432 0.056929162 0.34536096
v -0.36248588 0.14686663 0.16785413
v -0.38858488 0.095566734 0.17282612
v -0.3291659 -0.0011806197 0.33801561
v -0.30960172 -0.052585833 0.34547412
v -0.38416972 0.11248753 0.15715613
v -0.30821215 -0.11716781 0.34338718
v -0.30556125 -0.18054342 0.16594387
v -0.18466943 -0.033833169 0.35277941
v -0.25007307 0.17179481 0.041058117
v -0.38603998 0.11183732 0.17027511
v -0.25136417 0.16304991 0.039876895
f 1 2 3
f 5 3 4
f 5 1 3
f 6 7 3
f 6 3 8
f 9 8 3
f 10 11 12
f 10 12 5
f 10 5 4
f 13 14 15
f 13 15 16
f 17 5 12
f 17 18 2
f 17 2 1
f 17 1 5
f 17 12 11
f 19 3 7
f 19 4 3
f 19 20 4
f 19 21 20
f 22 16 15
f 23 7 6
f 24 8 9
f 25 9 3
f 26 27 28
f 29 14 13
f 29 30 14
f 29 31 30
f 29 28 31
f 32 33 34
f 35 14 30
f 36 30 31
f 36 27 37
f 36 28 27
f 36 31 28
f 38 15 14
f 39 4 20
f 39 10 4
f 39 11 10
f 40 19 7
f 40 7 23
f 40 23 41
f 40 21 19
f 40 41 21
f 42 16 22
f 42 13 16
f 42 28 29
f 42 29 13
f 43 21 41
f 43 26 28
f 43 41 26
f 43 28 42
f 43 42 22
f 44 20 21
f 44 21 43
f 44 43 22
f 45 24 9
f 46 8 24
f 46 6 8
f 46 27 6
f 46 37 27
f 46 45 37
f 46 24 45
f 47 6 27
f 47 27 26
f 48 18 32
f 48 3 2
f 48 2 18
f 48 32 34
f 48 25 3
f 48 34 49
f 50 33 32
f 50 11 39
f 50 32 18
f 50 17 11
f 50 18 17
f 59 34 33
f 59 35 34
f 52 35 30
f 52 53 49
f 52 34 35
f 52 49 34
f 54 15 38
f 54 59 33
f 54 38 59
f 55 37 45
f 55 45 53
f 55 36 37
f 55 53 52
f 55 30 36
f 55 52 30
f 56 47 26
f 56 41 23
f 56 26 41
f 56 23 6
f 56 6 47
f 57 53 45
f 57 49 53
f 57 48 49
f 57 25 48
f 57 9 25
f 57 45 9
f 51 14 35
f 51 35 59
f 51 38 14
f 51 59 38
f 58 54 33
f 58 33 50
f 58 50 39
f 58 39 20
f 60 15 54
f 60 54 58
f 60 22 15
f 60 58 20
f 60 20 44
f 60 44 22
