v -0.071969747 0.00026319832 -0.094219606
v -0.071722519 0.0058440868 -0.094581288
v -0.057995757 -0.032892252 -0.094587589
v -0.078746677 -0.001959041 -0.028728047
v -0.079902717 -0.012309814 0.0022289304
v -0.080955693 -0.032635821 -0.0036524656
v -0.076945132 0.0083785745 -0.019380407
v -0.065025476 0.011393396 0.042590294
v -0.075287228 -0.015840486 0.028327218
v -0.06757738 -0.056219164 0.043610507
v -0.056528625 0.010614519 0.052327944
v -0.064776875 0.020938816 0.034141387
v -0.078078221 -0.056780352 0.017710659
v -0.055969665 0.023200159 0.033941213
v -0.047811373 0.0063019701 0.054688774
v -0.051238727 -0.047200027 0.05555899
v -0.051571332 -0.051853786 0.052130046
v -0.04700477 -0.043996666 0.052883413
v -0.067299408 -0.020059642 -0.093735361
v -0.069572377 -0.014850003 -0.093593298
v -0.063217159 -0.028244975 -0.092513835
v -0.079301803 -0.058905118 -0.013914088
v -0.071922927 -0.0047733974 -0.093419661
v -0.079904151 -0.0276077 -0.021956671
v -0.061997677 0.023125579 0.033410729
v -0.067747434 0.0060597456 -0.093743603
v -0.075188204 0.0082571481 -0.050514458
v -0.076649256 0.0082293186 -0.035989237
v -0.068939195 0.012724506 0.035180401
v -0.079870359 -0.056678276 -0.011931402
v -0.074134466 -0.058366549 0.032401832
v -0.055449257 0.022131353 0.033128987
v -0.047755723 -0.03004787 -0.087062118
v -0.06225648 0.0060461492 -0.087252991
v -0.047755723 -0.030167493 -0.087414502
v -0.047755723 -0.030853327 -0.088706558
v -0.047066712 0.0049575299 0.051051585
v -0.062447072 -0.057214848 0.048369042
v -0.046587647 -0.037273127 0.0531839
v -0.048797232 -0.037049619 0.055417181
v -0.047759755 -0.058309624 -0.051829944
v -0.047755723 -0.041140837 -0.093192068
v -0.048944391 -0.048679807 0.051358233
v -0.077161347 -0.05765995 -0.023141341
v -0.079706037 -0.046464031 -0.01801023
v -0.05443789 -0.058274735 0.0086769929
v -0.06343933 0.0060461492 -0.088956167
v -0.046612856 -0.0008440932 0.051100391
v -0.05935899 -0.053396437 0.050909321
v -0.047751397 -0.036431562 -0.093834807
v -0.053542763 -0.03793575 -0.092516207
v -0.065595121 -0.057082494 -0.042574087
v -0.047759054 -0.058366818 -0.042665255
v -0.053703808 -0.054354996 0.04662115
v -0.046682828 0.0016121503 0.051115073
v -0.046599532 -0.0033162857 0.051100391
v -0.060911413 -0.058095376 -0.044727674
v -0.053581308 -0.058405083 -0.048906545
v -0.073899979 -0.057683142 -0.030896544
f 1 2 3
f 1 4 2
f 5 4 6
f 5 7 4
f 8 9 10
f 8 10 11
f 8 11 12
f 13 5 6
f 13 9 5
f 15 14 11
f 16 15 11
f 16 17 18
f 19 1 3
f 19 20 1
f 19 3 21
f 23 20 22
f 23 1 20
f 24 6 4
f 24 4 1
f 24 1 23
f 28 7 12
f 28 4 7
f 28 2 4
f 28 27 2
f 25 2 27
f 25 27 28
f 25 28 12
f 25 14 26
f 25 26 2
f 25 11 14
f 25 12 11
f 29 9 8
f 29 8 12
f 29 5 9
f 29 7 5
f 29 12 7
f 30 13 6
f 30 22 13
f 30 6 24
f 30 23 22
f 31 13 22
f 31 10 9
f 31 9 13
f 34 32 33
f 34 14 32
f 34 33 35
f 34 35 36
f 37 32 14
f 37 14 15
f 37 33 32
f 38 17 16
f 38 11 10
f 38 10 31
f 40 39 15
f 40 15 16
f 40 18 39
f 40 16 18
f 42 39 41
f 43 18 17
f 44 22 20
f 44 20 19
f 45 24 23
f 45 23 30
f 45 30 24
f 46 31 22
f 46 38 31
f 47 26 14
f 47 14 34
f 48 15 39
f 48 36 35
f 49 16 11
f 49 11 38
f 49 38 16
f 50 26 47
f 50 36 48
f 50 2 26
f 50 34 36
f 50 47 34
f 50 39 42
f 50 3 2
f 50 42 3
f 51 3 42
f 52 51 42
f 53 46 22
f 53 43 17
f 53 18 43
f 53 39 18
f 53 41 39
f 54 17 38
f 54 38 46
f 54 53 17
f 54 46 53
f 55 37 15
f 55 15 48
f 55 33 37
f 55 35 33
f 55 48 35
f 56 48 39
f 56 39 50
f 56 50 48
f 57 52 42
f 58 42 41
f 58 57 42
f 58 22 57
f 58 53 22
f 58 41 53
f 59 22 44
f 59 57 22
f 59 52 57
f 59 21 3
f 59 3 51
f 59 51 52
f 59 19 21
f 59 44 19
