v -0.037486753 0.013387966 -0.086015957
v -0.010709381 0.0079177092 -0.086016437
v -0.023319602 0.019710287 -0.086015957
v -0.016027646 0.0079177092 -0.086016599
v -0.02497877 0.020182578 -0.086015957
v -0.037486753 0.018721895 -0.086015957
v -0.037486753 0.018171703 -0.090544754
v -0.015726218 0.0079177092 -0.090544754
v -0.026889565 0.020323776 -0.086015957
v -0.029751829 0.020349337 -0.086015957
v -0.024058757 0.019084628 -0.091400409
v -0.014150925 0.013695927 -0.086016599
v -0.015112876 0.014651457 -0.086016599
v -0.037486753 0.017627598 -0.091838144
v -0.037486753 0.014530951 -0.091942304
v -0.037486753 0.013788437 -0.090544754
v -0.026889565 0.019622648 -0.090544754
v -0.036398989 0.019476581 -0.086015957
v -0.037486753 0.016232646 -0.092274604
v -0.015149571 0.0079177092 -0.091847732
v -0.014669907 0.0079177092 -0.092049669
v -0.021159798 0.018031721 -0.090544754
v -0.020011749 0.017286772 -0.091610016
v -0.019446129 0.017857344 -0.08601663
v -0.016585945 0.015110355 -0.090544754
v -0.026889565 0.016232646 -0.092544272
v -0.028320697 0.018141271 -0.092286738
v -0.021159798 0.016231429 -0.092295691
v -0.025327379 0.019230698 -0.091659854
v -0.03261409 0.019594652 -0.090544754
v -0.013267607 0.012470171 -0.086016599
v -0.011857445 0.01044469 -0.086016599
v -0.035646727 0.0198028 -0.086015957
v -0.034590416 0.020101021 -0.086015957
v -0.03261409 0.016232646 -0.092524461
v -0.015626616 0.0079177092 -0.090855961
v -0.01610628 0.015553429 -0.086016599
v -0.018211039 0.016343415 -0.090544754
v -0.023498492 0.018048762 -0.091968265
v -0.032180295 0.020317081 -0.086015957
v -0.03261409 0.018141271 -0.092265657
v -0.030467395 0.019309818 -0.091751237
v -0.012887546 0.010966885 -0.090544754
v -0.034003284 0.019214875 -0.091641961
v -0.013521856 0.0085944925 -0.092315496
v -0.033644191 0.020237351 -0.086015957
v -0.036435683 0.016232646 -0.092328919
v -0.014472668 0.012959194 -0.090544754
v -0.012434091 0.0098056414 -0.091643237
v -0.011986536 0.0079177092 -0.091664965
v -0.03586297 0.018822925 -0.090544754
v -0.03551436 0.018067021 -0.091989278
v -0.013521856 0.0079177092 -0.092297602
v -0.011275557 0.0079177092 -0.090544754
v -0.013264332 0.010041785 -0.091936875
v -0.014989683 0.01289742 -0.091799164
v -0.01783622 0.015627681 -0.091771683
v -0.017256952 0.014423834 -0.092064997
v -0.019325016 0.016250905 -0.091939751
f 3 1 2
f 4 2 1
f 8 4 1
f 18 7 6
f 33 7 18
f 40 10 30
f 17 9 5
f 17 5 29
f 17 10 9
f 17 30 10
f 12 3 2
f 12 13 3
f 12 25 13
f 11 23 29
f 11 5 3
f 11 29 5
f 36 1 16
f 36 8 1
f 44 33 34
f 46 40 30
f 46 44 34
f 46 30 44
f 48 25 12
f 22 11 3
f 22 23 11
f 22 3 24
f 22 24 23
f 37 13 25
f 37 3 13
f 37 24 3
f 38 23 24
f 38 25 57
f 38 57 23
f 38 37 25
f 38 24 37
f 54 50 49
f 54 32 2
f 54 49 32
f 45 49 50
f 28 45 26
f 20 36 16
f 20 16 15
f 20 15 21
f 14 7 44
f 51 7 33
f 51 44 7
f 51 33 44
f 42 30 17
f 42 44 30
f 42 17 29
f 41 47 19
f 41 35 47
f 41 44 42
f 43 32 49
f 43 49 48
f 43 48 12
f 56 48 49
f 56 57 25
f 56 25 48
f 53 45 50
f 53 21 15
f 53 15 19
f 53 19 47
f 53 47 35
f 53 35 26
f 53 26 45
f 59 23 57
f 39 29 23
f 39 23 59
f 39 59 28
f 52 19 14
f 52 41 19
f 52 14 44
f 52 44 41
f 27 26 35
f 27 35 41
f 27 28 26
f 27 39 28
f 27 29 39
f 27 42 29
f 27 41 42
f 31 43 12
f 31 32 43
f 31 12 2
f 31 2 32
f 55 49 45
f 55 56 49
f 55 45 56
f 58 45 28
f 58 56 45
f 58 28 59
f 58 57 56
f 58 59 57
f 46 34 33
f 46 1 3
f 46 6 1
f 46 18 6
f 46 3 5
f 46 9 10
f 46 5 9
f 46 33 18
f 46 10 40
f 14 1 6
f 14 6 7
f 14 16 1
f 14 15 16
f 14 19 15
f 53 2 4
f 53 54 2
f 53 4 8
f 53 20 21
f 53 8 36
f 53 50 54
f 53 36 20
