v -0.0066698299 -0.064663244 -0.0023862627
v 0.0050010386 -0.066458485 -0.002685632
v 0.0036872664 -0.066458485 -0.0014319103
v 0.0034644963 -0.066458485 -0.00041550689
v -0.0066698299 -0.064663244 0.00093873038
v -0.0066698299 -0.06411847 0.00097864662
v -0.0066698299 -0.062618248 0.0010025954
v -0.0066698299 -0.061674531 0.0010051357
v -0.0066698299 -0.060177666 0.001008402
v -0.0066698299 -0.052688284 0.0010214651
v -0.0066698299 -0.052079815 0.00095324559
v -0.0066698299 -0.052079815 -0.0024439594
v -0.0066698299 -0.05269164 -0.0024497653
v -0.0066698299 -0.060177666 -0.0024127525
v -0.0066698299 -0.061674531 -0.0024051323
v 0.0050010386 -0.066458485 0.00084329453
v 0.0045029475 -0.066458485 0.00071084701
v 0.0037409599 -0.066458485 0.00050001778
v 0.0036507096 -0.066458485 0.0002975355
v 0.0050010386 -0.05268661 -0.0021438647
v 0.0050010386 -0.051149509 -0.0019036434
v 0.0050010386 -0.050209148 -0.0016028225
v 0.0050010386 -0.049334156 -0.00040788617
v 0.0050010386 -0.049449817 -0.00024786044
v 0.0050010386 -0.049952686 0.00028592354
v 0.0050010386 -0.050405264 0.00057477
v 0.0050010386 -0.050921545 0.00070068604
v 0.0050010386 -0.052448586 0.00087413913
v 0.0050010386 -0.05268661 0.00087486532
v 0.0050010386 -0.054185154 0.00087704244
v 0.0050010386 -0.061676213 0.0008810337
v -0.0055971064 -0.049900721 -0.00041586998
v -0.0055971064 -0.050199093 -0.00098485229
v -0.0055971064 -0.051181359 0.00062375803
f 20 2 12
f 13 12 2
f 4 5 1
f 11 32 12
f 11 10 28
f 33 32 23
f 33 12 32
f 22 33 23
f 22 12 33
f 15 2 1
f 30 10 31
f 7 16 31
f 3 1 2
f 3 4 1
f 27 11 28
f 27 26 11
f 21 20 12
f 21 12 22
f 14 13 2
f 14 2 15
f 24 23 32
f 24 32 25
f 34 32 11
f 34 25 32
f 34 26 25
f 34 11 26
f 29 28 10
f 29 10 30
f 6 5 16
f 6 16 7
f 9 31 10
f 17 16 5
f 17 5 18
f 19 5 4
f 19 18 5
f 8 7 31
f 8 31 9
f 29 16 2
f 29 2 20
f 29 22 23
f 29 31 16
f 29 23 24
f 29 20 21
f 29 27 28
f 29 25 26
f 29 30 31
f 29 26 27
f 29 21 22
f 29 24 25
f 19 2 16
f 19 3 2
f 19 4 3
f 19 16 17
f 19 17 18
f 8 15 1
f 8 10 11
f 8 1 5
f 8 12 13
f 8 11 12
f 8 5 6
f 8 13 14
f 8 14 15
f 8 6 7
f 8 9 10
