v -0.0010260293 -0.016468684 0.0094686338
v -0.001048148 0.0066579427 0.018946579
v -0.0010498648 -0.018036164 -0.034679328
v -0.0010497955 -0.011692631 -0.034651391
v -0.0010473302 0.015148647 0.013538846
v -0.00075877065 -0.020234872 0.0032494632
v 0.011557679 -0.013114351 -0.013194436
v 0.008013537 -0.016476308 -0.034663881
v 0.011548498 -0.0047594373 -0.017748528
v 0.007238744 0.023563395 0.0034530103
v 0.0095897182 0.022651114 0.00075977935
v 0.0055731769 0.023932211 -0.0007831563
v 0.011550589 0.017732925 -0.0078374583
v 0.011315112 0.010495309 -0.017029476
v 0.0075068243 -0.0015899357 0.023619399
v 0.0090287683 0.012064115 0.02132625
v 0.0043517653 0.0042071894 0.023287233
v 0.00121035 -0.0049320645 0.021004949
v 0.010935229 0.01786372 0.01294597
v 0.011153319 0.0050986735 0.02114239
v -0.0010465575 0.018137095 -0.021965195
v -0.00078520012 0.020046684 -0.0007831563
v 0.0038290959 -0.019895499 -0.034663881
v 0.00054198101 -0.02118305 -0.023198991
v 0.0047260085 -0.023593084 0.0036822726
v 0.0059444713 -0.023815111 -0.0025384819
v 0.0076621385 -0.018220782 -0.03466532
v 0.0078930774 -0.013667352 -0.034684478
v 0.011546547 -0.015487419 0.013000556
v 0.0087816442 -0.015153657 0.019292117
v 0.0089260336 -0.023584054 0.0053179954
v 0.010660343 -0.020924952 -0.0016226382
v 0.0071965386 -0.021293326 0.010973168
v 0.004390777 -0.012766074 0.020458909
v -0.00059208961 -0.010067304 0.017060214
v 0.0080486907 0.018136772 -0.021967225
v 0.0075088984 0.020109028 -0.021957866
v 0.0080505033 -0.015121119 -0.034655488
v 0.0033938459 0.022617092 0.0045659774
v 0.010269343 0.021370017 -0.004302589
v 0.005067101 0.012805695 0.020641792
v 0.011546966 -0.0069125297 0.019052305
v 0.0017967589 0.021500458 -0.021962747
v 0.00046823549 0.02123412 -0.02196719
v 0.0054154621 0.021510362 -0.02196171
v 0.0067713361 0.021201898 -0.021961941
v 0.0039820422 -0.0094502186 -0.034663881
v -0.00026561396 0.020274278 -0.021922722
v 0.00029837605 -0.021246399 -0.011286182
v 0.011266733 -0.017184901 -0.0093768013
v -0.00090232934 0.0011400127 0.020525023
v 0.0067703554 -0.019631216 -0.034616007
v 0.0016153037 -0.01911857 0.010543558
v 0.0040202784 0.02342071 -0.0007831563
v 9.0118599e-05 0.021235704 0.0017735992
v 0.003812877 0.020244178 0.01253163
v 0.0003952011 -0.0092636857 -0.034663881
v 0.0061387096 -0.011002317 -0.034663881
v 0.0082184038 0.021125998 0.0097597072
v 0.0016163056 -0.0089868191 -0.034663881
f 51 35 18
f 9 7 8
f 10 11 12
f 13 9 14
f 13 7 9
f 4 5 21
f 4 3 2
f 4 2 5
f 20 19 16
f 20 13 19
f 20 16 15
f 50 7 29
f 50 29 32
f 50 8 7
f 24 3 23
f 24 23 26
f 24 26 25
f 24 25 49
f 52 26 23
f 54 12 44
f 22 21 5
f 34 18 35
f 34 35 53
f 34 15 18
f 6 49 25
f 6 25 53
f 6 3 24
f 6 24 49
f 17 2 51
f 17 15 16
f 17 18 15
f 17 51 18
f 36 28 37
f 36 14 28
f 36 37 13
f 36 13 14
f 38 8 28
f 38 28 14
f 38 9 8
f 38 14 9
f 40 13 37
f 40 11 19
f 40 19 13
f 57 44 60
f 57 3 4
f 57 28 3
f 57 60 28
f 42 13 20
f 42 29 7
f 42 7 13
f 42 20 15
f 27 52 23
f 27 28 8
f 27 8 50
f 27 23 3
f 27 3 28
f 27 50 32
f 27 32 52
f 43 44 12
f 43 12 45
f 43 60 44
f 43 45 60
f 46 12 11
f 46 45 12
f 46 11 40
f 46 40 37
f 46 37 28
f 46 28 58
f 48 21 22
f 48 22 44
f 48 4 21
f 48 44 57
f 48 57 4
f 55 54 44
f 55 44 22
f 55 22 5
f 55 5 56
f 33 53 25
f 33 34 53
f 1 53 35
f 1 6 53
f 1 35 51
f 1 51 2
f 1 2 3
f 1 3 6
f 41 2 17
f 41 17 16
f 41 5 2
f 41 56 5
f 41 16 56
f 47 28 60
f 47 58 28
f 47 46 58
f 47 60 45
f 47 45 46
f 39 56 10
f 39 10 12
f 39 12 54
f 39 54 55
f 39 55 56
f 59 10 56
f 59 19 11
f 59 11 10
f 59 16 19
f 59 56 16
f 30 34 33
f 30 29 42
f 30 15 34
f 30 42 15
f 31 25 26
f 31 33 25
f 31 26 52
f 31 52 32
f 31 32 29
f 31 29 30
f 31 30 33
