v -0.022624997 0.01456506 0.038077691
v -0.023554714 0.014565067 0.040227043
v -0.012583214 0.014565067 0.038077656
v -0.020727199 0.014565067 0.051190219
v -0.022826675 0.014565067 0.050983049
v -0.020768196 0.013977461 0.051305458
v -0.015444453 0.012409809 0.05084062
v -0.015404777 0.013977461 0.051113826
v -0.015332536 0.014565067 0.0508895
v -0.013774791 0.014565067 0.050584248
v -0.014488944 0.011638419 0.049835843
v -0.016171169 0.010592616 0.048195317
v -0.013860754 0.011667083 0.049033061
v -0.023882696 0.014565067 0.042065678
v -0.023465444 0.013370887 0.040532617
v -0.023036623 0.013512519 0.05078834
v -0.02376367 0.014565067 0.049727083
v -0.023538183 0.013314824 0.049727083
v -0.013678247 0.012838501 0.05067618
v -0.017702629 0.010259189 0.038077656
v -0.017702629 0.010473324 0.048195317
v -0.019235414 0.010461521 0.048195317
v -0.014638386 0.010569854 0.042065678
v -0.012015859 0.011428289 0.042544759
v -0.013105604 0.010832886 0.042065678
v -0.010489854 0.014565067 0.0411899
v -0.010619294 0.014565067 0.043067862
v -0.010635164 0.013977461 0.043049735
v -0.010721127 0.013039567 0.042943557
v -0.023625715 0.013270854 0.045609255
v -0.019179207 0.010377216 0.038077656
v -0.020768196 0.010603998 0.048195317
v -0.022066896 0.01235164 0.038077656
v -0.020768196 0.010614957 0.042065678
v -0.022207081 0.011215629 0.048195317
v -0.020670991 0.010885364 0.038077656
v -0.01079122 0.013811802 0.039757027
v -0.010752867 0.014565067 0.039707822
v -0.0127234 0.013211129 0.038077656
v -0.013232564 0.011145656 0.038077656
v -0.010588876 0.013438226 0.041339287
v -0.022344622 0.011652119 0.049727083
v -0.013680893 0.013977461 0.050672294
v -0.01356848 0.012374822 0.04961702
v -0.014638386 0.011178114 0.048195317
v -0.015404777 0.010541189 0.038077656
v -0.023873768 0.014565067 0.04757575
v -0.023182098 0.012190195 0.043214821
v -0.02298736 0.01251751 0.040094973
v -0.022505968 0.01156423 0.041299149
v -0.022188567 0.011226589 0.042065678
v -0.012573295 0.011204038 0.040532617
v -0.011191939 0.012462078 0.040401843
v -0.021212557 0.011358948 0.050125235
v -0.022970829 0.011795648 0.047428791
v -0.011168134 0.012146777 0.042065678
v -0.018469021 0.01101414 0.049727083
v -0.019044145 0.01162061 0.05053229
v -0.020001805 0.012444796 0.05092543
v -0.015726808 0.011368433 0.050120703
f 3 1 2
f 4 5 6
f 8 6 7
f 8 9 4
f 8 4 6
f 8 10 9
f 13 11 12
f 15 14 2
f 15 2 1
f 16 6 5
f 16 5 17
f 16 17 18
f 19 8 7
f 19 11 13
f 22 20 21
f 23 21 20
f 23 12 21
f 25 24 13
f 25 12 23
f 28 26 27
f 28 19 29
f 28 27 19
f 30 14 15
f 31 20 22
f 31 22 32
f 33 15 1
f 33 1 3
f 34 32 35
f 34 36 31
f 34 31 32
f 38 26 37
f 39 37 40
f 39 3 38
f 39 38 37
f 41 37 26
f 41 26 28
f 41 28 29
f 42 35 32
f 42 16 18
f 43 10 8
f 43 8 19
f 43 27 10
f 43 19 27
f 44 13 29
f 44 29 19
f 44 19 13
f 45 13 12
f 45 12 25
f 45 25 13
f 46 40 25
f 46 23 20
f 46 25 23
f 47 14 30
f 47 18 17
f 47 30 18
f 48 30 15
f 49 33 36
f 49 36 50
f 49 15 33
f 49 50 48
f 49 48 15
f 51 34 35
f 51 50 36
f 51 36 34
f 52 24 25
f 52 25 40
f 53 40 37
f 53 37 41
f 53 52 40
f 54 32 22
f 54 42 32
f 54 16 42
f 55 18 30
f 55 30 48
f 55 35 42
f 55 42 18
f 55 51 35
f 55 48 50
f 55 50 51
f 56 41 29
f 56 53 41
f 56 13 24
f 56 29 13
f 56 24 52
f 56 52 53
f 57 22 21
f 57 54 22
f 57 58 54
f 59 54 58
f 59 6 16
f 59 16 54
f 59 7 6
f 59 58 7
f 60 21 12
f 60 57 21
f 60 12 11
f 60 58 57
f 60 7 58
f 60 11 19
f 60 19 7
f 46 33 3
f 46 3 39
f 46 20 31
f 46 31 36
f 46 36 33
f 46 39 40
f 47 27 26
f 47 26 38
f 47 2 14
f 47 3 2
f 47 4 9
f 47 9 10
f 47 5 4
f 47 10 27
f 47 17 5
f 47 38 3
