v -0.01043434 -0.014375509 0.0093039305
v -0.01232657 -0.013390009 0.011029777
v -0.012342618 -0.012725447 0.0093043015
v 0.0083650704 -0.014296614 0.031567143
v -0.012191938 -0.014327816 0.028525331
v 0.0050714458 0.0031495776 0.030922029
v -0.0097457237 0.0020015476 0.032530848
v 0.006542966 0.0018131482 0.032058339
v 0.0060020035 -0.0049814568 0.032533689
v 0.014269668 -0.004658668 0.030690621
v -0.014088176 -0.0074145285 0.022417537
v -0.014788418 -0.0079452614 0.028166235
v -0.014816175 0.00058145384 0.028267419
v -0.013653276 -0.013149552 0.030557093
v -0.003751102 -0.014277115 0.031566639
v -0.014392506 -0.012747614 0.029005818
v -0.014060693 -0.013597174 0.026640686
v 0.0014180285 0.0054299792 0.025972059
v -0.0057149555 0.0051286474 0.025066677
v -0.0041316739 0.0053488151 0.027228311
v 0.010466837 0.0034371805 0.029847961
v -0.010978012 0.0017593443 0.0097159976
v -0.012228828 0.00064431268 0.0096875108
v -0.013794987 0.0029843325 0.023291299
v -0.014201147 0.0021985757 0.024518843
v -0.002277495 0.0026824503 0.0097001044
v -0.014108903 -0.0065403017 0.030211978
v -0.013879355 0.0016992974 0.029967053
v -0.012948013 0.003500362 0.02875656
v -0.0087244678 0.0042651132 0.028686925
v -0.0097484433 -0.0050323198 0.032526528
v -0.005282155 0.0040331608 0.029756729
v 0.0087685632 0.0022581115 0.0096999673
v 0.0079996946 0.0050648119 0.025562924
v 0.012008118 0.0035355987 0.020118555
v 0.013653595 0.0012620123 0.030615501
v 0.012654395 0.0039590428 0.028179026
v 0.014324968 0.0025221279 0.02770992
v 0.0065536488 0.0050157692 0.028061074
v -0.012518911 -0.00066105253 0.010487629
v 0.0036301085 0.0027279149 0.0097012751
v -0.0084950714 0.0021463091 0.0096999805
v -0.011417416 0.004397219 0.025949889
v 0.013885228 0.0021522683 0.021248328
v 0.013971971 0.00077173051 0.021198448
v 0.012428681 0.00033844509 0.009972765
v 0.011920916 0.0012749609 0.0096977755
v 0.014674129 -0.00018256757 0.029033674
v 0.014986768 -0.010909976 0.028249228
v -0.0091156323 -0.009651187 0.0093042801
v 0.013090482 -0.014091455 0.028249228
v 0.014287206 -0.013610002 0.028248311
v 0.013006844 -0.0053516212 0.013117372
v 0.010106155 -0.014214129 0.0093047425
v 0.010860375 -0.0098013665 0.0093042801
v 0.014836666 -0.012551813 0.028227274
v 0.012405173 -0.013315889 0.009305124
v 0.012501617 -0.012423507 0.0093041202
v 0.010858095 -0.014083451 0.0093046034
f 9 8 7
f 50 55 1
f 58 1 55
f 58 59 1
f 56 58 49
f 3 1 2
f 3 50 1
f 27 14 7
f 27 16 14
f 27 13 12
f 27 12 16
f 10 9 4
f 10 56 49
f 10 4 56
f 31 7 14
f 31 9 7
f 31 4 9
f 47 58 55
f 24 43 22
f 28 13 27
f 28 27 7
f 29 28 7
f 29 43 24
f 29 13 28
f 57 59 58
f 57 58 56
f 5 1 4
f 54 1 59
f 54 4 1
f 51 54 59
f 51 4 54
f 23 50 3
f 23 24 22
f 11 12 13
f 11 3 12
f 6 7 8
f 41 55 50
f 20 39 18
f 20 18 19
f 20 19 43
f 46 58 47
f 46 47 44
f 46 44 45
f 15 14 5
f 15 5 4
f 15 31 14
f 15 4 31
f 17 14 16
f 17 5 14
f 17 3 2
f 17 2 1
f 17 1 5
f 17 16 12
f 17 12 3
f 52 56 4
f 52 4 51
f 52 57 56
f 52 59 57
f 52 51 59
f 40 23 3
f 40 11 13
f 40 3 11
f 25 24 23
f 25 13 29
f 25 29 24
f 25 40 13
f 25 23 40
f 38 44 37
f 35 44 47
f 35 37 44
f 21 39 6
f 21 37 39
f 21 6 8
f 33 47 55
f 33 55 41
f 33 35 47
f 42 23 22
f 42 50 23
f 42 22 43
f 42 43 19
f 30 29 7
f 30 43 29
f 30 20 43
f 53 58 46
f 53 46 45
f 53 49 58
f 53 45 49
f 34 39 37
f 34 37 35
f 34 18 39
f 34 35 33
f 34 41 18
f 34 33 41
f 36 38 37
f 36 37 21
f 36 21 8
f 36 8 9
f 36 9 10
f 26 41 50
f 26 50 42
f 26 42 19
f 26 19 18
f 26 18 41
f 32 30 7
f 32 20 30
f 32 39 20
f 32 7 6
f 32 6 39
f 48 36 10
f 48 38 36
f 48 10 49
f 48 49 45
f 48 45 44
f 48 44 38
