v -0.024909284 0.0067254597 -0.030231866
v -0.024909181 -0.011813557 -0.12507611
v -0.024909228 -0.011813555 -0.030543247
v -0.020046261 -0.01181352 -0.005985083
v 0.020036981 -0.01181354 -0.005985064
v -0.024909181 0.0067267328 -0.12506429
v -0.022358235 0.025347047 -0.031712702
v 0.024354458 0.0067283314 -0.12506488
v 0.024354473 -0.011813557 -0.12506406
v 0.024355117 0.0066570826 -0.028955875
v 0.024002453 0.019337913 -0.047531644
v -0.0018011711 0.025347047 -0.11453775
v -0.0088367693 0.025347047 -0.11435123
v 0.014058654 0.02534712 -0.11322682
v -0.0018011711 0.025347047 -0.029917475
v 0.014059065 0.025347047 -0.030803428
v -0.022357804 0.025347045 -0.10800774
v -0.022358235 0.024261257 -0.11670018
v -0.022575234 -0.005913547 -0.0059850591
v -0.023298564 -0.0023124316 -0.0059850591
v 0.024002453 0.012412131 -0.033088261
v 0.023341813 0.0012959436 -0.0059850591
v -0.019320244 0.025347047 -0.030395427
v -0.0020272824 0.02324003 -0.0059850817
v -0.020103853 0.011575508 -0.0059850591
v -0.021854314 0.0080234979 -0.0059850591
v -0.022825989 0.0049043498 -0.0059850591
v 0.024354473 -0.011813557 -0.030780116
v 0.023288765 -0.0023124316 -0.0059850591
v -0.023342318 0.0015338066 -0.0059850462
v -0.022357105 0.021840249 -0.12229
v -0.022358235 0.019337913 -0.12391022
v -0.022358235 0.01573316 -0.12492439
v 0.022314681 -0.0066592328 -0.0059850591
v 0.0017922872 0.023237764 -0.0059853736
v 0.012660624 0.019534336 -0.0059850591
v 0.014893304 0.017952029 -0.0059850591
v 0.0084026164 0.02174593 -0.0059850591
v 0.016679933 0.016155108 -0.0059850591
v 0.018413516 0.014347275 -0.0059850591
v -0.022356454 0.023348786 -0.11976888
v 0.024002453 0.019337913 -0.12388691
v -0.022358235 0.012124769 -0.12505263
v 0.02270769 -0.0051987796 -0.0059850591
v 0.0054032041 0.022655303 -0.0059850591
v -0.00010375477 0.02324094 -0.0059850591
v 0.01988911 0.012073844 -0.0059850591
v 0.022039814 0.0076070061 -0.0059850591
v 0.0228403 0.0049043498 -0.0059850591
v 0.014059065 0.021847782 -0.12228986
v 0.024002453 0.012124769 -0.12505263
v 0.024002442 0.015729494 -0.12491276
v -0.0054081809 0.022655303 -0.0059850591
v -0.0085389984 0.021664998 -0.0059850591
v -0.01841367 0.014347275 -0.0059850591
v -0.011959147 0.01994901 -0.0059850591
v -0.014888637 0.017952029 -0.0059850591
v 0.022454525 0.0062975089 -0.0059850591
v 0.014059065 0.023360977 -0.11976022
v -0.016692144 0.016144195 -0.0059850591
f 3 1 2
f 5 4 3
f 6 2 1
f 7 6 1
f 28 5 3
f 28 2 9
f 28 3 2
f 28 9 10
f 28 10 22
f 8 9 2
f 8 2 6
f 8 10 9
f 8 11 10
f 12 13 14
f 15 16 14
f 17 14 13
f 17 7 14
f 17 13 18
f 17 18 6
f 17 6 7
f 19 3 4
f 19 20 3
f 19 4 5
f 21 10 11
f 21 22 10
f 23 7 24
f 23 24 15
f 23 14 7
f 23 15 14
f 26 25 7
f 26 7 27
f 29 28 22
f 29 44 28
f 34 5 28
f 34 28 44
f 31 32 6
f 33 6 32
f 35 16 15
f 36 37 16
f 36 16 38
f 39 16 37
f 39 11 16
f 39 40 11
f 41 6 18
f 41 31 6
f 41 18 13
f 41 13 12
f 42 11 8
f 42 14 16
f 42 16 11
f 43 8 6
f 43 6 33
f 46 15 24
f 46 35 15
f 47 11 40
f 47 48 11
f 49 21 11
f 49 22 21
f 50 32 31
f 50 42 32
f 50 31 41
f 51 8 43
f 51 43 33
f 52 33 32
f 52 32 42
f 52 51 33
f 52 42 8
f 52 8 51
f 53 46 24
f 53 24 7
f 53 7 54
f 45 35 46
f 45 38 16
f 45 16 35
f 55 7 25
f 56 54 7
f 56 7 57
f 58 11 48
f 58 49 11
f 59 41 12
f 59 50 41
f 59 12 14
f 59 14 42
f 59 42 50
f 60 57 7
f 60 7 55
f 30 39 37
f 30 20 19
f 30 25 26
f 30 37 36
f 30 29 22
f 30 26 27
f 30 53 54
f 30 44 29
f 30 34 44
f 30 36 38
f 30 47 40
f 30 40 39
f 30 38 45
f 30 22 49
f 30 55 25
f 30 48 47
f 30 54 56
f 30 46 53
f 30 45 46
f 30 58 48
f 30 56 57
f 30 49 58
f 30 60 55
f 30 57 60
f 30 19 5
f 30 5 34
f 30 1 3
f 30 3 20
f 30 7 1
f 30 27 7
