v -0.010143195 -0.004986669 0.031568676
v -0.0053144545 0.0019849427 0.032533205
v 0.0066819486 -0.0049866558 0.031568679
v 0.0083689769 -0.014311149 0.031568682
v -0.0052330084 -0.013793373 0.031568679
v 0.0083689426 -0.0059526726 0.031568679
v 0.0049170383 0.0015886418 0.032533181
v -0.0066853455 -0.012443345 0.031568679
v -0.0097848103 -0.0077298227 0.031568679
v -0.010106445 -0.0063135321 0.031568679
v -0.0092366736 -0.0072524035 0.035392241
v -0.003659354 -0.014303886 0.031568712
v -0.0037534921 -0.014284364 0.034402329
v -0.0050581491 -0.013728706 0.034402329
v 0.0083688135 -0.014318892 0.0343542
v 0.0083689377 -0.012434242 0.037291688
v -0.0022205206 -0.013562647 0.03697904
v 0.0083689426 -0.013559452 0.036970567
v -0.0022205206 -0.01167692 0.037314469
v -0.0037534921 -0.013666434 0.036392038
v -0.0045380981 -0.013228932 0.036714763
v -0.0076275981 -0.007102311 0.036713065
v -0.0062504601 -0.012866476 0.031568679
v -0.0047863453 -0.013478021 0.035933786
v -0.0022205206 -0.014113516 0.035933786
v 0.0083689426 -0.0074967019 0.036959417
v 0.0083689426 -0.0070033148 0.036780266
v -0.0037534921 -0.012443345 0.037029862
v -0.0076076655 -0.0024670283 0.03670742
v -0.006052949 -0.00014380032 0.035159586
v -0.0082083505 -0.0012199901 0.035666683
v -0.0093829942 0.00028491948 0.032533181
v -0.0089884265 -0.00028989963 0.034283176
v -0.0076647433 0.0016469238 0.032533181
v -0.0056692531 -0.0016782488 0.03636592
v -0.0029861001 -0.00043520155 0.035671481
v -0.0037516797 0.00033042592 0.034817945
v -0.0085055229 -0.0051646906 0.036334718
v 0.0083689426 -0.014102338 0.035933786
v 0.0051181731 0.0014018266 0.032533181
v 0.0056998325 0.00026336318 0.032533181
v 0.0083689426 -0.0067159062 0.035933786
v 0.0039077415 0.00059149141 0.034438468
v 0.0083689382 -0.010896761 0.037337643
v 0.0083688969 -0.0094481128 0.037337882
v -0.0022205206 -0.0093792366 0.037334799
v 0.0045093333 -0.0028358712 0.036683137
v 0.0039349222 -0.0011337663 0.03604475
v 0.0034891641 -0.0023935798 0.036728314
v 0.0049351585 -0.00065794354 0.035443626
v -0.0078649722 0.00070246426 0.03379528
v 0.0023747702 -0.00040406397 0.03569887
v -0.0077390365 -0.0051646906 0.036749207
v -0.0095877532 -0.0024498654 0.033968357
v -0.0092638545 -0.0020055775 0.035419344
v 0.0048608652 0.00076473662 0.03387829
v 0.0042538381 0.0017674751 0.032533181
v 0.0004594617 -0.0023664369 0.036735232
v 0.00065108325 -0.0015988125 0.0364598
v -0.0093327107 -0.0051646906 0.035568427
f 3 1 2
f 6 4 5
f 6 1 3
f 6 5 1
f 6 3 7
f 8 9 1
f 10 1 9
f 11 9 8
f 11 10 9
f 12 5 4
f 12 13 5
f 14 5 13
f 14 11 8
f 15 12 4
f 15 13 12
f 16 17 18
f 19 17 16
f 20 17 21
f 22 11 21
f 23 5 14
f 23 14 8
f 23 1 5
f 23 8 1
f 25 13 15
f 25 20 13
f 25 17 20
f 25 18 17
f 26 18 4
f 26 4 27
f 42 4 6
f 42 27 4
f 28 21 17
f 28 17 19
f 28 22 21
f 28 19 22
f 24 14 13
f 24 13 20
f 24 20 21
f 24 21 11
f 24 11 14
f 31 29 30
f 34 32 33
f 34 2 1
f 34 1 32
f 35 30 29
f 35 36 30
f 37 2 30
f 37 30 36
f 38 11 22
f 39 18 25
f 39 25 15
f 39 4 18
f 39 15 4
f 44 16 18
f 44 18 26
f 44 26 45
f 44 19 16
f 44 45 46
f 44 46 19
f 47 26 27
f 47 48 49
f 47 49 45
f 47 45 26
f 47 50 48
f 47 27 50
f 41 27 42
f 41 42 6
f 43 2 37
f 51 33 31
f 51 34 33
f 51 31 30
f 51 30 2
f 51 2 34
f 52 48 50
f 52 50 43
f 52 37 36
f 52 43 37
f 53 29 38
f 53 38 22
f 53 46 29
f 53 22 19
f 53 19 46
f 54 32 1
f 55 31 33
f 55 29 31
f 55 38 29
f 55 33 32
f 55 32 54
f 40 27 41
f 40 6 7
f 40 41 6
f 56 43 50
f 56 40 7
f 56 50 27
f 56 27 40
f 57 2 43
f 57 3 2
f 57 7 3
f 57 56 7
f 57 43 56
f 58 29 46
f 58 45 49
f 58 46 45
f 59 36 35
f 59 52 36
f 59 35 29
f 59 29 58
f 59 58 49
f 59 49 48
f 59 48 52
f 60 54 1
f 60 55 54
f 60 1 10
f 60 10 11
f 60 11 38
f 60 38 55
