v 0.00030345696 -0.074669489 -0.013434536
v 0.00030333334 -0.077951614 -0.013434178
v -0.0055964847 -0.018846703 -0.0023676544
v -0.0055964573 -0.034816347 -0.0022905186
v 0.0087458765 -0.065615127 -0.015935764
v 0.01259467 -0.065620135 -0.015934311
v 0.0097180104 -0.018854933 -0.015935764
v 0.013086925 -0.018854933 -0.015935764
v -0.0055964573 -0.036196206 -0.002098381
v -0.00033696277 -0.077716036 -0.011182058
v -0.0055964573 -0.037568314 -0.0016746472
v -0.00030816603 -0.076672332 -0.0020517509
v 0.0095521531 -0.021975123 -0.015935764
v 0.012776887 -0.063341151 -0.015935495
v -0.00033696277 -0.073661728 0.001589987
v 0.0092578289 -0.0017539703 0.0014441683
v 0.0077600429 0.0012471363 0.0014235626
v -0.0053126779 0.00068016358 0.00084030544
v -0.0055964573 -0.034641925 0.00083001186
v -0.0055964573 -0.036072172 0.00075795933
v 0.0026443925 -0.077551306 -0.013434536
v 0.0085234548 -0.073844628 -0.013434536
v 0.010818732 -0.070035962 -0.0096093291
v 0.0087340275 -0.072535805 -0.0068190893
v 0.0099006422 -0.065398946 0.00062857722
v 0.010278502 0.0001305235 0.0008173404
v 0.013002558 -0.036986911 -0.015935764
v 0.01399195 -0.006242392 -0.0082468038
v 0.012736036 -0.060173208 -0.0094013492
v -0.0053126779 0.00068016358 -0.002275079
v 0.0081859886 0.0012460576 -0.011393068
v 0.0077603202 0.0012460576 -0.011290136
v 0.01157971 0.0012460576 -0.0044724453
v -0.0055964573 -0.019723159 0.00083344303
v -0.00031581863 -0.075095968 0.0009718567
v -0.0055964573 -0.038405531 -0.0004171709
v 0.0060985274 -0.074689174 -0.005595602
v 0.00027086063 -0.073661728 0.001589987
v 0.0077593616 -0.067060881 0.0015719748
v 0.0092578289 -0.052258638 0.0011003139
v 0.010214383 -0.018126243 0.00071056894
v 0.010441839 0.0012460576 0.00015152362
v 0.013086925 -0.019141757 -0.015935764
v 0.01190753 -0.065433742 -0.0087597579
v 0.012563468 -0.058677067 -0.0079019844
v 0.0066041131 0.0012460576 -0.0106837
v 0.013917423 -0.0046903494 -0.0082462711
v -0.0055964573 -0.037483043 0.00055552864
v 0.0027539252 -0.076830728 -0.008772369
v 0.0098686487 -0.068772141 -0.0021947712
v 0.006682488 -0.072317236 0.00049998901
v 0.010776234 -0.064246413 -0.0025119149
v 0.002929849 0.0012383089 -7.2837023e-07
v 0.012828999 0.001245093 -0.011392215
v 0.013986197 -0.0060951065 -0.0082468038
v 0.0055130986 -0.071409764 0.0015410947
v 0.0088439049 -0.06855266 0.00065272398
v 0.0032697125 -0.074090997 0.00090742484
f 30 46 7
f 5 6 2
f 4 3 2
f 1 30 7
f 1 5 2
f 1 2 3
f 1 3 30
f 18 30 3
f 31 8 7
f 14 6 5
f 9 4 2
f 9 2 10
f 9 10 11
f 9 11 3
f 9 3 4
f 12 10 2
f 21 2 6
f 21 6 22
f 21 12 2
f 23 22 6
f 23 24 22
f 40 25 16
f 41 25 28
f 13 1 7
f 13 5 1
f 17 15 16
f 17 18 15
f 17 33 31
f 55 28 8
f 55 8 47
f 26 17 16
f 26 55 47
f 26 28 55
f 26 41 28
f 26 16 25
f 26 25 41
f 32 7 46
f 32 31 7
f 32 46 17
f 32 17 31
f 54 47 8
f 54 8 31
f 54 33 47
f 54 31 33
f 27 14 5
f 27 28 14
f 29 6 14
f 29 14 28
f 37 22 24
f 37 21 22
f 53 17 46
f 53 18 17
f 53 46 30
f 53 30 18
f 19 20 15
f 19 3 20
f 36 11 10
f 36 10 12
f 36 3 11
f 42 47 33
f 42 26 47
f 42 33 17
f 42 17 26
f 43 8 28
f 43 28 27
f 44 23 6
f 44 6 29
f 45 28 25
f 45 29 28
f 39 25 40
f 39 40 16
f 51 37 24
f 49 12 21
f 49 37 12
f 49 21 37
f 34 15 18
f 34 19 15
f 34 18 3
f 34 3 19
f 35 36 12
f 52 25 44
f 52 44 29
f 52 45 25
f 52 29 45
f 50 24 23
f 50 51 24
f 50 44 25
f 50 23 44
f 58 12 37
f 58 37 51
f 58 35 12
f 58 51 56
f 48 36 35
f 48 20 3
f 48 3 36
f 48 15 20
f 48 35 15
f 57 50 25
f 57 51 50
f 57 25 39
f 57 39 56
f 57 56 51
f 38 56 39
f 38 16 15
f 38 39 16
f 38 58 56
f 38 15 35
f 38 35 58
f 43 13 7
f 43 7 8
f 43 5 13
f 43 27 5
