v -0.026623059 -0.02828448 0.021549758
v -0.036857269 0.013641898 0.022585416
v -0.026622864 -0.033868906 0.023598887
v -0.041134084 0.014076099 -0.15709163
v -0.043856818 0.014076533 -0.12222894
v -0.033611135 0.014079919 -0.14960864
v -0.036859515 0.014076538 -0.12223053
v -0.036522257 0.013641898 0.020316844
v -0.026629702 -0.03976807 0.022373296
v -0.026629288 -0.041444306 -0.028355672
v -0.037227901 -0.030704324 0.021979055
v -0.049743057 0.000205167 -0.015372487
v -0.048862388 0.00047041178 -0.068718337
v -0.049283339 -0.0042245088 -0.039622881
v -0.038417587 -0.031880872 -0.060095508
v -0.032826925 -0.037609606 -0.027657891
v -0.041043379 -0.028348787 -0.0069754375
v -0.039860824 0.01364189 0.023753339
v -0.044345992 -0.0069952645 0.024055593
v -0.048009869 -0.0035657335 0.022434282
v -0.042521575 0.013641818 0.023425509
v -0.046298647 0.013640646 0.021923257
v -0.047646224 0.013641898 -0.012107676
v -0.047347182 0.013641898 0.00058210142
v -0.048146011 0.0060826181 0.01898065
v -0.030954796 -0.037176958 0.021719226
v -0.044256754 -0.014187376 -0.11812324
v -0.042072462 -0.024459457 -0.090132773
v -0.046499608 -0.012513806 -0.088372918
v -0.038059826 -0.024094915 -0.15235518
v -0.046378646 0.0059727067 -0.10967541
v -0.042445131 0.00025621486 -0.15711058
v -0.045924696 -0.00376943 -0.11734261
v -0.042231938 -0.010557383 -0.15251527
v -0.046201394 -0.018104693 -0.052964502
v -0.03642192 -0.03039389 -0.11920652
v -0.029563962 -0.038058861 -0.091543081
v -0.026629291 -0.022552719 -0.15244852
v -0.048776275 -0.0079169781 0.0010363901
v -0.046350881 -0.017563066 -0.0046417943
v -0.046106334 -0.016114033 0.01520199
v -0.047719294 0.013641898 -0.026933101
v -0.047162818 0.013641898 -0.060549508
v -0.043716826 -0.019201544 0.02268183
v -0.048501179 0.008464253 -0.00047796163
v -0.039960833 -0.019179865 -0.15237946
v -0.048193147 0.008464253 -0.063925767
v -0.048637051 -0.0041336068 -0.070006169
v -0.043772263 -0.023857975 -0.042207568
v -0.034063619 -0.030145495 -0.1524544
v -0.029583277 -0.03407708 -0.15244645
v -0.034051627 -0.034354638 -0.10233471
v -0.02662925 -0.0356728 -0.15242622
v -0.048276823 -0.011560567 -0.037685502
v -0.041863577 -0.025536574 0.012290817
v -0.04893811 0.0083062714 -0.03832617
v -0.046330188 0.012486152 -0.090591628
v -0.0322413 0.0063508177 -0.157092
v -0.033630811 0.014076538 -0.157092
v -0.033499704 5.902891e-05 -0.15708779
f 1 2 3
f 4 5 6
f 7 6 5
f 8 1 6
f 8 2 1
f 8 6 7
f 8 7 2
f 9 10 3
f 9 3 11
f 14 12 13
f 17 15 16
f 18 3 2
f 18 19 3
f 18 2 7
f 18 7 5
f 21 20 19
f 21 22 20
f 21 19 18
f 21 5 22
f 21 18 5
f 24 5 23
f 24 22 5
f 25 12 20
f 25 20 22
f 25 22 24
f 26 9 11
f 26 11 17
f 26 17 16
f 26 10 9
f 26 16 10
f 27 28 29
f 27 30 28
f 31 4 32
f 31 5 4
f 33 27 29
f 33 34 27
f 33 13 31
f 33 32 34
f 33 31 32
f 49 17 40
f 49 28 15
f 49 15 17
f 36 15 28
f 36 28 30
f 37 10 16
f 53 3 10
f 53 10 37
f 53 37 51
f 53 51 32
f 39 12 14
f 39 40 41
f 39 20 12
f 39 41 20
f 54 40 39
f 54 39 14
f 42 23 5
f 42 5 43
f 44 20 41
f 44 19 20
f 44 3 19
f 44 11 3
f 45 24 23
f 45 25 24
f 45 12 25
f 46 30 27
f 46 27 34
f 46 32 30
f 46 34 32
f 47 31 13
f 48 33 29
f 48 13 33
f 48 14 13
f 48 29 54
f 48 54 14
f 50 36 30
f 50 30 32
f 50 32 51
f 52 51 37
f 52 50 51
f 52 36 50
f 52 15 36
f 52 16 15
f 52 37 16
f 38 6 1
f 38 1 3
f 38 3 53
f 58 38 53
f 35 54 29
f 35 29 28
f 35 28 49
f 35 49 40
f 35 40 54
f 55 44 41
f 55 40 17
f 55 41 40
f 55 17 11
f 55 11 44
f 56 42 43
f 56 43 47
f 56 12 45
f 56 13 12
f 56 47 13
f 56 23 42
f 56 45 23
f 57 5 31
f 57 31 47
f 57 43 5
f 57 47 43
f 59 32 4
f 59 58 32
f 59 4 6
f 59 6 38
f 59 38 58
f 60 53 32
f 60 32 58
f 60 58 53
