v 0.0233752 -0.031947274 0.022756213
v 0.01596445 0.030558883 -0.16802808
v 0.013488722 -0.031716948 -0.16782854
v 0.034590821 -0.038669303 -0.21090438
v 0.03908595 -0.017324204 -0.20226607
v 0.038290911 -0.034458955 -0.19896168
v 0.03934144 0.00091494235 -0.20353265
v 0.016149058 -0.00018932081 -0.23088663
v 0.039542717 0.018597799 -0.19413229
v 0.037817537 0.030563975 -0.20384467
v 0.050238232 7.5178437e-05 -0.038978083
v 0.050114086 0.0038753359 -0.034937352
v 0.050351629 -0.0038910891 -0.015604202
v 0.013928891 -0.035988865 -0.16782854
v 0.015612313 -0.038675101 -0.16782854
v 0.023373554 -0.042269535 0.020263691
v 0.032029726 -0.039247107 -0.20459554
v 0.027902707 -0.03923097 -0.21365557
v 0.019399748 -0.039250162 -0.22176893
v 0.01790901 0.027197395 -0.2292425
v 0.049987944 0.0047948266 -0.010961096
v 0.037656706 0.010632934 0.022516776
v 0.047565592 -0.016133429 -0.022320088
v 0.049152955 -0.0097571494 -0.031772154
v 0.016147703 -0.039152977 -0.2215323
v 0.016147703 -0.039116771 -0.2247251
v 0.023377736 -0.043405069 -0.020301839
v 0.023403162 -0.04309593 0.0033532995
v 0.023381108 -0.036695499 0.023928597
v 0.032745049 -0.036021643 0.021519284
v 0.023373062 -0.043165322 -0.041783429
v 0.035702002 -0.038660622 -0.1940323
v 0.027096238 0.030558883 -0.20399689
v 0.016152357 -0.038178474 -0.22917385
v 0.02825906 -0.035708141 -0.2210463
v 0.033086409 -0.0029354637 -0.21710804
v 0.039420975 -0.030934971 -0.018490644
v 0.044931593 -0.022104798 -0.015764842
v 0.042328802 -0.025965179 0.0013446713
v 0.04691603 -0.017178061 -0.0038782392
v 0.049507478 -0.0056490881 0.00029330561
v 0.049658514 0.0024261758 0.0051869298
v 0.047785989 -0.014795819 -0.033269786
v 0.037974602 -0.035765552 -0.19584904
v 0.026403006 -0.042015816 -0.013295589
v 0.040491754 0.010632934 0.023664187
v 0.030601168 0.030558887 -0.16802815
v 0.045085683 0.010632934 0.022828576
v 0.047114867 0.010627098 0.01963785
v 0.048424724 -0.0019018921 0.023412323
v 0.024283877 -0.0076434969 -0.22630348
v 0.031026944 0.026785289 -0.21922684
v 0.033801182 -0.036973577 -0.0184657
v 0.037239599 -0.033594489 -0.018407917
v 0.038638806 0.030559663 -0.19629181
v 0.038587766 0.030558177 -0.19194149
v 0.030895184 -0.039083881 -0.0058748086
v 0.036090063 0.030558883 -0.18083667
v 0.041651845 -0.023192956 0.02405975
v 0.038409225 0.030562613 -0.18906297
f 1 2 3
f 6 4 5
f 7 5 4
f 8 3 2
f 9 7 10
f 11 5 7
f 11 6 5
f 11 7 9
f 11 12 13
f 16 14 15
f 16 3 14
f 17 18 4
f 19 4 18
f 34 3 8
f 34 14 3
f 34 26 14
f 34 4 19
f 34 19 26
f 20 8 2
f 21 13 12
f 22 2 1
f 24 13 23
f 24 11 13
f 24 6 11
f 25 14 26
f 25 15 14
f 25 27 15
f 28 15 27
f 28 16 15
f 29 1 3
f 29 3 16
f 29 22 1
f 30 29 16
f 31 17 4
f 31 32 27
f 31 4 32
f 31 18 17
f 31 19 18
f 31 26 19
f 31 27 25
f 31 25 26
f 35 4 34
f 33 2 10
f 33 10 20
f 33 20 2
f 37 38 39
f 40 39 38
f 40 38 23
f 40 23 13
f 40 13 41
f 42 41 13
f 42 13 21
f 43 6 24
f 43 24 23
f 44 4 6
f 44 32 4
f 44 23 38
f 44 37 32
f 44 38 37
f 44 6 43
f 44 43 23
f 45 27 32
f 45 28 27
f 46 22 29
f 46 2 22
f 46 47 2
f 46 48 47
f 49 42 21
f 49 47 48
f 50 48 46
f 50 49 48
f 50 40 41
f 50 41 42
f 50 42 49
f 36 7 4
f 36 4 35
f 54 53 32
f 54 32 37
f 54 30 53
f 54 39 30
f 54 37 39
f 55 21 12
f 55 12 11
f 55 49 21
f 55 56 49
f 55 11 9
f 55 9 10
f 57 32 53
f 57 45 32
f 57 53 30
f 57 30 16
f 57 16 28
f 57 28 45
f 58 47 49
f 59 39 40
f 59 40 50
f 59 30 39
f 59 29 30
f 59 46 29
f 59 50 46
f 51 8 20
f 51 36 35
f 51 34 8
f 51 35 34
f 52 20 10
f 52 10 7
f 52 7 36
f 52 51 20
f 52 36 51
f 60 49 56
f 60 58 49
f 60 55 10
f 60 56 55
f 60 47 58
f 60 10 2
f 60 2 47
