v -0.02308223 -0.013909995 -0.086015855
v -0.010523946 -0.0084206206 -0.08601596
v -0.016027012 0.0079157141 -0.086016589
v -0.010709375 0.0079157141 -0.086016589
v -0.013520164 0.0028645106 -0.09248574
v -0.02308223 -0.016230977 -0.092341981
v -0.013520164 0.0079157141 -0.092297649
v -0.013676171 -0.013460353 -0.086015954
v -0.01493968 -0.014812008 -0.086015954
v -0.013520164 -0.0028652121 -0.09248384
v -0.014667343 0.0079157141 -0.092050028
v -0.015148809 0.0079157141 -0.091847375
v -0.0093577743 0.0028645106 -0.086016589
v -0.0093461753 -0.00036990174 -0.086016589
v -0.0094855383 0.004773521 -0.086016589
v -0.0098854671 0.006684041 -0.086016596
v -0.01243216 -0.0098038855 -0.091643451
v -0.012603632 -0.010486444 -0.090544675
v -0.02308223 -0.018805042 -0.090673236
v -0.020010533 -0.017286451 -0.09161115
v -0.02308223 -0.019591264 -0.086015954
v -0.019447032 -0.017857268 -0.086015954
v -0.01352151 -0.0085922423 -0.092316017
v -0.011611786 -0.0014334546 -0.092379663
v -0.010611198 -0.0058835486 -0.091556692
v -0.012656082 -0.0090257409 -0.091932715
v -0.010471332 -0.0047742223 -0.091707417
v -0.02308223 -0.014906247 -0.091837244
v -0.015624895 0.0079157141 -0.090854997
v -0.015725761 0.0079157141 -0.090544675
v -0.02308223 -0.016220205 -0.09233881
v -0.02308223 -0.014394665 -0.090544675
v -0.011275568 0.0079157141 -0.090544675
v -0.0093887076 -0.0039072247 -0.086016589
v -0.0099051396 -0.0028652121 -0.090544045
v -0.0094855383 -0.0047742223 -0.086016589
v -0.0099051396 0.0028645106 -0.090544675
v -0.022112573 -0.0177563 -0.091914821
v -0.019324648 -0.016249822 -0.09194047
v -0.020643299 -0.01811306 -0.088280317
v -0.016322886 -0.016020956 -0.086015954
v -0.016585136 -0.015108186 -0.090544675
v -0.011611786 -0.0047742223 -0.092232418
v -0.010324741 -0.0013193582 -0.091854816
v -0.010404088 0.003819016 -0.091777399
v -0.011611786 0.0028645106 -0.092371111
v -0.011570768 0.0056782138 -0.092088974
v -0.0096133015 -0.0058081574 -0.086016589
v -0.011985326 0.0079157141 -0.09166451
v -0.010196977 0.004773521 -0.090544675
v -0.014471664 -0.012958867 -0.090544675
v -0.014990114 -0.012896266 -0.091798291
v -0.016287919 -0.013465738 -0.092066181
v -0.021157712 -0.016230977 -0.092297013
v -0.02308223 -0.018005358 -0.091930339
v -0.019023731 -0.016861029 -0.090544675
v -0.010195633 -0.0047742223 -0.090544045
v -0.010611198 0.0058828468 -0.091557322
v -0.017833181 -0.015625154 -0.091773278
v -0.023067435 -0.016230977 -0.092341981
f 7 5 6
f 13 2 14
f 1 2 3
f 20 21 19
f 18 17 2
f 10 6 5
f 11 6 12
f 11 7 6
f 4 3 2
f 37 13 14
f 37 14 35
f 40 21 20
f 8 2 1
f 8 1 9
f 8 18 2
f 26 17 52
f 26 52 23
f 24 23 10
f 24 10 5
f 25 2 17
f 25 17 26
f 25 26 27
f 29 12 28
f 29 28 30
f 31 12 6
f 31 28 12
f 32 3 30
f 32 30 28
f 32 1 3
f 16 4 2
f 33 4 16
f 34 35 14
f 34 36 35
f 34 14 2
f 34 2 36
f 41 20 56
f 41 9 1
f 38 19 55
f 38 20 19
f 51 8 9
f 51 18 8
f 51 17 18
f 51 52 17
f 43 26 23
f 43 27 26
f 43 23 24
f 44 35 27
f 44 27 43
f 44 43 24
f 44 45 37
f 44 37 35
f 46 5 7
f 46 24 5
f 46 7 47
f 46 47 45
f 46 45 44
f 46 44 24
f 48 35 36
f 48 36 2
f 48 2 25
f 15 2 13
f 15 16 2
f 15 13 37
f 50 15 37
f 50 16 15
f 49 47 7
f 22 40 20
f 22 20 41
f 22 21 40
f 22 1 21
f 22 41 1
f 54 38 55
f 54 10 23
f 42 59 52
f 42 52 51
f 42 51 9
f 42 9 41
f 42 41 56
f 42 56 20
f 42 20 59
f 57 35 48
f 57 48 25
f 57 27 35
f 57 25 27
f 58 45 47
f 58 47 49
f 58 49 33
f 58 37 45
f 58 50 37
f 58 33 16
f 58 16 50
f 60 55 6
f 60 54 55
f 60 6 10
f 60 10 54
f 39 38 54
f 39 20 38
f 39 59 20
f 53 23 52
f 53 54 23
f 53 39 54
f 53 52 59
f 53 59 39
f 32 55 19
f 32 19 21
f 32 21 1
f 32 31 6
f 32 6 55
f 32 28 31
f 49 30 3
f 49 11 12
f 49 3 4
f 49 7 11
f 49 12 29
f 49 29 30
f 49 4 33
