v -0.026798623 0.0021635713 0.030600618
v -0.026249982 0.0056950166 0.0010427201
v -0.026815797 -0.00068151373 0.0012647909
v -0.025950423 0.0071859188 0.023063957
v 0.027022277 -0.00011860017 0.0016530945
v 0.022073143 -0.0081920931 -0.0059855219
v 0.022888327 0.0058993698 -0.0059855575
v -0.020792491 0.011160668 -0.0059875832
v 0.016542212 0.016162871 -0.005985059
v 0.010670019 0.020404095 0.03198505
v 0.014124617 -0.019504666 0.031982072
v 0.024007342 0.0037855186 0.031961453
v 0.021258343 0.016416278 0.030412614
v -3.1048955e-05 -0.026909574 0.030318619
v -0.010270267 -0.020675254 0.031980829
v 0.0082283844 -0.025656687 0.029503469
v 0.0064709182 0.022665916 -0.0059850432
v -0.011400028 0.021069342 -0.0058117762
v 0.010922624 0.024740994 0.0010916304
v 0.0036304905 0.026536937 0.0022437607
v -0.0034648263 0.026559933 0.0015980042
v -0.020103513 0.017956462 0.00094150411
v 0.0026372262 -0.026729445 0.0011944174
v 0.01001586 -0.024774273 0.0019483108
v 0.016936583 0.021025552 0.029470632
v 0.026617877 0.0030932521 0.028194021
v 0.026779515 -0.0023680366 0.030435358
v 0.02222624 0.014761959 0.0016361037
v -0.02094105 0.017084316 0.030265297
v -0.0087189762 0.021738918 0.031979453
v -0.011975297 0.0243429 0.029511313
v -0.024950321 0.00082955689 0.031972837
v 0.025771866 -0.0080636494 0.0011890739
v 0.021973185 -0.015603099 0.0012091812
v 0.017663205 -0.020274115 3.9712537e-05
v 0.023311418 -0.01336306 0.030458953
v -0.020291533 -0.017809548 0.029934826
v -0.025576456 -0.0088813603 0.0015803564
v -0.020618594 -0.01729772 0.00022988176
v -0.023322763 0.013178489 0.0030313875
v -0.011659775 0.024564343 0.002679055
v 0.0037690728 -0.023527653 -0.005985128
v -0.0097543029 -0.020884663 -0.0059850579
v -0.022949011 -0.0032077448 -0.005985059
v -0.012121905 -0.023992427 0.0010603846
v -0.0050300546 0.026381266 0.030489282
v 0.0078571385 0.025620412 0.029253152
v 0.023927274 0.012250768 0.030335176
v 0.018003993 0.020117896 0.0016344857
v 0.025505786 0.0089481835 0.0019024502
v 0.025866227 -0.0071702808 0.028194021
v 0.016448496 -0.021746845 0.029674625
v -0.025539137 -0.0088190673 0.029975179
v -0.019429438 -0.012819691 0.031980734
v 0.013893478 -0.01851674 -0.0059850268
v -0.018743319 -0.01425314 -0.0059851111
v -0.0040394795 -0.026555563 0.0002594408
v -0.0088352896 -0.025467533 0.030019174
v -0.015226631 -0.022248807 0.030323823
v -0.02679662 -0.0023046062 0.028194021
f 1 2 3
f 1 4 2
f 7 5 6
f 7 8 9
f 7 6 8
f 12 10 11
f 12 13 10
f 15 14 11
f 15 11 10
f 16 11 14
f 17 9 8
f 17 8 18
f 17 19 9
f 17 20 19
f 17 18 21
f 17 21 20
f 22 18 8
f 23 16 14
f 23 24 16
f 25 10 13
f 26 27 5
f 28 7 9
f 29 30 31
f 29 32 30
f 29 1 32
f 29 4 1
f 29 31 22
f 33 6 5
f 33 34 6
f 33 5 27
f 35 6 34
f 36 27 12
f 36 12 11
f 36 34 33
f 37 38 39
f 54 10 30
f 54 15 10
f 54 30 32
f 40 8 2
f 40 22 8
f 40 2 4
f 40 4 29
f 40 29 22
f 41 21 18
f 41 18 22
f 41 22 31
f 42 8 6
f 42 43 8
f 42 24 23
f 42 35 24
f 44 38 3
f 44 3 2
f 44 2 8
f 45 39 43
f 46 20 21
f 46 21 41
f 46 41 31
f 46 30 10
f 46 31 30
f 47 19 20
f 47 25 19
f 47 20 46
f 47 10 25
f 47 46 10
f 48 13 12
f 48 28 13
f 48 12 27
f 48 27 26
f 49 9 19
f 49 28 9
f 49 19 25
f 49 25 13
f 49 13 28
f 50 5 7
f 50 7 28
f 50 28 48
f 50 26 5
f 50 48 26
f 51 33 27
f 51 27 36
f 51 36 33
f 52 11 16
f 52 36 11
f 52 16 24
f 52 24 35
f 52 35 34
f 52 34 36
f 53 38 37
f 53 32 1
f 53 54 32
f 53 37 54
f 55 6 35
f 55 42 6
f 55 35 42
f 56 43 39
f 56 39 38
f 56 38 44
f 56 8 43
f 56 44 8
f 57 43 42
f 57 45 43
f 57 42 23
f 57 23 14
f 58 14 15
f 58 57 14
f 58 45 57
f 59 37 39
f 59 39 45
f 59 45 58
f 59 58 15
f 59 15 54
f 59 54 37
f 60 3 38
f 60 38 53
f 60 1 3
f 60 53 1
