v -0.00028660685 -0.021595857 0.070718293
v 0.018969854 -0.024471411 0.070718293
v -0.00028660685 -0.030938542 0.070718293
v 0.018969896 -0.010671585 0.070718293
v -0.00028660685 -0.024639969 0.076877602
v 0.018969896 -0.018501143 0.077630401
v 0.018969896 -0.017136849 0.077641587
v 0.014441103 -0.020534685 0.077642439
v 0.0069708668 -0.030150227 0.070718293
v 0.00992786 -0.029315278 0.070718293
v -0.00028660685 -0.027979759 0.077367718
v -0.00028660434 -0.026176261 0.077581397
v 0.0179935 -0.014408262 0.076284454
v 0.018969896 -0.014100675 0.076574586
v 0.010456113 -0.029128743 0.073076842
v 0.0081239758 -0.029876873 0.07352815
v 0.0054172084 -0.026175916 0.077636845
v 0.018969896 -0.015336974 0.077273831
v -0.00028660685 -0.029323215 0.076664069
v 0.0018056717 -0.029295436 0.076637972
v 0.0037848543 -0.030716286 0.074489397
v 0.00992786 -0.029098975 0.074792413
v 0.018051932 -0.021663329 0.077288742
v 0.018969896 -0.023127525 0.075863336
v 0.004115307 -0.030670643 0.071082278
v 0.0058846721 -0.029018609 0.076366137
v 0.0063200928 -0.027979759 0.077018604
v 0.0084594951 -0.028717966 0.0760438
v 0.0093044174 -0.027744606 0.076640679
v 0.0018056717 -0.030197359 0.075533345
v -0.00028660685 -0.030417629 0.075282186
v 0.01546156 -0.026808451 0.070718293
v 0.013537512 -0.027836881 0.070718293
v 0.017526977 -0.025520063 0.070718293
v 0.0081239758 -0.029874887 0.071722925
v 0.017149047 -0.017150741 0.077537874
v 0.0022571138 -0.027979759 0.077310949
v 0.0081239758 -0.026175916 0.07756024
v 0.018969896 -0.024150809 0.074345345
v 0.018105181 -0.023966255 0.075818063
v 0.0066711622 -0.029598558 0.075329301
v 0.011733628 -0.024370086 0.077616507
v 0.016703733 -0.02383826 0.076726266
v 0.00082880388 -0.030921674 0.072123222
v -0.00028660685 -0.030811537 0.074676498
v 0.0055434988 -0.030443427 0.073076842
v 0.011627129 -0.028681752 0.070718293
v 0.017532632 -0.025521054 0.073076842
v 0.010926876 -0.028920379 0.074502954
v 0.016697606 -0.021211871 0.077597529
v 0.0018056717 -0.030787725 0.074630736
v 0.014619464 -0.027180036 0.074605313
v 0.013537512 -0.024370086 0.077423986
v 0.01270437 -0.026114399 0.076806424
v 0.012564885 -0.027049064 0.076206494
v 0.014145874 -0.027499775 0.072625541
v 0.016804106 -0.025632183 0.074930708
v 0.00992786 -0.026175916 0.07736365
v 0.014955455 -0.02591546 0.075961436
f 39 2 4
f 5 11 12
f 5 4 1
f 5 13 4
f 14 4 13
f 14 13 5
f 18 5 12
f 18 14 5
f 36 7 18
f 36 12 7
f 36 18 12
f 6 23 24
f 6 50 23
f 6 7 8
f 48 2 39
f 40 39 24
f 42 6 8
f 42 50 6
f 57 48 39
f 57 52 48
f 57 39 40
f 32 48 52
f 55 29 28
f 55 49 52
f 9 25 3
f 44 3 25
f 44 45 3
f 44 51 45
f 19 20 11
f 17 42 8
f 17 8 7
f 17 7 12
f 17 38 42
f 17 12 11
f 53 23 50
f 53 50 42
f 53 42 38
f 34 2 48
f 34 48 32
f 59 57 40
f 59 52 57
f 59 55 52
f 21 51 44
f 21 44 25
f 31 45 51
f 37 27 38
f 37 17 11
f 37 38 17
f 37 11 20
f 37 20 27
f 22 28 41
f 22 49 55
f 22 55 28
f 22 41 21
f 22 16 49
f 22 21 16
f 26 41 28
f 26 27 20
f 26 21 41
f 26 28 29
f 26 29 27
f 58 53 38
f 58 27 29
f 58 38 27
f 47 33 49
f 56 52 49
f 56 49 33
f 56 33 32
f 56 32 52
f 43 55 59
f 43 23 53
f 43 59 40
f 43 24 23
f 43 40 24
f 35 9 10
f 35 10 16
f 35 16 9
f 15 49 16
f 15 16 10
f 15 10 47
f 15 47 49
f 46 9 16
f 46 16 21
f 46 25 9
f 46 21 25
f 30 26 20
f 30 21 26
f 30 51 21
f 30 31 51
f 30 19 31
f 30 20 19
f 54 29 55
f 54 58 29
f 54 53 58
f 54 55 43
f 54 43 53
f 6 18 7
f 6 39 4
f 6 4 14
f 6 14 18
f 6 24 39
f 31 1 3
f 31 5 1
f 31 11 5
f 31 3 45
f 31 19 11
f 47 1 4
f 47 3 1
f 47 4 2
f 47 9 3
f 47 2 34
f 47 10 9
f 47 34 32
f 47 32 33
