v -0.043316113 -0.0079592433 -0.090545388
v -0.042677162 -0.0079592433 -0.086015958
v -0.023083613 -0.013912702 -0.086015958
v -0.044630864 -0.0079592433 -0.092140404
v -0.023083613 -0.016231979 -0.092341693
v -0.026890263 -0.016231979 -0.092544271
v -0.023083613 -0.014907371 -0.091836867
v -0.044156572 -0.0079592433 -0.091992153
v -0.025848288 -0.018233447 -0.09214775
v -0.023083613 -0.014396692 -0.090544747
v -0.023083613 -0.019590807 -0.086015958
v -0.024056779 -0.019084981 -0.091408078
v -0.023083613 -0.018805989 -0.090673835
v -0.047336561 -0.0087622565 -0.090604179
v -0.047673237 -0.0079592433 -0.090581175
v -0.046913871 -0.0095106849 -0.091280273
v -0.047506126 -0.010130533 -0.086015958
v -0.044073018 -0.010504141 -0.092312942
v -0.046093072 -0.0079592433 -0.092187048
v -0.032618666 -0.016231979 -0.092524454
v -0.040256535 -0.014321486 -0.092313583
v -0.042146347 -0.014329977 -0.091980006
v -0.026890263 -0.019622345 -0.090544747
v -0.024980794 -0.020182758 -0.086015958
v -0.025850745 -0.020281011 -0.086015958
v -0.036027005 -0.019516554 -0.086015958
v -0.034594486 -0.020101484 -0.086015958
v -0.039914948 -0.017772504 -0.086015958
v -0.039334979 -0.017206027 -0.091521825
v -0.023083613 -0.018002368 -0.091930641
v -0.045237865 -0.011729282 -0.091689251
v -0.045402518 -0.011931854 -0.090544747
v -0.045756394 -0.012238747 -0.086015958
v -0.048189309 -0.0079592433 -0.086015958
v -0.048056603 -0.0085936484 -0.086015958
v -0.041708915 -0.015683698 -0.090544747
v -0.042664876 -0.014886749 -0.090544747
v -0.041497567 -0.015507812 -0.091698198
v -0.043443901 -0.013701638 -0.091752513
v -0.046687784 -0.0085002461 -0.091914186
v -0.029754463 -0.018141258 -0.092293772
v -0.038347069 -0.016230765 -0.09223114
v -0.023626718 -0.01980733 -0.086015958
v -0.030709198 -0.020347726 -0.086015958
v -0.02806187 -0.020340751 -0.086015958
v -0.032618666 -0.019594445 -0.090544747
v -0.032618666 -0.020304058 -0.086015958
v -0.034004689 -0.01921356 -0.09164196
v -0.032618666 -0.019299683 -0.091741013
v -0.028322363 -0.019319091 -0.091761459
v -0.025327299 -0.019230541 -0.091659853
v -0.036053004 -0.018741395 -0.090544747
v -0.04200627 -0.016016063 -0.086015958
v -0.043950142 -0.01420625 -0.086015958
v -0.044146741 -0.013409302 -0.090544747
v -0.047185426 -0.0079592433 -0.091727273
v -0.044861869 -0.011444224 -0.091939426
v -0.036354047 -0.017757644 -0.091982721
v -0.03921579 -0.016812404 -0.091785105
v -0.032618666 -0.018141258 -0.092265656
f 1 2 3
f 4 5 6
f 4 7 5
f 4 8 7
f 9 6 5
f 10 1 3
f 10 8 1
f 10 7 8
f 13 11 12
f 14 15 16
f 17 14 16
f 17 15 14
f 19 6 18
f 19 4 6
f 20 18 6
f 20 21 18
f 22 18 21
f 23 24 25
f 26 28 29
f 30 13 12
f 30 9 5
f 32 16 31
f 32 17 16
f 32 33 17
f 35 34 15
f 35 15 17
f 36 29 28
f 36 28 37
f 36 38 29
f 36 37 38
f 39 38 37
f 39 22 38
f 40 31 16
f 41 6 9
f 41 20 6
f 59 29 38
f 43 12 11
f 43 24 12
f 45 44 23
f 45 23 25
f 46 23 44
f 46 44 47
f 46 48 49
f 46 47 27
f 46 27 48
f 50 46 49
f 50 23 46
f 50 49 41
f 50 41 9
f 51 12 24
f 51 24 23
f 51 23 50
f 51 50 9
f 51 30 12
f 51 9 30
f 52 48 27
f 52 29 48
f 52 27 26
f 52 26 29
f 53 37 28
f 53 54 37
f 55 54 33
f 55 33 32
f 55 37 54
f 55 39 37
f 55 32 31
f 55 31 39
f 56 16 15
f 56 40 16
f 56 19 40
f 57 31 40
f 57 39 31
f 57 19 18
f 57 40 19
f 57 18 22
f 57 22 39
f 60 20 41
f 60 49 48
f 60 41 49
f 58 48 29
f 58 29 59
f 58 60 48
f 42 60 58
f 42 21 20
f 42 20 60
f 42 58 59
f 42 22 21
f 42 38 22
f 42 59 38
f 30 3 11
f 30 10 3
f 30 5 7
f 30 7 10
f 30 11 13
f 53 11 3
f 53 43 11
f 53 47 44
f 53 2 34
f 53 3 2
f 53 44 45
f 53 34 35
f 53 28 26
f 53 27 47
f 53 17 33
f 53 25 24
f 53 26 27
f 53 35 17
f 53 33 54
f 53 24 43
f 53 45 25
f 56 34 2
f 56 1 8
f 56 2 1
f 56 15 34
f 56 8 4
f 56 4 19
