v -0.018735617 0.035971247 -0.20324991
v 0.030748541 0.039263338 -0.20401636
v 0.023564213 0.039266883 -0.2040162
v 0.01931472 0.0390758 -0.2040162
v -0.0012681898 0.027219059 -0.22534837
v -0.024594676 0.028048275 -0.21276363
v -0.024594676 0.028048278 -0.22453715
v -0.0012669525 0.027219042 -0.23336316
v 0.037737189 0.027219056 -0.20401676
v 0.028978201 0.027219059 -0.2040162
v -0.018735617 0.0328148 -0.20479426
v -0.021454806 0.033213481 -0.20550455
v -0.018735617 0.038645269 -0.20519804
v 0.037085486 0.033662759 -0.20401686
v 0.016863793 0.027219059 -0.22948924
v 0.029853007 0.027220021 -0.21968998
v 0.034133077 0.027219059 -0.21310402
v 0.035177279 0.03873852 -0.20401669
v 0.031592981 0.034385505 -0.2160218
v -0.024594676 0.03874435 -0.21311141
v -0.024594676 0.038644088 -0.22112201
v -0.0043192656 0.038208132 -0.23215904
v -0.01731183 0.038345527 -0.22800284
v -0.013474275 0.039268782 -0.22558125
v -0.0015394986 0.03881984 -0.23000206
v -0.018680732 0.039269224 -0.22175107
v -0.021271901 0.038438848 -0.20578159
v -0.024594676 0.035674005 -0.21164072
v -0.018735617 0.039236219 -0.20885558
v 0.036117595 0.027219059 -0.20885558
v 0.025490061 0.027221159 -0.22407812
v 0.028999924 0.039266443 -0.21168776
v -0.024584777 0.039267331 -0.21618909
v -0.023140962 0.034184539 -0.22497407
v -0.024594676 0.036810493 -0.22327792
v 0.0098958747 0.030353244 -0.23188425
v 0.0056113246 0.027219059 -0.23283843
v -0.010458404 0.034160949 -0.2312086
v -0.011263948 0.028048275 -0.23164516
v -0.0068163079 0.030387306 -0.2325308
v -0.0018092834 0.032933342 -0.23290289
v -0.016490458 0.028048275 -0.22958135
v -0.024594676 0.02925023 -0.21213586
v 0.03498663 0.033856924 -0.21018994
v 0.003781023 0.038186344 -0.23235269
v 0.010876703 0.039266883 -0.22576983
v 0.03044754 0.038460082 -0.2159997
v 0.015107905 0.029627091 -0.23014501
v 0.01789355 0.038212439 -0.22801291
v 0.020767851 0.027220947 -0.227505
v -0.016145988 0.032799759 -0.2293721
v -0.021625517 0.035971247 -0.20509784
v 0.012185998 0.035971247 -0.23033143
v 0.02149129 0.039026259 -0.22158325
v 0.026685793 0.035971247 -0.22149779
v 0.034172708 0.038113292 -0.21102181
v -0.021108812 0.028048275 -0.22707765
v 0.017095473 0.038862895 -0.22574035
v 0.024396431 0.038476593 -0.22226408
v 0.02150958 0.035971247 -0.22586856
f 7 5 6
f 7 8 5
f 17 9 8
f 15 17 8
f 45 22 25
f 12 6 11
f 50 15 49
f 50 31 15
f 16 15 31
f 16 17 15
f 46 45 25
f 41 45 8
f 41 22 45
f 37 15 8
f 37 8 45
f 36 15 37
f 36 37 45
f 24 25 22
f 24 46 25
f 21 33 26
f 21 26 24
f 42 39 8
f 40 8 39
f 40 41 8
f 40 22 41
f 10 11 6
f 10 6 5
f 10 8 9
f 10 5 8
f 1 4 13
f 1 13 27
f 1 11 10
f 1 12 11
f 1 10 9
f 29 27 13
f 29 33 27
f 14 56 18
f 14 1 9
f 14 18 1
f 30 9 17
f 30 14 9
f 19 56 17
f 19 17 16
f 32 24 26
f 32 46 24
f 48 49 15
f 48 15 36
f 53 45 49
f 53 36 45
f 53 49 48
f 53 48 36
f 43 6 12
f 57 8 7
f 57 42 8
f 38 22 40
f 38 40 39
f 52 12 1
f 52 1 27
f 52 43 12
f 2 1 18
f 2 18 32
f 44 17 56
f 44 30 17
f 44 56 14
f 44 14 30
f 55 16 31
f 55 19 16
f 54 46 32
f 20 33 21
f 20 27 33
f 20 52 27
f 34 7 35
f 34 57 7
f 3 4 1
f 3 1 2
f 3 13 4
f 3 29 13
f 3 33 29
f 3 2 32
f 3 26 33
f 3 32 26
f 60 49 55
f 60 55 31
f 60 50 49
f 60 31 50
f 58 46 54
f 58 49 45
f 58 45 46
f 59 55 49
f 59 49 58
f 59 58 54
f 28 43 52
f 28 52 20
f 23 57 34
f 23 34 35
f 23 22 38
f 23 35 21
f 23 24 22
f 23 21 24
f 47 54 32
f 47 59 54
f 47 18 56
f 47 32 18
f 47 55 59
f 47 56 19
f 47 19 55
f 51 42 57
f 51 57 23
f 51 39 42
f 51 38 39
f 51 23 38
f 28 35 7
f 28 7 6
f 28 21 35
f 28 6 43
f 28 20 21
