v -0.024912412 -0.01181318 -0.12506546
v -0.022361611 0.0068106444 -0.12510065
v -0.021797863 -0.026025884 -0.0291175
v -0.027132265 -0.025996478 -0.019012301
v -0.033470649 -0.025996487 -0.02931586
v -0.027042819 0.025343843 -0.019325479
v -0.022361207 0.025348868 -0.031716829
v -0.03415425 0.025348868 -0.022331906
v -0.036548345 -0.021435405 -0.028960987
v -0.037725411 -0.019778932 -0.020596128
v -0.038241648 -0.011789817 -0.12001486
v -0.024640014 -0.025996478 -0.020066674
v -0.021804211 -0.025996478 -0.029034061
v -0.042615408 0.0012559231 -0.022437111
v -0.041197207 0.0044208324 -0.019091809
v -0.041693447 0.0085168831 -0.022352888
v -0.042149816 0.004900695 -0.02765085
v -0.03958732 0.00622105 -0.12060221
v -0.040054981 0.001294559 -0.11976229
v -0.039948307 -0.002352433 -0.12233758
v -0.033698417 -0.011805406 -0.12503713
v -0.022361236 0.025348727 -0.10787605
v -0.040414852 -0.013575898 -0.020017584
v -0.033841618 -0.025913162 -0.019479697
v -0.037892049 -0.0095313874 -0.018427699
v -0.041494226 -0.0095313874 -0.022342447
v -0.042182261 -0.0057909244 -0.022273764
v -0.039659362 -0.00571103 -0.12133914
v -0.030530679 -0.025968263 -0.018528571
v -0.035301204 -0.023395536 -0.029315924
v -0.04007531 0.01327648 -0.019988377
v -0.034781054 0.019028016 -0.018522573
v -0.034091139 0.025323481 -0.019543631
v -0.024916479 0.025343843 -0.02183092
v -0.037302633 0.020525401 -0.022111115
v -0.039879144 0.014814428 -0.02233723
v -0.034153401 0.012495134 -0.12505636
v -0.039847634 0.0042749616 -0.11976229
v -0.039655664 -0.011437911 -0.076826743
v -0.042198094 -0.0023115767 -0.036777434
v -0.0371338 -0.01181318 -0.12292541
v -0.040788833 0.012120506 -0.022352888
v -0.03819876 0.012088828 -0.11975526
v -0.030681593 0.022946453 -0.018646925
v -0.02236211 0.0067336261 -0.026994817
v -0.039247947 0.016352376 -0.024153673
v -0.035744816 0.018212039 -0.12068305
v -0.031710746 0.025348488 -0.089813901
v -0.032580843 0.021338504 -0.12218137
v -0.03360609 0.025348808 -0.042708973
v -0.036354546 0.013525587 -0.1236571
v -0.027071281 0.023871233 -0.11795107
v -0.022361207 0.023303298 -0.11951957
v -0.022361207 0.021830688 -0.12228861
v -0.022361291 0.015719646 -0.12494584
v -0.039628088 0.01001211 -0.089289883
v -0.027784806 0.025343843 -0.019001866
v -0.03683091 0.015900038 -0.11798238
v -0.029144653 0.025234049 -0.10712888
v -0.0223618 0.019455146 -0.12397385
f 1 2 3
f 1 3 5
f 45 3 7
f 45 7 34
f 6 34 7
f 12 45 34
f 12 34 6
f 12 6 57
f 30 11 5
f 30 9 11
f 13 3 45
f 13 12 3
f 13 45 12
f 4 57 29
f 4 12 57
f 4 29 5
f 4 5 3
f 4 3 12
f 21 1 5
f 21 20 37
f 21 2 1
f 21 37 2
f 22 7 3
f 51 18 43
f 51 37 20
f 51 20 18
f 28 11 39
f 28 39 26
f 24 5 29
f 24 30 5
f 27 15 14
f 27 28 26
f 44 29 57
f 44 32 29
f 25 29 32
f 25 32 15
f 25 24 29
f 47 51 43
f 19 20 14
f 41 20 21
f 41 28 20
f 41 11 28
f 41 5 11
f 41 21 5
f 10 9 30
f 10 30 24
f 10 11 9
f 40 20 28
f 40 28 27
f 40 14 20
f 40 27 14
f 8 7 22
f 8 6 7
f 8 57 6
f 38 18 20
f 38 20 19
f 38 19 14
f 55 3 2
f 55 2 37
f 53 22 3
f 53 3 54
f 23 24 25
f 23 10 24
f 23 27 26
f 23 26 39
f 23 15 27
f 23 25 15
f 23 39 11
f 23 11 10
f 33 32 44
f 33 44 57
f 33 57 8
f 48 22 59
f 56 43 18
f 60 54 3
f 60 3 55
f 60 55 37
f 49 53 54
f 49 54 60
f 49 60 37
f 49 48 59
f 49 47 48
f 49 37 51
f 49 51 47
f 31 15 32
f 31 32 33
f 50 48 47
f 50 8 22
f 50 22 48
f 52 49 59
f 52 53 49
f 52 59 22
f 52 22 53
f 16 14 15
f 16 15 31
f 16 56 18
f 35 50 47
f 35 8 50
f 35 33 8
f 35 31 33
f 17 14 16
f 17 16 18
f 17 38 14
f 17 18 38
f 36 31 35
f 42 16 31
f 42 31 36
f 42 56 16
f 42 43 56
f 42 36 43
f 58 47 43
f 58 43 36
f 46 35 47
f 46 36 35
f 46 47 58
f 46 58 36
