v 0.030977719 7.7064874e-05 0.016664481
v -0.030691114 0.0035119614 0.016671883
v 0.03065787 -0.0039037209 0.01666541
v -0.030730095 -0.0025592359 0.016666665
v -0.030913868 -0.00031678673 0.016663668
v -0.023758611 -0.053308541 0.016630226
v -0.026723977 0.049669134 0.013915574
v -0.0238758 0.053156089 0.016638809
v -0.025651882 0.052407329 -0.00010341847
v 0.025404114 0.051723853 0.015627
v 0.024515431 0.04779844 0.016651169
v 0.025600193 0.051349095 0.00015809771
v 0.022971326 0.054515037 0.015389442
v -0.022695559 0.054809674 0.014904499
v -0.020649167 0.054829634 0.0030964173
v 0.018840425 0.055134292 0.0019276381
v 0.025992578 0.049636596 0.013953375
v -0.0019845612 -0.030344897 0.016663671
v -0.0099201991 -0.051439428 -0.00099302018
v -0.022465395 0.050502489 -0.00099160014
v 0.020203221 0.051445643 -0.00099056605
v -0.025387935 -0.051474633 -0.00088080923
v -0.022563333 -0.046030999 -0.00097400357
v -0.026729662 0.047830854 0.0013194447
v -0.025923739 0.044221422 -0.00019725709
v -0.03079284 -0.00089601733 0.016072523
v -0.025992796 0.049636596 0.015745835
v 0.0018326434 0.054696534 0.015270577
v -0.024362593 0.047833786 -0.00091004901
v 0.025992578 0.049636596 0.0031242818
v 0.023023948 -0.051411267 -0.00099199649
v 0.026555975 -0.051005486 -4.2732464e-05
v 0.024362375 -0.029778735 -0.00086726992
v 0.02624309 -0.053899153 -1.6149255e-05
v 0.022563113 0.046030976 -0.00097400357
v 0.021745806 0.054359511 -0.00027563167
v -0.025384929 -0.051885722 0.0156273
v -0.025787123 -0.051665405 0.013842464
v -0.025992796 -0.049636619 0.0031242818
v 0.018946477 -0.053253028 -0.00054360845
v -0.0013525744 -0.05444051 8.2975058e-05
v -0.022685814 -0.053658392 -0.00056797858
v 0.022990681 -0.05480103 0.00142781
v 0.023105773 -0.054466633 0.015670027
v 0.025674038 -0.05226424 0.016640773
v 0.026720131 -0.049636619 0.01364743
v 0.026697789 -0.049916551 0.0029053905
v 0.024362375 0.037452793 -0.00065898445
v -0.025911287 -0.048735212 0.0013197234
v -0.02178685 -0.054761904 0.015644089
v 0.020653952 -0.054831708 0.014097056
v -0.02004655 -0.055150601 0.0031698107
v -0.017144415 -0.054980272 0.0013197234
f 3 1 2
f 4 2 5
f 4 6 2
f 7 8 9
f 11 1 10
f 11 2 1
f 11 8 2
f 13 10 12
f 13 8 11
f 13 11 10
f 14 9 8
f 14 15 9
f 14 16 15
f 23 20 19
f 42 6 38
f 17 10 1
f 17 12 10
f 18 2 6
f 18 3 2
f 21 19 20
f 37 38 6
f 37 6 4
f 37 4 38
f 24 7 9
f 24 2 7
f 24 5 2
f 24 26 5
f 27 2 8
f 27 8 7
f 27 7 2
f 28 13 16
f 28 16 14
f 28 8 13
f 28 14 8
f 29 9 20
f 22 42 38
f 22 26 24
f 22 23 19
f 22 19 42
f 22 20 23
f 22 29 20
f 30 1 12
f 30 17 1
f 30 12 17
f 31 19 21
f 31 42 19
f 47 3 46
f 47 46 34
f 32 31 33
f 32 34 31
f 32 12 1
f 32 47 34
f 32 1 3
f 32 3 47
f 35 21 12
f 35 33 31
f 35 31 21
f 36 12 21
f 36 16 13
f 36 13 12
f 36 15 16
f 36 9 15
f 36 20 9
f 36 21 20
f 50 6 42
f 50 42 52
f 50 44 6
f 51 44 50
f 51 50 52
f 53 52 42
f 39 38 4
f 39 22 38
f 39 4 5
f 25 9 29
f 25 29 22
f 25 24 9
f 25 22 24
f 40 42 31
f 40 31 34
f 45 44 34
f 45 34 46
f 45 46 3
f 45 6 44
f 45 18 6
f 45 3 18
f 48 33 35
f 48 35 12
f 48 32 33
f 48 12 32
f 41 53 42
f 41 42 40
f 41 40 34
f 43 34 44
f 43 44 51
f 43 41 34
f 43 53 41
f 43 51 52
f 43 52 53
f 49 39 5
f 49 22 39
f 49 5 26
f 49 26 22
