v 0.017894261 -0.00014359939 -0.2300362
v 0.016046442 -0.034433963 -0.22944637
v 0.012689475 -0.014987919 -0.23210855
v 0.016141208 -0.037647764 -0.22855325
v 0.017889998 0.027216531 -0.22918763
v 0.017893494 0.027216384 -0.21972837
v -0.0012702277 0.028039954 -0.2251902
v -0.024591829 0.028039954 -0.21276412
v -0.02457558 0.028085627 -0.22459651
v -0.0084352215 0.028039559 -0.23242979
v -0.033938312 -0.00021319276 -0.21552485
v -0.0060510292 -0.00051147309 -0.23384862
v 0.0015746761 0.02082335 -0.23396732
v -9.1944242e-05 -0.0055509688 -0.23437736
v 0.013937241 0.008714744 -0.2316125
v 0.0095175944 0.024185658 -0.23235594
v -0.00035577721 0.028017077 -0.23348459
v 0.0066454421 0.0015886228 -0.2337085
v -0.033564425 -0.016162492 -0.21552654
v -0.024591829 7.8200516e-05 -0.21308018
v -0.032861353 -0.025694861 -0.21552266
v 0.012457902 -0.039263003 -0.22594415
v -0.022966155 -0.039255368 -0.21731774
v -0.014503527 -0.039255368 -0.22365933
v -0.017305835 -0.038517762 -0.22809793
v -0.0054314963 -0.038278723 -0.2322448
v -0.022910445 -0.039057712 -0.21551398
v 0.016141208 -0.035954512 -0.21632948
v -0.019370423 -0.038596514 -0.21551398
v -0.031059736 -0.038545444 -0.21550638
v -0.029737221 -0.00055196647 -0.22110082
v -0.027303189 0.00035903688 -0.22335885
v -0.014508593 -0.03171808 -0.23026009
v -0.019290026 -0.029108197 -0.22812234
v 0.0073873779 -0.033059672 -0.23227718
v 0.0047260315 -0.038102371 -0.23215023
v 0.00014886366 -0.025709114 -0.23358012
v -0.012423128 -0.016899921 -0.23215437
v -0.008502985 -0.021260422 -0.23299161
v 0.016141208 -0.039037941 -0.22039002
v 0.016141208 -0.027494827 -0.21606397
v 0.010763439 0.0073387695 -0.23268202
v -0.025280013 -0.035677153 -0.22340724
v -0.016184936 0.028039587 -0.22970295
v -0.020434114 0.028029292 -0.2279155
v -0.01343019 0.014367915 -0.23165202
v -0.021262822 0.0028940595 -0.22836034
v -0.013786281 -0.00025699092 -0.23182967
v 0.00057321695 -0.035954512 -0.23264962
v 0.0066454421 -0.016910342 -0.23340612
v 0.016142697 -0.038874744 -0.22648041
v 0.016141208 -0.038596514 -0.21806791
v 0.016141406 -0.031716663 -0.21595222
v -0.029549252 -0.028628058 -0.21970993
v -0.025873124 -0.016913638 -0.22433783
v -0.0080930945 0.012022807 -0.23318899
v 0.016141208 -0.039163131 -0.22154687
v 0.016141208 -0.037397401 -0.21710702
v 0.017893494 -0.0001721633 -0.21985901
v -0.020547187 -0.016912989 -0.2283804
f 3 1 2
f 4 2 1
f 5 6 1
f 7 8 6
f 9 7 10
f 9 8 7
f 9 11 8
f 12 13 14
f 15 1 3
f 15 5 1
f 15 16 5
f 17 16 13
f 17 5 16
f 17 10 7
f 17 6 5
f 17 7 6
f 18 13 16
f 18 14 13
f 19 8 11
f 19 20 8
f 19 21 20
f 24 22 23
f 24 23 25
f 24 26 22
f 24 25 26
f 27 28 29
f 27 29 20
f 30 25 23
f 30 23 27
f 30 20 21
f 30 27 20
f 31 11 9
f 31 9 32
f 31 19 11
f 33 26 25
f 33 25 34
f 36 22 26
f 36 2 4
f 39 38 12
f 39 33 38
f 39 26 33
f 39 37 26
f 39 12 14
f 39 14 37
f 40 27 23
f 41 6 8
f 42 16 15
f 42 18 16
f 42 15 3
f 42 3 18
f 43 34 25
f 43 25 30
f 44 9 10
f 44 45 9
f 44 10 46
f 44 46 45
f 47 32 9
f 47 9 45
f 47 45 46
f 48 12 38
f 48 47 46
f 49 36 26
f 49 26 37
f 49 37 36
f 50 18 3
f 50 14 18
f 50 37 14
f 51 22 36
f 51 36 4
f 51 4 1
f 52 27 40
f 53 6 41
f 53 20 29
f 53 29 28
f 53 8 20
f 53 41 8
f 54 19 31
f 54 21 19
f 54 30 21
f 54 43 30
f 55 32 47
f 55 31 32
f 55 54 31
f 55 43 54
f 56 12 48
f 56 48 46
f 56 46 10
f 56 10 17
f 56 13 12
f 56 17 13
f 35 36 37
f 35 37 50
f 35 50 3
f 35 3 2
f 35 2 36
f 57 22 51
f 57 23 22
f 57 40 23
f 57 51 1
f 58 28 27
f 58 27 52
f 59 52 40
f 59 57 1
f 59 40 57
f 59 58 52
f 59 28 58
f 59 1 6
f 59 6 53
f 59 53 28
f 60 55 47
f 60 34 43
f 60 43 55
f 60 38 33
f 60 33 34
f 60 48 38
f 60 47 48
