v 0.017948317 0.0065999696 -0.093903749
v 0.021946678 0.0018051956 -0.093883374
v 0.019878942 -0.0056317241 -0.094325401
v 0.018152452 -0.013176024 -0.094425673
v 0.019560502 -0.014864828 -0.093618038
v -0.0014905988 -0.040834754 -0.092125414
v 0.00023748412 -0.039393328 -0.093795389
v 0.01507315 -0.051375851 -0.047188676
v 0.019643798 -0.051375851 -0.04180469
v 0.021871763 0.0054418537 -0.09327848
v 0.021609117 0.0065590415 -0.092105213
v 0.021645345 0.0065590415 -0.077061334
v 0.026901282 -0.051375851 -0.027842824
v 0.021893744 -0.0047817794 -0.0933372
v 0.017280147 -0.020071593 -0.093713595
v 0.0046488177 -0.036636936 -0.093304562
v -0.0014886476 -0.037827845 -0.094386566
v 0.021310244 -0.051375851 -0.027842824
v 0.024298977 -0.0090021704 -0.027842824
v 0.0075681156 -0.047615982 -0.04879866
v 0.016851675 0.0065590415 -0.093344209
v 0.013310103 0.0065590415 -0.087079723
v 0.013258782 0.0065590415 -0.084619122
v 0.0075681156 -0.047615982 -0.056718207
v -0.0014886476 -0.041372214 -0.077211253
v -0.0014886476 -0.033404465 -0.077211253
v -0.0014886476 -0.028045376 -0.080463814
v 0.021923393 0.0041354555 -0.093352361
v 0.013953133 0.0065590415 -0.080463814
v 0.01673054 0.0065590415 -0.077061334
v 0.029077447 -0.0090021721 -0.027842828
v 0.029334535 -0.020020914 -0.027842824
v 0.029337521 -0.015040267 -0.027843021
v 0.027630353 -0.045873568 -0.027842824
v 0.028274895 -0.040289058 -0.027842824
v 0.028593387 -0.036605745 -0.027842824
v 0.02903566 -0.03021737 -0.027842824
v 0.026783546 -0.051375851 -0.028201324
v 0.0070594269 -0.031660637 -0.094357238
v 0.01507315 -0.051375851 -0.039184398
v 0.029126227 -0.028243859 -0.027842824
v -0.0014886476 -0.028017019 -0.088878735
v 0.013910867 0.0065590415 -0.088839628
v -0.0014886476 -0.035888364 -0.093773863
v 0.013358404 0.0065590415 -0.082145488
v 0.028794146 -0.0090021704 -0.031212706
v 0.014751132 -0.024724952 -0.093781419
v 0.02437671 -0.051375851 -0.033961734
v 0.012002912 -0.029213603 -0.093265447
v 0.020926839 -0.051375851 -0.039839471
v 0.0072481091 -0.034300485 -0.093441441
v 0.023040084 -0.051375851 -0.036355523
v 0.022013962 -0.00083330914 -0.093485032
v -0.0014886476 -0.027169207 -0.081940166
v -0.0014886476 -0.027098318 -0.08461586
v -0.0014886476 -0.02710399 -0.087079723
v 0.026007684 -0.051375851 -0.03014047
v 0.012636883 -0.024897972 -0.094262721
v 0.0096481072 -0.031786108 -0.093524251
f 39 17 4
f 24 6 8
f 19 20 18
f 19 45 27
f 40 18 20
f 25 24 20
f 25 6 24
f 38 5 13
f 2 33 53
f 14 13 5
f 14 2 53
f 1 10 2
f 1 17 21
f 31 12 19
f 30 19 12
f 30 12 1
f 44 21 17
f 44 42 21
f 44 17 6
f 44 6 42
f 26 25 20
f 26 20 19
f 26 19 27
f 26 27 6
f 26 6 25
f 48 49 47
f 15 4 5
f 15 47 4
f 15 5 38
f 58 39 4
f 58 4 47
f 58 47 39
f 28 2 10
f 3 5 4
f 3 1 2
f 3 14 5
f 3 2 14
f 3 4 17
f 3 17 1
f 11 10 1
f 11 1 12
f 11 31 10
f 11 12 31
f 9 16 50
f 7 17 39
f 7 6 17
f 7 16 9
f 7 9 8
f 7 8 6
f 32 31 19
f 32 33 31
f 32 53 33
f 29 1 45
f 29 30 1
f 29 45 19
f 29 19 30
f 54 27 45
f 54 6 27
f 54 55 6
f 43 21 42
f 43 42 22
f 43 1 21
f 43 22 1
f 23 45 1
f 23 1 22
f 23 54 45
f 23 55 54
f 56 22 42
f 56 42 6
f 56 6 55
f 56 55 23
f 56 23 22
f 51 50 16
f 51 7 39
f 51 16 7
f 57 48 47
f 57 15 38
f 57 47 15
f 46 10 31
f 46 28 10
f 46 31 33
f 46 33 2
f 46 2 28
f 34 13 14
f 34 14 35
f 36 14 37
f 36 35 14
f 41 53 32
f 41 37 14
f 41 14 53
f 59 49 48
f 59 47 49
f 59 39 47
f 59 51 39
f 52 50 51
f 52 59 48
f 52 51 59
f 40 20 24
f 40 24 8
f 41 18 13
f 41 36 37
f 41 19 18
f 41 13 34
f 41 32 19
f 41 34 35
f 41 35 36
f 52 40 8
f 52 13 18
f 52 57 38
f 52 18 40
f 52 38 13
f 52 8 9
f 52 9 50
f 52 48 57
