v 0.0048893271 0.011056328 0.036643329
v -0.001485832 -0.047616474 -0.063574169
v 0.0012545735 0.011110289 0.048017582
v -0.0033419314 0.0016085381 0.051134906
v -0.0031020061 0.0040823592 0.051274869
v 0.024299614 -0.0090003488 -0.027825931
v 0.029073485 -0.0089855532 -0.027788398
v 0.030447534 -0.056716382 -0.0058530511
v 0.029587222 -0.018194495 -0.027505475
v 0.030786939 -0.030960537 9.5703798e-05
v 0.014502139 -0.047723653 -0.050540897
v -0.00084649269 0.0090611162 0.050428317
v -0.002352236 0.0063998681 0.050948293
v -0.0028787411 0.0054755822 0.05170641
v 0.012449905 0.011055274 0.045431531
v 0.012449905 0.011055274 0.036380778
v 0.0270395 -0.056890368 -0.025833588
v 0.025573915 -0.058368105 -0.021069899
v 0.028880521 -0.035849519 -0.027789254
v 0.0041769508 -0.047634857 -0.059451957
v 0.0028476164 0.011037852 0.051783943
v 0.0084427978 0.011055274 0.034812058
v 0.029473452 -0.0090003488 -0.014230847
v 0.029353529 -0.0090626723 -0.0042213693
v 0.018694378 -0.011560895 0.040683702
v 0.023910496 -0.010087159 0.030069611
v 0.014548339 -0.056729386 0.046472311
v 0.019793663 -0.057030172 0.040144689
v 0.024313159 -0.056875261 0.031868256
v 0.027650269 -0.0091068313 0.014494591
v -0.0034569002 -0.030452411 0.053167989
v -0.0034085784 -0.037809491 0.051111578
v 0.010654022 -0.058355504 -0.046444364
v 0.020396369 -0.051612608 -0.040729656
v 0.0080885219 0.011041548 0.050450555
v 0.00088093478 0.0047988345 0.055550784
v 0.0064833965 0.011055274 0.034677928
v 0.027060554 -0.057036201 0.021500837
v 0.018838981 -0.058367998 0.036831003
v 0.0091497907 -0.05672384 0.047575578
v 0.012411921 -0.0067941379 0.047644828
v -0.0021709363 0.0045230511 0.053169064
v 0.029080619 -0.027954278 0.01270451
v 0.0014132727 -0.05206004 0.049008542
v 0.001396619 -0.057280638 -0.00074364704
v 0.0037592293 -0.054399051 0.046108007
v 0.005205454 -0.055887419 0.041174411
v 0.0060822127 -0.058298044 0.018462561
v -0.0014859727 -0.058368047 -0.042593696
v -0.0011500514 -0.048620094 0.051362822
v -0.0029253935 -0.044286287 0.052499518
v 0.026783858 -0.058155652 0.0041826583
v 0.0085627921 -0.05355956 0.051399843
v -0.0031380192 -0.042772575 0.053829004
v -0.0033386009 -0.040283316 0.05112324
v -0.003453883 -8.7303072e-05 0.053407286
v -0.0012398979 -0.04163376 0.055379156
v -0.0014872151 -0.058318742 -0.052641348
v 0.0025480543 -0.049791521 0.054982322
v -0.00056444842 0.0017988323 0.055147098
f 1 2 3
f 4 5 2
f 6 7 2
f 6 2 1
f 8 9 10
f 11 7 9
f 12 3 2
f 12 2 13
f 14 2 5
f 14 13 2
f 14 12 13
f 16 3 15
f 18 17 8
f 19 11 9
f 19 9 8
f 19 8 17
f 20 2 7
f 20 7 11
f 21 3 12
f 22 3 16
f 22 16 7
f 23 15 24
f 23 16 15
f 23 7 16
f 23 24 10
f 23 10 9
f 23 9 7
f 25 26 15
f 25 27 28
f 25 28 29
f 25 29 26
f 43 26 29
f 30 24 15
f 30 15 26
f 30 26 43
f 30 10 24
f 30 43 10
f 32 31 2
f 33 17 18
f 33 2 20
f 33 20 11
f 34 19 17
f 34 11 19
f 34 17 33
f 34 33 11
f 35 15 3
f 35 3 21
f 36 21 12
f 36 35 21
f 37 6 1
f 37 1 3
f 37 3 22
f 37 7 6
f 37 22 7
f 38 43 29
f 38 8 10
f 38 10 43
f 39 28 27
f 39 27 40
f 39 29 28
f 39 38 29
f 41 25 15
f 41 15 35
f 41 27 25
f 42 12 14
f 42 36 12
f 46 44 45
f 46 45 47
f 46 40 44
f 46 47 40
f 48 47 45
f 48 40 47
f 48 39 40
f 49 33 18
f 49 18 39
f 49 39 48
f 49 48 45
f 49 50 51
f 49 45 44
f 49 44 50
f 52 39 18
f 52 38 39
f 52 18 8
f 52 8 38
f 53 35 36
f 53 41 35
f 53 27 41
f 53 40 27
f 54 51 50
f 54 31 32
f 54 32 55
f 54 49 51
f 56 36 42
f 56 54 57
f 56 31 54
f 56 2 31
f 56 4 2
f 56 42 14
f 56 5 4
f 56 14 5
f 58 2 33
f 58 33 49
f 58 32 2
f 58 55 32
f 58 54 55
f 58 49 54
f 59 54 50
f 59 57 54
f 59 50 44
f 59 36 57
f 59 53 36
f 59 44 40
f 59 40 53
f 60 57 36
f 60 36 56
f 60 56 57
