v -0.0033587775 0.047680053 -0.036423719
v 0.0031247676 0.048701969 -0.0044578787
v 0.032023761 0.039261643 -0.20398924
v 0.016139296 0.033025616 -0.20404251
v 0.024294127 0.014455466 -0.16800849
v -0.002039539 0.029055971 -0.15959802
v -0.0012606223 0.028497253 -0.15004845
v -0.0012650538 0.038635043 0.019507207
v 0.02423174 0.014472667 -0.12927252
v 0.037651847 0.010643622 0.022496593
v -0.0012651232 0.048259244 -0.010016964
v -0.0012602034 0.029118683 -0.13231389
v 0.047541591 0.010645701 0.020462545
v 0.047681284 0.010607266 -0.060883532
v 0.048873588 0.010643526 -0.034520562
v -0.0012651253 0.045964563 -0.070102166
v -0.0012651232 0.043844752 -0.10198243
v 0.023641043 0.039270018 -0.20401549
v 0.01531764 0.036221061 -0.2040156
v 0.016402493 0.038498556 -0.2040156
v -0.0012651456 0.035068122 -0.16294161
v -0.0012651232 0.0409794 -0.13901082
v -0.0012651232 0.039297156 -0.15805241
v 0.036958134 0.010643622 -0.043869897
v 0.027075227 0.030557088 -0.20401545
v 0.037489629 0.030558543 -0.20401833
v 0.034084868 0.014455466 -0.16800849
v 0.038493161 0.030588467 -0.19878795
v 0.040485768 0.010643622 0.023657397
v -0.0012651232 0.040450695 0.022876071
v -0.0012651843 0.044444886 0.023815101
v -0.0012651153 0.04812173 0.021829936
v 0.019324956 0.039075321 -0.2040156
v -0.0012651232 0.038680033 -0.16128898
v 0.039453503 0.010644009 -0.06204396
v 0.038321943 0.034391059 -0.19754196
v 0.047831267 0.01482519 -0.03114575
v 0.040737978 0.015946016 0.024075904
v 0.043633059 0.020736987 0.022281648
v 0.031288442 0.038458784 0.0024824256
v 0.0179814 0.045534889 -0.0035651667
v 0.023044214 0.042465036 0.022402755
v 0.010044368 0.047436098 0.022019227
v -0.0012651232 0.042380646 -0.12166579
v 0.033918974 0.039342282 -0.16094635
v 0.0082112967 0.048039638 -0.0030812956
v 0.013499709 0.046673133 -0.020575775
v 0.01177432 0.042049153 0.023970703
v 0.015679258 0.046140731 -0.018466246
v 0.036097505 0.032598192 0.022621054
v 0.038471057 0.032101285 -0.013144137
v 0.047033446 0.017659043 -0.013246423
v 0.033692086 0.037550151 -0.041434485
v 0.035718297 0.038676023 -0.19613556
v 0.042400084 0.025831266 -0.0034546776
v 0.047337428 0.016664655 -0.025121218
v 0.035676937 0.03855969 -0.20401699
v 0.03566412 0.038671082 -0.19132437
v 0.037937124 0.035783535 -0.19624541
f 3 1 2
f 11 2 1
f 18 1 3
f 52 13 15
f 52 39 13
f 27 35 5
f 30 8 10
f 30 10 29
f 30 29 31
f 30 1 8
f 30 31 1
f 14 29 10
f 14 35 27
f 14 15 13
f 14 13 29
f 14 36 15
f 24 5 35
f 24 14 10
f 24 35 14
f 12 10 8
f 12 7 10
f 9 10 7
f 9 7 5
f 9 24 10
f 9 5 24
f 6 4 5
f 6 5 7
f 6 7 12
f 6 8 1
f 6 12 8
f 33 4 20
f 33 18 4
f 38 13 39
f 38 29 13
f 38 39 50
f 38 31 29
f 37 52 15
f 37 15 36
f 37 36 59
f 51 40 50
f 19 20 4
f 19 4 6
f 23 33 20
f 25 5 4
f 25 4 26
f 25 27 5
f 25 26 27
f 28 36 14
f 28 26 36
f 28 14 27
f 28 27 26
f 46 3 2
f 46 47 3
f 46 2 43
f 46 43 41
f 45 41 40
f 45 54 41
f 57 3 47
f 57 47 54
f 57 54 59
f 57 59 36
f 57 36 26
f 57 18 3
f 57 4 18
f 57 26 4
f 49 41 54
f 49 54 47
f 49 46 41
f 49 47 46
f 32 31 43
f 32 11 1
f 32 1 31
f 32 2 11
f 32 43 2
f 48 43 31
f 48 31 38
f 48 38 50
f 56 59 52
f 56 52 37
f 56 37 59
f 55 52 59
f 55 59 51
f 55 39 52
f 55 50 39
f 55 51 50
f 53 40 51
f 34 6 1
f 34 1 23
f 34 20 19
f 34 23 20
f 42 48 50
f 42 43 48
f 42 50 40
f 42 40 41
f 42 41 43
f 58 54 45
f 58 53 51
f 58 45 40
f 58 40 53
f 58 59 54
f 58 51 59
f 21 19 6
f 21 6 34
f 21 34 19
f 16 17 1
f 16 33 17
f 16 1 18
f 16 18 33
f 22 33 23
f 22 23 1
f 44 17 33
f 44 33 22
f 44 1 17
f 44 22 1
