v 0.023706837 0.025348824 -0.029391659
v 0.033955394 0.025348922 -0.029391674
v 0.042053877 0.0067419049 -0.022285228
v -0.0016808716 0.033646448 -0.029391659
v -0.0016808729 0.037386119 -0.019145432
v -0.0016808716 0.035500509 -0.020405434
v 0.035437387 0.00673096 -0.019737361
v 0.034749616 0.00673096 -0.022280957
v 0.03789371 0.00673096 -0.01853527
v 0.03789371 0.0085183025 -0.018436612
v 0.0090244293 0.037386175 -0.018547061
v 0.012656953 0.037391506 -0.018469729
v 0.0017667531 0.042416458 -0.029391656
v 0.010752399 0.040995974 -0.029391659
v 0.019849341 0.033776373 -0.018478431
v 0.034283983 0.019340681 -0.018520253
v -0.0016808693 0.042444604 -0.029391643
v 0.0054147004 0.042130181 -0.02766626
v 0.029093663 0.028586407 -0.019128275
v -0.0016808716 0.037505562 -0.019148648
v 0.02229712 0.035985094 -0.019980782
v 0.025537331 0.034069582 -0.022334574
v 0.022574793 0.036164177 -0.022334574
v 0.0090244293 0.041589417 -0.022334574
v 0.01407698 0.040131274 -0.024137716
v 0.031101442 0.028777781 -0.029391659
v 0.033485141 0.026008981 -0.029391659
v 0.032113874 0.027933272 -0.022334574
v 0.029403373 0.030745967 -0.022334574
v 0.028388804 0.031550095 -0.029391659
v 0.019849341 0.036631208 -0.019487507
v 0.012638429 0.039939018 -0.01956257
v -0.0016808716 0.040908188 -0.019269824
v 0.0089475354 0.041508652 -0.02766626
v 0.03437796 0.022894299 -0.019306281
v 0.033237373 0.025692947 -0.019777038
v 0.028040648 0.031079557 -0.019744869
v 0.03789371 0.012124591 -0.018572799
v 0.040772948 0.012124591 -0.022280957
v 0.039892941 0.014442167 -0.020188817
v 0.019793807 0.037516101 -0.029391659
v 0.022416732 0.036062345 -0.029391659
v 0.017166609 0.038808326 -0.029391659
v 0.013970184 0.040046122 -0.029391659
v 0.015218636 0.039524667 -0.02000974
v 0.025401264 0.03395877 -0.029391659
v 0.023480429 0.033906297 -0.019239795
v 0.0090244293 0.040399025 -0.019323441
v 0.037549824 0.0175112 -0.019440862
v 0.040858385 0.00673096 -0.019327725
v 0.034180389 0.025314587 -0.02232117
v 0.037188851 0.02059779 -0.022280957
v 0.039606728 0.01552897 -0.022280957
v 0.036390012 0.021654748 -0.02008266
v 0.0185838 0.038236829 -0.024137716
v 0.0036119729 0.040787043 -0.019269824
v 0.040493142 0.010321448 -0.019552921
v 0.0018092453 0.042541027 -0.022334574
v 0.0054147004 0.042210947 -0.022334574
v -0.0016808716 0.042597208 -0.022334574
f 1 2 3
f 1 4 2
f 6 5 4
f 7 5 6
f 8 1 3
f 8 4 1
f 8 6 4
f 8 7 6
f 9 10 5
f 9 5 7
f 11 5 10
f 11 10 12
f 13 2 4
f 13 14 2
f 17 13 4
f 18 14 13
f 50 10 9
f 50 3 57
f 50 8 3
f 39 3 2
f 39 2 53
f 52 53 2
f 40 54 49
f 40 49 57
f 40 52 54
f 40 53 52
f 40 39 53
f 40 57 3
f 40 3 39
f 22 29 30
f 38 57 49
f 38 10 50
f 38 50 57
f 15 12 10
f 51 36 54
f 51 52 2
f 51 54 52
f 60 4 5
f 60 17 4
f 60 13 17
f 23 21 22
f 25 14 24
f 33 11 12
f 33 60 5
f 34 24 14
f 34 14 18
f 34 18 24
f 26 2 30
f 26 30 29
f 46 22 30
f 46 2 42
f 46 30 2
f 46 42 23
f 46 23 22
f 16 38 49
f 16 10 38
f 16 15 10
f 28 36 51
f 28 26 29
f 59 32 24
f 59 24 18
f 41 23 42
f 41 42 2
f 41 2 43
f 44 14 25
f 44 25 43
f 44 2 14
f 44 43 2
f 45 24 32
f 45 25 24
f 45 21 23
f 48 12 32
f 48 32 59
f 20 5 11
f 20 33 5
f 20 11 33
f 37 21 47
f 37 22 21
f 37 29 22
f 37 28 29
f 37 36 28
f 31 47 21
f 31 21 45
f 31 45 32
f 31 32 12
f 31 12 15
f 31 15 47
f 35 16 49
f 35 54 36
f 35 49 54
f 19 47 15
f 19 15 16
f 19 16 35
f 19 37 47
f 19 36 37
f 19 35 36
f 27 2 26
f 27 26 28
f 27 51 2
f 27 28 51
f 55 45 23
f 55 41 43
f 55 23 41
f 55 43 25
f 55 25 45
f 56 33 12
f 56 12 48
f 58 48 59
f 58 56 48
f 58 13 60
f 58 60 33
f 58 33 56
f 58 18 13
f 58 59 18
f 50 9 7
f 50 7 8
