v 0.014810654 0.005120756 0.028323343
v -0.014909227 0.0051207656 0.028323336
v 0.0129489 0.014254966 0.028323343
v 0.01136163 0.014368669 0.028323343
v 0.012153436 0.014313666 0.028323343
v 0.014604511 0.013446199 0.028323408
v -0.019175033 0.010376093 0.038077655
v -0.01725312 0.0070241403 0.036760022
v -0.0039076162 0.0056384324 0.036830677
v 0.014415479 0.005120756 0.029804249
v -0.01341295 0.005120756 0.030957178
v -0.015918204 0.0060031164 0.03340053
v -0.022556062 0.014564954 0.03807763
v -0.020764133 0.014563723 0.029750779
v -0.022080306 0.014416971 0.030846063
v -0.021689431 0.010441265 0.030395754
v -0.021320956 0.012444024 0.030019079
v -0.0096786137 0.014177776 0.028323343
v -0.013171568 0.014087645 0.028323343
v 0.014393535 0.0086136829 0.029804249
v -0.01264458 0.01457001 0.038083135
v -0.0050011502 0.0056384324 0.036749516
v -0.006069083 0.005120756 0.032216094
v -0.022305229 0.012280285 0.032514829
v -0.020764133 0.013976716 0.029752689
v -0.015000221 0.010911333 0.028323343
v -0.020667213 0.010884062 0.038077655
v -0.021413763 0.01069652 0.037325147
v -0.020270396 0.0083590046 0.030358993
v -0.01719369 0.0062776695 0.032665569
v -0.019647284 0.0075475361 0.033800358
v -0.018980282 0.0077188427 0.036619902
v -0.021950928 0.010828713 0.034803501
v -0.014593345 0.012873186 0.028323343
v -0.016009636 0.014563723 0.029533084
v -0.010092118 0.014564185 0.031123614
v -0.0095814664 0.014564647 0.034856255
v -0.020026699 0.0078658767 0.031990832
v 0.013819348 0.0051209858 0.030665744
v 0.0098731066 0.005120756 0.032216094
v 0.0071767597 0.0056384324 0.036789618
v 0.00030285539 0.0056384324 0.036866006
v 0.0077189548 0.0063151084 0.03674379
v 0.0090374126 0.0058076015 0.035841974
v 0.0084833318 0.0063151084 0.036316035
v 0.0076238649 0.0071036404 0.036713237
v 0.0022183686 0.012444024 0.037294713
v 0.013658416 0.013151207 0.030561412
v 0.0045334422 0.013229782 0.036715143
v -0.017699311 0.01025869 0.038077655
v -0.014316305 0.010841308 0.038077655
v 0.013065933 0.013685522 0.029952243
v 0.013775451 0.012128796 0.030612017
v 0.0022183686 0.013562574 0.036978673
v 0.0022183686 0.014114454 0.035933157
v 0.0037507791 0.014283623 0.034401647
v 0.0022183686 0.0093814157 0.037333859
v 0.0037507791 0.012922412 0.036939525
v 0.0037507791 0.013931418 0.035933157
v 0.0022183686 0.010910408 0.037333859
f 3 1 2
f 21 14 13
f 15 13 14
f 17 2 16
f 17 15 14
f 17 16 15
f 11 2 1
f 40 42 23
f 24 13 15
f 24 15 16
f 25 2 17
f 25 17 14
f 25 26 2
f 25 14 26
f 34 14 19
f 34 26 14
f 34 19 2
f 34 2 26
f 18 19 14
f 18 2 19
f 18 4 2
f 5 3 2
f 5 2 4
f 37 36 21
f 37 4 36
f 37 21 4
f 27 8 7
f 27 13 28
f 27 21 13
f 27 7 21
f 29 16 2
f 30 31 2
f 33 31 28
f 33 24 16
f 33 28 13
f 33 13 24
f 32 28 31
f 32 8 27
f 32 27 28
f 32 30 8
f 32 31 30
f 22 11 23
f 41 42 40
f 41 40 39
f 6 1 3
f 52 6 3
f 52 48 6
f 51 57 21
f 51 41 57
f 35 18 14
f 35 4 18
f 35 36 4
f 35 14 21
f 35 21 36
f 12 8 30
f 12 22 8
f 12 11 22
f 12 2 11
f 12 30 2
f 38 31 33
f 38 2 31
f 38 29 2
f 38 16 29
f 38 33 16
f 9 23 42
f 9 22 23
f 9 7 8
f 9 8 22
f 10 39 40
f 44 41 39
f 50 21 7
f 50 51 21
f 50 41 51
f 50 42 41
f 50 9 42
f 50 7 9
f 46 45 48
f 46 48 49
f 59 48 52
f 59 49 48
f 59 52 3
f 59 54 49
f 20 10 1
f 20 1 6
f 20 39 10
f 43 57 41
f 43 45 46
f 43 44 45
f 43 41 44
f 47 43 46
f 47 54 21
f 55 21 54
f 55 54 59
f 53 6 48
f 53 20 6
f 53 39 20
f 53 44 39
f 53 48 45
f 53 45 44
f 58 46 49
f 58 47 46
f 58 49 54
f 58 54 47
f 60 57 43
f 60 43 47
f 60 21 57
f 60 47 21
f 56 59 3
f 56 55 59
f 56 3 5
f 56 5 4
f 56 4 21
f 56 21 55
f 10 23 11
f 10 11 1
f 10 40 23
