v 0.0056849583 -0.004225013 0.019595884
v 0.013743683 0.0063134932 0.019595603
v -0.013848185 0.0063179789 0.019595605
v 0.013798449 -0.0001199507 0.019595603
v -0.0048169212 0.0085041833 -0.02644814
v -0.0067946617 0.0085041833 -0.027013646
v -0.013792532 -0.00050423615 0.019595601
v -0.013735324 -0.0012909644 0.019595587
v -0.011780404 -0.0036129381 0.019595461
v -0.012932707 -0.0030538127 0.019595278
v 0.0035571497 0.0085041833 -0.038071014
v 0.0072253798 0.0085041833 -0.032156184
v 0.0065489972 0.0074345718 -0.034685306
v -0.0040744867 0.0065405518 -0.035931257
v -0.0048311254 0.0085041833 -0.038305897
v 0.011410829 -0.0034656286 0.019595603
v -0.0096763863 0.004159471 -0.013135814
v -0.010579711 -0.0037797837 0.019595591
v -0.0054418982 -0.0042990429 0.019595603
v -0.0064767621 0.0021088358 -0.016490918
v -0.0034773472 -0.0031853722 0.012503855
v -0.0013457303 -0.0029010407 0.01051599
v 0.0013625021 -0.0036664634 0.015123084
v 0.0075960363 0.0070541698 -0.029310036
v 0.0076014471 0.005512669 -0.02778102
v 0.0066842731 0.0085041833 -0.026881935
v 0.0052828109 0.0085041833 -0.026183282
v 0.003751484 0.008504181 -0.026011439
v 0.012708806 -0.0025941494 0.018375824
v 0.012273892 -0.0021948317 0.014888291
v 0.012226546 -0.00064017208 0.0096426745
v -0.012947705 -0.0010249211 0.014269812
v -0.0074000389 0.0085063655 -0.031792343
v -0.0067459619 0.0085041833 -0.035580724
v -0.0072555407 -0.0041485685 0.019595591
v 0.011439237 0.0016338543 0.0012617144
v 0.0099092613 0.0016852365 -0.0071135198
v 0.0057413969 0.0050367473 -0.03167944
v -0.0046721758 0.00453294 -0.031109637
v -0.0063563659 0.0054111567 -0.032660127
v -0.0014147211 0.0045114778 -0.032091046
v 0.0098432831 -0.003729131 0.019595603
v 0.00097747164 0.0023286253 -0.019853897
v 0.0027940639 0.0045625476 -0.031877012
v 0.0071401553 0.0085041833 -0.02946036
v 0.013694971 -0.0012921773 0.019579855
v -0.0077551231 0.0055151767 -0.02776384
v -0.0063438533 0.0075116071 -0.035933632
v -0.0065592807 0.003618379 -0.024664287
v 0.0041469439 0.0061585106 -0.035149547
v 0.0076149753 0.0039837009 -0.023193967
v 0.0051536218 0.0036622425 -0.025648199
v -0.0032341882 0.0040050066 -0.029247041
v -0.0089198526 0.0028313364 -0.015160902
v -0.0069414365 0.0070494703 -0.033431798
v 0.0061675186 0.0039598906 -0.026418075
v -0.0023711249 0.0035613565 -0.026899116
v 0.0095609251 0.00014780976 -0.001806342
v 0.009780749 -0.0013344744 0.0061121917
v -0.00083979666 0.0040914811 -0.030272114
f 1 2 3
f 1 4 2
f 6 3 5
f 7 1 3
f 7 8 1
f 9 8 10
f 11 12 13
f 11 14 15
f 16 4 1
f 17 8 7
f 18 8 9
f 18 19 1
f 18 1 8
f 18 9 20
f 21 22 19
f 23 1 19
f 23 19 22
f 24 13 12
f 24 25 13
f 24 2 4
f 24 12 2
f 26 27 2
f 28 3 2
f 28 2 27
f 28 5 3
f 29 16 30
f 29 30 31
f 32 10 8
f 33 7 3
f 33 17 7
f 33 3 6
f 33 6 5
f 33 15 34
f 33 11 15
f 33 12 11
f 33 27 26
f 33 5 28
f 33 28 27
f 35 19 18
f 35 18 20
f 36 31 25
f 36 24 4
f 36 25 24
f 37 31 30
f 37 25 31
f 38 13 25
f 41 39 40
f 41 40 14
f 42 16 1
f 43 1 23
f 43 44 1
f 45 2 12
f 45 26 2
f 45 12 33
f 45 33 26
f 46 29 31
f 46 36 4
f 46 31 36
f 46 4 16
f 46 16 29
f 47 33 34
f 47 17 33
f 47 8 17
f 47 32 8
f 48 34 15
f 48 15 14
f 48 14 40
f 49 9 10
f 49 10 40
f 49 40 39
f 49 39 20
f 49 20 9
f 50 11 13
f 50 13 38
f 50 38 44
f 50 14 11
f 50 41 14
f 50 44 41
f 51 25 37
f 51 38 25
f 51 37 30
f 59 16 42
f 53 39 41
f 53 21 19
f 53 20 39
f 53 19 35
f 53 35 20
f 54 10 32
f 54 32 47
f 54 40 10
f 54 47 40
f 55 40 47
f 55 48 40
f 55 47 34
f 55 34 48
f 56 38 51
f 56 44 38
f 60 53 41
f 60 41 44
f 60 44 43
f 60 23 22
f 60 43 23
f 60 22 21
f 58 51 30
f 58 56 51
f 58 59 56
f 58 30 16
f 58 16 59
f 52 1 44
f 52 44 56
f 52 42 1
f 52 59 42
f 52 56 59
f 57 21 53
f 57 60 21
f 57 53 60
