v 0.0017576439 0.0089875777 -0.034669621
v 0.0050385672 0.01076947 -0.021969799
v 0.0017576439 0.01078175 -0.021969799
v 0.0020685425 0.0090059992 -0.034669621
v 0.0034867428 0.0092295024 -0.034669621
v -0.0010502494 0.014323429 -0.021969799
v -0.0010493582 0.012413821 -0.034669621
v -0.0010320993 0.012413821 -0.029195807
v 0.0052924536 0.010870169 -0.021969799
v 0.0044372564 0.0097268607 -0.034669621
v 0.0056211688 0.010501755 -0.034669621
v 0.0074473687 0.012855916 -0.021969799
v 0.0072727648 0.012571009 -0.021969799
v 0.007237134 0.012304524 -0.034669621
v 0.0080068107 0.014323429 -0.034669621
v -0.0010317658 0.018141416 -0.026093263
v -0.0010493582 0.018141416 -0.021969799
v -0.00049214573 0.019964447 -0.021969799
v -0.0010493582 0.016231808 -0.034669621
v -0.00057142962 0.018330537 -0.034669621
v 2.8989836e-05 0.019750461 -0.030866264
v 0.0002352161 0.019522966 -0.034669621
v -0.00090237252 0.012413821 -0.024661177
v -0.00067209306 0.012350576 -0.021969799
v -0.001031543 0.014149047 -0.021969799
v 0.0062647922 0.011702783 -0.021969799
v 0.008049568 0.018141416 -0.021969799
v 0.0080121555 0.016231808 -0.021969799
v 0.0080411061 0.016231808 -0.024661177
v 0.0079618221 0.014323429 -0.032298972
v 0.008049568 0.016231808 -0.034669621
v 0.0072216552 0.019822915 -0.028241082
v 0.0076887839 0.018141416 -0.034669621
v 0.0069289076 0.019432091 -0.034669621
v 0.0075284334 0.020051024 -0.021969799
v 0.0067694483 0.021195562 -0.021969799
v 0.0064732473 0.011420333 -0.034669621
v -0.00037232933 0.020051024 -0.023706453
v 0.00042184455 0.021188194 -0.021969799
v -0.00089680555 0.018141416 -0.030866264
v -0.00097987476 0.016726711 -0.034669621
v -0.0005282234 0.010504213 -0.034669621
v 0.00039823869 0.0092749399 -0.034669621
v 0.00021205497 0.011120691 -0.021969799
v 2.3643967e-05 0.010971483 -0.024661177
v 0.00015860591 0.0095401974 -0.034669621
v 0.0053294241 0.01990366 -0.034669621
v 0.0017576439 0.01997857 -0.034669621
v 0.0036659519 0.020006934 -0.034669621
v 0.00068953949 0.021081355 -0.025266581
v 0.0021015344 0.021575108 -0.021969932
v 0.0036666893 0.021369944 -0.023706453
v 0.0079372127 0.018141416 -0.029195807
v -0.00073044319 0.010997886 -0.034669621
v 0.00055324144 0.021175912 -0.023706453
v 0.0054124403 0.021523807 -0.021969935
v 0.0065716854 0.021035915 -0.024922233
v 0.0080379885 0.018141416 -0.024661177
v 0.006558323 0.019573317 -0.034669621
v 0.0066572031 0.021102231 -0.023706453
f 3 1 2
f 4 2 1
f 4 5 2
f 8 6 7
f 9 10 11
f 9 5 10
f 9 2 5
f 14 12 13
f 14 15 12
f 18 16 17
f 19 17 16
f 19 6 17
f 19 7 6
f 20 21 22
f 25 23 24
f 25 6 8
f 25 8 23
f 26 11 13
f 26 9 11
f 29 27 28
f 29 28 15
f 30 28 12
f 30 12 15
f 30 15 28
f 31 27 29
f 31 29 15
f 32 33 34
f 32 35 33
f 32 36 35
f 32 34 36
f 37 13 11
f 37 14 13
f 38 18 39
f 38 21 20
f 40 20 41
f 40 41 19
f 40 19 16
f 40 16 18
f 40 18 38
f 40 38 20
f 42 24 23
f 43 3 44
f 43 1 3
f 45 44 24
f 45 46 43
f 45 43 44
f 45 42 46
f 45 24 42
f 60 36 34
f 60 34 57
f 56 60 57
f 56 36 60
f 56 47 49
f 56 57 47
f 53 31 33
f 53 33 35
f 54 8 7
f 54 23 8
f 54 42 23
f 59 57 34
f 59 47 57
f 50 48 22
f 51 39 36
f 51 36 56
f 51 49 48
f 51 48 50
f 58 35 27
f 58 53 35
f 58 27 31
f 58 31 53
f 55 39 51
f 55 51 50
f 55 50 22
f 55 22 21
f 55 38 39
f 55 21 38
f 52 56 49
f 52 49 51
f 52 51 56
f 26 3 2
f 26 17 6
f 26 2 9
f 26 39 18
f 26 44 3
f 26 27 35
f 26 13 12
f 26 36 39
f 26 28 27
f 26 24 44
f 26 6 25
f 26 35 36
f 26 12 28
f 26 18 17
f 26 25 24
f 59 7 19
f 59 20 22
f 59 34 33
f 59 4 1
f 59 11 10
f 59 5 4
f 59 10 5
f 59 54 7
f 59 31 15
f 59 1 43
f 59 22 48
f 59 15 14
f 59 19 41
f 59 41 20
f 59 37 11
f 59 48 49
f 59 33 31
f 59 14 37
f 59 46 42
f 59 43 46
f 59 49 47
f 59 42 54
