v -0.0027437008 0.015289494 -0.044055726
v -0.0027268616 -0.015047543 -0.044050909
v 0.00024543401 0.00076685883 -0.058891627
v -0.059396142 -0.0025566356 -0.044988046
v -0.002735277 0.018510658 -0.047884064
v -0.0027527609 -0.017937257 -0.045005175
v -0.057060549 -0.015217796 -0.045040145
v -0.011249384 0.012041844 -0.086016887
v -0.0064363617 0.018371137 -0.084647739
v -0.0018287078 0.0098979511 -0.084737808
v -0.019381858 -0.017437983 -0.086015957
v -0.0500587 -0.0063668353 -0.086015036
v -0.039261549 -0.019002484 -0.086004691
v -0.032060863 0.031260863 -0.046622129
v -0.041422603 0.027710887 -0.068594652
v -0.042431634 0.027993542 -0.049836382
v -0.045616741 0.026756728 -0.048637851
v -0.021098114 0.019880175 -0.086001049
v -0.046009691 0.024378236 -0.084260677
v -0.010889087 0.025249082 -0.045874461
v -0.02923528 0.029117045 -0.044999612
v -0.00015460706 -0.0037958237 -0.058145169
v -0.0027141937 -0.018336062 -0.050369438
v -0.038933263 -0.028868292 -0.045051126
v -0.018485425 -0.029344804 -0.045769538
v -0.059292527 -0.0096145139 -0.048075369
v -0.057352344 -0.0095440442 -0.082899093
v -0.055188918 0.014535746 -0.084822414
v -0.058998113 -0.00048201202 -0.084605746
v -0.058521704 0.0058832613 -0.081780862
v -0.0097585673 -0.0073303521 -0.086013806
v -0.0062128011 -0.01812085 -0.084634962
v -0.043242421 0.026168416 -0.045005601
v -0.01265632 0.024176987 -0.084355479
v -0.030140178 0.029475654 -0.084692133
v -0.018364777 0.027154697 -0.083671515
v -0.050869704 0.020249696 -0.084683268
v -0.05672675 0.01557591 -0.047673509
v -0.042129288 0.017994751 -0.085990943
v -0.036350177 0.028634222 -0.084131837
v -0.027154629 0.031210564 -0.047247336
v 8.0813732e-05 -0.0027603472 -0.0818336
v -0.047708485 -0.023537095 -0.07905322
v -0.044777746 -0.027447584 -0.045051891
v -0.042006594 -0.026616832 -0.084335868
v -0.040397231 -0.029255998 -0.048906158
v -0.03256992 -0.031132201 -0.048224721
v -0.052163903 -0.018859676 -0.084515927
v -0.013653392 -0.024976435 -0.084615451
v -0.021556611 -0.028253133 -0.084514316
v -0.036535872 -0.028545345 -0.084692283
v -0.028554899 -0.029544783 -0.082961347
v -0.052040508 0.019985186 -0.045005626
v -0.023133098 0.030581902 -0.048857517
v -0.0015699738 -0.0091245485 -0.084117159
v -0.025604336 -0.031092262 -0.04783066
v -0.058383436 -0.0058069952 -0.084122892
v -0.012050217 -0.025841116 -0.049231451
v -0.059064195 0.010586274 -0.045037073
v -7.144464e-06 0.0030746898 -0.083951218
f 1 2 3
f 1 4 2
f 5 1 3
f 6 3 2
f 7 2 4
f 10 8 9
f 10 9 5
f 11 12 8
f 11 13 12
f 16 14 15
f 17 16 15
f 17 14 16
f 18 9 8
f 19 17 15
f 20 1 5
f 20 21 1
f 22 3 6
f 22 6 23
f 25 2 24
f 25 6 2
f 26 7 4
f 26 27 7
f 29 28 12
f 29 30 28
f 29 26 4
f 31 8 10
f 31 11 8
f 31 32 11
f 33 21 14
f 33 14 17
f 33 1 21
f 34 9 18
f 34 18 35
f 34 35 36
f 34 36 20
f 34 5 9
f 34 20 5
f 37 19 35
f 37 28 38
f 37 38 17
f 37 17 19
f 39 12 28
f 39 28 37
f 39 8 12
f 39 18 8
f 39 35 18
f 39 37 35
f 40 19 15
f 40 35 19
f 40 15 14
f 40 14 35
f 41 14 21
f 41 21 20
f 41 35 14
f 42 22 23
f 42 3 22
f 44 7 43
f 44 43 45
f 44 45 46
f 44 24 2
f 44 2 7
f 44 47 24
f 44 46 47
f 48 12 13
f 48 29 12
f 48 45 43
f 48 7 27
f 48 43 7
f 49 11 32
f 49 50 11
f 49 25 50
f 49 32 23
f 51 13 11
f 51 11 50
f 51 48 13
f 51 45 48
f 51 50 52
f 51 52 47
f 51 46 45
f 51 47 46
f 53 17 38
f 53 33 17
f 53 1 33
f 54 20 36
f 54 41 20
f 54 36 35
f 54 35 41
f 55 32 31
f 55 31 10
f 55 23 32
f 55 42 23
f 56 25 24
f 56 24 47
f 56 47 52
f 56 52 50
f 56 50 25
f 57 48 27
f 57 29 48
f 57 27 26
f 57 26 29
f 58 49 23
f 58 25 49
f 58 23 6
f 58 6 25
f 59 53 38
f 59 4 1
f 59 1 53
f 59 29 4
f 59 30 29
f 59 38 28
f 59 28 30
f 60 55 10
f 60 42 55
f 60 3 42
f 60 5 3
f 60 10 5
