v -0.05871097 0.0016348911 -0.057482042
v -0.058709587 -0.00083171684 -0.057482042
v -0.058667689 -0.00083171684 -0.061182151
v -0.059542657 -0.0045357567 -0.056242614
v -0.059511491 -0.0045651703 -0.059332093
v -0.05908215 -0.0032983248 -0.05871583
v -0.059150012 0.00040158705 -0.055711879
v -0.059282971 0.003315074 -0.055891718
v -0.062013809 -0.005021338 -0.062414682
v -0.063246788 -0.0051353802 -0.05871583
v -0.065741145 -0.0052179446 -0.062414682
v -0.063246788 0.0050902059 -0.057482042
v -0.065741145 0.0051149752 -0.057466375
v -0.06574016 0.0040093903 -0.055305373
v -0.059368494 0.00040158705 -0.066302143
v -0.059424929 -0.0023426432 -0.066243242
v -0.06078083 -0.00083171684 -0.066833506
v -0.062013809 -0.002915949 -0.066542762
v -0.058912487 -0.00083171684 -0.064881002
v -0.05894573 0.0016348911 -0.064881002
v -0.05951703 -0.0045594943 -0.063735568
v -0.059345296 -0.0032983248 -0.055975684
v -0.06078083 -0.00083171684 -0.054808944
v -0.063246788 0.0016348911 -0.054448021
v -0.06078083 0.0037423442 -0.055532047
v -0.06078083 0.0016348911 -0.054811446
v -0.065741145 0.0016348911 -0.054440496
v -0.065741145 -0.00084926181 -0.054437993
v -0.063246788 -0.0032983248 -0.054953061
v -0.063246788 -0.00083171684 -0.054444261
v -0.065741145 -0.0033070972 -0.054949302
v -0.065741145 -0.0048138958 -0.055861014
v -0.06078083 -0.0032983248 -0.055327771
v -0.064232203 -0.0043339906 -0.065830309
v -0.065741145 -0.0047081094 -0.065209341
v -0.065741145 -0.0021909315 -0.066862642
v -0.065741145 -0.00079456299 -0.06723704
v -0.062637401 -0.0048195715 -0.064140982
v -0.06078083 -0.0048670463 -0.05871583
v -0.059119542 0.0035901164 -0.05871583
v -0.059189138 0.0034652379 -0.063647842
v -0.06078083 0.0047506607 -0.061182151
v -0.058669423 0.0016348911 -0.061182151
v -0.065741145 0.0052491428 -0.059905756
v -0.065741145 0.0053213863 -0.062680989
v -0.063246788 0.0051562579 -0.061182151
v -0.062013809 0.00439099 -0.064881002
v -0.06078083 0.0046846093 -0.057482042
v -0.065741145 0.004800199 -0.064715579
v -0.062013809 0.0033481 -0.066447512
v -0.065741145 0.003465754 -0.066585368
v -0.063246788 -0.00083171684 -0.067143047
v -0.062013809 0.0016348911 -0.066892407
v -0.065741145 0.001652952 -0.067139916
v -0.065741145 -0.0052004001 -0.059980946
v -0.065741145 -0.0051446687 -0.057505856
v -0.062013809 -0.0047359751 -0.055951241
v -0.059468561 0.002985849 -0.066194369
v -0.06078083 -0.0040042495 -0.065392317
v -0.059171133 -0.0032580746 -0.063550718
f 1 2 3
f 6 4 5
f 6 2 4
f 6 3 2
f 7 1 8
f 7 2 1
f 9 10 11
f 21 6 5
f 40 41 42
f 40 8 1
f 12 13 14
f 22 7 23
f 22 4 2
f 22 2 7
f 25 14 24
f 25 12 14
f 26 7 8
f 26 23 7
f 26 8 25
f 26 25 24
f 27 24 14
f 27 14 13
f 30 28 29
f 30 29 23
f 30 27 28
f 30 24 27
f 30 23 26
f 30 26 24
f 31 29 28
f 31 32 29
f 33 23 29
f 33 4 22
f 33 22 23
f 36 34 35
f 38 11 35
f 38 9 11
f 38 21 9
f 38 35 34
f 38 34 21
f 39 4 10
f 39 10 9
f 39 5 4
f 39 21 5
f 39 9 21
f 43 20 41
f 43 41 40
f 43 40 1
f 43 1 3
f 16 17 15
f 60 3 6
f 60 6 21
f 60 21 16
f 54 52 37
f 49 45 47
f 58 15 17
f 58 41 20
f 58 20 15
f 58 42 41
f 58 47 42
f 44 12 45
f 44 13 12
f 46 45 12
f 46 47 45
f 46 42 47
f 48 8 40
f 48 40 42
f 48 25 8
f 48 12 25
f 48 42 46
f 48 46 12
f 55 11 10
f 55 10 56
f 57 32 56
f 57 29 32
f 57 10 4
f 57 56 10
f 57 4 33
f 57 33 29
f 59 21 34
f 59 16 21
f 19 15 20
f 19 16 15
f 19 43 3
f 19 20 43
f 19 3 60
f 19 60 16
f 18 34 36
f 18 59 34
f 18 16 59
f 18 36 37
f 18 37 52
f 18 52 17
f 18 17 16
f 50 47 58
f 50 51 49
f 50 49 47
f 50 54 51
f 53 54 50
f 53 50 58
f 53 52 54
f 53 17 52
f 53 58 17
f 55 54 37
f 55 45 49
f 55 35 11
f 55 28 27
f 55 44 45
f 55 31 28
f 55 37 36
f 55 56 32
f 55 27 13
f 55 32 31
f 55 36 35
f 55 51 54
f 55 49 51
f 55 13 44
