v 0.025011817 0.10504566 -0.044451131
v 0.024999361 0.13086552 -0.0099817625
v 0.025404085 0.04994287 -0.039130152
v 0.025001875 0.11145777 0.040290118
v 0.024941296 0.076910814 0.050302711
v -0.02277261 0.06558651 0.04803576
v -0.021359855 0.076891024 0.050363128
v -0.023987682 0.06812969 0.045727596
v -0.02398836 0.049041391 0.035838035
v -0.020614901 -0.00066558432 0.00028573871
v -0.023946549 0.028567499 0.0035962991
v -0.021120242 0.083465531 -0.050651374
v 0.005217558 0.08991245 -0.049898171
v 0.0066383162 0.071495466 -0.04968863
v -0.021033472 0.12853075 -0.017725753
v -0.023970365 0.1310931 -0.0077801005
v 0.025012483 0.12787513 0.019324999
v 0.025012453 0.059264578 -0.045344683
v -0.021487145 0.066157718 -0.048261374
v -0.02383926 0.057704372 -0.044271184
v -0.023988844 0.081721237 -0.04844758
v 0.025011956 0.080393143 -0.047902246
v -0.018910375 9.7501433e-08 -0.0084194853
v -0.015740377 9.0913493e-08 -0.013443604
v -0.011273994 7.6420041e-08 -0.017360502
v -0.005879079 5.5338649e-08 -0.019847578
v -0.023987682 0.037731384 -0.026835472
v -0.021422606 0.10372698 -0.045294306
v 0.022231098 0.11062286 -0.040999929
v 0.02246856 0.12203121 -0.02971791
v -0.02102354 0.11957628 -0.032952771
v -0.021074374 0.12539136 -0.02435623
v -0.023987527 0.10357829 0.043433943
v -0.020993985 0.13078745 0.0098813296
v -0.021289411 0.12290721 0.028582353
v -0.02100252 0.11088109 0.040952192
v 0.0058791555 2.6351738e-09 -0.019847557
v 3.9514345e-08 3.0304498e-08 -0.0207
v 0.011274198 2.4480765e-06 -0.017361908
v 0.01574043 -5.1385889e-08 -0.013443545
v -0.023986419 0.11204895 -0.039926427
v -0.021176247 0.092357875 0.049280357
v 0.02278705 0.11820238 0.034560324
v -0.023529496 0.12743971 0.020270206
v 0.020705418 -6.3771209e-07 0.0016040779
v 0.018910375 -9.8819021e-08 0.0084194853
v 0.025000547 0.027290215 5.4885219e-05
v 0.011273994 -7.6420041e-08 0.017360502
v 0.005879079 -5.6656237e-08 0.019847578
v -0.019168313 3.1490326e-07 0.0079030435
v 5.6722841e-06 -1.0134878e-05 0.020695782
v 0.022537189 0.09457976 0.048792926
v -0.021092606 0.10222122 0.045913161
v 0.019741231 0.00039308098 -0.0070575291
v 0.015738362 9.5129775e-07 0.013447051
v -0.01574043 5.1385889e-08 0.013443545
v -0.011274061 2.503415e-08 0.017360459
v -0.0058791555 -2.6351738e-09 0.019847557
v 0.023273093 0.063733639 0.047252422
v 0.02501278 0.047038782 0.034248124
f 1 2 3
f 4 5 3
f 6 5 7
f 6 7 8
f 6 8 9
f 11 10 9
f 19 20 21
f 19 14 18
f 15 16 2
f 17 3 2
f 17 4 3
f 28 1 13
f 28 29 1
f 22 18 14
f 22 14 13
f 22 13 1
f 22 1 3
f 22 3 18
f 23 24 10
f 23 20 24
f 25 20 26
f 25 24 20
f 25 26 10
f 25 10 24
f 27 10 11
f 27 23 10
f 27 20 23
f 27 21 20
f 27 9 21
f 27 11 9
f 12 19 21
f 12 14 19
f 12 13 14
f 12 21 28
f 12 28 13
f 30 15 2
f 30 29 31
f 30 2 1
f 30 1 29
f 32 16 15
f 32 30 31
f 32 15 30
f 33 8 7
f 33 21 9
f 33 9 8
f 34 2 16
f 34 17 2
f 35 33 36
f 38 18 37
f 38 19 18
f 38 10 26
f 38 37 10
f 38 26 20
f 38 20 19
f 39 40 10
f 39 10 37
f 39 3 40
f 39 18 3
f 39 37 18
f 41 31 29
f 41 29 28
f 41 16 32
f 41 32 31
f 41 28 21
f 41 21 33
f 41 33 16
f 42 7 5
f 42 33 7
f 43 36 4
f 43 35 36
f 43 4 17
f 43 17 35
f 44 17 34
f 44 35 17
f 44 34 16
f 44 16 33
f 44 33 35
f 45 10 40
f 45 46 10
f 45 3 47
f 48 49 10
f 50 9 10
f 51 10 49
f 52 5 4
f 52 42 5
f 53 36 33
f 53 33 42
f 53 42 52
f 53 4 36
f 53 52 4
f 54 40 3
f 54 3 45
f 54 45 40
f 55 10 46
f 55 48 10
f 56 9 50
f 56 6 9
f 56 57 6
f 56 10 57
f 56 50 10
f 58 57 10
f 58 10 51
f 58 6 57
f 58 51 6
f 59 48 55
f 59 49 48
f 59 51 49
f 59 5 6
f 59 6 51
f 60 55 46
f 60 59 55
f 60 46 45
f 60 5 59
f 60 45 47
f 60 3 5
f 60 47 3
