v -0.010258121 0.0087484363 -0.054113415
v 0.031630772 0.0095358848 0.0053068719
v 0.0039317409 0.0056027287 -0.11449997
v -0.0069593953 0.0051301951 -0.11448226
v -0.022347723 -0.079909561 0.02696296
v -0.040029196 -0.074931325 0.014739522
v -0.028700847 -0.079910747 -0.004602856
v 0.025484561 -0.06706722 -0.11448216
v 0.0056072456 -0.075656942 -0.11448381
v 0.040556708 -0.040494178 -0.11448276
v 0.042297864 -0.062811054 -0.027096844
v 0.043481099 -0.039026387 -0.032894534
v -0.028303394 -0.064559045 -0.11448231
v -0.040929977 -0.036621619 -0.11448458
v -0.025178889 -0.002758404 -0.11448268
v -0.042091504 -0.03476545 -0.058773824
v -0.040852095 -0.064370875 -0.014797581
v -0.019715307 0.00972172 -0.024966577
v -0.029227232 0.010105352 0.00028315002
v -0.041173568 -0.0085764548 -0.016069586
v -0.038568516 0.0051587371 -0.0057036647
v -0.040210885 -0.027827299 -0.11433212
v 0.014977273 -0.073090832 -0.11448229
v 0.037535106 -0.051053992 -0.11448154
v 0.038912531 -0.071550005 -0.018604465
v 0.02599482 -0.0034674182 -0.11448334
v 0.03308013 -0.011034867 -0.11447841
v 0.016989075 0.0020288033 -0.11447388
v 0.042556463 -0.007883871 -0.028360375
v 0.0143369 -0.07936042 -0.018885046
v -0.016362759 -0.079701254 -0.032466547
v -0.0074959029 -0.075293996 -0.11448229
v -0.038797022 -0.047784323 -0.11448233
v -0.037117516 -0.074663195 -0.0023075751
v -0.037212167 -0.018034459 -0.11443511
v -0.015271846 0.002912182 -0.11447579
v 0.02690293 0.0097619951 0.023926284
v -0.016127476 0.0097813357 0.02827027
v -0.0013477949 0.0055603569 0.036070097
v -0.039249655 0.0047779206 0.0096829218
v 0.014822559 -0.075871903 0.032986971
v -0.014444027 -0.076068897 0.033262092
v 0.032050772 -0.060562905 -0.11448134
v 0.011030644 0.0042628696 -0.11446672
v 0.038207776 0.0044437154 -0.0070985536
v -0.01909642 -0.071379995 -0.11448228
v -0.034285809 -0.057387665 -0.11448194
v -0.032153196 -0.0098470299 -0.11431878
v 0.0080467321 0.0053982103 0.035326621
v -0.024682583 0.0056914414 0.026900988
v 0.022071561 0.0055925019 0.028572754
v 0.028775999 -0.075841726 0.021696154
v 0.035137873 -0.076807555 -0.0067412359
v 0.03279235 0.0054774906 0.015442061
v 0.025158612 -0.079934468 0.017330669
v 0.035275834 -0.075770176 0.007183067
v 0.030832668 -0.07932209 0.0016256749
f 1 2 3
f 1 3 4
f 7 5 6
f 8 9 3
f 8 3 10
f 11 10 12
f 15 4 3
f 15 3 14
f 17 16 14
f 18 4 19
f 18 1 4
f 18 19 2
f 18 2 1
f 20 16 17
f 20 17 6
f 20 21 22
f 20 14 16
f 20 22 14
f 23 9 8
f 24 8 10
f 24 10 11
f 24 11 25
f 26 10 3
f 26 27 10
f 26 3 28
f 29 11 12
f 29 12 10
f 29 10 27
f 31 9 30
f 46 3 9
f 35 14 22
f 35 15 14
f 35 22 21
f 36 19 4
f 36 4 15
f 36 21 19
f 36 15 21
f 33 14 47
f 33 17 14
f 33 47 6
f 33 6 17
f 37 38 39
f 37 2 19
f 37 19 38
f 40 20 6
f 40 21 20
f 40 19 21
f 40 38 19
f 42 5 41
f 42 41 39
f 42 6 5
f 43 25 8
f 43 24 25
f 43 8 24
f 44 3 2
f 44 28 3
f 44 2 28
f 45 28 2
f 45 26 28
f 45 27 26
f 45 29 27
f 45 11 29
f 32 9 31
f 32 46 9
f 32 31 7
f 32 7 46
f 13 6 47
f 13 47 14
f 13 14 3
f 13 3 46
f 48 21 15
f 48 35 21
f 48 15 35
f 49 39 41
f 49 37 39
f 50 40 6
f 50 38 40
f 50 6 42
f 50 39 38
f 50 42 39
f 34 6 13
f 34 13 46
f 34 7 6
f 34 46 7
f 51 49 41
f 51 37 49
f 51 41 52
f 51 52 37
f 53 8 25
f 53 23 8
f 54 37 52
f 54 2 37
f 54 45 2
f 55 41 5
f 55 52 41
f 55 31 30
f 55 5 7
f 55 7 31
f 56 53 25
f 56 25 11
f 56 52 55
f 56 54 52
f 56 11 45
f 56 45 54
f 57 30 9
f 57 55 30
f 57 9 23
f 57 23 53
f 57 53 56
f 57 56 55
