v -0.0015306159 0.027251006 -0.086520347
v 0.016247636 -0.0089922606 -0.077057687
v 0.001124466 0.011060377 0.048660521
v 0.0091292356 0.012271549 -0.088534917
v 0.012456656 -0.0089922548 0.040454205
v 0.012459343 -0.0089924073 0.047555298
v -0.0014686876 0.056604164 -0.020634119
v -0.0014720729 0.040986684 -0.091099456
v -0.00015322368 0.039979308 -0.093391641
v 0.021285192 -0.0089922606 -0.077057687
v 0.016848702 0.0065626103 -0.093335178
v -0.0014687162 0.055388201 -0.0070091459
v -0.0014386784 0.035987427 -0.093849431
v 0.029495934 -0.008991856 -0.020793444
v 0.027922675 -0.0089910242 -0.040276464
v 0.021604792 0.0065610229 -0.092100034
v 0.027684094 0.0010852927 -0.036288718
v 0.029392986 -0.0089921961 -0.0070091866
v 0.027108661 -0.0089922225 0.018037595
v 0.026792108 0.0073714754 -0.003561223
v 0.020521261 0.0070933685 -0.094454868
v 0.017150268 0.020590344 -0.093772112
v 0.0085666465 0.032587727 -0.093908268
v 0.01459596 0.025317672 -0.093621225
v 0.011158929 0.037543727 -0.062106845
v 0.013840297 0.042339269 -0.028420059
v 0.025678773 0.014979288 -0.031089814
v 0.02132962 0.027421116 -0.016273597
v -0.0014682284 0.04793318 -0.0020680472
v 0.0017017627 0.01107016 0.050281682
v 0.0027717132 0.01107016 0.050808586
v 0.0075938768 0.012142581 0.049987456
v 0.0045373523 0.011140008 0.050922824
v 0.013093668 0.0216571 0.03400024
v 0.019009451 0.011613227 0.035864236
v 0.016637453 0.028585207 0.015020813
v 0.022377119 -0.0089922606 0.032819158
v 0.012996356 0.0083342947 0.046291
v -0.0014622871 0.038769988 -0.094369827
v 0.0026689695 0.037787605 -0.093743023
v 0.024111249 0.012722437 0.013916343
v 0.018975546 0.027111651 0.0078982725
v 0.026051721 0.011201782 -0.036927348
v 0.019464595 0.015427624 -0.093624396
v 0.018669099 0.034258651 -0.02818311
v -0.001468686 0.052851359 -0.0037328806
v 0.012013502 0.042266064 -0.0043230661
v 0.0067253361 0.050328959 -0.0098650867
v 0.0046024504 0.049737667 0.0004965753
v 0.0072482798 0.040025624 0.013065378
v 0.0083848439 0.049430751 -0.02676667
v 0.0018459589 0.055301684 -0.020184543
v 0.0033597315 0.0111793 0.050908266
v 0.01152161 0.033103314 0.017613322
v 0.0098794574 0.022793034 0.035243625
v 0.012286089 0.016726158 0.041537959
v 0.018436523 -0.0089922606 0.040133861
v 0.022663563 0.0090569796 0.026650858
v 0.021350634 0.010646823 -0.086793535
v 0.02192342 0.025717119 -0.034208945
f 3 1 2
f 4 2 1
f 5 2 6
f 5 6 3
f 5 3 2
f 8 1 7
f 8 7 9
f 10 6 2
f 11 2 4
f 12 7 1
f 13 4 1
f 13 11 4
f 15 14 10
f 15 10 16
f 15 17 14
f 15 16 17
f 18 19 6
f 18 6 10
f 18 10 14
f 18 14 20
f 18 20 19
f 21 10 2
f 21 2 11
f 21 16 10
f 21 11 13
f 23 22 21
f 24 25 26
f 24 22 23
f 24 23 25
f 27 28 20
f 27 20 14
f 27 14 17
f 29 1 3
f 30 3 6
f 30 6 31
f 33 6 32
f 34 35 36
f 37 6 19
f 38 32 6
f 39 8 9
f 39 1 8
f 39 13 1
f 39 21 13
f 39 23 21
f 40 39 9
f 40 23 39
f 41 19 20
f 41 20 28
f 41 28 42
f 41 42 36
f 43 17 16
f 43 27 17
f 44 21 22
f 44 16 21
f 45 22 24
f 45 24 26
f 46 29 3
f 46 3 30
f 46 12 1
f 46 1 29
f 46 30 31
f 47 36 42
f 47 26 48
f 47 45 26
f 47 42 28
f 47 28 45
f 49 48 12
f 49 32 50
f 49 12 32
f 49 47 48
f 49 36 47
f 51 48 26
f 51 26 25
f 51 40 9
f 51 25 23
f 51 23 40
f 52 7 12
f 52 12 48
f 52 48 51
f 52 9 7
f 52 51 9
f 53 33 32
f 53 32 12
f 53 31 6
f 53 6 33
f 53 12 46
f 53 46 31
f 54 34 36
f 54 50 34
f 54 36 49
f 54 49 50
f 55 50 32
f 55 34 50
f 56 35 34
f 56 32 38
f 56 38 35
f 56 55 32
f 56 34 55
f 57 37 35
f 57 35 38
f 57 6 37
f 57 38 6
f 58 19 41
f 58 37 19
f 58 35 37
f 58 36 35
f 58 41 36
f 59 27 43
f 59 44 27
f 59 43 16
f 59 16 44
f 60 28 27
f 60 45 28
f 60 27 44
f 60 44 22
f 60 22 45
