v -0.0012700432 0.041744926 -0.12957859
v -0.0012789166 0.048255475 0.019055211
v -0.0012660859 0.029158663 -0.16186641
v -0.0012700432 0.035965825 -0.16299181
v -0.0012725535 0.039021295 -0.16101618
v -0.022390245 0.023404984 -0.17299098
v -0.040974563 0.014076203 -0.15702495
v -0.022384399 0.031735307 -0.17322231
v -0.022384399 0.018842945 -0.17107004
v -0.033531664 0.014082783 -0.15709706
v -0.0012791509 0.038626644 0.019515276
v -0.0012699001 0.029121514 -0.1323393
v -0.037485742 0.032468215 -0.0031360715
v -0.02580526 0.041166311 0.022236637
v -0.030599189 0.039031955 -0.014272657
v -0.036541561 0.031578231 0.022009488
v -0.022384522 0.038719238 -0.17046188
v -0.022384399 0.01764492 -0.16652422
v -0.036509142 0.013649242 0.020327308
v -0.036850209 0.013649242 0.022605042
v -0.025083382 0.035969229 0.023763212
v -0.047566286 0.013650159 -0.003179211
v -0.046452993 0.013706178 0.022175831
v -0.044297949 0.021550524 0.0049948355
v -0.040781205 0.029054293 -0.034851879
v -0.045523123 0.02038051 -0.017965353
v -0.04691664 0.013649257 -0.076304918
v -0.042367793 0.020637895 -0.11599511
v -0.044022709 0.013649204 -0.12217589
v -0.035285417 0.035208383 -0.044341783
v -0.038740757 0.030459842 -0.080896981
v -0.028843082 0.03982792 -0.045459198
v -0.0012791393 0.04782268 -0.027310906
v -0.0057440874 0.048166333 0.00093807084
v -0.023747513 0.042927246 0.0024509254
v -0.022384399 0.036272136 -0.17259497
v -0.037166405 0.025026274 -0.15666752
v -0.0012693422 0.028525196 -0.14911025
v -0.035754247 0.013649242 -0.043951163
v -0.0012791004 0.044425175 0.023840847
v -0.037856133 0.022235386 0.023959089
v -0.040657821 0.02570547 -0.10390197
v -0.0012791018 0.044741068 -0.090414936
v -0.0072502716 0.046668025 -0.05002536
v -0.011928299 0.046819971 0.022165935
v -0.023646066 0.042605713 -0.045752816
v -0.030421985 0.03786862 -0.082331673
v -0.03329635 0.030710851 -0.15646173
v -0.039324653 0.019633619 -0.15702902
v -0.036963901 0.013649242 -0.1222435
v -0.0012791398 0.04044811 0.02289451
v -0.0404994 0.013649235 0.023901973
v -0.045589094 0.019076758 -0.060436245
v -0.034862745 0.034998269 -0.069674998
v -0.0085789525 0.043524157 -0.1039886
v -0.0012791416 0.047356478 0.02267803
v -0.018746345 0.04424308 -0.048101277
v -0.03385357 0.034078918 -0.10623626
v -0.014170257 0.045638699 -0.043963697
v -0.014179047 0.046559882 -0.018307388
f 1 2 3
f 4 1 3
f 4 5 1
f 6 7 8
f 6 9 7
f 6 3 9
f 6 4 3
f 6 8 4
f 10 7 9
f 12 3 11
f 13 14 15
f 13 16 14
f 30 13 15
f 32 30 15
f 17 1 5
f 18 10 9
f 18 9 3
f 19 11 20
f 19 12 11
f 21 14 16
f 24 23 16
f 24 16 13
f 24 26 22
f 24 22 23
f 29 49 7
f 25 13 30
f 25 26 24
f 25 24 13
f 33 2 1
f 33 34 2
f 35 15 14
f 35 32 15
f 36 5 4
f 36 17 5
f 36 4 8
f 36 8 7
f 36 7 49
f 36 49 37
f 36 37 17
f 38 12 19
f 38 19 18
f 38 3 12
f 38 18 3
f 39 10 18
f 39 18 19
f 39 19 29
f 40 3 2
f 41 40 21
f 41 16 23
f 41 21 16
f 53 22 26
f 53 27 22
f 53 26 25
f 28 29 27
f 28 27 53
f 28 53 42
f 28 49 29
f 28 37 49
f 28 42 37
f 43 1 17
f 43 33 1
f 44 34 33
f 44 33 43
f 45 35 14
f 45 2 34
f 45 14 21
f 45 21 40
f 46 32 35
f 46 47 32
f 46 17 47
f 54 30 32
f 54 32 47
f 50 10 39
f 50 39 29
f 50 7 10
f 50 29 7
f 51 20 11
f 51 11 3
f 51 3 40
f 52 40 41
f 52 20 51
f 52 51 40
f 52 41 23
f 52 23 22
f 52 22 27
f 52 27 29
f 52 19 20
f 52 29 19
f 55 43 17
f 55 17 44
f 55 44 43
f 56 40 2
f 56 2 45
f 56 45 40
f 57 17 46
f 31 25 30
f 31 30 54
f 31 42 53
f 31 53 25
f 59 44 17
f 59 17 57
f 60 46 35
f 60 57 46
f 60 35 45
f 60 59 57
f 60 45 34
f 60 34 44
f 60 44 59
f 48 37 42
f 48 42 31
f 48 17 37
f 58 31 54
f 58 48 31
f 58 54 47
f 58 47 17
f 58 17 48
