v -0.06253876 -0.0096663701 0.040322371
v -0.06253876 -0.0096663761 0.047520038
v -0.079494827 -0.0096663879 -0.018355131
v -0.062253148 0.0060637488 -0.087260075
v -0.067592031 -0.0096663434 -0.0045552372
v -0.048849111 0.029020419 -0.08006762
v -0.048801167 0.029371994 -0.087936079
v -0.048849883 0.038931963 -0.094335195
v -0.048855313 0.05671564 -0.023377217
v -0.062211056 0.0060637488 -0.086745961
v -0.074756666 -0.0096663701 -0.018355548
v -0.05507657 0.019546502 0.033125603
v -0.049686495 0.037400843 -0.0019735292
v -0.048850724 0.035624964 -0.093735068
v -0.062710578 0.0080646306 0.046763364
v -0.078375694 -0.0023853617 0.0021117097
v -0.078780332 -0.0032086637 -0.017603491
v -0.075669257 0.015118538 -0.029126752
v -0.065266324 0.033933544 0.0064638626
v -0.056365907 0.050886928 -0.0094675502
v -0.066154034 0.039164168 -0.02016513
v -0.055000947 0.049218069 0.0011246711
v -0.068028407 0.023541711 0.022076239
v -0.048857025 0.056498984 -0.024987993
v -0.049893615 0.039984775 -0.093496921
v -0.052087811 0.05533823 -0.022431761
v -0.057203266 0.050812721 -0.025726763
v -0.059025125 0.03213178 -0.093907186
v -0.062032183 0.044043206 -0.031215627
v -0.067765137 0.035546942 -0.029988243
v -0.076440034 0.0099302469 -0.035094732
v -0.071156416 0.025453649 -0.00590677
v -0.071848817 0.011174264 0.028555711
v -0.06781795 0.0060637488 -0.093776754
v -0.066771997 -0.0096663029 0.042637497
v -0.073397491 -0.0096663701 0.030477798
v -0.076089248 -0.0096663701 0.021362857
v -0.070119669 -0.0096662534 0.037790453
v -0.05832081 0.023103092 0.035056226
v -0.056480905 0.023103092 0.034215585
v -0.048853732 0.052677273 -0.003515859
v -0.065849901 0.019283984 0.03312484
v -0.0554407 0.022137376 0.03312484
v -0.078417699 -0.0096640565 0.011043497
v -0.059458417 0.048081609 -0.027616085
v -0.061793545 0.02886029 -0.094290902
v -0.053862341 0.037046602 -0.092875565
v -0.070559806 0.019226312 -0.070380272
v -0.067194023 0.020555257 -0.093882286
v -0.075511804 0.01474181 -0.014338128
v -0.04885289 0.047218487 -0.0023131073
v -0.04885401 0.055496208 -0.0071075688
v -0.063431651 0.0060637488 -0.088969138
v -0.069568555 0.015263762 -0.093636736
v -0.066735891 0.0081351964 0.041249911
v -0.061563074 0.022714708 0.033839639
v -0.048853732 0.050460664 -0.0019457411
v -0.064641972 0.025294976 -0.093621963
v -0.071543228 0.0062053177 -0.094429228
v -0.057323518 0.039031347 0.01456443
f 4 1 5
f 6 1 7
f 6 2 1
f 8 9 7
f 10 7 1
f 10 4 7
f 10 1 4
f 11 4 5
f 11 5 1
f 11 2 3
f 11 1 2
f 12 2 6
f 12 6 13
f 14 7 4
f 14 8 7
f 15 2 12
f 16 17 3
f 16 18 17
f 19 20 21
f 22 19 23
f 22 20 19
f 24 9 8
f 24 8 25
f 26 9 24
f 26 24 25
f 27 20 26
f 27 26 25
f 28 25 8
f 30 21 29
f 31 3 17
f 31 17 18
f 32 33 23
f 32 23 19
f 32 19 21
f 34 8 14
f 34 11 3
f 35 2 15
f 36 33 37
f 36 35 38
f 36 2 35
f 36 3 2
f 36 37 3
f 39 15 40
f 39 40 41
f 42 23 33
f 43 40 15
f 43 15 12
f 43 41 40
f 44 37 33
f 44 33 16
f 44 3 37
f 44 16 3
f 45 29 21
f 45 21 20
f 45 20 27
f 45 27 28
f 46 28 8
f 46 29 45
f 46 45 28
f 47 27 25
f 47 25 28
f 47 28 27
f 48 30 49
f 48 18 30
f 50 18 16
f 50 32 21
f 50 16 33
f 50 33 32
f 50 21 30
f 50 30 18
f 51 12 13
f 51 13 6
f 51 6 7
f 52 20 22
f 52 26 20
f 52 39 41
f 52 9 26
f 52 7 9
f 52 41 7
f 53 14 4
f 53 34 14
f 53 4 11
f 53 11 34
f 54 48 49
f 54 31 18
f 54 18 48
f 55 42 33
f 55 15 42
f 55 33 36
f 55 36 38
f 55 38 35
f 55 35 15
f 56 15 39
f 56 42 15
f 57 43 12
f 57 41 43
f 57 12 51
f 57 7 41
f 57 51 7
f 58 30 29
f 58 29 46
f 58 49 30
f 58 46 49
f 59 8 34
f 59 46 8
f 59 49 46
f 59 54 49
f 59 34 3
f 59 3 31
f 59 31 54
f 60 42 56
f 60 22 23
f 60 23 42
f 60 56 39
f 60 52 22
f 60 39 52
