v -0.047750918 -0.038615261 -0.094372776
v -0.047750868 -0.057992733 -0.052560034
v -0.047750868 -0.05796213 -0.040221784
v 0.0081947619 -0.036478814 -0.059547255
v -0.047750858 -0.054154249 -0.039046051
v -0.0014935146 -0.05391034 -0.03894733
v -0.0014956339 -0.054960572 -0.038354683
v 0.007565136 -0.047615416 -0.048802528
v 0.007565136 -0.033991175 -0.062656964
v -0.047750872 -0.033994235 -0.065914573
v -0.047750845 -0.058370869 -0.042699618
v -0.0014935639 -0.058044756 -0.040221784
v -0.047750868 -0.056940007 -0.038529806
v -0.047750178 -0.041420054 -0.093285588
v -0.040517312 -0.044202663 -0.093838749
v -0.032703572 -0.046510667 -0.093321314
v -0.038659261 -0.042868765 -0.094476327
v 0.007565136 -0.047615416 -0.056724055
v -0.0014935639 -0.028023684 -0.08887712
v -0.0014935639 -0.035897712 -0.093777266
v -0.047750868 -0.03613335 -0.093645422
v -0.047750868 -0.037138645 -0.094038198
v 0.006747525 -0.029168219 -0.074484326
v -0.0013981362 -0.027130865 -0.081976959
v -0.0014935639 -0.058372204 -0.042605934
v -0.0014976362 -0.058373818 -0.050099341
v -0.047750868 -0.055119157 -0.038529806
v -0.0014932824 -0.057013848 -0.038371747
v -0.0094873491 -0.04424643 -0.093704289
v -0.01729891 -0.046513727 -0.0933268
v -0.020092464 -0.046683698 -0.093627572
v -0.028625082 -0.046723879 -0.093782003
v -0.025028355 -0.046800117 -0.093811152
v -0.03610397 -0.058268154 -0.055021093
v -0.018345292 -0.043997434 -0.094430981
v 0.006747525 -0.035438675 -0.077203573
v -0.0014935639 -0.040182069 -0.093771767
v 0.007565136 -0.04091959 -0.063969893
v -0.047750872 -0.030822634 -0.088679103
v -0.047750868 -0.030055691 -0.087080769
v -0.0014935639 -0.027108669 -0.087080769
v 0.006747525 -0.028476601 -0.077203573
v 0.007565136 -0.033134305 -0.063969893
v -0.047750868 -0.029893413 -0.079764469
v 0.006747525 -0.03089726 -0.069812162
v 0.007565136 -0.033648428 -0.063162363
v -0.0040546895 -0.058258974 -0.052560034
v -0.017615668 -0.058329361 -0.055021093
v -0.032408474 -0.058327829 -0.055021093
v -0.038573047 -0.058112082 -0.055021093
v -0.031176645 -0.046633076 -0.093486107
v -0.0015395888 -0.037834851 -0.094387026
v -0.0027341442 -0.04136544 -0.093888297
v -0.047750868 -0.029878196 -0.084743312
v -0.013920173 -0.058268154 -0.055021093
v -0.0014935639 -0.057910103 -0.052466645
v -0.047750128 -0.058369308 -0.051119981
v -0.011456509 -0.058115142 -0.055021093
v -0.0015910286 -0.057897867 -0.052560034
v -0.046050798 -0.058322902 -0.052316962
f 3 1 2
f 6 4 5
f 6 5 7
f 6 8 4
f 6 7 8
f 11 3 2
f 12 3 11
f 13 1 3
f 14 2 1
f 14 1 15
f 14 15 2
f 16 2 15
f 17 15 1
f 17 1 52
f 40 54 41
f 40 41 39
f 40 1 54
f 40 39 1
f 19 39 41
f 24 10 23
f 9 5 4
f 9 10 5
f 25 8 12
f 25 11 26
f 25 12 11
f 27 7 5
f 27 13 7
f 27 5 10
f 27 10 1
f 27 1 13
f 28 7 13
f 28 8 7
f 28 12 8
f 28 3 12
f 28 13 3
f 31 29 30
f 32 15 17
f 32 17 33
f 32 33 34
f 35 33 17
f 35 17 52
f 35 29 31
f 35 31 33
f 35 53 29
f 35 52 53
f 21 1 39
f 21 39 19
f 21 19 20
f 42 41 24
f 42 24 23
f 42 19 41
f 42 20 19
f 42 52 20
f 42 36 52
f 42 4 36
f 44 10 24
f 44 54 1
f 44 1 10
f 44 41 54
f 44 24 41
f 43 42 23
f 43 4 42
f 18 4 8
f 18 25 26
f 18 8 25
f 37 53 52
f 37 52 36
f 37 18 53
f 37 36 18
f 47 31 30
f 49 33 48
f 49 34 33
f 50 32 34
f 51 16 15
f 51 15 32
f 51 32 50
f 22 52 1
f 22 1 21
f 22 20 52
f 22 21 20
f 45 23 10
f 45 43 23
f 45 10 43
f 46 10 9
f 46 43 10
f 46 9 4
f 46 4 43
f 38 36 4
f 38 4 18
f 38 18 36
f 55 48 33
f 55 33 31
f 55 26 48
f 55 47 26
f 56 30 29
f 56 26 47
f 56 29 53
f 56 18 26
f 56 53 18
f 57 11 2
f 57 26 11
f 57 48 26
f 57 49 48
f 58 31 47
f 58 55 31
f 58 47 55
f 59 47 30
f 59 30 56
f 59 56 47
f 60 34 49
f 60 49 57
f 60 50 34
f 60 57 2
f 60 51 50
f 60 2 16
f 60 16 51
