v 0.030471504 0.0043516318 0.070703714
v 0.018969899 -0.024536758 0.070717888
v 0.018935319 0.010235843 0.070705626
v 0.018969978 -0.022684176 0.076296396
v 0.018935354 0.024467706 0.070705606
v 0.030139838 -0.0067971082 0.070717828
v 0.030717605 -0.0035347086 0.070925117
v 0.028964579 -0.010824984 0.070717828
v 0.030073006 -0.0072214417 0.073528502
v 0.023360623 -0.020206704 0.070717828
v 0.018935354 0.017146908 0.077635525
v 0.018969978 -0.020747444 0.077335714
v 0.024371453 0.0099266559 0.077642314
v 0.018969978 -0.017137319 0.077641639
v 0.024371453 -0.0090265051 0.077641977
v 0.026175405 -0.0081239738 0.077555391
v 0.022115356 -0.015566865 0.07757865
v 0.026872808 -0.01532627 0.070717828
v 0.021299221 -0.022450763 0.07251321
v 0.018956129 0.017146908 0.077636881
v 0.018969978 -0.018942382 0.077627035
v 0.029028489 0.0051769939 0.076363626
v 0.027980515 0.0063165299 0.076919779
v 0.027980515 -0.0063189104 0.076966635
v 0.026175405 0.0081215925 0.077559467
v 0.025068636 0.017989888 0.070705606
v 0.029060516 0.010852489 0.070706314
v 0.025800085 0.017024216 0.072287585
v 0.030359238 -0.0045138477 0.073528502
v 0.029710599 -0.0063189104 0.075332116
v 0.029717526 0.0063165299 0.075332798
v 0.028610827 -0.011647318 0.07262602
v 0.021178177 -0.019369707 0.076973259
v 0.023924862 -0.017379635 0.076249044
v 0.020450623 -0.022479492 0.075264125
v 0.027263418 -0.012713538 0.075765699
v 0.02458728 -0.0183774 0.074744042
v 0.026470725 -0.010802242 0.07701774
v 0.028658872 -0.0080850711 0.076132575
v 0.029025026 -0.0049878562 0.076368377
v 0.025273429 0.011731719 0.077387666
v 0.0302796 0.0063165299 0.070705606
v 0.030300376 0.0063165299 0.073528502
v 0.029044072 -0.0099254452 0.074777148
v 0.018935354 0.019854501 0.077488505
v 0.0189361 0.024448393 0.074709679
v 0.02456665 -0.018751462 0.072851639
v 0.026954463 -0.015057546 0.074059874
v 0.028193598 0.0086662238 0.076355818
v 0.020108414 0.02350323 0.070705606
v 0.020711174 0.022973262 0.073302883
v 0.024731983 0.016410159 0.076199038
v 0.020986875 0.016470009 0.077616937
v 0.021663791 0.018049439 0.077289202
v 0.021314873 0.020523022 0.076283029
v 0.023480727 0.020068164 0.0740412
v 0.027278421 0.013613988 0.075126441
v 0.018937951 0.022740447 0.076072306
v 0.029286445 0.0097183794 0.074076853
v 0.024467536 0.018097916 0.075139517
f 1 2 3
f 1 3 5
f 4 3 2
f 45 5 3
f 6 1 7
f 6 8 1
f 10 2 1
f 20 14 13
f 46 5 45
f 18 1 8
f 18 10 1
f 50 1 5
f 50 26 1
f 50 5 46
f 27 1 26
f 53 20 13
f 53 45 20
f 11 14 20
f 11 20 45
f 11 4 12
f 11 3 4
f 11 45 3
f 56 26 50
f 15 13 14
f 17 16 15
f 28 57 27
f 28 27 26
f 28 26 56
f 42 1 27
f 59 57 31
f 59 27 57
f 21 14 11
f 21 11 12
f 21 12 17
f 21 15 14
f 21 17 15
f 58 46 45
f 58 45 55
f 58 55 46
f 60 57 28
f 60 28 56
f 60 46 55
f 60 56 46
f 54 55 45
f 54 45 53
f 54 53 41
f 51 50 46
f 51 46 56
f 51 56 50
f 29 31 30
f 9 8 6
f 9 29 30
f 9 6 7
f 9 7 29
f 22 23 24
f 25 16 24
f 25 24 23
f 25 13 15
f 25 15 16
f 25 23 41
f 25 53 13
f 25 41 53
f 35 4 2
f 34 4 35
f 34 35 37
f 47 18 48
f 47 48 37
f 47 10 18
f 43 59 31
f 43 1 42
f 43 42 27
f 43 27 59
f 43 7 1
f 43 29 7
f 43 31 29
f 52 60 55
f 52 55 54
f 52 57 60
f 52 54 41
f 44 30 39
f 44 9 30
f 40 22 24
f 40 24 39
f 40 39 30
f 40 30 31
f 40 31 22
f 49 23 22
f 49 41 23
f 49 31 57
f 49 22 31
f 49 57 52
f 49 52 41
f 33 12 4
f 33 4 34
f 33 17 12
f 38 16 17
f 38 17 33
f 38 33 34
f 38 24 16
f 38 39 24
f 19 35 2
f 19 2 10
f 19 10 47
f 19 37 35
f 19 47 37
f 32 8 9
f 32 9 44
f 32 44 48
f 32 18 8
f 32 48 18
f 36 44 39
f 36 39 38
f 36 38 34
f 36 48 44
f 36 37 48
f 36 34 37
