v 0.015404607 -0.013976826 0.051113631
v 0.013758802 -0.014464858 0.050598013
v 0.018006923 -0.014464858 0.051064269
v 0.022824394 -0.014464858 0.050979365
v 0.024061212 -0.014465107 0.043295882
v 0.020767137 -0.014463932 0.029752206
v 0.022161669 -0.014463932 0.03086411
v 0.015784554 -0.014463932 0.029500602
v 0.0083705261 -0.014234438 0.028253776
v 0.0096166759 -0.014463932 0.030620547
v 0.0083704606 -0.0049871791 0.031081301
v 0.0083704606 -0.0070042603 0.036781292
v 0.016169816 -0.011086667 0.04972699
v 0.017700232 -0.010473379 0.048192556
v 0.019616288 -0.011046539 0.04972699
v 0.014553616 -0.0049871791 0.029913549
v 0.014048791 -0.0049871791 0.030738307
v 0.018647632 -0.0069968382 0.035544715
v 0.017913359 -0.012810324 0.050976825
v 0.014908281 -0.0049890683 0.028253727
v 0.0083704606 -0.0049871791 0.028253871
v 0.014920279 -0.011672817 0.028253871
v 0.022327921 -0.013210447 0.031338544
v 0.021624961 -0.0099705009 0.03046527
v 0.013681369 -0.013976826 0.050670223
v 0.013096077 -0.014091876 0.028253871
v 0.0083704606 -0.014318264 0.033602407
v 0.019233685 -0.010461318 0.048192556
v 0.012517995 -0.0049871791 0.030965089
v 0.020765618 -0.010603273 0.048192556
v 0.017630392 -0.0070184089 0.036524047
v 0.022971667 -0.011793665 0.048192556
v 0.02220494 -0.011215634 0.048192556
v 0.0219605 -0.011417899 0.04972699
v 0.020348665 -0.011628977 0.050526228
v 0.020366315 -0.0082684143 0.030850007
v 0.019502419 -0.007355904 0.034402911
v 0.020518142 -0.0081222826 0.034402911
v 0.021571821 -0.012252473 0.030147097
v 0.022075888 -0.010911309 0.031338544
v 0.023401337 -0.012576745 0.042066079
v 0.013678333 -0.012837462 0.050674736
v 0.014288678 -0.013611265 0.028253871
v 0.0083704606 -0.014102082 0.035935095
v 0.010622055 -0.014464858 0.043063468
v 0.0083704606 -0.012618498 0.037142898
v 0.0083704606 -0.0093804066 0.037338654
v 0.02340779 -0.012562365 0.047043419
v 0.023792861 -0.014098835 0.048002441
v 0.021742246 -0.0097656838 0.033253772
v 0.023877315 -0.014464858 0.046660372
v 0.023005638 -0.013243036 0.050758228
v 0.019467499 -0.0073832747 0.032104636
v 0.020767137 -0.013976826 0.02975446
v 0.0083704606 -0.0074644589 0.036956173
v 0.014261349 -0.011816862 0.050054189
v 0.0097448742 -0.014464395 0.038215879
v 0.021174985 -0.0088934173 0.033253772
v 0.023038471 -0.01226871 0.04972699
v 0.015283146 -0.011649854 0.050512264
f 21 20 9
f 43 9 20
f 42 1 60
f 3 2 5
f 3 5 4
f 3 1 2
f 3 4 1
f 6 7 5
f 27 9 10
f 27 21 9
f 25 2 1
f 25 1 42
f 56 60 12
f 56 42 60
f 56 12 42
f 49 52 4
f 36 24 20
f 23 5 7
f 23 7 24
f 31 17 30
f 31 30 18
f 31 18 17
f 16 18 20
f 16 17 18
f 16 20 21
f 13 11 12
f 13 14 11
f 13 12 60
f 28 29 11
f 28 11 14
f 28 17 29
f 28 30 17
f 26 9 43
f 26 6 9
f 26 43 6
f 8 10 9
f 8 9 6
f 8 5 10
f 8 6 5
f 39 24 7
f 39 7 6
f 39 20 24
f 22 43 20
f 22 20 6
f 22 6 43
f 45 44 27
f 45 46 44
f 45 2 25
f 45 5 2
f 45 10 5
f 45 47 46
f 45 25 42
f 45 42 47
f 55 42 12
f 55 47 42
f 51 4 5
f 51 5 49
f 51 49 4
f 37 32 38
f 37 20 18
f 34 35 52
f 34 18 30
f 19 52 35
f 19 1 4
f 19 4 52
f 19 60 1
f 19 35 60
f 58 36 38
f 58 24 36
f 58 38 32
f 40 5 23
f 40 23 24
f 40 41 5
f 15 14 13
f 15 28 14
f 15 60 35
f 15 13 60
f 15 30 28
f 15 34 30
f 15 35 34
f 54 6 20
f 54 20 39
f 54 39 6
f 57 27 10
f 57 10 45
f 57 45 27
f 53 38 36
f 53 37 38
f 53 36 20
f 53 20 37
f 48 5 41
f 48 41 32
f 48 49 5
f 59 34 52
f 59 32 34
f 59 52 49
f 59 49 48
f 59 48 32
f 33 18 34
f 33 34 32
f 33 37 18
f 33 32 37
f 50 32 41
f 50 58 32
f 50 24 58
f 50 40 24
f 50 41 40
f 16 21 11
f 16 11 29
f 16 29 17
f 55 11 21
f 55 44 46
f 55 12 11
f 55 21 27
f 55 27 44
f 55 46 47
