v -0.026620568 -0.035505341 -0.15245667
v -0.026620568 -0.028198987 0.020400228
v -0.026620568 -0.022559298 -0.15245751
v -0.022145271 -0.017892617 -0.1666937
v 0.023373556 -0.042602117 -0.062527081
v 0.023372494 -0.031226242 0.019802999
v 0.023372494 -0.031951392 0.022709498
v 0.023367599 -0.016098755 -0.16650904
v 0.023367599 -0.016056712 -0.15256702
v 0.023372494 -0.036156619 0.023903956
v -0.026620568 -0.02846498 0.022152097
v -0.026620568 -0.040492466 -0.06491133
v 0.023371198 -0.016107089 -0.12843209
v 0.023367599 -0.016450954 -0.1678262
v 0.023367602 -0.038864126 -0.16782619
v -0.0079936835 -0.047899801 0.00066034045
v -0.011895377 -0.046758411 0.022206355
v -0.015023079 -0.046242357 -3.3899698e-05
v -0.022147813 -0.038744201 -0.17504995
v -0.022147473 -0.035941918 -0.17886794
v -0.02214781 -0.039256711 -0.16993634
v -0.0266205 -0.038774088 -0.10374505
v 0.0040146499 -0.047960236 -0.022696842
v 0.014138069 -0.046177261 -0.035821497
v 0.0054800341 -0.048261293 0.00031633212
v 0.013225501 -0.046548516 0.020108267
v 0.0052962164 -0.047875454 0.022499557
v 0.00043739413 -0.044417448 0.023824332
v 0.015654228 -0.040918048 0.023989416
v 0.019335271 -0.039136375 -0.1678262
v 0.0029502338 -0.044641354 -0.090329331
v -0.0077791946 -0.046744628 -0.045781052
v -0.0037958796 -0.047922859 -0.019479689
v 0.00064360388 -0.046101631 -0.068244492
v 0.008623171 -0.046517688 -0.049893534
v -0.021424375 -0.043950058 0.00086291493
v -0.018466346 -0.04483033 -0.032539195
v -0.026619832 -0.041717591 -0.014632542
v -0.022147625 -0.024846041 -0.17805244
v -0.022147813 -0.018952555 -0.1707327
v -0.022147813 -0.027179345 -0.17921334
v 0.023367135 -0.043317423 -0.0022619203
v 0.021986788 -0.042561518 0.022293687
v 0.017154559 -0.045652715 -0.01279073
v -0.026619391 -0.039855977 0.022674983
v -0.026620565 -0.03174653 0.023385956
v -0.0035036452 -0.048194532 0.018326867
v 0.0099211987 -0.046434561 -0.047385175
v -0.00288111 -0.046992902 -0.049228324
v 0.006646154 -0.045338133 -0.075564389
v -0.021985776 -0.042672702 0.022245007
v -0.024474721 -0.042043299 -0.050192145
v -0.012434008 -0.046539851 -0.02932897
v -0.022147813 -0.031732896 -0.17939251
v 0.019335271 -0.044480781 -0.044901701
v 0.023372494 -0.04316447 -0.04012263
v 0.023372494 -0.043414433 -0.018479329
v -0.026169381 -0.036518978 0.023896049
v -0.022436535 -0.042939446 -0.048081941
v -0.010961034 -0.046289693 -0.043841618
f 3 2 4
f 7 5 6
f 8 4 9
f 10 5 7
f 11 6 2
f 11 7 6
f 13 8 9
f 13 2 6
f 13 6 5
f 13 9 4
f 13 4 2
f 13 14 8
f 13 5 15
f 13 15 14
f 18 16 17
f 19 20 15
f 19 21 1
f 19 1 20
f 22 12 1
f 22 1 21
f 22 21 12
f 25 23 24
f 25 26 27
f 28 27 29
f 28 17 27
f 30 31 21
f 30 19 15
f 30 21 19
f 33 16 32
f 33 23 25
f 34 35 23
f 34 21 31
f 34 31 30
f 36 18 17
f 37 36 38
f 37 18 36
f 40 14 39
f 40 4 8
f 40 8 14
f 40 3 4
f 40 39 3
f 41 39 14
f 41 3 39
f 43 26 42
f 43 42 10
f 43 10 29
f 43 29 27
f 43 27 26
f 44 42 26
f 44 26 25
f 44 25 24
f 46 38 45
f 46 11 12
f 46 12 38
f 46 10 7
f 46 7 11
f 47 25 27
f 47 17 16
f 47 27 17
f 47 16 33
f 47 33 25
f 48 24 23
f 48 23 35
f 48 15 24
f 48 35 15
f 49 33 32
f 49 32 21
f 49 21 34
f 49 23 33
f 49 34 23
f 50 15 35
f 50 35 34
f 50 30 15
f 50 34 30
f 51 17 45
f 51 36 17
f 51 45 38
f 51 38 36
f 52 38 12
f 52 12 21
f 53 37 21
f 53 32 16
f 53 16 18
f 53 18 37
f 54 14 15
f 54 41 14
f 54 15 20
f 54 20 1
f 54 1 3
f 54 3 41
f 55 44 24
f 55 56 44
f 55 5 56
f 55 15 5
f 55 24 15
f 57 42 44
f 57 44 56
f 57 10 42
f 57 5 10
f 57 56 5
f 58 46 45
f 58 45 17
f 58 17 28
f 58 28 29
f 58 29 10
f 58 10 46
f 59 37 38
f 59 38 52
f 59 21 37
f 59 52 21
f 60 21 32
f 60 53 21
f 60 32 53
f 11 2 3
f 11 3 1
f 11 1 12
