v -0.014922356 0.0063180914 0.028293404
v 0.00019785152 0.005636873 0.03686531
v 5.2792351e-05 0.006317986 0.028320089
v 5.2792351e-05 0.006317986 0.020559543
v -0.013843243 0.0063179965 0.019595603
v -0.014745752 0.006317986 0.026794494
v -0.012579899 -0.0030660777 0.019595605
v -0.013815261 0.0026642433 0.019595605
v -0.01369093 -0.001695425 0.019595861
v -0.0054431574 -0.0042969874 0.019595605
v -0.0095308219 -0.0039063088 0.019595607
v -0.013895049 -0.0036684007 0.025057073
v -0.00035277967 0.0063122145 0.019595605
v -0.014102276 0.0051196896 0.030790812
v -0.0050035406 0.005636873 0.036748622
v -0.012209991 -0.0040477385 0.022901901
v -0.011569669 -0.0047679943 0.026738893
v -0.0037675812 -0.0039760563 0.019595605
v -0.0071809944 -0.0051497492 0.025404915
v -0.0021512585 -0.0053342411 0.024910818
v -0.002760311 0.005636873 0.036850512
v -0.014727287 -0.0013407833 0.027517229
v 0.00019785152 0.00029994906 0.03458547
v 5.2792351e-05 -0.0053602158 0.026429415
v 5.2792351e-05 -0.0053919632 0.0255568
v 0.00019785152 0.00048581211 0.035693365
v 0.00019785152 0.005636873 0.032214734
v 0.00019785152 0.00061972664 0.032214734
v -0.013912812 -0.00079560452 0.030599718
v -0.014375372 -0.00056933556 0.02985647
v -0.013673021 -0.0018184279 0.030493176
v -0.01452117 0.0051196896 0.030158335
v -0.0030556091 -0.0033445839 0.019595605
v -0.0033634891 -0.0036701327 0.019595605
v 0.00019785152 0.0017718453 0.036492
v -0.0023776816 0.00040500242 0.035698437
v -0.0039644464 0.0018157129 0.036452678
v -0.0045121172 0.0028339212 0.036682669
v -0.013228685 -0.0040251912 0.027642584
v -0.01258656 -0.0037393993 0.029163954
v -0.012650208 -0.0022270969 0.030635231
v -0.0027210859 -0.0052897959 0.027726505
v -0.0039111596 -0.0049342317 0.028457069
v -0.0092716719 -0.0039749012 0.029468778
v -0.0087189133 -0.004796927 0.028121275
v -0.014817579 0.0026523865 0.028747096
v -0.014289521 -0.0029405329 0.025928
v -0.0010839941 0.00066128525 0.019595605
v -0.00057036773 0.0017141239 0.019595605
v -0.00041346779 0.0032460516 0.019595605
v -0.0054431574 -0.0041619193 0.029711879
v -0.0020083737 0.0026107546 0.036686371
v -0.013849441 -0.0031315197 0.028518688
v -0.0039096793 0.00044887142 0.035635869
v -0.005820005 -0.0052937279 0.027033729
v 5.2792351e-05 -0.0046485106 0.024009425
v -0.0039096793 -0.00031651551 0.034820748
v -0.0049384124 0.00065551349 0.035443079
v 5.2792351e-05 0.0017141239 0.021653695
v 5.2792351e-05 -0.0052205297 0.024371323
f 4 5 1
f 4 1 3
f 2 3 1
f 24 25 23
f 55 25 24
f 6 1 5
f 26 24 23
f 42 55 24
f 42 26 43
f 42 24 26
f 42 43 45
f 42 45 55
f 8 6 5
f 15 29 38
f 15 14 29
f 15 1 14
f 32 29 14
f 32 14 1
f 32 1 46
f 22 47 53
f 22 9 47
f 22 46 1
f 22 8 9
f 22 1 6
f 22 6 8
f 31 58 37
f 31 38 29
f 31 37 38
f 31 53 40
f 51 45 43
f 51 43 26
f 51 26 57
f 54 40 57
f 54 37 58
f 28 23 25
f 28 4 27
f 13 5 4
f 17 55 45
f 17 45 40
f 20 25 55
f 18 5 34
f 18 10 5
f 21 15 38
f 21 2 1
f 21 1 15
f 52 38 37
f 52 37 35
f 52 35 2
f 52 21 38
f 52 2 21
f 30 22 53
f 30 53 31
f 30 31 29
f 30 46 22
f 30 29 32
f 30 32 46
f 44 57 40
f 44 51 57
f 44 40 45
f 44 45 51
f 41 58 31
f 41 54 58
f 41 31 40
f 41 40 54
f 36 35 37
f 36 37 54
f 36 26 35
f 36 57 26
f 36 54 57
f 60 28 25
f 60 56 28
f 60 10 18
f 60 18 34
f 60 25 20
f 60 20 10
f 7 9 8
f 7 5 10
f 7 8 5
f 39 40 53
f 39 17 40
f 19 10 20
f 19 55 17
f 19 20 55
f 48 5 49
f 48 49 56
f 50 5 13
f 50 49 5
f 50 13 4
f 11 7 10
f 11 10 19
f 11 19 17
f 12 17 39
f 12 47 9
f 12 9 7
f 12 53 47
f 12 39 53
f 33 48 56
f 33 60 34
f 33 56 60
f 33 34 5
f 33 5 48
f 59 56 49
f 59 49 50
f 59 50 4
f 59 4 28
f 59 28 56
f 16 11 17
f 16 7 11
f 16 17 12
f 16 12 7
f 27 3 2
f 27 4 3
f 28 27 2
f 28 2 35
f 28 26 23
f 28 35 26
