v -0.0089785608 0.0092093562 -0.022975443
v 0.00020072129 0.012046968 -0.022550423
v -0.0091335053 0.012390665 -0.027101956
v -0.011643456 0.0043852802 -0.022976328
v -0.012620423 0.0057516528 -0.028615052
v -0.013020444 -0.055675181 -0.028886067
v -0.013324248 -0.058219462 -0.027378096
v 0.012148903 -0.057167166 -0.025891562
v 0.012311579 -0.057167166 -0.027385894
v 0.013940999 -0.018862165 -0.027385894
v 0.013180959 0.012206297 -0.027387564
v 0.013180959 0.011743541 -0.025279485
v 0.013117868 0.0042842182 -0.022564141
v 0.013180959 0.010139854 -0.023725112
v -0.011865299 0.0086855146 -0.026705361
v -0.0093519983 0.0094167984 -0.030328046
v -0.012097027 -0.063082046 -0.024164223
v -0.013140451 -0.055675181 -0.025891562
v -0.012025725 -0.0049236416 -0.022975443
v 0.00013722026 -0.018903076 -0.022550795
v 0.00041420764 -0.068829504 -0.02428248
v 0.00031727642 -0.069103575 -0.023054985
v 0.012028898 -0.057167166 -0.028886067
v 0.013183056 -0.015048074 -0.031068019
v 0.013182038 0.0087601078 -0.031068045
v -0.012484416 0.0057516528 -0.025120213
v 0.013126445 -0.00022506672 -0.022552198
v 0.0097661096 -0.068763987 -0.023055497
v -0.012007484 -0.01881095 -0.0229771
v 0.013180959 -0.015231926 -0.022859531
v 0.011074179 -0.064714873 -0.023055497
v 0.013738322 -0.018862165 -0.025891562
v -0.0079708404 0.0079976149 -0.031067527
v -0.0097384351 -0.059754916 -0.031067813
v -0.0057267206 0.010243573 -0.030763157
v 0.011503536 0.010243573 -0.030688106
v 0.01318054 0.011296401 -0.030009501
v -0.012440247 -0.016604733 -0.029571682
v -0.011968389 0.0057516528 -0.029803763
v -0.011609702 0.0027517183 -0.030252815
v -0.012704427 0.0057516528 -0.026638727
v 0.012679599 -0.017178692 -0.022550992
v 0.010714161 -0.067658959 -0.023055497
v 0.010983508 -0.066166969 -0.023055497
v -0.010220296 -0.039410413 -0.031048763
v 0.013180655 0.011922071 -0.028926384
v -0.010220296 0.0020057249 -0.030971003
v 0.010756829 -0.057167166 -0.030474631
v 0.0092554156 -0.057917149 -0.031037506
v -0.0034772664 -0.060165107 -0.031063358
v -0.012600421 -0.055411888 -0.029775828
v 0.011526204 -0.058798784 -0.029650745
v -0.010496206 -0.061427637 -0.030707605
v 0.0040138016 -0.06213182 -0.03017964
v -0.011706958 -0.045028056 -0.030442161
v 0.011940893 -0.05895835 -0.028091993
v 0.0096381025 -0.068520639 -0.023768056
v 0.010432145 -0.060272816 -0.029943857
v 0.0077089994 -0.061145469 -0.03047338
v 0.0083146987 -0.065357147 -0.027011061
f 1 2 3
f 1 4 2
f 5 6 7
f 8 9 10
f 11 3 2
f 11 2 12
f 11 12 10
f 14 2 13
f 14 12 2
f 14 13 10
f 14 10 12
f 15 1 3
f 15 3 16
f 18 7 17
f 19 2 4
f 19 20 2
f 21 22 17
f 23 10 9
f 23 24 10
f 25 10 24
f 26 19 4
f 26 4 1
f 26 1 15
f 26 18 19
f 27 13 2
f 28 20 22
f 28 22 21
f 29 22 20
f 29 20 19
f 29 17 22
f 29 18 17
f 29 19 18
f 31 8 30
f 32 8 10
f 32 30 8
f 32 27 30
f 32 10 13
f 32 13 27
f 34 33 25
f 34 25 24
f 35 33 16
f 35 25 33
f 35 36 25
f 35 16 3
f 37 10 25
f 37 25 36
f 37 36 35
f 37 35 3
f 38 6 5
f 39 5 15
f 39 15 16
f 39 38 5
f 39 40 38
f 39 16 33
f 41 15 5
f 41 26 15
f 41 5 7
f 41 7 18
f 41 18 26
f 42 28 43
f 42 20 28
f 42 2 20
f 42 27 2
f 42 30 27
f 42 31 30
f 44 9 8
f 44 8 31
f 44 42 43
f 44 31 42
f 45 33 34
f 46 3 11
f 46 37 3
f 46 11 10
f 46 10 37
f 47 39 33
f 47 40 39
f 47 33 45
f 48 49 24
f 50 34 24
f 50 24 49
f 51 38 40
f 51 6 38
f 51 7 6
f 52 24 23
f 52 48 24
f 53 34 50
f 53 21 17
f 53 17 7
f 53 7 51
f 59 50 49
f 55 51 40
f 55 40 47
f 55 47 45
f 55 53 51
f 55 45 34
f 55 34 53
f 56 23 9
f 56 52 23
f 56 43 52
f 56 44 43
f 56 9 44
f 57 43 28
f 57 28 21
f 58 49 48
f 58 48 52
f 58 59 49
f 58 52 43
f 58 43 57
f 54 53 50
f 54 50 59
f 54 21 53
f 60 59 58
f 60 58 57
f 60 54 59
f 60 57 21
f 60 21 54
