v -0.0170197 -0.027487903 -0.21550639
v -0.022382481 0.036926369 -0.15709947
v -0.016826535 -0.031718773 -0.21550639
v -0.02238654 0.038753131 -0.16561114
v -0.033639424 0.038637339 -0.17830056
v -0.034068758 8.1735094e-05 -0.15248851
v -0.042813173 -0.0003186074 -0.15243196
v -0.017427625 -0.036114431 -0.21550639
v -0.024591023 0.00016250715 -0.22575226
v -0.022151191 -0.037175981 -0.15248851
v -0.022164968 -0.039262244 -0.1698367
v -0.028897632 0.034229706 -0.15709573
v -0.031435404 0.038910698 -0.17923589
v -0.024598752 0.039033332 -0.217378
v -0.037820237 0.03861849 -0.19790753
v -0.022382477 0.038711417 -0.17048748
v -0.037774302 0.038262102 -0.1914467
v -0.041687207 0.0099805912 -0.1570994
v -0.022151191 -0.023180386 -0.15248851
v -0.025091824 -0.036102935 -0.15248851
v -0.034070202 -0.038660647 -0.18006737
v -0.019380844 -0.038601601 -0.21550639
v -0.031187465 -0.039134185 -0.17915707
v -0.031720527 -0.039250675 -0.20678399
v -0.033743339 0.02996393 -0.1570995
v -0.037423914 0.02425913 -0.15710559
v -0.03341229 0.038876253 -0.21181685
v -0.035150174 0.034683748 -0.21007878
v -0.039810236 0.000551193 -0.19614496
v -0.03933516 -0.017191012 -0.19864403
v -0.038496454 0.032668112 -0.19612933
v -0.039520491 0.019051669 -0.1570994
v -0.03984185 -0.01913634 -0.15248851
v -0.037522794 -0.0248666 -0.15248851
v -0.041180161 -0.014710982 -0.15248851
v -0.034247981 -0.029898313 -0.15248844
v -0.038495066 -0.033552276 -0.19564515
v -0.037121183 -0.031746808 -0.20598794
v -0.037817623 -0.038107233 -0.19726003
v -0.031176716 -0.038306889 -0.21547813
v -0.035016173 -0.03653964 -0.21011917
v -0.033942301 -0.015173366 -0.21505577
v -0.025056149 -0.039224131 -0.21549858
v -0.024598752 0.038634775 -0.22112121
v -0.024687327 0.025393711 -0.22491877
v -0.039250687 0.019339112 -0.19866709
v -0.040748088 0.014820799 -0.1570994
v -0.029749946 -0.033862948 -0.15248851
v -0.042447379 -0.0080534264 -0.15248615
v -0.037818094 -0.038149593 -0.19123314
v -0.032984645 -0.033810288 -0.21468313
v -0.024598752 0.038772736 -0.22030372
v -0.024598752 0.034380909 -0.22393938
v -0.024598752 0.011655311 -0.22547214
v -0.038482266 -0.0014260066 -0.20553199
v -0.032603089 0.014623374 -0.21737017
v -0.024598752 0.036802926 -0.22327607
v -0.027108962 0.00069442377 -0.22368384
v -0.030427764 0.036627854 -0.21771843
v -0.037586183 0.017575789 -0.20705206
f 1 2 3
f 4 5 2
f 4 2 1
f 6 2 7
f 8 9 3
f 8 3 10
f 8 10 11
f 12 2 5
f 12 7 2
f 13 4 14
f 13 5 4
f 13 15 5
f 16 14 4
f 16 4 1
f 17 5 15
f 17 15 18
f 19 2 6
f 19 3 2
f 19 10 3
f 19 7 10
f 19 6 7
f 20 10 7
f 20 21 10
f 22 8 11
f 22 9 8
f 23 24 11
f 23 11 10
f 23 10 21
f 25 12 5
f 25 5 17
f 25 17 26
f 25 26 7
f 25 7 12
f 27 13 14
f 27 15 13
f 27 28 15
f 30 7 29
f 31 7 18
f 31 18 15
f 32 26 17
f 32 7 26
f 33 34 7
f 33 7 35
f 36 7 34
f 39 40 24
f 39 41 40
f 39 38 41
f 42 41 38
f 43 24 40
f 43 11 24
f 43 22 11
f 43 40 9
f 43 9 22
f 44 16 1
f 45 1 3
f 46 31 15
f 46 29 7
f 46 7 31
f 47 17 18
f 47 32 17
f 47 18 7
f 47 7 32
f 48 21 20
f 48 36 21
f 48 20 7
f 48 7 36
f 50 39 24
f 50 24 23
f 50 23 21
f 50 36 34
f 50 21 36
f 50 34 33
f 50 33 35
f 37 30 38
f 37 38 39
f 51 9 40
f 51 40 41
f 51 41 42
f 52 14 16
f 52 16 44
f 52 27 14
f 52 44 27
f 53 1 45
f 54 3 9
f 54 45 3
f 55 30 29
f 55 29 46
f 55 38 30
f 55 42 38
f 55 56 42
f 49 7 30
f 49 30 37
f 49 35 7
f 49 50 35
f 49 39 50
f 49 37 39
f 57 44 1
f 57 1 53
f 58 45 54
f 58 56 45
f 58 54 9
f 58 42 56
f 58 9 51
f 58 51 42
f 59 28 27
f 59 56 28
f 59 57 53
f 59 53 45
f 59 45 56
f 59 27 44
f 59 44 57
f 60 55 46
f 60 15 28
f 60 46 15
f 60 28 56
f 60 56 55
