v -0.023805016 0.03052818 0.040425217
v -0.021369297 0.030528103 0.037537311
v -0.023940729 0.030524733 0.049726822
v -0.024064226 0.03052818 0.042065882
v -0.016416805 0.065082021 0.037656589
v -0.016175324 0.03052818 0.037537673
v -0.02428408 0.060721574 0.048194905
v -0.024178225 0.059956486 0.049726822
v -0.010572826 0.03052853 0.040469821
v -0.01068512 0.060954205 0.042065882
v -0.010431056 0.030528182 0.042068339
v -0.024064826 0.030526461 0.047144938
v -0.021316894 0.062925052 0.037657445
v -0.02180908 0.030529071 0.037920612
v -0.023374814 0.035056674 0.039447506
v -0.014638914 0.030528199 0.037664557
v -0.022297263 0.061486663 0.051311424
v -0.022334245 0.063633736 0.050808552
v -0.023753107 0.062253477 0.050282378
v -0.019999671 0.063020287 0.051149993
v -0.023442667 0.030524733 0.050839961
v -0.013625307 0.051525013 0.050744048
v -0.013218851 0.051525013 0.049726822
v -0.013796304 0.062675652 0.05058059
v -0.013637521 0.03620258 0.050719735
v -0.013105532 0.03696939 0.049726822
v -0.01063585 0.03052489 0.043028544
v -0.013853301 0.034653451 0.050510344
v -0.02114236 0.030524733 0.05077917
v -0.01359545 0.03052818 0.038006436
v -0.010756368 0.060719852 0.042904114
v -0.015022116 0.036585987 0.051159787
v -0.015367842 0.065339674 0.049039217
v -0.011405747 0.06377848 0.042065882
v -0.013354308 0.065257824 0.041693796
v -0.011726705 0.061486663 0.039438387
v -0.013699948 0.059953042 0.038092894
v -0.010748781 0.030528547 0.03976017
v -0.023273368 0.059570498 0.039168376
v -0.02374293 0.062682116 0.040683746
v -0.016173967 0.052675231 0.051324258
v -0.01617261 0.063020287 0.051157425
v -0.023528167 0.051362176 0.050879476
v -0.01463907 0.052291828 0.05116283
v -0.022298621 0.030524733 0.051114192
v -0.010787582 0.062324125 0.042860211
v -0.010951114 0.060719852 0.04010573
v -0.011458165 0.06298927 0.040159598
v -0.013915729 0.063699215 0.050404972
v -0.021355088 0.065348291 0.047573153
v -0.024274918 0.057654334 0.042065882
v -0.024035811 0.053440537 0.040533964
v -0.016533771 0.06452095 0.050361322
v -0.014512859 0.063116783 0.050812944
v -0.021915576 0.038596926 0.051283987
v -0.020731579 0.064773288 0.03933365
v -0.01778257 0.06566697 0.045462841
v -0.023545046 0.063892424 0.046398043
v -0.017990464 0.040320744 0.051336082
f 1 2 3
f 4 1 3
f 6 2 5
f 8 7 3
f 9 10 11
f 12 3 7
f 12 4 3
f 13 5 2
f 14 2 1
f 14 1 15
f 16 6 5
f 19 17 18
f 19 7 8
f 20 18 17
f 21 8 3
f 22 23 24
f 22 25 26
f 22 26 23
f 27 26 25
f 27 25 28
f 27 28 29
f 27 9 11
f 27 29 3
f 27 16 30
f 27 6 16
f 27 3 2
f 27 2 6
f 31 24 23
f 31 11 10
f 31 27 11
f 31 23 26
f 31 26 27
f 32 28 25
f 33 34 35
f 37 5 36
f 37 16 5
f 37 30 16
f 38 27 30
f 38 9 27
f 38 30 37
f 38 37 36
f 39 14 15
f 39 40 13
f 39 13 2
f 39 2 14
f 42 17 41
f 42 20 17
f 43 19 8
f 43 8 21
f 43 17 19
f 43 21 17
f 44 41 32
f 44 42 41
f 44 25 22
f 44 32 25
f 44 22 24
f 45 29 28
f 45 28 32
f 46 24 31
f 46 31 10
f 48 34 46
f 48 36 5
f 48 5 35
f 48 35 34
f 49 34 33
f 49 24 46
f 49 46 34
f 50 18 33
f 51 7 40
f 51 12 7
f 51 4 12
f 52 15 1
f 52 39 15
f 52 1 4
f 52 4 51
f 52 40 39
f 52 51 40
f 53 33 18
f 53 18 20
f 53 20 42
f 53 49 33
f 53 42 49
f 54 44 24
f 54 42 44
f 54 24 49
f 54 49 42
f 59 32 41
f 59 45 32
f 59 41 17
f 47 10 9
f 47 9 38
f 47 46 10
f 47 48 46
f 47 38 36
f 47 36 48
f 56 5 13
f 56 13 40
f 57 33 35
f 57 50 33
f 57 35 5
f 57 5 56
f 57 56 50
f 58 7 19
f 58 40 7
f 58 19 18
f 58 18 50
f 58 56 40
f 58 50 56
f 55 59 17
f 55 45 59
f 55 21 45
f 55 17 21
f 45 21 3
f 45 3 29
