v 0.023940027 -0.03029365 0.049726497
v 0.010783988 -0.030294676 0.039731768
v 0.024063515 -0.03029365 0.042063392
v 0.013007587 -0.024323353 0.049726497
v 0.010641901 -0.03029365 0.043043877
v 0.013643487 -0.027400935 0.050705082
v 0.02172562 -0.03029365 0.038182748
v 0.023517883 -0.03029365 0.039812223
v 0.019499803 -0.028513757 0.030781007
v 0.015737426 -0.028526167 0.030666378
v 0.014638108 -0.03029365 0.037624732
v 0.017702506 -0.026238471 0.029653826
v 0.017305531 -0.027879263 0.030178676
v 0.014638108 -0.026890547 0.030000898
v 0.023440705 -0.03029365 0.050838815
v 0.022299776 -0.03029365 0.051131754
v 0.022436015 -0.019728051 0.051138124
v 0.010427411 -0.03029365 0.042063392
v 0.010350803 -0.019728051 0.042063155
v 0.010607218 -0.01972805 0.043082255
v 0.023980295 -0.019728051 0.042063392
v 0.0222783 -0.019728051 0.03105484
v 0.021915887 -0.019728051 0.030199374
v 0.020793079 -0.019728051 0.029814628
v 0.024058819 -0.029798776 0.048193877
v 0.02172495 -0.024802132 0.051254209
v 0.015595145 -0.022781072 0.051218787
v 0.023854121 -0.03029365 0.040530767
v 0.021699782 -0.027212707 0.030403157
v 0.017193451 -0.03029365 0.037461811
v 0.020648786 -0.02820556 0.031311692
v 0.020766905 -0.023174075 0.02973131
v 0.014167988 -0.019728131 0.029841096
v 0.013499193 -0.02547263 0.030215295
v 0.013701204 -0.027223049 0.030398913
v 0.012949534 -0.02470679 0.031337164
v 0.023872243 -0.019728051 0.04953651
v 0.023399094 -0.019728051 0.050815465
v 0.014085093 -0.028422745 0.050102225
v 0.015106559 -0.028624418 0.050588333
v 0.021068916 -0.03029365 0.050804851
v 0.01057666 -0.030293817 0.040515585
v 0.023980295 -0.019728051 0.048193877
v 0.015134748 -0.020796401 0.050581962
v 0.01411328 -0.020999109 0.05003642
v 0.022286352 -0.026238471 0.031337164
v 0.022435344 -0.02470679 0.031337164
v 0.017853846 -0.028539355 0.030568732
v 0.021894913 -0.024706273 0.030221398
v 0.020766905 -0.026882273 0.030005144
v 0.012894501 -0.019728051 0.031337164
v 0.017607205 -0.019728051 0.029656481
v 0.023420569 -0.025089453 0.050828201
v 0.014078215 -0.024515072 0.05102721
v 0.015592964 -0.02663225 0.051218787
v 0.020969587 -0.019728051 0.050937524
v 0.013634091 -0.02202092 0.05070933
v 0.023094062 -0.020589557 0.035933968
v 0.010494525 -0.019728051 0.040530767
v 0.010458284 -0.019728051 0.040910739
f 1 2 3
f 4 5 6
f 20 19 5
f 20 5 4
f 8 2 7
f 8 7 9
f 22 20 21
f 22 23 20
f 24 20 23
f 10 11 2
f 14 12 13
f 14 13 10
f 15 16 2
f 15 2 1
f 25 1 3
f 18 5 19
f 18 2 5
f 55 54 6
f 55 6 40
f 55 40 16
f 28 3 2
f 28 2 8
f 28 8 29
f 28 21 3
f 30 7 2
f 30 2 11
f 31 8 9
f 31 9 29
f 31 29 8
f 47 23 22
f 32 24 23
f 33 12 14
f 33 14 34
f 35 10 2
f 35 14 10
f 35 34 14
f 35 2 36
f 35 36 34
f 53 1 38
f 53 15 1
f 37 38 1
f 37 20 38
f 39 6 5
f 39 40 6
f 39 5 40
f 41 16 40
f 41 40 5
f 41 2 16
f 41 5 2
f 42 2 18
f 44 20 45
f 44 56 20
f 17 38 20
f 17 20 56
f 17 53 38
f 17 16 15
f 17 15 53
f 17 56 44
f 48 9 7
f 48 7 30
f 48 10 13
f 48 11 10
f 48 30 11
f 46 28 29
f 46 47 28
f 58 21 28
f 58 28 47
f 58 22 21
f 58 47 22
f 49 32 23
f 49 23 47
f 49 46 29
f 49 47 46
f 50 12 32
f 50 13 12
f 50 49 29
f 50 32 49
f 50 48 13
f 50 29 9
f 50 9 48
f 51 34 36
f 51 33 34
f 51 36 2
f 51 2 42
f 52 12 33
f 52 32 12
f 52 24 32
f 52 33 51
f 52 20 24
f 52 51 20
f 43 1 25
f 43 37 1
f 43 3 21
f 43 25 3
f 43 21 20
f 43 20 37
f 26 55 16
f 26 16 17
f 27 17 44
f 27 54 55
f 27 55 26
f 27 26 17
f 59 20 51
f 59 51 42
f 59 42 18
f 57 54 27
f 57 27 44
f 57 44 45
f 57 45 20
f 57 20 4
f 57 4 6
f 57 6 54
f 60 19 20
f 60 20 59
f 60 18 19
f 60 59 18
