v -0.024065863 0.030524727 0.048192744
v -0.010806176 0.030524855 0.039703932
v -0.024065693 0.030524727 0.042062041
v -0.016170894 0.023174666 0.051335447
v -0.022298723 0.028536853 0.051224741
v -0.020765689 0.023174666 0.051335447
v -0.015108679 0.028623554 0.050585232
v -0.010645166 0.030522806 0.043048505
v -0.021143205 0.030524727 0.050776547
v -0.015973703 0.027120149 0.051121423
v -0.021758643 0.030524727 0.038178316
v -0.023355194 0.030524727 0.039467416
v -0.010620108 0.014565488 0.043063721
v -0.013002912 0.023174666 0.049723233
v -0.01377517 0.014565488 0.05058308
v -0.022254155 0.01456559 0.051201599
v -0.023440508 0.030524727 0.050836413
v -0.010432067 0.030524727 0.042062
v -0.0094107625 0.014565488 0.033157754
v -0.009568717 0.014566214 0.031335664
v -0.013520383 0.02432287 0.050814166
v -0.022298723 0.030524727 0.051111884
v -0.013701964 0.027220716 0.030402482
v -0.015738831 0.028525138 0.030669033
v -0.01867571 0.028525332 0.030677635
v -0.020647983 0.028204889 0.031313919
v -0.021697279 0.027211344 0.030408932
v -0.023948026 0.015510607 0.048192708
v -0.016838277 0.027621025 0.030208074
v -0.023865825 0.030524659 0.040580298
v -0.022071925 0.026236542 0.030798011
v -0.022435086 0.024705604 0.031339716
v -0.023940311 0.014565663 0.0420699
v -0.023882355 0.014565488 0.044361285
v -0.023812142 0.014565489 0.049750961
v -0.016170894 0.014565488 0.051008707
v -0.023940847 0.030524727 0.049723238
v -0.023383903 0.015510607 0.050802344
v -0.01054403 0.030524727 0.040841019
v -0.0094215276 0.014565488 0.034405068
v -0.013866321 0.027910419 0.050400361
v -0.014640731 0.023940135 0.05123549
v -0.015943738 0.030524727 0.037603966
v -0.020146662 0.015249137 0.029711648
v -0.020765689 0.023555449 0.029767271
v -0.013288561 0.014565488 0.029374966
v -0.021919769 0.020910286 0.030197194
v -0.021984364 0.014565488 0.030428278
v -0.017702491 0.026236542 0.029654416
v -0.010140675 0.014565488 0.029927418
v -0.01020527 0.014565488 0.02985003
v -0.022363947 0.014565489 0.031378958
v -0.010458621 0.015510607 0.042577908
v -0.014342881 0.014565488 0.050749677
v -0.021200622 0.014565488 0.029927418
v -0.014640731 0.026236542 0.029791992
v -0.010446421 0.014565488 0.042365099
v -0.010371779 0.022406855 0.042062
v -0.01164213 0.014565488 0.029435154
v -0.013541196 0.026236542 0.03025201
f 3 1 2
f 6 4 5
f 9 7 8
f 10 5 4
f 41 8 7
f 41 7 10
f 12 2 11
f 12 3 2
f 24 2 23
f 16 6 5
f 16 4 6
f 17 16 5
f 18 2 9
f 18 9 8
f 18 19 20
f 22 5 10
f 22 17 5
f 22 7 9
f 22 10 7
f 22 9 2
f 22 2 17
f 29 25 24
f 28 1 3
f 14 15 13
f 14 13 8
f 42 10 4
f 42 41 10
f 30 12 27
f 30 3 12
f 26 11 25
f 26 12 11
f 26 25 27
f 26 27 12
f 33 3 30
f 33 28 3
f 33 34 35
f 33 35 28
f 43 25 11
f 43 24 25
f 43 11 2
f 43 2 24
f 36 16 35
f 36 35 34
f 36 4 16
f 36 42 4
f 37 2 1
f 37 17 2
f 37 1 28
f 37 28 35
f 38 35 16
f 38 16 17
f 38 37 35
f 38 17 37
f 39 20 2
f 39 2 18
f 39 18 20
f 40 19 18
f 44 45 46
f 47 27 45
f 47 48 32
f 49 46 45
f 49 45 27
f 49 27 25
f 49 25 29
f 50 20 19
f 50 51 23
f 50 23 2
f 50 2 20
f 21 41 42
f 21 8 41
f 21 14 8
f 21 15 14
f 21 42 15
f 31 30 27
f 31 32 30
f 31 27 47
f 31 47 32
f 52 48 34
f 52 34 33
f 52 32 48
f 52 30 32
f 52 33 30
f 54 15 42
f 54 42 36
f 53 8 13
f 55 44 46
f 55 48 47
f 55 45 44
f 55 47 45
f 56 49 29
f 56 24 23
f 56 29 24
f 57 53 13
f 57 40 53
f 58 18 8
f 58 8 53
f 58 40 18
f 58 53 40
f 59 56 51
f 59 46 49
f 59 49 56
f 60 23 51
f 60 56 23
f 60 51 56
f 59 50 19
f 59 19 40
f 59 15 54
f 59 34 48
f 59 13 15
f 59 57 13
f 59 36 34
f 59 48 55
f 59 51 50
f 59 54 36
f 59 55 46
f 59 40 57
