v -0.01493574 0.0063179859 0.028322963
v 0.01483612 0.0063179849 0.028322955
v -0.015001675 0.010911418 0.028322963
v -0.013201094 0.0063179859 0.014471799
v -0.013231162 0.014068358 0.028322963
v 0.013046879 0.01427462 0.028322955
v -0.012871077 0.014153236 0.028322876
v -0.006779773 0.014186715 -0.020387829
v -0.010973134 0.01421359 0.028322945
v 0.011414638 0.014383734 0.025585463
v 0.0037512218 0.014317207 -0.039154949
v -0.01433092 0.013616082 0.028322949
v -0.001990503 0.011918921 -0.041851105
v 0.0037212637 0.011621775 -0.041268806
v -6.2570752e-05 0.0085098561 -0.038968291
v 0.0031737662 0.0085069148 -0.038607107
v -0.002853221 0.014271702 -0.038774214
v 0.0092281121 0.013592573 -0.011864796
v 0.0052833215 0.014097288 -0.035328652
v 0.0057400329 0.013407917 -0.039602874
v 0.011820278 0.0063179859 0.011990994
v 0.012646153 0.0063179859 0.012941969
v 0.0061838548 0.0085066985 -0.037101193
v -0.0077468189 0.013222742 -0.027743243
v -0.014818672 0.012742405 0.02832289
v -0.0064044084 0.012793169 -0.038762155
v -0.0077497383 0.01177846 -0.029286856
v 0.014071005 0.013611401 0.026829744
v -0.010040591 0.0063179859 0.011632654
v 0.009876701 0.0063179859 0.011632654
v -0.0052702902 0.012049905 -0.040934583
v -0.002441378 0.013743076 -0.041049578
v 0.0056678052 0.014340698 -0.022307868
v 0.0062186311 0.013412358 -0.037295207
v -0.0068246416 0.0085069148 -0.035316593
v -0.0059491558 0.0085069148 -0.037463176
v -0.0069909833 0.010146241 -0.035326929
v 0.013101406 0.0063179859 0.014471799
v 0.013394693 0.011326382 0.017131775
v 0.0075858477 0.011702654 -0.029217944
v 0.0061429384 0.011294154 -0.038806086
v -0.014960157 0.011811063 0.028322932
v -0.0055128723 0.013798402 -0.038462394
v 0.010670474 0.013240904 -0.0033210911
v 0.014210354 0.012846077 0.02471546
v 0.0075975207 0.013232219 -0.027784591
v 0.014751695 0.01052271 0.028295399
v 0.0034809155 0.013747568 -0.04093286
v 0.011733095 0.012382992 0.0044210903
v -0.0049293008 0.0085091128 -0.038546056
v -0.0065448512 0.009973948 -0.03748127
v -0.0072448743 0.0085069148 -0.03302874
v 0.0065323472 0.0085069148 -0.035936796
v 0.0071276766 0.0085069148 -0.032921926
v 0.0064447988 0.012444141 -0.037632011
v -0.0063380172 0.013369619 -0.037868032
v -0.0054384562 0.014051093 -0.035326929
v -0.012358438 0.0063179859 0.012478541
v 0.0068329297 0.010146241 -0.035326929
v -0.0065882605 0.013596249 -0.033793655
f 1 3 4
f 1 4 2
f 11 10 6
f 9 6 10
f 42 27 3
f 12 42 3
f 17 8 7
f 17 7 9
f 38 39 2
f 31 13 50
f 47 2 39
f 47 39 45
f 47 6 2
f 28 45 44
f 28 6 47
f 28 47 45
f 19 11 6
f 49 45 39
f 49 44 45
f 5 7 8
f 5 9 7
f 5 6 9
f 5 12 3
f 5 2 6
f 5 3 1
f 5 1 2
f 25 42 12
f 32 17 11
f 32 13 31
f 33 9 10
f 33 17 9
f 33 10 11
f 33 11 17
f 23 14 41
f 22 2 21
f 22 38 2
f 22 21 23
f 30 21 2
f 30 2 29
f 58 2 4
f 58 29 2
f 58 50 29
f 18 6 28
f 18 19 6
f 18 28 44
f 40 44 49
f 40 49 39
f 40 39 38
f 37 27 26
f 37 3 27
f 37 4 3
f 37 52 4
f 43 17 32
f 43 31 26
f 43 32 31
f 24 27 42
f 24 42 25
f 24 26 27
f 24 25 12
f 48 32 11
f 48 14 13
f 48 13 32
f 16 14 23
f 16 23 21
f 16 21 30
f 34 18 44
f 34 19 18
f 51 26 31
f 51 37 26
f 57 60 12
f 57 43 60
f 57 12 5
f 57 5 8
f 57 8 17
f 57 17 43
f 56 26 24
f 56 43 26
f 56 60 43
f 56 12 60
f 56 24 12
f 15 13 14
f 15 14 16
f 15 50 13
f 15 29 50
f 15 30 29
f 15 16 30
f 46 55 34
f 46 34 44
f 46 40 55
f 46 44 40
f 20 11 19
f 20 19 34
f 20 48 11
f 20 34 55
f 20 55 41
f 20 41 14
f 20 14 48
f 53 54 38
f 53 38 22
f 53 22 23
f 53 23 41
f 59 40 38
f 59 38 54
f 59 55 40
f 59 41 55
f 59 53 41
f 59 54 53
f 36 31 50
f 36 51 31
f 36 58 4
f 36 50 58
f 35 52 37
f 35 37 51
f 35 51 36
f 35 4 52
f 35 36 4
