v -0.00067773494 0.055992327 -0.026119225
v -0.0017677922 0.055330927 -0.0066993179
v 0.0083120299 0.050495158 -0.023479958
v -0.048847109 0.029193885 -0.08706675
v -0.056922505 0.039145609 -0.042692874
v -0.048847129 0.030125939 -0.088715442
v -0.048847109 0.035638187 -0.093730989
v -0.0014731474 0.028383283 -0.088970822
v -0.0014731474 0.036118316 -0.0938942
v -0.048847109 0.029013057 -0.0847728
v -0.0014731474 0.027186083 -0.087075813
v -0.048841428 0.02907472 -0.079721741
v -0.001480892 0.027229067 -0.082202039
v -0.056922505 0.040794881 -0.027886469
v -0.04511255 0.04252346 -0.093410993
v -0.048847109 0.040302282 -0.093622178
v -0.050300879 0.05573856 -0.0256162
v 0.0078837779 0.050038765 -0.020680961
v 0.0078836554 0.041309296 -0.020832347
v -0.0014598538 0.048530013 -0.0023362642
v 0.0078836554 0.038531424 -0.041233086
v 0.0078835023 0.045639111 -0.041231317
v 0.001180498 0.046757697 -0.060466501
v -0.0048910355 0.042442802 -0.093749369
v -0.0041913687 0.056388905 -0.0093638313
v -0.048833193 0.03845344 -0.094365308
v 0.0027516861 0.045011581 -0.062467991
v -0.056922505 0.045988135 -0.042692813
v -0.056922661 0.050712864 -0.025576435
v 0.0079221928 0.040489009 -0.023426466
v -0.048847109 0.047195536 -0.0023810119
v -0.056922505 0.040274225 -0.030352692
v -0.056922505 0.042013902 -0.025823729
v -0.0014731474 0.047694368 -0.003070105
v -0.0014731474 0.050787129 -0.0023084737
v -0.054127758 0.053157787 -0.026264624
v -0.035592463 0.058930074 -0.025677521
v -0.035449537 0.057412429 -0.0094177047
v -0.026175865 0.059186274 -0.025610576
v -0.042170689 0.058320806 -0.024943176
v -0.048736841 0.055114281 -0.0064404806
v -0.0014731474 0.027454204 -0.088000654
v -0.013389216 0.057305121 -0.0092077333
v -0.027206002 0.046824878 -0.093722202
v -0.018158803 0.046281601 -0.093846015
v -0.025011077 0.043563407 -0.094433683
v -0.023783569 0.04714565 -0.092008265
v -0.010232569 0.044767798 -0.093537775
v -0.010463434 0.058648593 -0.025308283
v -0.0014728428 0.039145602 -0.09437542
v -0.056922505 0.048409879 -0.035511815
v -0.048847109 0.048908715 -0.0018324562
v -0.048847109 0.050475367 -0.0019457955
v -0.0014625976 0.052861395 -0.0037446828
v -0.04609633 0.057294646 -0.025410672
v -0.04453188 0.056484746 -0.010526575
v -0.048847109 0.052769998 -0.0036231898
v -0.020197059 0.058687408 -0.027886469
v -0.039746647 0.044740229 -0.093653562
v -0.033647859 0.046328808 -0.092008265
f 1 2 3
f 6 4 5
f 6 5 7
f 8 6 7
f 9 8 7
f 10 4 11
f 10 5 4
f 10 12 5
f 13 10 11
f 13 12 10
f 14 12 13
f 17 15 16
f 18 19 3
f 18 3 2
f 20 19 18
f 21 13 11
f 21 22 3
f 21 8 9
f 23 1 3
f 23 24 1
f 25 2 1
f 26 9 7
f 26 7 5
f 27 24 23
f 27 3 22
f 27 23 3
f 28 5 29
f 28 26 5
f 28 16 26
f 30 19 31
f 30 31 14
f 30 14 13
f 30 13 21
f 30 3 19
f 30 21 3
f 32 5 12
f 32 12 14
f 32 29 5
f 32 14 29
f 33 29 14
f 33 14 31
f 34 31 19
f 34 20 31
f 34 19 20
f 35 20 18
f 36 17 16
f 37 38 39
f 37 40 38
f 41 17 36
f 41 36 29
f 42 21 11
f 42 8 21
f 42 6 8
f 42 11 4
f 42 4 6
f 43 2 25
f 43 41 2
f 43 38 41
f 43 39 38
f 44 45 46
f 44 47 45
f 44 40 37
f 44 39 47
f 44 37 39
f 48 1 24
f 48 24 45
f 49 45 47
f 49 25 1
f 49 1 48
f 49 48 45
f 49 39 43
f 49 43 25
f 50 26 46
f 50 9 26
f 50 46 45
f 50 45 24
f 50 24 27
f 50 27 22
f 50 22 21
f 50 21 9
f 51 28 29
f 51 16 28
f 51 29 36
f 51 36 16
f 52 33 31
f 52 31 20
f 52 53 29
f 52 29 33
f 52 20 35
f 52 35 53
f 54 18 2
f 54 35 18
f 54 53 35
f 55 41 40
f 55 17 41
f 56 38 40
f 56 40 41
f 56 41 38
f 58 47 39
f 58 39 49
f 58 49 47
f 57 53 54
f 57 29 53
f 57 41 29
f 57 2 41
f 57 54 2
f 59 55 40
f 59 15 17
f 59 17 55
f 59 16 15
f 59 26 16
f 59 46 26
f 59 44 46
f 60 40 44
f 60 59 40
f 60 44 59
