v -0.0027362739 0.018050544 -0.052989048
v -0.0027363079 0.012749558 -0.058140303
v -0.0027363079 0.0183947 -0.048071021
v -0.0027363079 0.013604408 -0.044119521
v -0.0027360489 -0.017684705 -0.044007478
v -0.0010490407 0.016231628 -0.034674215
v 0.0058656015 0.019432907 -0.0380367
v 0.0036664384 0.020007458 -0.034674215
v 0.0080496617 0.01818731 -0.034674274
v 0.0067225867 0.017016725 -0.051638089
v -0.0014086936 0.016912177 -0.054900651
v -0.0027363079 0.017723942 -0.044919811
v 0.00023594351 0.019521773 -0.034674215
v -0.00069110269 -0.018138627 -0.034674215
v -0.0010500961 -0.016231126 -0.034674215
v -0.0010500958 -0.012408292 -0.034674215
v -0.0027360489 -0.017734996 -0.054081748
v -0.0027352526 -0.012752974 -0.058140303
v 0.005025335 0.00095595878 -0.05367911
v 0.0059808884 0.013364501 -0.052625831
v 0.0050168868 -0.01431971 -0.053674511
v 0.0017584961 0.019976123 -0.034674215
v 0.0034304536 0.01695869 -0.05305139
v 0.0080260636 0.014319281 -0.046622987
v 0.007834984 0.01432021 -0.048531038
v 0.0073112589 0.016826649 -0.050335144
v 0.0072764327 -0.01431971 -0.050440029
v 0.0079730011 -0.017510749 -0.034674252
v 0.0070056021 -0.017631395 -0.047575399
v 0.0077066952 -0.016231127 -0.047575399
v 0.0080239813 -0.01431971 -0.046619754
v 0.0078411853 -0.0078760216 -0.048531038
v 0.0080493229 -0.010014126 -0.042804072
v 0.005025335 0.01432021 -0.053674511
v -0.00057020715 0.018327136 -0.034674215
v 0.00023488832 -0.019521271 -0.034674215
v 0.0069292481 -0.019432032 -0.034674218
v 0.0058462999 -0.018516847 -0.045239198
v 0.0036653834 -0.020006959 -0.034674215
v -0.0027352526 -0.018411826 -0.049062847
v -0.0027293187 -0.018033534 -0.053043893
v 0.0033871637 -0.017284266 -0.05296668
v 0.00010237729 2.5009009e-07 -0.058140303
v 0.0066978192 -0.01431971 -0.05165066
v 0.0027288337 0.015295503 -0.055222836
v 0.003692835 0.01432021 -0.054627857
v 0.0079798993 -0.016231127 -0.043042699
v -0.0009782972 0.016725147 -0.034674215
v 0.0056558959 -0.019954792 -0.034674394
v 0.001327705 -0.019821888 -0.034674215
v -0.0012047807 -0.016353773 -0.055463472
v 0.0027214423 -0.01528717 -0.055218243
v 0.0059713845 -0.01431971 -0.052604006
v -0.001324588 0.0088700523 -0.058140303
v -0.00014680675 0.0038191673 -0.058140303
v -0.00073719826 -0.0066974206 -0.058140303
v -3.8580334e-05 -0.0028629583 -0.058140303
v 0.0055805841 -0.016287186 -0.052149158
v 0.0036822764 -0.01431971 -0.054627857
f 13 22 3
f 1 3 22
f 1 2 3
f 7 10 1
f 12 4 6
f 12 35 13
f 12 13 3
f 11 2 1
f 8 9 7
f 8 1 22
f 8 7 1
f 37 29 28
f 37 8 39
f 37 28 9
f 37 9 8
f 48 12 6
f 48 35 12
f 45 2 11
f 38 29 37
f 44 10 27
f 26 27 10
f 26 7 9
f 26 10 7
f 24 26 9
f 30 28 29
f 34 45 10
f 34 19 43
f 55 34 43
f 23 10 45
f 23 45 11
f 23 1 10
f 23 11 1
f 21 43 19
f 49 37 39
f 49 38 37
f 25 26 24
f 31 30 27
f 20 19 34
f 20 53 21
f 20 21 19
f 20 34 10
f 20 44 53
f 20 10 44
f 54 2 45
f 54 45 55
f 46 45 34
f 46 55 45
f 46 34 55
f 57 43 21
f 58 21 53
f 58 53 44
f 58 30 29
f 58 44 27
f 58 27 30
f 52 56 57
f 52 21 58
f 18 17 2
f 18 56 52
f 42 29 38
f 42 58 29
f 42 52 58
f 47 28 30
f 47 31 28
f 47 30 31
f 33 9 28
f 33 28 31
f 33 24 9
f 33 31 24
f 32 25 24
f 32 24 31
f 32 31 27
f 32 27 26
f 32 26 25
f 5 36 14
f 5 40 36
f 5 14 15
f 5 15 16
f 5 17 40
f 5 16 6
f 5 6 4
f 5 4 2
f 5 2 17
f 50 40 39
f 50 36 40
f 41 40 17
f 41 38 49
f 41 49 39
f 41 39 40
f 41 42 38
f 41 17 42
f 59 57 21
f 59 21 52
f 59 52 57
f 51 17 18
f 51 18 52
f 51 42 17
f 51 52 42
f 12 2 4
f 12 3 2
f 18 2 54
f 18 43 57
f 18 55 43
f 18 54 55
f 18 57 56
f 50 39 8
f 50 6 16
f 50 48 6
f 50 22 13
f 50 15 14
f 50 13 35
f 50 16 15
f 50 8 22
f 50 14 36
f 50 35 48
