v -0.037487833 0.0181715 -0.090544702
v -0.037487833 0.018722712 -0.086016593
v -0.037487833 0.013384398 -0.086016599
v -0.042678918 -0.0079577674 -0.086015764
v -0.049973708 -0.0028624939 -0.086015964
v -0.040151461 0.017599554 -0.086016599
v -0.042455688 0.015635615 -0.086016599
v -0.047673777 -0.0079577658 -0.090581167
v -0.047392878 -0.0079577658 -0.091543842
v -0.048187734 -0.0079577658 -0.086015964
v -0.048113521 0.0069049676 -0.090551097
v -0.049105255 0.0065811268 -0.086016599
v -0.046914492 0.0095087528 -0.091280302
v -0.048902862 0.0040321851 -0.091569431
v -0.045984705 0.00045818202 -0.092550652
v -0.045984705 0.0028647905 -0.092549375
v -0.037487833 0.016231066 -0.092275603
v -0.040257567 0.01432197 -0.092313986
v -0.048904087 -0.004029888 -0.09157006
v -0.046977664 -0.0079577658 -0.091910685
v -0.039309378 0.018072257 -0.086016599
v -0.039337591 0.0172052 -0.091522091
v -0.04185464 0.015523316 -0.090544702
v -0.042472247 0.014604026 -0.091725185
v -0.047505727 0.010127707 -0.086016599
v -0.04716963 0.010592576 -0.086016599
v -0.04971489 -0.0047872586 -0.086015964
v -0.048206133 -0.0066806831 -0.090544702
v -0.045984705 0.0066803683 -0.092376028
v -0.047893344 0.0015472279 -0.092167817
v -0.050017868 1.1483278e-06 -0.086016281
v -0.049797688 0.0043468853 -0.086016599
v -0.049452393 0.0057192918 -0.086016599
v -0.047217471 0.0082368942 -0.091760683
v -0.045868788 0.0092240871 -0.092046608
v -0.045240139 0.011726019 -0.091689045
v -0.044073616 0.010503781 -0.092312703
v -0.04598593 -0.0028624939 -0.092549375
v -0.039217381 0.01620495 -0.092036693
v -0.047825877 -0.0042786448 -0.092058443
v -0.046039903 -0.0073192237 -0.092282003
v -0.037487833 0.014528287 -0.091942344
v -0.044157024 -0.0079577658 -0.091992239
v -0.037555297 0.018706881 -0.086016599
v -0.0383477 0.017803261 -0.090544702
v -0.04777436 0.0095557631 -0.086016599
v -0.047736948 0.0058080871 -0.091946183
v -0.048961125 -0.0013164143 -0.091643469
v -0.049985978 0.0024299555 -0.086016599
v -0.044148438 0.013407903 -0.090544702
v -0.043113163 0.013356977 -0.091977843
v -0.037487833 0.01762567 -0.091838722
v -0.037487833 0.013786588 -0.090544702
v -0.044632957 -0.0079577658 -0.092139997
v -0.043319236 -0.0079577658 -0.090544702
v -0.048950699 0.0028647905 -0.091630836
v -0.045378748 0.012687095 -0.086016599
v -0.04540328 0.011929726 -0.090544702
v -0.0383477 0.017445467 -0.091728058
v -0.04395095 0.01420706 -0.086016599
f 2 4 3
f 2 5 4
f 2 21 5
f 53 3 4
f 43 17 42
f 32 31 5
f 56 14 47
f 38 15 17
f 55 4 43
f 55 43 42
f 55 42 53
f 55 53 4
f 27 4 5
f 27 10 4
f 58 36 13
f 58 13 25
f 49 31 32
f 49 32 14
f 49 56 31
f 49 14 56
f 34 47 14
f 34 14 13
f 34 13 36
f 11 13 14
f 30 56 47
f 30 47 29
f 30 15 38
f 30 38 40
f 48 5 31
f 48 31 56
f 48 30 40
f 48 56 30
f 44 2 1
f 44 21 2
f 44 1 21
f 45 22 21
f 45 21 1
f 45 1 22
f 59 1 52
f 59 22 1
f 54 17 43
f 54 38 17
f 54 43 4
f 8 10 27
f 8 9 4
f 8 4 10
f 26 58 25
f 26 25 5
f 26 5 57
f 6 5 21
f 6 7 5
f 6 21 22
f 60 57 5
f 60 5 7
f 12 13 11
f 35 37 29
f 35 36 37
f 35 34 36
f 35 47 34
f 35 29 47
f 19 27 5
f 19 5 48
f 19 48 40
f 51 18 37
f 51 37 36
f 51 36 24
f 16 17 15
f 16 18 17
f 16 15 30
f 16 30 29
f 16 29 37
f 16 37 18
f 39 52 17
f 39 59 52
f 39 17 18
f 39 51 24
f 39 18 51
f 39 24 22
f 39 22 59
f 41 40 38
f 41 38 54
f 23 22 24
f 23 6 22
f 23 7 6
f 46 25 13
f 46 13 12
f 46 5 25
f 46 12 5
f 33 11 14
f 33 12 11
f 33 14 32
f 33 32 5
f 33 5 12
f 28 8 27
f 28 27 19
f 28 9 8
f 28 19 9
f 20 40 41
f 20 9 19
f 20 19 40
f 20 41 54
f 20 4 9
f 20 54 4
f 50 60 7
f 50 7 23
f 50 57 60
f 50 23 24
f 50 26 57
f 50 58 26
f 50 24 36
f 50 36 58
f 1 42 17
f 1 2 3
f 1 3 53
f 1 53 42
f 1 17 52
