v 0.00020039467 0.0056356549 0.036879894
v 5.6315498e-05 0.0063156876 0.028320685
v -0.00071847048 0.0051180541 0.03221409
v 0.014806228 0.0063139639 0.028294479
v 0.00015815266 0.0063161175 0.019597437
v 0.013746409 0.0063156911 0.019598224
v -0.00071847048 0.0051180541 0.028322374
v 0.00011919813 0.0021456066 0.019597328
v -0.00071847048 -3.5020454e-06 0.028322374
v -0.00071847048 0.00058726966 0.03221409
v 0.013793515 0.00018499176 0.019597291
v 0.013941933 -0.0015178219 0.021461631
v 0.012854011 -0.0027366837 0.019597291
v 0.014862658 0.00018499176 0.028268276
v 0.014660954 0.0036310661 0.0267383
v 5.6315498e-05 -0.00539171 0.025556586
v 5.6315498e-05 -0.005220456 0.024371488
v 0.0032694659 -0.005243371 0.024841682
v 0.0076089535 0.0024653257 0.036707649
v 0.0081599209 0.0043971171 0.036560148
v 0.0014564211 0.0023779755 0.036730473
v 0.0037563762 -0.0053618263 0.027249701
v 0.0048080756 0.001073306 0.036002785
v 0.00019815644 0.00048612456 0.035693299
v 0.0046963572 -0.00069416144 0.034261699
v 0.0052906962 -0.0041285607 0.029684982
v 0.0084922171 -0.0048108516 0.024823667
v 0.0052906962 -0.0042366012 0.019597291
v 0.0040179427 -0.0040176483 0.019597291
v 0.0090552424 -0.0038148935 0.019597291
v 0.00019815644 0.0018331769 0.036513232
v 0.014446096 0.002566757 0.029759368
v 0.013824018 0.0051180541 0.03064016
v 0.0093323948 0.0056364159 0.03557158
v 0.00044218326 0.001816512 0.019597291
v 5.6315498e-05 -0.0044113042 0.023867696
v 0.013817155 -0.00033394448 0.030635086
v 0.014280043 -0.0020361492 0.028974515
v 0.014520258 -0.0021131563 0.0267383
v 5.6315498e-05 -0.0053595283 0.026430614
v 0.0080695539 0.00071140016 0.035407592
v 0.011415776 -0.0044906093 0.025206636
v 0.013403072 -0.0038331751 0.025094211
v 0.013322715 -0.0038746967 0.027508358
v 0.012610746 -0.0032688392 0.029443229
v 0.0088514896 -0.004578465 0.028260353
v 0.011411201 -0.0034653795 0.019597291
v 0.0098845059 -0.0038975412 0.020609949
v 0.0082556251 0.0056364159 0.036439269
v 0.0034864206 -0.0035193997 0.019597291
v 0.0090879859 0.0026262366 0.035688231
v 0.009347646 0.0047801421 0.035598631
v 0.013934593 -0.0026154267 0.023066361
v 0.0026796065 -0.0052698774 0.02767488
v 0.0071849557 -0.0011580354 0.033391577
v 0.011090533 -0.00026038441 0.033009084
v 0.0096925254 -0.0038782878 0.029352992
v 0.0094397051 -0.0048561792 0.02694751
v 0.011823282 -0.0036890745 0.02111596
f 1 2 3
f 1 4 2
f 6 5 2
f 6 2 4
f 7 3 2
f 7 2 5
f 8 7 5
f 8 9 7
f 10 1 3
f 11 5 6
f 11 12 13
f 11 14 12
f 15 4 14
f 15 6 4
f 15 14 11
f 15 11 6
f 17 16 9
f 17 18 16
f 19 20 1
f 19 1 21
f 22 16 18
f 25 23 24
f 25 24 26
f 27 22 18
f 28 17 29
f 28 18 17
f 28 27 18
f 28 30 27
f 31 21 1
f 31 10 24
f 31 1 10
f 31 24 23
f 31 23 19
f 31 19 21
f 32 14 4
f 32 4 33
f 34 33 4
f 35 8 5
f 35 5 11
f 36 9 8
f 36 17 9
f 36 8 17
f 37 38 14
f 37 14 32
f 37 32 33
f 39 12 14
f 39 14 38
f 40 16 22
f 40 24 10
f 40 10 9
f 40 9 16
f 41 19 23
f 41 23 25
f 44 42 43
f 44 38 45
f 44 39 38
f 44 43 39
f 46 44 45
f 48 30 47
f 48 42 27
f 48 27 30
f 49 4 1
f 49 34 4
f 49 1 20
f 50 8 35
f 50 29 17
f 50 17 8
f 51 20 19
f 52 33 34
f 52 37 33
f 52 51 37
f 52 20 51
f 52 49 20
f 52 34 49
f 53 12 39
f 53 39 43
f 53 13 12
f 53 43 13
f 54 40 22
f 54 46 26
f 54 22 46
f 54 26 24
f 54 24 40
f 55 41 25
f 55 45 41
f 55 25 26
f 56 41 45
f 56 45 38
f 56 38 37
f 56 19 41
f 56 51 19
f 56 37 51
f 57 26 46
f 57 46 45
f 57 55 26
f 57 45 55
f 58 46 22
f 58 27 42
f 58 22 27
f 58 42 44
f 58 44 46
f 59 42 48
f 59 48 47
f 59 43 42
f 59 47 13
f 59 13 43
f 10 7 9
f 10 3 7
f 50 13 47
f 50 11 13
f 50 28 29
f 50 47 30
f 50 30 28
f 50 35 11
