v 0.00029375016 -0.063585826 -0.026325894
v 0.011170436 -0.06179723 -0.023049775
v 0.010059048 -0.068823553 -0.023074571
v 0.011547196 0.0072463709 -0.011425492
v 0.0078409324 0.01030028 -0.015898953
v 0.0058227188 0.011400215 -0.011348745
v -0.013533738 -0.038632707 -0.019893115
v -0.013046211 -0.067672061 -0.01877793
v -0.013716919 -0.064667923 -0.015780066
v -0.012151976 -0.059950947 -0.024079578
v -0.0069630187 0.012654181 -0.017355213
v 0.00022439376 0.013126958 -0.016773168
v 0.0092048942 0.0088197997 -0.022548566
v 0.012176603 -0.018870982 -0.023049775
v 0.013081887 -0.018853098 -0.011397783
v 0.013169134 -0.0034993914 -0.011397788
v 0.013279669 -0.0032386738 -0.015348267
v 0.0082581286 -0.018853098 -0.011397783
v -0.013525644 -0.065417404 -0.013470051
v 0.00011052673 -0.078351693 -0.013454568
v -0.0079774004 -0.074527185 -0.013517035
v -0.0071924047 -0.063929037 -0.026115215
v -0.0057220099 -0.063585826 -0.026181229
v -0.004245282 -0.077521204 -0.016316344
v -0.0075976219 -0.076025492 -0.01627689
v -0.011023631 -0.0684508 -0.023685419
v -0.013568251 -0.033197616 -0.018401545
v -0.013260295 -0.0017541416 -0.019146051
v -0.010840451 0.0064868037 -0.022972331
v -0.011859891 0.0014407339 -0.022748394
v -0.012615595 0.002685483 -0.020187281
v -0.011999976 -0.018778924 -0.024077239
v -0.0084471772 0.0097327942 -0.022965482
v 0.010692573 0.007260371 -0.022548566
v 0.012020441 0.0046866244 -0.022548156
v 0.012653802 0.0016084143 -0.022548566
v 0.012664203 -0.066859806 -0.01966531
v 0.012330702 -0.068649132 -0.013428008
v 0.011106431 -0.070620448 -0.01526331
v 0.010125775 -0.071536122 -0.018637537
v 0.0044843408 -0.076866134 -0.016405481
v -7.9235798e-05 -0.077908678 -0.016463616
v 0.012693909 0.0032852052 -0.011405402
v 0.005504354 -0.076363823 -0.01344221
v -0.013378629 -0.068073969 -0.013483122
v -0.011382028 -0.071073326 -0.019199752
v -0.0067224662 -0.06827091 -0.024653907
v -0.012201449 0.0048882533 -0.016464166
v -0.0086463406 -0.063624779 -0.025751969
v -0.012895925 -0.015604564 -0.021367878
v 0.004389681 0.011982397 -0.01993823
v 0.01318335 -0.0016652711 -0.019584197
v 0.012792515 -0.061672029 -0.015937881
v -0.013201611 0.0012072767 -0.01645871
v -5.9955372e-05 0.012085477 -0.022967727
v 0.01267836 -0.017189705 -0.022548566
v 0.012165984 -0.064650039 -0.021389798
v 0.012964745 -0.041241257 -0.018277339
v 0.011656264 -0.064650039 -0.022354222
v 0.012816409 -0.001664712 -0.022548566
f 3 1 2
f 4 5 6
f 7 8 9
f 7 10 8
f 11 6 12
f 13 5 4
f 14 2 1
f 16 6 15
f 16 15 17
f 18 15 6
f 18 6 19
f 20 18 21
f 20 15 18
f 23 1 22
f 25 24 20
f 25 20 21
f 26 8 10
f 26 24 25
f 27 7 9
f 27 28 7
f 31 29 30
f 31 30 28
f 32 10 7
f 32 30 29
f 32 23 22
f 33 32 29
f 33 29 11
f 33 1 23
f 33 23 32
f 34 35 1
f 34 4 35
f 34 13 4
f 36 1 35
f 36 14 1
f 37 38 39
f 40 41 3
f 40 37 39
f 40 3 37
f 42 3 41
f 42 20 24
f 42 41 20
f 43 4 6
f 43 6 16
f 43 16 17
f 43 35 4
f 43 36 35
f 44 38 15
f 44 15 20
f 44 20 41
f 44 39 38
f 44 40 39
f 44 41 40
f 45 19 9
f 45 9 8
f 45 25 21
f 45 21 18
f 45 18 19
f 46 8 26
f 46 26 25
f 46 45 8
f 46 25 45
f 47 22 1
f 47 26 22
f 47 1 3
f 47 3 42
f 47 24 26
f 47 42 24
f 48 11 29
f 48 29 31
f 48 6 11
f 49 10 32
f 49 32 22
f 49 26 10
f 49 22 26
f 50 7 28
f 50 32 7
f 50 28 30
f 50 30 32
f 55 11 12
f 55 33 11
f 55 1 33
f 55 34 1
f 55 13 34
f 52 43 17
f 52 36 43
f 53 17 15
f 53 15 38
f 53 38 37
f 54 31 28
f 54 48 31
f 54 9 19
f 54 19 6
f 54 6 48
f 54 27 9
f 54 28 27
f 51 55 12
f 51 13 55
f 51 5 13
f 51 12 6
f 51 6 5
f 56 2 14
f 56 37 57
f 58 52 17
f 58 37 52
f 58 17 53
f 58 53 37
f 59 2 56
f 59 56 57
f 59 3 2
f 59 37 3
f 59 57 37
f 60 52 37
f 60 37 56
f 60 36 52
f 60 14 36
f 60 56 14
