v 0.033958988 0.025352144 -0.029403574
v -0.0027322439 0.037204164 -0.019039979
v -0.028108161 0.025349916 -0.018938539
v 0.028597227 0.025351504 -0.10351909
v 0.029641551 0.039100445 -0.089309465
v 0.028947536 0.039577135 -0.091029401
v -0.0016808095 0.040908781 -0.019274899
v 0.015841004 0.039465968 -0.029498465
v -0.0017437866 0.042603062 -0.022339006
v 0.023083476 0.035744063 -0.029409844
v 0.03148105 0.028316837 -0.029403574
v 0.018809646 0.025352144 -0.11105267
v 0.027044433 0.025352144 -0.10532538
v -0.03161461 0.025352144 -0.091894414
v -0.034164725 0.025352142 -0.02206899
v -0.02865207 0.025352144 -0.10172348
v -0.030958398 0.034195251 -0.086089985
v -0.029192844 0.038447856 -0.091686246
v -0.0088179615 0.025352144 -0.11437932
v 0.0017933077 0.025352144 -0.11456991
v 0.011161629 0.025352144 -0.11361066
v 0.01343266 0.039201073 -0.10992308
v 0.031111819 0.03377818 -0.083676426
v 0.031011799 0.025352144 -0.092657636
v 0.031711923 0.025352144 -0.087287718
v 0.028384667 0.031553868 -0.029403574
v -0.023144936 0.041418872 -0.090425304
v -0.02344448 0.041383397 -0.080074537
v -0.017390079 0.038926018 -0.022340864
v -0.021184082 0.036873976 -0.022340864
v -0.024817687 0.034227229 -0.019518547
v -0.030147707 0.030241103 -0.023500229
v -0.028925449 0.039235088 -0.077873904
v 0.019836495 0.041582691 -0.090889607
v 0.024247616 0.041332279 -0.080296482
v 0.013252629 0.041525661 -0.10356714
v 0.022726589 0.039395538 -0.10179649
v 0.0035944232 0.038698765 -0.1127162
v -0.027058452 0.025352144 -0.10526895
v -0.025014223 0.039177791 -0.098855577
v -0.01903129 0.037494596 -0.10685534
v 0.033545577 0.025352144 -0.043989817
v -0.0054146316 0.042207593 -0.022340864
v -0.0090219351 0.041587758 -0.022340864
v -0.016236542 0.035582794 -0.018503866
v -0.030124388 0.03750924 -0.083598982
v 0.028924765 0.039236778 -0.077873904
v 0.0090212509 0.041454334 -0.029403574
v -0.0036278037 0.037131882 -0.11303473
v -0.002578163 0.041547002 -0.10765433
v -0.011794836 0.041522231 -0.10464406
v -0.016203204 0.025352144 -0.11140062
v -0.020759591 0.041530071 -0.094648864
v 0.031958635 0.025352144 -0.083676426
v -0.02344448 0.041239841 -0.07646324
v -0.01262924 0.040645342 -0.022340864
v -0.014539557 0.039753689 -0.019661276
v 0.0054139474 0.042087681 -0.029403574
v -0.01126465 0.038894854 -0.11087107
v -0.028015923 0.040098114 -0.081776184
f 3 1 2
f 3 4 1
f 7 2 1
f 33 15 32
f 30 29 33
f 14 3 15
f 14 16 3
f 14 15 17
f 14 18 16
f 14 17 18
f 57 7 9
f 46 33 18
f 46 18 17
f 46 15 33
f 46 17 15
f 45 7 57
f 45 3 2
f 45 2 7
f 8 9 7
f 8 7 10
f 26 10 7
f 42 1 4
f 24 25 4
f 19 20 4
f 19 4 3
f 19 3 52
f 40 18 27
f 37 6 4
f 56 57 44
f 31 3 45
f 31 45 57
f 31 15 3
f 31 32 15
f 31 29 30
f 31 57 29
f 31 33 32
f 31 30 33
f 47 8 10
f 47 10 26
f 11 7 1
f 11 26 7
f 11 1 47
f 11 47 26
f 54 4 25
f 54 42 4
f 5 4 6
f 5 24 4
f 5 47 1
f 5 6 47
f 60 18 33
f 60 27 18
f 60 57 56
f 60 33 29
f 60 29 57
f 43 57 9
f 43 44 57
f 53 51 40
f 53 40 27
f 53 9 51
f 53 27 9
f 36 9 34
f 36 37 22
f 36 34 6
f 36 6 37
f 21 4 20
f 21 12 4
f 21 22 12
f 13 4 12
f 13 12 22
f 13 37 4
f 13 22 37
f 35 8 47
f 35 34 9
f 35 6 34
f 35 47 6
f 23 42 54
f 23 1 42
f 23 5 1
f 23 54 25
f 23 25 24
f 23 24 5
f 49 20 19
f 39 40 41
f 39 16 18
f 39 18 40
f 39 41 52
f 39 3 16
f 39 52 3
f 55 56 44
f 55 60 56
f 48 9 8
f 48 8 35
f 59 49 19
f 59 19 52
f 59 52 41
f 59 40 51
f 59 41 40
f 38 21 20
f 38 20 49
f 38 22 21
f 38 49 59
f 28 44 43
f 28 55 44
f 28 43 9
f 28 9 27
f 28 27 60
f 28 60 55
f 58 35 9
f 58 9 48
f 58 48 35
f 50 59 51
f 50 38 59
f 50 51 9
f 50 9 36
f 50 36 22
f 50 22 38
