v 0.010036502 -0.0095132531 0.0093042803
v -0.0098844838 -0.0096584816 0.0093042803
v 0.012584054 -0.011778528 0.0093042894
v 0.010370394 -0.014215778 0.0093018733
v 0.012375034 -0.01301852 0.0091395644
v -0.011083643 -0.0099071679 0.0093042803
v -0.0045198954 -0.0085521969 -0.026228984
v -0.012300009 -0.012910578 0.0093041849
v -0.012218343 -0.011247057 0.0093042803
v -0.012213478 -0.011597607 0.0079387759
v -0.011849839 -0.010624203 0.0093042803
v 0.012140615 -0.010517786 0.0093042803
v 0.011853595 -0.010199672 0.0093042803
v 0.011374418 -0.009826928 0.0093042803
v -0.00040128662 -0.012708729 -0.041910274
v -0.0042071837 -0.013241383 -0.041241349
v -0.0046111088 -0.010846712 -0.040754119
v 0.0072466893 -0.0085521969 -0.033033864
v 0.0051101567 -0.0085521969 -0.026687296
v -0.0072064462 -0.0085521969 -0.029938227
v -0.011766476 -0.013643868 0.0093042162
v -0.0099464632 -0.014365919 0.0093042711
v -0.0072100949 -0.013632552 -0.027287061
v -0.0037524829 -0.014326042 -0.037630813
v -0.0037524829 -0.014316937 -0.039164806
v -0.005957729 -0.014102751 -0.029968088
v -0.00034405053 -0.014299457 -0.040357824
v 0.0048245054 -0.013213427 -0.040887714
v 0.0039070463 -0.014260599 -0.039164806
v -0.0059136422 -0.013302986 -0.039503037
v 0.012466551 -0.011283762 0.0093042803
v 0.0006995883 -0.01069764 -0.041020052
v -0.0050075856 -0.0085521969 -0.038116159
v -0.0062702883 -0.0085521969 -0.036677099
v 0.0016457035 -0.0085525712 -0.038522915
v 0.0073512805 -0.0085521969 -0.029965887
v -0.0070215869 -0.0085521969 -0.033737995
v -0.0066810547 -0.0085521969 -0.026887848
v 0.010669031 -0.013831088 0.0031708306
v 0.0092550269 -0.013554144 -0.012777174
v -0.0087557376 -0.014365082 0.0093042795
v 0.0064759318 -0.0088270258 -0.036900909
v 0.0059447632 -0.01360015 -0.037880087
v -0.0068196996 -0.014292467 -0.018474787
v -0.0060066808 -0.011082167 -0.039290541
v 0.0073926308 -0.0085521969 -0.031499877
v -0.0072234727 -0.0085521969 -0.032204008
v 0.0070837198 -0.0093802042 -0.03456786
v 0.0070478426 -0.010912726 -0.034948843
v 0.0054394388 -0.014051747 -0.035332342
v 0.0081551787 -0.012787688 -0.024972873
v 0.0064063049 -0.012794944 -0.038764961
v -0.0098844838 -0.014271126 0.0047041928
v -0.0065265989 -0.011678702 -0.037247315
v -0.01097905 -0.0099282235 0.0068096578
v 0.0085176015 -0.011782842 -0.023166033
v 0.0055546723 -0.011004222 -0.039881349
v -0.0066737573 -0.0093802042 -0.036096823
v -0.0084162459 -0.011662981 -0.022491455
v -0.0069340214 -0.0093802042 -0.03456786
f 1 2 3
f 1 7 2
f 5 3 4
f 19 7 1
f 59 54 8
f 38 2 7
f 12 13 3
f 14 1 3
f 14 3 13
f 36 19 1
f 36 1 14
f 24 22 25
f 35 18 42
f 33 18 35
f 27 25 16
f 27 24 25
f 27 16 15
f 27 29 4
f 30 8 54
f 30 23 8
f 30 16 25
f 30 25 26
f 30 26 23
f 10 59 8
f 6 3 2
f 6 11 3
f 21 8 23
f 21 23 26
f 9 3 11
f 9 21 22
f 9 8 21
f 9 10 8
f 9 11 47
f 9 47 10
f 60 54 59
f 60 10 47
f 60 59 10
f 20 2 38
f 20 6 2
f 20 47 6
f 31 3 18
f 31 12 3
f 31 18 12
f 46 36 14
f 46 14 13
f 46 12 18
f 46 13 12
f 39 5 4
f 39 40 5
f 52 5 40
f 41 22 24
f 41 4 3
f 41 27 4
f 41 24 27
f 41 3 9
f 41 9 22
f 44 25 22
f 44 26 25
f 32 33 35
f 17 16 30
f 17 33 32
f 17 34 33
f 17 15 16
f 17 32 15
f 55 47 11
f 55 6 47
f 55 11 6
f 53 22 21
f 53 21 26
f 53 44 22
f 53 26 44
f 51 3 5
f 51 5 52
f 43 52 40
f 28 27 15
f 28 29 27
f 28 15 32
f 28 43 29
f 28 52 43
f 58 54 60
f 45 17 30
f 45 34 17
f 45 58 34
f 45 30 54
f 45 54 58
f 48 18 3
f 48 3 49
f 48 42 18
f 48 52 42
f 48 49 52
f 56 49 3
f 56 3 51
f 56 52 49
f 56 51 52
f 50 40 39
f 50 43 40
f 50 29 43
f 50 4 29
f 50 39 4
f 57 28 32
f 57 35 42
f 57 32 35
f 57 42 52
f 57 52 28
f 37 34 58
f 37 60 47
f 37 58 60
f 37 47 20
f 37 7 19
f 37 38 7
f 37 18 33
f 37 19 36
f 37 46 18
f 37 20 38
f 37 36 46
f 37 33 34
