v 0.015546065 0.011023784 -0.006188001
v 0.020259637 0.0099572964 -0.019903354
v 0.014462488 0.0096123705 -0.0058594298
v 0.019988614 0.0086942498 -0.019903412
v 0.013144851 -0.0035039218 -0.0081796574
v 0.020182213 -0.017116259 0.0036350432
v 0.017694437 -0.017444516 -0.0023636385
v 0.026313829 -0.017551744 0.0030665421
v 0.017936863 -0.017464339 -0.0086090002
v 0.01619694 -0.0092270092 0.0014520335
v 0.014804454 -0.014263611 -0.0024827997
v 0.01678535 -0.015296027 0.0021123513
v 0.017663519 -0.00061904955 0.0039559273
v 0.016848043 0.0087481737 0.0025798055
v 0.024116189 -0.016205507 0.006436757
v 0.024239983 0.0087481737 0.0074144483
v 0.022738524 -0.012422464 0.0071263222
v 0.024235193 -0.010923941 0.0073399101
v 0.025290616 0.0024740187 0.0068420397
v 0.02560648 0.010484571 0.0061041751
v 0.018502503 0.010064383 0.0040861187
v 0.021980271 -0.017480342 -0.019903429
v 0.028696486 -0.017519624 -0.019903429
v 0.025364989 -0.017537083 -0.019903429
v 0.029661237 0.010304186 -0.0022377048
v 0.025946165 0.0027562649 0.0055753859
v 0.031299988 -0.015478433 -0.019903429
v 0.029532706 -0.016179682 -0.0025596784
v 0.030246731 -0.016761633 -0.019903429
v 0.019815396 -0.013720942 -0.019903429
v 0.013150028 -0.016385087 -0.0081884492
v 0.013538723 -0.0064320084 -0.006240479
v 0.025506625 -0.015222374 0.0061362626
v 0.023683262 0.010438742 0.0067693394
v 0.022665455 0.011652292 0.0049162376
v 0.026395247 0.011830234 0.0028468757
v 0.01697041 0.012179538 -0.0023957419
v 0.028163018 -0.01751526 -0.0019152371
v 0.031620978 -0.013709301 -0.019903429
v 0.031450907 -0.014865201 -0.019900755
v 0.020061613 -0.015216554 -0.019903429
v 0.018347565 -0.0062221434 0.0047049892
v 0.019987748 -0.012981137 0.0057839598
v 0.019620192 -0.015460882 0.005122639
v 0.029575321 -0.011276263 -0.0024529077
v 0.031816126 0.0087481737 -0.019903429
v 0.02030418 0.0087481737 0.0058661864
v 0.022683711 0.012028817 -0.01988938
v 0.019753159 0.012109668 0.00051645788
v 0.028713914 0.01203334 -0.01988372
v 0.014462488 0.0096094625 -0.0044782938
v 0.015409167 0.010645089 -0.0010909266
v 0.029603833 0.011195277 -0.0023912145
v 0.030262233 0.01139896 -0.019903429
v 0.031162287 0.010400188 -0.019903429
v 0.029146055 -0.017369772 -0.019478259
v 0.020812114 -0.016444471 -0.019903429
v 0.022740803 0.0087481737 0.0070427593
v 0.025371664 0.012102393 -0.019903429
v 0.021068325 0.011075654 -0.019903198
f 30 5 4
f 8 33 15
f 8 28 33
f 59 30 4
f 3 4 5
f 10 12 13
f 11 12 10
f 42 13 12
f 40 27 39
f 40 28 27
f 40 39 28
f 18 17 15
f 18 15 33
f 18 16 17
f 19 16 18
f 19 18 33
f 45 33 28
f 45 46 25
f 45 39 46
f 45 28 39
f 6 8 15
f 14 13 21
f 14 10 13
f 43 42 12
f 58 17 16
f 47 21 13
f 47 13 42
f 47 42 43
f 47 43 17
f 47 17 58
f 20 16 19
f 49 59 37
f 26 19 33
f 26 45 25
f 26 33 45
f 26 25 20
f 26 20 19
f 31 6 12
f 31 12 11
f 31 22 9
f 31 30 41
f 31 5 30
f 7 9 8
f 7 8 6
f 7 31 9
f 7 6 31
f 50 54 59
f 50 59 49
f 50 49 36
f 24 23 8
f 24 8 9
f 24 9 22
f 29 27 28
f 2 59 4
f 2 4 3
f 2 3 1
f 48 37 59
f 48 1 37
f 32 5 31
f 32 31 11
f 44 12 6
f 44 43 12
f 44 6 15
f 44 15 17
f 44 17 43
f 53 20 25
f 53 36 20
f 53 55 54
f 53 50 36
f 53 54 50
f 53 46 55
f 53 25 46
f 35 20 36
f 35 36 49
f 35 37 21
f 35 49 37
f 57 22 31
f 57 31 41
f 38 28 8
f 38 29 28
f 38 8 23
f 60 2 1
f 60 1 48
f 60 59 2
f 60 48 59
f 51 3 5
f 51 5 32
f 51 1 3
f 52 10 14
f 52 11 10
f 52 32 11
f 52 51 32
f 52 21 37
f 52 14 21
f 52 37 1
f 52 1 51
f 34 16 20
f 34 20 35
f 34 58 16
f 34 35 21
f 34 21 47
f 34 47 58
f 56 23 29
f 56 38 23
f 56 29 38
f 57 41 30
f 57 46 39
f 57 39 27
f 57 30 59
f 57 24 22
f 57 59 54
f 57 27 29
f 57 55 46
f 57 54 55
f 57 23 24
f 57 29 23
