v 0.027087574 -0.025999672 -0.019038252
v 0.027087574 -0.025999672 -0.12301882
v 0.028670843 -0.025999715 -0.018532346
v 0.014067324 0.019338267 -0.12386687
v 0.024410252 -0.011960814 -0.12507234
v 0.027087574 -0.02396403 -0.12426105
v 0.024697224 0.025348867 -0.022284712
v 0.024616745 0.016684999 -0.12502843
v 0.032545037 0.014399097 -0.12504398
v 0.014067557 0.019337427 -0.028547971
v 0.014067557 0.025343851 -0.030792313
v 0.031267294 0.022007736 -0.12203587
v 0.031720447 0.025348867 -0.087286922
v 0.034209714 0.025348932 -0.022286728
v 0.036384978 0.013240138 -0.12368527
v 0.036045415 0.017721835 -0.12102536
v 0.033933426 -0.012265791 -0.12502938
v 0.014067715 0.025345239 -0.11288403
v 0.029219521 0.025343292 -0.10538724
v 0.032807548 0.025348821 -0.062574413
v 0.033181992 0.021760099 -0.11616056
v 0.039885054 -0.013666777 -0.019365247
v 0.033785747 -0.025996122 -0.020209377
v 0.037368591 -0.020350127 -0.022336903
v 0.032163793 -0.025999666 -0.01940829
v 0.042506108 0.0012643942 -0.025977823
v 0.042193917 0.0048969077 -0.025959158
v 0.041766105 0.0082850456 -0.021271857
v 0.041688518 -0.0050699875 -0.019483971
v 0.039670382 0.0064990366 -0.11429463
v 0.039466074 0.0094155383 -0.10085732
v 0.03803581 0.0064509038 -0.018494639
v 0.028883823 -0.016414546 -0.12505961
v 0.036642322 -0.016128519 -0.12121838
v 0.039199281 -0.0080956615 -0.12214224
v 0.039828672 0.0041630699 -0.11976193
v 0.039967127 0.0013402808 -0.12250603
v 0.03534502 -0.023159823 -0.033172347
v 0.03544822 -0.021036217 -0.074650794
v 0.016959965 0.022912374 -0.12052266
v 0.029046985 0.024525168 -0.11495691
v 0.04148546 -0.0095235085 -0.022336903
v 0.042073983 -0.0059196609 -0.025959158
v 0.039703158 -0.01134805 -0.074927421
v 0.028759696 -0.025986451 -0.12196433
v 0.031017838 -0.02599877 -0.090430171
v 0.037854429 -0.013136701 -0.11977056
v 0.035730598 -0.018184954 -0.11939816
v 0.03823526 0.012003115 -0.11973635
v 0.039685692 0.015522706 -0.0223122
v 0.040027628 -0.0031796658 -0.11814133
v 0.033087159 -0.025999672 -0.044007788
v 0.035940208 0.022892568 -0.022324044
v 0.042444946 -0.0023158132 -0.027603262
v 0.039973361 -0.012100108 -0.055401705
v 0.040607556 -0.012388492 -0.025948718
v 0.039770097 -0.015132843 -0.022336903
v 0.03779207 0.019539934 -0.022309052
v 0.03905327 -0.016937281 -0.022336903
v 0.040706546 0.012542164 -0.020916314
f 1 2 3
f 6 4 5
f 6 2 4
f 7 1 3
f 8 5 4
f 8 9 5
f 10 7 11
f 10 1 7
f 10 11 4
f 10 4 2
f 10 2 1
f 12 8 4
f 12 9 8
f 13 7 14
f 15 12 16
f 15 9 12
f 15 17 9
f 18 4 11
f 18 13 19
f 18 11 7
f 18 7 13
f 20 16 13
f 20 13 14
f 21 16 12
f 21 13 16
f 21 19 13
f 22 23 24
f 22 25 23
f 22 3 25
f 28 26 27
f 28 29 26
f 28 27 30
f 28 30 31
f 32 7 3
f 32 3 22
f 32 22 29
f 32 14 7
f 33 5 9
f 33 9 17
f 33 6 5
f 33 17 6
f 34 17 35
f 34 6 17
f 36 27 26
f 36 30 27
f 37 35 17
f 37 17 15
f 37 36 26
f 38 24 23
f 38 39 24
f 40 12 4
f 40 4 18
f 41 18 19
f 41 19 21
f 41 21 12
f 41 12 40
f 41 40 18
f 42 43 29
f 42 29 22
f 42 44 35
f 42 35 43
f 47 35 44
f 47 34 35
f 48 24 39
f 49 36 37
f 49 30 36
f 49 15 16
f 49 37 15
f 49 31 30
f 49 16 50
f 51 43 35
f 51 35 37
f 52 38 23
f 52 39 38
f 52 23 25
f 52 48 39
f 52 46 48
f 52 2 46
f 52 3 2
f 52 25 3
f 53 16 20
f 53 20 14
f 60 28 31
f 60 31 49
f 60 49 50
f 60 29 28
f 60 32 29
f 60 14 32
f 60 53 14
f 45 46 2
f 45 48 46
f 45 34 48
f 45 2 6
f 45 6 34
f 54 43 51
f 54 26 29
f 54 29 43
f 54 37 26
f 54 51 37
f 55 44 42
f 55 42 56
f 55 47 44
f 57 42 22
f 57 56 42
f 57 55 56
f 57 34 47
f 57 47 55
f 58 50 16
f 58 16 53
f 58 60 50
f 58 53 60
f 59 22 24
f 59 57 22
f 59 34 57
f 59 24 48
f 59 48 34
