v 0.0094198659 -0.041358808 -0.019312519
v 0.0026699213 -0.042611869 -0.02249712
v 0.012319329 -0.043816586 -0.075733329
v 0.026355282 -0.033274577 -0.019201673
v 0.02169836 -0.036623175 -0.020493863
v 0.016345966 -0.04312316 -0.077765597
v -0.012650846 -0.043781434 -0.076120924
v -0.0032692507 -0.027755914 -0.18743825
v -0.022398277 -0.027100477 -0.12873399
v 0.023932089 -0.027100463 -0.12734424
v -0.027719134 -0.027100465 -0.12041626
v -0.0010213322 -0.040084585 -0.1884746
v 0.0096320414 -0.028952294 -0.18639628
v -0.026824027 -0.032977076 -0.019871705
v -0.030342613 -0.027101103 -0.018535406
v -0.032818219 -0.027100481 -0.022356877
v 0.030246167 -0.029942005 -0.021009479
v 0.02298657 -0.041473103 -0.16385145
v 0.03280466 -0.027100481 -0.022356877
v -0.013705734 -0.038037765 -0.018467836
v 0.012649503 -0.037881923 -0.018477762
v 0.015213797 -0.039714135 -0.022356877
v 0.02140398 -0.040315035 -0.080796196
v -0.014376729 -0.040231141 -0.020172617
v -0.011978026 -0.043777441 -0.17794516
v 0.0095239441 -0.043778055 -0.17816251
v -0.017667618 -0.0437546 -0.16513991
v -0.021613647 -0.039350974 -0.17720403
v 0.02023575 -0.042847878 -0.15144256
v 0.0049472902 -0.04089256 -0.18763097
v 0.014732291 -0.029075659 -0.1843861
v 0.01407441 -0.027720956 -0.17897149
v 0.027775027 -0.027100481 -0.11976593
v 0.030466492 -0.027100481 -0.091205254
v 0.021841386 -0.039795569 -0.17517849
v -0.021127491 -0.040857102 -0.089319356
v 0.027547929 -0.027100481 -0.018531048
v -0.0055356463 -0.042388724 -0.023332432
v -0.022316984 -0.028779812 -0.1738278
v -0.019158611 -0.027751159 -0.17282903
v -0.015953898 -0.029719241 -0.18322637
v -0.025429286 -0.032963849 -0.16400914
v -0.024936536 -0.0388471 -0.16308102
v -0.030480055 -0.027100481 -0.090905829
v 0.02226335 -0.028760012 -0.17399066
v 0.032277928 -0.027100481 -0.040388198
v 0.024942302 -0.038796349 -0.16308407
v 0.017410828 -0.043100292 -0.17175679
v -0.023131521 -0.041247367 -0.16299785
v -0.021792143 -0.036589849 -0.019613718
v -0.03222083 -0.027100481 -0.042400918
v -0.024987924 -0.030568623 -0.16308102
v 0.024987213 -0.030568623 -0.16308102
v 0.025144282 -0.032725181 -0.16719832
v 0.019841957 -0.027792803 -0.17030019
v 0.025269848 -0.036748908 -0.16504384
v -0.023105806 -0.041231071 -0.15948842
v -0.022418906 -0.041143922 -0.17208351
v 0.025097493 -0.034979618 -0.16813754
v -0.030289569 -0.029935249 -0.021815106
f 37 15 20
f 37 16 15
f 37 10 16
f 37 19 10
f 7 3 2
f 26 48 3
f 11 16 10
f 29 48 18
f 29 18 23
f 29 23 6
f 29 3 48
f 29 6 3
f 1 2 3
f 1 3 6
f 14 15 16
f 24 2 1
f 24 1 20
f 25 26 3
f 25 3 7
f 25 7 27
f 25 28 12
f 25 12 30
f 25 30 26
f 9 10 8
f 9 11 10
f 41 8 12
f 41 12 28
f 46 10 19
f 46 34 10
f 32 8 10
f 33 10 34
f 33 32 10
f 35 48 26
f 35 26 30
f 35 18 48
f 5 6 23
f 21 37 20
f 21 20 1
f 36 27 7
f 36 7 24
f 38 7 2
f 38 2 24
f 38 24 7
f 39 41 28
f 39 8 41
f 31 32 45
f 31 35 30
f 31 45 35
f 47 19 18
f 47 46 19
f 47 18 35
f 47 35 56
f 47 34 46
f 47 56 34
f 55 45 32
f 55 33 45
f 55 32 33
f 22 1 6
f 22 6 5
f 22 5 1
f 4 5 23
f 4 37 21
f 4 1 5
f 4 21 1
f 49 16 43
f 50 14 36
f 50 36 24
f 50 24 20
f 50 20 15
f 50 15 14
f 51 16 11
f 51 11 44
f 51 43 16
f 51 44 43
f 42 43 44
f 42 28 43
f 42 39 28
f 40 8 39
f 40 39 11
f 40 9 8
f 40 11 9
f 13 8 32
f 13 32 31
f 13 31 30
f 13 12 8
f 13 30 12
f 53 45 33
f 53 54 45
f 53 33 34
f 53 34 54
f 59 56 35
f 59 34 56
f 59 54 34
f 59 35 45
f 59 45 54
f 17 4 23
f 17 18 19
f 17 23 18
f 17 19 37
f 17 37 4
f 57 27 36
f 57 49 27
f 57 16 49
f 58 27 49
f 58 25 27
f 58 28 25
f 58 43 28
f 58 49 43
f 52 11 39
f 52 39 42
f 52 44 11
f 52 42 44
f 60 14 16
f 60 16 57
f 60 36 14
f 60 57 36
