v 0.019959076 -0.011815373 -0.0059990239
v 0.018558481 -0.011815373 -0.024585573
v -0.019897843 -0.01181668 -0.005999012
v -0.036986602 -0.011818296 -0.12334311
v 0.027082104 -0.011818366 -0.031261824
v 0.027082104 -0.011818366 -0.12502982
v 0.027060279 -0.011818366 -0.12505385
v 0.033668823 -0.026003848 -0.022329715
v 0.016240487 -0.02709745 -0.12875555
v 0.019849941 -0.027097385 -0.12851518
v -0.033147137 -0.0259978 -0.019904383
v -0.040785844 -0.011818384 -0.029476892
v -0.034281594 -0.011818283 -0.1246318
v -0.039384329 -0.011818366 -0.080381251
v -0.030473911 -0.027095887 -0.090970189
v -0.027674268 -0.027095838 -0.12193457
v 0.033208124 -0.026011095 -0.041255759
v 0.028629678 -0.025971127 -0.12207637
v 0.030498279 -0.027097758 -0.090719653
v 0.027384051 -0.027097385 -0.12108176
v 0.032800898 -0.027097385 -0.022356148
v 0.027540935 -0.02709745 -0.01852248
v 0.004978163 -0.022821713 -0.0059990239
v -0.0027798976 -0.023377041 -0.0059991776
v 0.0017993823 -0.023381577 -0.0059991716
v 0.033375184 -0.026196181 -0.020107345
v -0.019315802 -0.012989762 -0.0059990239
v -0.0270791 -0.027095889 -0.018678496
v -0.031160836 -0.027095889 -0.019351534
v -0.024779942 -0.011818366 -0.12505385
v -0.031331817 -0.011818366 -0.12500578
v -0.019839658 -0.027095889 -0.12851518
v -0.032858772 -0.027095887 -0.020224664
v -0.039069655 -0.016403717 -0.029338869
v -0.035301506 -0.023476875 -0.027347902
v 0.030967394 -0.025999294 -0.090885387
v 0.022993095 -0.027097385 -0.12653212
v 0.027076648 -0.018554269 -0.12504485
v 0.027082104 -0.011827342 -0.12505385
v -0.039615341 -0.014746856 -0.033509275
v 0.0092672581 -0.021176821 -0.0059990239
v 0.012814221 -0.019424214 -0.0059990239
v 0.017665375 -0.015050552 -0.0059990239
v 0.031378476 -0.027097385 -0.019417636
v -0.0091733067 -0.02130174 -0.0059990239
v -0.023150157 -0.027095889 -0.12654415
v -0.035457208 -0.016312458 -0.12269223
v -0.016357608 -0.027095641 -0.12875548
v -0.030674108 -0.027095886 -0.085825419
v 0.015346207 -0.017494328 -0.0059990239
v -0.016216301 -0.016713396 -0.0059990239
v -0.034404032 -0.019684898 -0.11923392
v -0.035853742 -0.018091247 -0.11613617
v -0.037129602 -0.02029556 -0.031397954
v -0.037854591 -0.01314535 -0.11975372
v -0.035455388 -0.021068358 -0.073771104
v -0.012411047 -0.019715941 -0.0059990239
v -0.036122944 -0.01862533 -0.09809646
v -0.036654081 -0.016195767 -0.11975372
v -0.038814998 -0.016755287 -0.033184779
f 2 3 1
f 15 16 9
f 53 15 56
f 13 2 7
f 6 1 5
f 6 2 1
f 6 7 2
f 6 39 7
f 6 5 8
f 28 29 22
f 28 22 25
f 36 18 39
f 36 39 6
f 19 18 36
f 43 1 3
f 51 29 57
f 51 57 3
f 24 29 28
f 24 28 25
f 24 25 23
f 33 15 9
f 33 9 19
f 33 22 29
f 33 19 22
f 33 29 51
f 30 13 7
f 10 9 7
f 10 7 39
f 41 42 3
f 41 3 23
f 21 22 19
f 17 19 36
f 17 6 8
f 17 36 6
f 17 8 21
f 17 21 19
f 50 3 42
f 50 43 3
f 45 57 29
f 45 29 24
f 45 24 23
f 45 3 57
f 45 23 3
f 58 53 56
f 58 56 54
f 58 54 60
f 34 33 12
f 34 60 54
f 49 56 15
f 49 15 33
f 35 54 56
f 35 56 49
f 35 49 33
f 35 34 54
f 35 33 34
f 11 3 12
f 11 12 33
f 48 9 32
f 48 7 9
f 48 30 7
f 52 47 16
f 52 16 15
f 52 15 53
f 46 16 47
f 46 9 16
f 46 32 9
f 4 13 32
f 4 32 46
f 4 46 47
f 4 3 2
f 4 2 13
f 38 39 18
f 38 10 39
f 20 18 19
f 26 21 8
f 26 8 5
f 26 5 1
f 26 1 43
f 40 34 12
f 27 33 51
f 27 11 33
f 27 51 3
f 27 3 11
f 31 32 13
f 31 48 32
f 31 13 30
f 31 30 48
f 59 52 53
f 59 47 52
f 59 4 47
f 59 34 40
f 59 60 34
f 59 53 58
f 59 58 60
f 14 12 3
f 14 3 4
f 37 38 18
f 37 10 38
f 37 18 20
f 37 9 10
f 37 19 9
f 37 20 19
f 44 22 21
f 44 21 26
f 44 41 23
f 44 42 41
f 44 25 22
f 44 23 25
f 44 50 42
f 44 43 50
f 44 26 43
f 55 4 59
f 55 14 4
f 55 59 40
f 55 40 12
f 55 12 14
