v 0.00030032841 -0.07382536 -0.013779593
v -0.0091334501 0.0024575568 -0.016430452
v -0.006372795 0.0006776926 -0.010353041
v -0.0079366667 0.0024575568 -0.011397817
v -0.0099208437 -0.063586479 -0.016495972
v -0.0098962806 -0.018853575 -0.016495972
v -0.0053165893 0.00067769575 0.00083905093
v -0.0053165685 0.0006776926 -0.0022799284
v 0.00029784548 -0.077983294 -0.013779472
v -0.013640838 -0.063586479 -0.016495972
v -0.00034111218 -0.073659254 0.001589285
v -0.00034113672 -0.069656313 0.00056165325
v -0.0102197 -0.063169076 0.0011412716
v -0.008719967 -0.067665991 0.0015698073
v -0.0087240603 -0.0032521864 0.0015945986
v -0.0012322178 -0.073659254 0.001589285
v -0.0064744606 -0.071414736 0.0015547553
v -0.00034111218 -0.075537074 -0.0006014246
v -0.0093117073 -0.075061439 -0.013648107
v -0.012167034 -0.070831947 -0.013779554
v -0.011045303 -0.063169076 0.00049138548
v -0.011645167 -0.066981562 -0.0029619938
v -0.010086563 -0.067488298 0.00082324561
v -0.013014886 0.0024573258 -0.016430419
v -0.012638409 0.0023996308 -0.010967587
v -0.013105902 -0.0002516172 -0.014649905
v -0.013150935 0.00073282129 -0.016430452
v -0.0087240603 0.0006776926 0.001582203
v 0.00030026622 -0.072777198 -0.01118355
v -0.0067522923 -0.076642994 -0.013726555
v -0.0054435647 -0.074859286 -0.0018291475
v -0.003246188 -0.078038821 -0.013755977
v -0.0039822972 -0.074155411 0.00096020657
v -0.013067521 -0.067838516 -0.012686329
v -0.0075231819 -0.07264036 0.00030722111
v -0.013219166 -0.018853575 -0.016495972
v -0.012626488 -0.06596796 -0.0070295113
v -0.013213708 -0.0002516172 -0.016430452
v -0.012486358 -0.0032521864 -0.0085397337
v -0.012852762 -0.0002516172 -0.01177677
v -0.0087240603 -0.0002516172 0.001589285
v -0.0019005048 -0.075899344 -0.0016813956
v -0.0098339563 -0.070629277 -0.0013487885
v -0.012812846 -0.060920618 -0.007530816
v -0.01180114 -0.060733575 -0.0024775947
v -0.012270062 -0.045191252 -0.0052278805
v -0.013111359 -0.064657546 -0.0093914913
v -0.012297355 -0.022423149 -0.0064315867
v -0.01181308 -0.0003480929 -0.0051510718
v -0.011200104 0.00021697556 -0.0023407998
v -0.0101165 0.0006776926 0.00036676496
v 0.00024013392 -0.0778231 -0.0099695465
v -0.011591243 -0.070715415 -0.0092860731
v -0.011314136 -0.063169076 -0.00041703902
v -0.010934256 -0.037363486 0.00018038723
v -0.010981848 -0.0036026475 -0.0011182789
v -0.013564419 -0.064673298 -0.013462579
v -0.011345522 -0.0025000766 -0.0026650789
v -0.010023464 -0.00071655861 0.00096191308
v -0.013396227 -0.064673298 -0.011720989
f 3 1 2
f 3 2 4
f 6 2 5
f 8 4 7
f 8 3 4
f 8 1 3
f 9 2 1
f 9 5 2
f 9 10 5
f 12 7 11
f 13 14 15
f 16 14 17
f 16 11 15
f 16 15 14
f 16 18 11
f 20 10 19
f 23 21 22
f 23 13 21
f 23 14 13
f 23 17 14
f 24 4 2
f 24 25 4
f 26 24 27
f 26 25 24
f 28 7 4
f 28 4 25
f 28 11 7
f 29 9 1
f 29 12 11
f 29 7 12
f 29 1 8
f 29 8 7
f 30 31 19
f 30 19 10
f 32 31 30
f 32 10 9
f 32 30 10
f 33 18 16
f 33 16 17
f 34 10 20
f 53 20 19
f 53 22 34
f 53 34 20
f 35 17 23
f 35 33 17
f 35 31 33
f 35 19 31
f 36 2 6
f 36 24 2
f 36 27 24
f 37 34 22
f 38 26 27
f 38 36 10
f 38 27 36
f 40 39 25
f 40 25 26
f 41 15 11
f 41 11 28
f 41 13 15
f 42 31 32
f 42 18 33
f 42 33 31
f 43 22 53
f 43 23 22
f 43 35 23
f 43 53 19
f 43 19 35
f 45 44 37
f 45 46 44
f 60 39 40
f 48 39 44
f 48 44 46
f 49 25 39
f 49 50 25
f 49 39 48
f 51 28 25
f 51 25 50
f 52 32 9
f 52 42 32
f 52 18 42
f 52 11 18
f 52 29 11
f 52 9 29
f 54 45 37
f 54 22 21
f 54 37 22
f 54 21 55
f 56 54 55
f 56 45 54
f 47 37 44
f 47 44 39
f 47 39 60
f 47 34 37
f 47 60 34
f 57 10 34
f 57 34 60
f 57 38 10
f 57 26 38
f 57 40 26
f 57 60 40
f 58 48 46
f 58 49 48
f 58 46 45
f 58 45 56
f 58 50 49
f 58 56 50
f 59 51 50
f 59 50 56
f 59 56 55
f 59 55 21
f 59 28 51
f 59 21 13
f 59 13 41
f 59 41 28
f 36 6 5
f 36 5 10
