v -0.029012365 0.0075730196 0.0177183
v -0.024910719 0.010283725 -0.025690046
v -0.024874927 0.00057241032 -0.016293012
v -0.024560271 0.056000799 -0.015606483
v -0.028992845 0.048586769 0.017489163
v -0.024082064 0.056000665 0.016018154
v -0.024999701 0.044035731 0.029500127
v 0.0045573512 0.056000492 0.029500178
v -0.024993345 0.011954627 0.029500046
v -0.013031535 0.056000619 0.02542279
v 0.0047668896 0.056000642 -0.028995816
v 0.026915215 0.028752385 0.029499927
v 0.020743516 0.045737944 0.029499777
v 0.029496909 0.037775512 0.02506516
v 0.029500456 0.015264075 0.024571365
v 0.027308144 0.055637018 0.013514175
v 0.022923684 0.056000469 -0.017064376
v 0.029500223 0.055082804 0.003683548
v 0.021444811 0.0006458334 0.020080808
v 0.029478913 0.0059127153 0.016221294
v 0.029499884 0.00087617816 0.0014855657
v -0.0014220289 -0.0067831692 0.011502423
v 0.010780015 0.00063013205 0.026847768
v -0.0064811982 0.0010364504 0.029468359
v -0.024455115 0.00058319014 0.016166348
v -0.0096954835 -0.0074990523 0.0031243251
v 0.018788455 0.0084507156 0.02950002
v -0.028993567 0.0199962 0.025934087
v 0.021352021 0.05182625 0.024008912
v 0.02949994 0.050298268 0.0158187
v 0.0075151322 -0.0083834003 -0.0020392656
v 0.0086460905 -0.0074997412 0.0040685635
v 0.029467826 0.0013731495 -0.0099540637
v 0.00030539537 -0.007520434 -0.01009113
v 0.0062838503 -0.0074997143 -0.007389361
v -0.0082657011 0.053932676 -0.02950015
v -0.015820188 0.050286502 -0.029264335
v 0.027360028 0.031124879 -0.029499463
v -0.024944769 0.016988639 -0.029134029
v -0.024925276 0.04432557 -0.026753568
v 0.020709731 0.011003824 -0.029499529
v 0.020385696 0.053585423 -0.023329242
v 0.0040685058 -0.0074997335 0.00864612
v 0.026905523 0.00057653988 0.0095823421
v -0.014621701 0.00049672151 0.024604779
v -0.027971745 0.036380761 0.026775328
v -0.0077121671 -0.0075815041 -0.0059202249
v -0.015847187 0.00047067169 -0.023820199
v -0.024914458 0.052537356 -0.019276647
v -0.01801615 0.0078400814 -0.029499839
v 0.021744094 0.00095267629 -0.020447615
v 0.029499731 0.053441989 -0.0086665089
v 0.02950008 0.014190084 -0.02363353
v 0.029500146 0.031587271 -0.026622452
v 0.025026015 0.043120395 -0.026635362
v -0.005577598 -0.0074996827 0.0079360442
v -0.0064477369 0.0010407062 -0.029499816
v 0.0038427708 0.00078411714 -0.02930168
v 0.01416425 0.00059258056 -0.025163007
v 0.029500439 0.047848975 -0.018611976
f 3 1 2
f 6 4 5
f 7 6 5
f 9 8 7
f 10 7 8
f 10 6 7
f 10 4 6
f 10 11 4
f 10 8 11
f 13 8 12
f 14 12 15
f 14 13 12
f 17 8 16
f 17 11 8
f 17 16 18
f 20 15 19
f 21 15 20
f 22 23 24
f 25 9 1
f 25 1 3
f 25 3 26
f 47 3 48
f 47 26 3
f 27 9 24
f 27 24 23
f 27 12 8
f 27 8 9
f 27 15 12
f 27 19 15
f 27 23 19
f 28 1 9
f 28 9 7
f 28 5 1
f 29 16 8
f 29 8 13
f 30 18 16
f 30 15 18
f 30 14 15
f 30 16 29
f 30 13 14
f 30 29 13
f 31 21 32
f 31 33 21
f 31 26 47
f 36 4 11
f 36 37 4
f 36 11 38
f 39 40 37
f 39 2 1
f 39 1 5
f 39 5 40
f 41 36 38
f 42 11 17
f 43 32 19
f 43 19 23
f 43 23 22
f 43 31 32
f 44 19 32
f 44 32 21
f 44 20 19
f 44 21 20
f 45 24 9
f 45 9 25
f 34 47 48
f 34 35 31
f 34 31 47
f 46 7 5
f 46 5 28
f 46 28 7
f 49 5 4
f 49 40 5
f 49 4 37
f 49 37 40
f 50 2 39
f 50 37 36
f 50 39 37
f 50 3 2
f 50 48 3
f 51 33 31
f 51 31 35
f 52 17 18
f 53 41 38
f 53 38 54
f 53 33 51
f 53 51 41
f 53 21 33
f 53 15 21
f 55 38 11
f 55 11 42
f 55 54 38
f 56 26 31
f 56 31 43
f 56 43 22
f 56 25 26
f 56 45 25
f 56 22 24
f 56 24 45
f 57 36 41
f 57 50 36
f 57 41 58
f 57 48 50
f 57 58 34
f 57 34 48
f 59 51 35
f 59 34 58
f 59 35 34
f 59 58 41
f 59 41 51
f 60 54 55
f 60 52 18
f 60 17 52
f 60 18 15
f 60 42 17
f 60 55 42
f 60 15 53
f 60 53 54
