v -0.047510673 -0.027199317 -0.082379476
v 0.0091275611 -0.040387452 -0.027868279
v -0.00011830954 -0.02902423 -0.079952614
v -0.056912138 -0.040459084 -0.023398009
v -0.056884584 -0.04126906 -0.020717942
v -0.00011207889 -0.047146035 -0.002348039
v -0.056942678 -0.050249488 -0.020859567
v 0.0093338336 -0.049672604 -0.026093908
v 0.0091262269 -0.041459294 -0.025516207
v -0.047511597 -0.048594904 -0.0022937221
v -8.6892488e-05 -0.050329385 -0.0017944128
v -0.037001313 -0.045094857 -0.093825745
v -0.047511174 -0.038694403 -0.094387183
v -0.023371388 -0.043635816 -0.094486633
v -0.044021406 -0.042513335 -0.09383604
v 0.0091262605 -0.038436556 -0.040709972
v -0.056880424 -0.0385213 -0.041236726
v -0.056880152 -0.045601667 -0.04122712
v -0.047512008 -0.04769439 -0.0031474342
v -0.056871911 -0.047797681 -0.0349198
v -0.055969149 -0.049688618 -0.031147004
v -7.0133144e-05 -0.053010556 -0.0038363201
v -0.00048762482 -0.05522683 -0.0072159976
v -0.046911826 -0.055682831 -0.0071336755
v -0.033190615 -0.057501368 -0.0094944604
v -0.00011311877 -0.048588676 -0.001730643
v -0.047511597 -0.050888271 -0.0023572923
v -0.0088310322 -0.057189972 -0.0110995
v -0.013100446 -0.058942521 -0.025602706
v -0.00012718794 -0.038697468 -0.094411476
v -0.00010778218 -0.03580505 -0.094016651
v -0.032631732 -0.046267265 -0.092250207
v -0.026115691 -0.046769742 -0.093850005
v -0.0068954729 -0.05833706 -0.024849049
v -0.00028593742 -0.056853162 -0.023456309
v -0.010956319 -0.045060849 -0.093989792
v -0.015348344 -0.046279729 -0.092250207
v -0.050145455 -0.055803979 -0.020578566
v 0.0078633555 -0.051086633 -0.026091423
v -0.00012810653 -0.040280604 -0.09386261
v 0.0032951018 -0.053641246 -0.029257962
v -0.00011311877 -0.028985995 -0.085039156
v -0.00011311877 -0.029272666 -0.087309634
v -0.048183681 -0.042281583 -0.084279553
v -0.047522895 -0.052958854 -0.0038381508
v -0.00011312407 -0.030313078 -0.088887195
v -0.047511597 -0.027524597 -0.088154257
v -0.047511597 -0.036211972 -0.09404843
v 0.0091262052 -0.045704302 -0.040708726
v -0.021517214 -0.04705046 -0.092356043
v -0.024389008 -0.058726541 -0.02802282
v -0.041346539 -0.058316535 -0.024856377
v -0.044962704 -0.05722152 -0.025920354
v -0.0039455083 -0.042500205 -0.093844266
v -0.0042401332 -0.057483265 -0.026310876
v -0.049282659 -0.056087138 -0.024296791
v -0.047511597 -0.027250389 -0.087309634
v -0.047511597 -0.028549757 -0.089126018
v -0.034710479 -0.058892885 -0.025900288
v -0.052651388 -0.05246029 -0.030493104
f 3 1 2
f 4 5 6
f 4 6 2
f 4 2 1
f 4 7 5
f 9 8 2
f 9 2 6
f 10 5 7
f 11 8 9
f 12 13 14
f 12 15 13
f 16 3 2
f 16 2 8
f 17 4 1
f 17 13 18
f 17 18 7
f 17 7 4
f 19 6 5
f 19 10 6
f 19 5 10
f 20 7 18
f 20 21 7
f 22 23 8
f 22 8 11
f 22 24 25
f 22 25 23
f 26 9 6
f 26 11 9
f 26 6 10
f 27 10 7
f 27 26 10
f 27 11 26
f 28 25 29
f 28 23 25
f 30 14 13
f 30 31 16
f 33 32 12
f 33 12 14
f 34 28 29
f 34 35 23
f 34 23 28
f 36 34 37
f 36 14 30
f 36 33 14
f 38 24 7
f 39 40 8
f 39 41 40
f 39 35 41
f 39 8 23
f 39 23 35
f 42 16 43
f 42 3 16
f 42 1 3
f 44 18 13
f 44 20 18
f 44 13 15
f 44 21 20
f 45 7 24
f 45 27 7
f 45 24 22
f 45 22 11
f 45 11 27
f 46 47 43
f 46 43 16
f 46 16 31
f 48 31 30
f 48 30 13
f 48 13 17
f 49 40 30
f 49 30 16
f 49 8 40
f 49 16 8
f 50 34 29
f 50 37 34
f 50 36 37
f 50 33 36
f 51 50 29
f 51 33 50
f 52 32 33
f 52 12 32
f 52 53 12
f 52 25 24
f 52 24 38
f 54 35 36
f 54 40 41
f 54 41 35
f 54 30 40
f 54 36 30
f 55 35 34
f 55 36 35
f 55 34 36
f 56 15 12
f 56 12 53
f 56 44 15
f 56 53 52
f 56 52 38
f 56 7 21
f 56 38 7
f 57 43 47
f 57 42 43
f 57 1 42
f 57 17 1
f 57 47 17
f 58 31 48
f 58 46 31
f 58 47 46
f 58 17 47
f 58 48 17
f 59 33 51
f 59 52 33
f 59 51 29
f 59 29 25
f 59 25 52
f 60 21 44
f 60 56 21
f 60 44 56
