v 0.0072891288 -0.065615878 -0.01118798
v 0.0056940887 0.011544828 -0.011396736
v -0.013620912 -0.066213139 -0.013474994
v -0.01317731 0.0049618973 -0.016627961
v 0.00029375008 -0.063585826 -0.026325893
v 0.011170436 -0.061797234 -0.023050508
v 0.009951009 -0.068732171 -0.023128841
v 0.012176603 -0.018870982 -0.023050508
v 0.0075811561 -0.018853098 -0.011185016
v -0.012778848 -0.070555351 -0.01358904
v -0.013561447 -0.065909324 -0.019522059
v 0.013013761 -0.065623468 -0.011185008
v 0.00022048175 -0.078184541 -0.013478553
v -0.013260295 -0.0017541419 -0.019145981
v -0.011350834 0.0044276852 -0.022973439
v 0.012645173 -0.063903299 -0.019893688
v 0.012950475 -0.037229781 -0.019473149
v 0.011656263 -0.064650041 -0.022353932
v -0.012003063 -0.018659147 -0.024071236
v -0.0057220098 -0.063585826 -0.026180648
v -0.0072166584 -0.063585826 -0.026102101
v -0.005157203 -0.067663819 -0.025000918
v -0.010189529 -0.070456263 -0.021488865
v -0.012151965 -0.059948679 -0.024078723
v 0.0086459991 0.0098353241 -0.022554505
v 0.01153112 0.0057808772 -0.022545004
v -6.1566888e-05 0.012060946 -0.022970014
v -0.0049320433 0.011967725 -0.016434526
v 0.012717517 0.00086950197 -0.022548085
v 0.013353952 0.0018106478 -0.016813526
v 0.012173947 -0.065615878 -0.011185016
v 0.013065959 -0.028690364 -0.011185016
v 0.013079232 -0.018853098 -0.011185016
v 0.012794505 -0.00032773986 -0.011399917
v 0.0037283981 -0.077357098 -0.016582067
v -0.0019226599 -0.077791471 -0.016445496
v -0.0093316916 -0.075914358 -0.013922422
v -0.013568251 -0.033197619 -0.018401238
v 0.012732729 -0.06541971 -0.016464681
v -0.0085911079 -0.063946934 -0.025773872
v -0.013533738 -0.038632709 -0.019893318
v -0.0081922944 0.0098359452 -0.022973439
v 0.0028428252 0.013621661 -0.0201764
v 0.013239184 -0.0028675409 -0.01915191
v 0.010023376 0.0080674196 -0.011401793
v 0.010162278 -0.071569661 -0.018347512
v 0.0049572255 -0.076503946 -0.01343777
v 0.012678359 -0.017189706 -0.022548085
v 0.012165983 -0.064650041 -0.021389103
v -0.0073110693 -0.068730266 -0.024219588
v -0.013146803 -0.046683618 -0.021389843
v -0.0097359733 0.008813793 -0.022967476
v -0.0049930206 0.012109974 -0.01963414
v 0.011929706 -0.067505643 -0.020638432
v 0.010877081 -0.071189023 -0.014948977
v 0.0092918384 -0.073413592 -0.014261433
v 0.012816408 -0.0016647126 -0.022548085
f 1 2 3
f 4 3 2
f 7 5 6
f 8 6 5
f 9 2 1
f 10 1 3
f 10 3 11
f 13 12 1
f 14 4 15
f 17 12 16
f 18 7 6
f 19 14 15
f 19 20 21
f 22 21 20
f 22 5 7
f 22 20 5
f 23 11 24
f 23 10 11
f 25 26 5
f 25 5 27
f 28 4 2
f 29 5 26
f 29 8 5
f 29 26 30
f 31 1 12
f 31 12 9
f 31 9 1
f 32 12 30
f 33 2 9
f 33 30 34
f 33 32 30
f 33 9 12
f 33 12 32
f 35 13 36
f 35 22 7
f 37 1 10
f 37 13 1
f 37 36 13
f 37 23 36
f 37 10 23
f 38 11 3
f 38 3 4
f 38 4 14
f 54 7 18
f 54 12 55
f 48 6 8
f 48 18 6
f 48 17 16
f 40 24 19
f 40 19 21
f 40 23 24
f 40 21 22
f 41 14 19
f 41 11 38
f 41 38 14
f 42 27 5
f 42 5 20
f 42 20 19
f 43 2 25
f 43 25 27
f 43 28 2
f 45 2 33
f 45 33 34
f 45 34 30
f 45 30 26
f 45 25 2
f 45 26 25
f 46 35 7
f 46 7 54
f 46 54 55
f 47 13 35
f 47 12 13
f 49 16 54
f 49 54 18
f 49 48 16
f 49 18 48
f 39 16 12
f 39 12 54
f 39 54 16
f 57 8 29
f 57 48 8
f 57 29 30
f 57 17 48
f 50 40 22
f 50 23 40
f 50 36 23
f 50 35 36
f 50 22 35
f 51 19 24
f 51 41 19
f 51 24 11
f 51 11 41
f 52 19 15
f 52 42 19
f 52 15 4
f 52 4 28
f 53 28 43
f 53 52 28
f 53 42 52
f 53 27 42
f 53 43 27
f 56 47 35
f 56 46 55
f 56 35 46
f 56 55 12
f 56 12 47
f 44 57 30
f 44 17 57
f 44 30 12
f 44 12 17
