v 0.011547896 0.0087175657 -0.023468782
v 0.0075199638 0.008717609 0.022266357
v -0.0010494191 0.0087177634 -0.034787144
v -0.0010497248 0.018079361 0.0075746434
v 0.00020642688 0.021242268 0.0011208543
v -0.00070930756 0.020077706 0.00016603882
v 0.00047405604 0.021258712 -0.021794686
v -0.00096999892 0.018167165 -0.027999582
v 0.0074854317 0.023861415 -0.0026984041
v 0.0088786888 0.023292399 0.002545397
v 0.0088692082 0.023273898 -0.0046080316
v 0.0040666925 0.023392 -0.0017435904
v 0.0072412369 0.012303985 -0.034771226
v 0.0079839433 0.014144384 -0.034753175
v 0.0080490571 0.016258117 -0.034771226
v 0.0069094755 0.019439363 -0.034771226
v -0.0010483996 0.008718369 -0.017433503
v -0.0010460339 0.0087195046 0.018012005
v 0.0043217545 0.0087177679 0.022154909
v -4.2702534e-05 0.014640212 0.014773021
v -0.00010869215 0.019124467 -0.03476992
v -0.001047851 0.012441521 -0.034771226
v -0.00044599549 0.020076958 -0.02190636
v 0.0075072462 0.021431005 0.010259115
v 0.0064115256 0.023793393 0.0018362659
v 0.004411402 0.022169882 0.0082065784
v 0.0072322939 0.01266707 0.02031171
v 0.0043047208 0.016613915 0.016749653
v 0.0065308481 0.01771242 0.015959559
v 0.0091442364 0.016069988 0.016657172
v 0.010155127 0.019996276 0.0086993416
v 0.0023400552 0.02220408 0.0032677889
v 0.0055762649 0.023710424 -0.0036532178
v 0.00090170621 0.021207884 -0.024077026
v 0.0028726136 0.02000943 -0.034771052
v 0.00025699198 0.019530556 -0.034771226
v 0.0017719144 0.0089466458 -0.034771685
v 0.004051892 0.00949984 -0.034771226
v 0.0060584896 0.010957786 -0.034771226
v 0.007671487 0.01816391 -0.034770365
v 0.0023092223 0.018421304 0.012924813
v 0.0023597882 0.012750227 0.018514103
v 0.010382327 0.021449412 0.0010266281
v 0.0093448812 0.0087176361 0.021610019
v 0.010740582 0.008717683 0.01948097
v 0.011018831 0.015561285 0.012783126
v 0.0056972161 0.019875427 -0.034771113
v 6.3362259e-05 0.019583626 0.0076286636
v 0.010090803 0.021579378 -0.0051133573
v 0.011460704 0.016497682 0.0077996663
v 0.0066184146 0.019546998 -0.034771226
v 0.011241483 0.019122434 -0.003413118
v 0.011547827 0.0087176271 0.016795399
v 0.011537786 0.015663316 -0.0035331683
v 0.011366663 0.016261106 -0.010331334
f 3 1 2
f 6 4 5
f 7 6 5
f 8 4 6
f 26 24 25
f 30 31 24
f 10 24 31
f 10 25 24
f 10 9 25
f 12 7 5
f 14 1 13
f 15 3 16
f 15 13 3
f 15 14 13
f 15 1 14
f 17 4 3
f 17 18 4
f 17 3 18
f 19 3 2
f 19 18 3
f 20 4 18
f 22 21 3
f 22 8 21
f 22 3 4
f 22 4 8
f 23 6 7
f 23 8 6
f 23 7 21
f 23 21 8
f 27 19 2
f 27 28 19
f 29 30 24
f 29 24 26
f 29 26 28
f 29 28 27
f 29 27 30
f 44 27 2
f 44 30 27
f 43 10 31
f 11 49 16
f 11 9 10
f 11 43 49
f 11 10 43
f 36 21 7
f 36 7 34
f 36 34 35
f 36 3 21
f 36 35 3
f 32 12 5
f 32 26 25
f 32 25 12
f 33 34 7
f 33 7 12
f 33 9 35
f 33 35 34
f 33 25 9
f 33 12 25
f 37 1 3
f 37 38 1
f 37 3 38
f 39 3 13
f 39 38 3
f 39 13 1
f 39 1 38
f 40 16 49
f 40 15 16
f 40 1 15
f 41 28 26
f 41 20 28
f 42 18 19
f 42 20 18
f 42 19 28
f 42 28 20
f 53 1 54
f 53 2 1
f 53 44 2
f 47 3 35
f 47 35 9
f 47 9 11
f 48 4 20
f 48 20 41
f 48 41 26
f 48 26 32
f 48 5 4
f 48 32 5
f 55 54 1
f 55 1 40
f 46 31 30
f 45 30 44
f 45 44 53
f 45 46 30
f 45 53 46
f 51 16 3
f 51 3 47
f 51 11 16
f 51 47 11
f 50 43 31
f 50 31 46
f 50 53 54
f 50 46 53
f 52 54 55
f 52 50 54
f 52 43 50
f 52 49 43
f 52 40 49
f 52 55 40
