v -0.0012700427 -0.033241975 -0.1178689
v -0.001270041 -0.042665556 -0.11787052
v -0.001099956 -0.029303929 -0.13027001
v -0.045477625 -0.0068349074 -0.11788782
v -0.037640871 -0.0068348946 -0.11788786
v -0.0012700423 -0.039303667 -0.15806498
v -0.001270041 -0.038674241 -0.16165454
v -0.024105779 -0.027477901 -0.20639171
v -0.028458356 -0.0068348893 -0.20639169
v -0.0012700405 -0.031727754 -0.16291878
v -0.024819127 -0.03829896 -0.20639171
v -0.018743617 -0.040582218 -0.11787052
v -0.033442298 -0.033749757 -0.11787641
v -0.001270041 -0.029993651 -0.12738464
v -0.027646969 -0.0068344263 -0.1708228
v -0.001270041 -0.041855916 -0.12822379
v -0.0012682827 -0.02849281 -0.15804187
v -0.001270041 -0.028454381 -0.1446734
v -0.035741191 -0.036499713 -0.20639171
v -0.036052757 -0.038600585 -0.19165262
v -0.037844251 -0.038155159 -0.19289166
v -0.001270041 -0.028503045 -0.13692476
v -0.039705619 -0.0068348946 -0.19638474
v -0.039280908 -0.0068348946 -0.20036956
v -0.001270041 -0.029060708 -0.16109999
v -0.031435544 -0.039210858 -0.20639171
v -0.039371784 -0.019047342 -0.19614106
v -0.038507495 -0.032036956 -0.19711117
v -0.038009769 -0.0068348962 -0.20639167
v -0.024040212 -0.03172977 -0.20639171
v -0.024260904 -0.035517663 -0.20639171
v -0.024736906 -0.038123593 -0.20639171
v -0.044945327 -0.010584206 -0.11788786
v -0.044019288 -0.014814021 -0.11788786
v -0.041953009 -0.021195568 -0.11788786
v -0.043052139 -0.017972352 -0.11788786
v -0.035853701 -0.031145805 -0.11788786
v -0.037528361 -0.029260625 -0.11788786
v -0.02256461 -0.039473032 -0.11788352
v -0.025758148 -0.038376119 -0.11788786
v -0.02786986 -0.037373031 -0.11788786
v -0.029618085 -0.036320835 -0.11788786
v -0.034600953 -0.038639169 -0.2054949
v -0.027177496 -0.038863635 -0.20639171
v -0.00194077 -0.042662049 -0.11787052
v -0.0078147318 -0.042374148 -0.11787043
v -0.038181781 -0.035959585 -0.19614106
v -0.039293319 -0.01517245 -0.19955827
v -0.0012700388 -0.035962434 -0.16347444
v -0.040566117 -0.023950559 -0.11788786
v -0.038852511 -0.02714221 -0.11788786
v -0.038190438 -0.028208431 -0.11788786
v -0.031526417 -0.035121335 -0.11788786
v -0.037792184 -0.03809037 -0.19836899
v -0.035671879 -0.038742699 -0.196182
v -0.037268309 -0.02599033 -0.20638418
v -0.037839924 -0.038148141 -0.19614106
v -0.031435544 -0.039266976 -0.20459806
v -0.014507205 -0.041416957 -0.11787052
v -0.03784209 -0.034691694 -0.20079849
f 1 2 3
f 5 4 1
f 6 7 3
f 10 8 9
f 11 7 6
f 12 1 4
f 12 4 13
f 14 1 3
f 14 3 5
f 14 5 1
f 15 5 3
f 15 4 5
f 16 3 2
f 16 6 3
f 17 9 15
f 17 15 18
f 17 18 3
f 19 9 8
f 20 12 21
f 22 3 18
f 22 15 3
f 22 18 15
f 23 4 15
f 23 15 24
f 25 10 9
f 25 9 17
f 25 3 10
f 25 17 3
f 28 4 27
f 29 9 19
f 29 15 9
f 29 24 15
f 49 3 7
f 49 10 3
f 49 31 30
f 49 30 8
f 49 8 10
f 33 13 4
f 33 34 13
f 36 21 35
f 36 34 21
f 36 35 13
f 36 13 34
f 37 21 13
f 37 38 21
f 37 13 38
f 39 21 12
f 39 40 21
f 39 12 40
f 41 12 13
f 41 40 12
f 41 13 42
f 41 21 40
f 41 42 21
f 43 19 26
f 44 16 2
f 44 2 26
f 44 6 16
f 44 11 6
f 46 2 1
f 46 1 12
f 47 4 28
f 56 29 19
f 32 31 49
f 32 7 11
f 32 49 7
f 50 13 35
f 50 51 13
f 50 35 21
f 50 21 51
f 52 38 13
f 52 13 51
f 52 21 38
f 52 51 21
f 53 13 21
f 53 21 42
f 53 42 13
f 54 19 43
f 54 33 4
f 54 4 47
f 54 47 28
f 59 12 20
f 59 46 12
f 48 28 27
f 48 23 24
f 48 24 29
f 48 29 56
f 48 27 4
f 48 4 23
f 55 54 43
f 55 20 21
f 55 58 46
f 55 43 26
f 55 26 58
f 55 59 20
f 55 46 59
f 60 56 19
f 60 19 54
f 60 54 28
f 60 28 48
f 60 48 56
f 57 34 33
f 57 33 54
f 57 21 34
f 57 55 21
f 57 54 55
f 45 2 46
f 45 46 58
f 45 26 2
f 45 58 26
f 32 8 30
f 32 19 8
f 32 11 44
f 32 26 19
f 32 30 31
f 32 44 26
