v 0.0093783674 0.049062064 -0.054979838
v 0.0093783674 0.049062064 -0.046953224
v 0.026412212 0.050216626 -0.031218927
v 0.023577125 0.049062064 -0.026920361
v 0.028557625 0.049061343 -0.026919778
v 0.00088189798 -0.04002349 -0.09360182
v -0.00010745662 -0.051880476 -0.040714461
v -0.00010771724 -0.040149827 -0.094340788
v 0.0037309804 -0.037779382 -0.093924199
v -0.00010745662 -0.045042949 -0.040714461
v -0.00010745662 -0.029026127 -0.079890016
v 0.0019611986 -0.036219367 -0.094432165
v 0.018201869 -0.020474712 -0.09436797
v -0.00010745662 -0.031197438 -0.089511845
v -0.00010703797 -0.028957471 -0.086615427
v 0.03028432 0.014803688 -0.027699505
v 0.030448649 0.020605278 -0.027111115
v 0.030518049 0.0096758404 -0.018078125
v 0.030269141 0.028580342 -0.02692527
v 0.023024643 0.00077764196 -0.094022792
v 0.030000442 0.034206239 -0.026920361
v 0.022955463 0.0045028303 -0.093683328
v 0.0027257001 -0.050437878 -0.040714461
v 0.0091152205 -0.049739063 -0.025558702
v 0.012371192 -0.029482138 -0.094045946
v 0.023008572 -0.0032054834 -0.093737892
v 0.021540538 -0.030384493 -0.02852765
v 0.020544413 -0.015393137 -0.093644018
v -5.6463191e-05 -0.033672145 -0.066149053
v 0.019391345 -0.012518759 -0.09449288
v 0.0093783546 0.030476304 -0.094387279
v 0.029567974 0.039739506 -0.026920361
v 0.028062203 0.049062064 -0.028577298
v 0.01879755 -0.0230735 -0.018069223
v 0.025765941 0.0096727223 -0.018077395
v 0.0091355258 -0.041446328 -0.02551402
v 0.023854633 -0.022992335 -0.018054546
v 0.013962607 -0.044233868 -0.025557328
v 0.029618128 -0.00057147119 -0.01810991
v 0.0097201451 -0.032840126 -0.092247853
v 0.027468518 -0.0092469469 -0.036196525
v 0.029081804 0.0016651393 -0.034557032
v 0.024707803 -0.020672758 -0.034085013
v 0.021593414 -0.011659197 -0.092228298
v 0.0107125 0.03182002 -0.093594348
v 0.021674861 0.049062064 -0.041533581
v 0.017988762 0.049062064 -0.046526834
v 0.0093783674 0.03265989 -0.093826234
v 0.02902158 0.04529747 -0.026920361
v 0.010478652 -0.047196971 -0.030989772
v 0.015676741 -0.025413182 -0.093164145
v 0.013617233 0.049062064 -0.051107726
v -0.00010745662 -0.036189725 -0.094103016
v 0.0158082 0.024716957 -0.093910913
v 0.018328624 0.020038369 -0.093877982
v 0.020610746 0.014776161 -0.093774841
v 0.017399787 0.016307543 -0.094456449
v 0.0091355258 -0.048036841 -0.032972111
v 0.0068330258 -0.035545001 -0.092247853
f 1 2 3
f 5 35 18
f 6 7 8
f 6 8 9
f 23 7 6
f 10 8 7
f 10 11 8
f 12 13 8
f 14 8 11
f 15 11 2
f 15 2 1
f 15 14 11
f 24 7 23
f 24 23 6
f 16 17 18
f 19 17 20
f 19 21 18
f 19 18 17
f 22 19 20
f 22 21 19
f 25 9 8
f 25 8 13
f 26 20 17
f 26 17 16
f 28 27 13
f 28 13 26
f 29 2 11
f 29 10 2
f 29 11 10
f 31 12 8
f 36 10 7
f 36 7 24
f 36 2 10
f 58 6 9
f 58 24 6
f 32 21 22
f 32 18 21
f 33 3 5
f 37 18 35
f 37 39 18
f 38 27 37
f 38 37 24
f 42 41 26
f 42 26 16
f 42 39 41
f 42 16 18
f 42 18 39
f 43 27 28
f 43 28 41
f 43 37 27
f 43 41 39
f 43 39 37
f 44 26 41
f 44 41 28
f 44 28 26
f 46 3 45
f 46 47 3
f 48 46 45
f 48 47 46
f 48 15 1
f 48 14 15
f 30 13 12
f 30 20 26
f 30 26 13
f 4 2 36
f 4 35 5
f 4 3 2
f 4 5 3
f 40 9 25
f 49 22 5
f 49 32 22
f 49 5 18
f 49 18 32
f 34 36 24
f 34 24 37
f 34 37 35
f 34 35 4
f 34 4 36
f 51 13 27
f 51 27 38
f 51 25 13
f 51 38 25
f 50 25 38
f 50 40 25
f 50 58 40
f 50 24 58
f 50 38 24
f 52 48 1
f 52 47 48
f 52 1 3
f 52 3 47
f 53 31 8
f 53 48 31
f 53 8 14
f 53 14 48
f 59 58 9
f 59 9 40
f 59 40 58
f 54 48 45
f 54 31 48
f 54 45 3
f 54 3 33
f 54 33 55
f 56 22 20
f 56 5 22
f 56 33 5
f 56 55 33
f 57 20 30
f 57 56 20
f 57 55 56
f 57 31 54
f 57 54 55
f 57 12 31
f 57 30 12
