v -0.016482579 0.0080975168 -0.086015358
v -0.010790737 0.0080975161 -0.086015116
v -0.03635136 0.013763732 -0.086016056
v -0.036351351 0.019491273 -0.086016056
v -0.036351351 0.018650404 -0.09054488
v -0.019457661 0.017877169 -0.086015433
v -0.015812309 0.0080975161 -0.09054488
v -0.01481901 0.0080975161 -0.092026793
v -0.036351351 0.014874909 -0.091862488
v -0.013522966 0.0080975161 -0.092299772
v -0.036351351 0.014330748 -0.09054488
v -0.031443021 0.020350159 -0.086016056
v -0.028797765 0.020369379 -0.086016056
v -0.033644169 0.020251658 -0.086016056
v -0.034584925 0.020109911 -0.086016056
v -0.033974434 0.019233006 -0.091634257
v -0.026886226 0.020341751 -0.086016056
v -0.024979691 0.020196401 -0.086016056
v -0.02336339 0.019724313 -0.086016056
v -0.024091475 0.019098468 -0.09128072
v -0.026886226 0.016258738 -0.092546541
v -0.032615839 0.016258738 -0.092529287
v -0.036351351 0.017881614 -0.091971811
v -0.016713034 0.015950019 -0.086015415
v -0.026886226 0.018167506 -0.092268447
v -0.021274207 0.016360842 -0.092273561
v -0.015204319 0.0080975161 -0.091864407
v -0.035637058 0.019813452 -0.086016062
v -0.026886226 0.01962461 -0.09054488
v -0.025365002 0.019249824 -0.0916528
v -0.036351351 0.016258738 -0.092335576
v -0.032615839 0.018167506 -0.092255018
v -0.014173489 0.013698896 -0.086015415
v -0.015126757 0.014665894 -0.086015415
v -0.011356221 0.0080975161 -0.09054488
v -0.01186413 0.010443537 -0.086015415
v -0.013300286 0.012496456 -0.086015415
v -0.022611535 0.017874404 -0.091916349
v -0.021159115 0.018031766 -0.09054488
v -0.01575226 0.0080975161 -0.090734754
v -0.032615839 0.019598183 -0.09054488
v -0.029751033 0.018167506 -0.092282506
v -0.03457742 0.018304447 -0.092000576
v -0.016602946 0.015122365 -0.09054488
v -0.01243709 0.0098224962 -0.091638729
v -0.015326919 0.012531291 -0.092065144
v -0.019250078 0.014348767 -0.092297212
v -0.029034832 0.019328204 -0.091743579
v -0.015112995 0.013689286 -0.09054488
v -0.018233007 0.016356038 -0.09054488
v -0.012103697 0.0080975161 -0.091733987
v -0.013522966 0.0086212568 -0.092313202
v -0.012899963 0.01097929 -0.09054488
v -0.020025702 0.017305018 -0.09160229
v -0.01280989 0.0095546195 -0.091906919
v -0.014103433 0.011954697 -0.09177554
v -0.013853231 0.012255006 -0.09054488
v -0.018299312 0.015357807 -0.091996103
v -0.016871911 0.014757789 -0.091791523
f 6 3 2
f 4 3 6
f 4 5 3
f 1 2 3
f 7 2 1
f 7 1 3
f 23 3 5
f 29 41 13
f 29 18 30
f 16 43 23
f 16 23 5
f 16 14 41
f 17 13 6
f 17 6 18
f 17 29 13
f 17 18 29
f 12 6 13
f 12 14 6
f 12 13 41
f 12 41 14
f 15 4 6
f 15 6 14
f 15 14 16
f 11 3 9
f 31 9 3
f 31 3 23
f 35 51 45
f 35 36 2
f 35 45 36
f 39 6 54
f 38 30 54
f 38 25 30
f 32 43 16
f 32 22 31
f 32 23 43
f 32 31 23
f 28 5 4
f 28 4 15
f 28 16 5
f 28 15 16
f 27 9 8
f 27 11 9
f 37 33 2
f 37 2 36
f 19 18 6
f 19 6 39
f 20 54 30
f 20 39 54
f 20 19 39
f 20 30 18
f 20 18 19
f 24 6 2
f 50 54 6
f 50 44 54
f 50 6 24
f 50 24 44
f 59 54 44
f 52 21 47
f 26 25 38
f 26 21 25
f 26 47 21
f 26 38 54
f 48 32 16
f 48 29 30
f 48 30 25
f 48 41 29
f 48 16 41
f 40 11 27
f 40 7 3
f 40 3 11
f 34 44 24
f 34 2 33
f 34 24 2
f 49 33 57
f 49 34 33
f 49 44 34
f 49 59 44
f 53 33 37
f 53 57 33
f 53 37 36
f 53 36 45
f 53 45 57
f 56 57 45
f 56 49 57
f 56 59 49
f 46 52 47
f 46 47 26
f 46 59 56
f 10 52 51
f 10 8 9
f 10 9 31
f 10 31 22
f 10 22 21
f 10 21 52
f 42 48 25
f 42 32 48
f 42 25 21
f 42 21 22
f 42 22 32
f 55 56 45
f 55 45 51
f 55 51 52
f 55 52 46
f 55 46 56
f 58 59 46
f 58 46 26
f 58 54 59
f 58 26 54
f 10 35 2
f 10 2 7
f 10 7 40
f 10 51 35
f 10 27 8
f 10 40 27
