v -0.033190675 0.0060419523 0.015427555
v -0.029161852 0.0097947326 -0.0024989352
v -0.038406783 0.0031306061 -0.0050508356
v -0.029854594 -0.079923141 0.00066040377
v 0.017322864 -0.079885378 0.031614321
v -0.0033755309 -0.077649103 0.035896529
v -0.028382123 -0.075769991 0.022821301
v -0.013636324 -0.075902192 0.033513674
v 0.031638586 0.0097719719 0.011057961
v 0.033681055 0.0074384842 -0.0066674235
v 0.0073323779 0.0051367924 -0.11448216
v 0.02322651 0.0098290299 0.019946188
v 0.026569104 0.0051312188 0.024351011
v -0.012179399 0.0092947774 -0.042915191
v 0.021010753 0.00012524647 -0.11436088
v 0.040404953 -0.042233948 -0.11448095
v 0.042520061 -0.0076137954 -0.028184349
v 0.043497717 -0.04284816 -0.032953635
v 0.033418304 -0.011557838 -0.11448152
v -0.040332822 -0.028418716 -0.11471
v -0.0011408527 0.0057331446 0.036093628
v -0.038597781 -0.07420178 0.001388746
v -0.041367747 -0.059016589 -0.016840022
v -0.040080644 -0.068727214 -0.011731026
v -0.0025616158 0.0058650455 -0.11453631
v -0.013625602 0.0037152168 -0.11193495
v 0.027344338 -0.0046851515 -0.11448345
v 0.038034889 0.0027878444 -0.016734281
v 0.031456867 0.0055412956 0.017596022
v 0.041826073 -0.066196981 -0.020728944
v -0.041123152 -0.0080030872 -0.01583604
v -0.042171242 -0.035955175 -0.058007723
v 0.019175998 0.0055354431 0.031199659
v 0.0076682209 -0.075915764 0.035277657
v -0.01870166 0.0094811143 0.030751865
v -0.037232538 -0.076466199 -0.00040057515
v -0.019273377 -0.071185825 -0.11448189
v 0.0071006829 -0.075347182 -0.1144823
v 0.013357304 -0.073613222 -0.11448237
v -0.00087958376 -0.075921466 -0.1144824
v -0.0093135173 -0.074825581 -0.11448224
v -0.012206884 -0.079413582 -0.042762318
v 0.032248928 -0.075919674 0.016369988
v 0.034772249 -0.07853074 0.0096274891
v 0.035237004 0.0056060367 0.007373789
v -0.034273717 -0.057179467 -0.11448243
v -0.038190482 -0.0497698 -0.11447841
v -0.040384216 -0.040929479 -0.11448334
v -0.020638086 0.00019127176 -0.11448342
v -0.027000642 -0.0044204166 -0.11448356
v -0.037482447 -0.018713689 -0.11446689
v 0.028680819 -0.079856522 0.0072717628
v 0.036314886 -0.053876156 -0.11448038
v 0.029719998 -0.063486224 -0.11448105
v 0.021007818 -0.070224724 -0.11448179
v 0.034820138 -0.07683686 -0.00809047
v 0.038065682 -0.07254715 -0.017985032
v -0.028368412 -0.064651227 -0.11447929
v -0.032418086 -0.010201739 -0.11439257
v 0.030929068 -0.079276299 0.0016839713
f 3 1 2
f 6 4 5
f 7 4 6
f 7 6 8
f 9 10 11
f 9 12 13
f 9 2 12
f 9 14 2
f 15 11 10
f 16 17 18
f 16 19 17
f 20 19 16
f 21 8 6
f 22 7 1
f 22 1 3
f 22 23 24
f 25 9 11
f 25 14 9
f 25 26 2
f 25 2 14
f 27 11 15
f 27 25 11
f 27 19 20
f 27 20 25
f 28 17 19
f 28 19 27
f 28 10 9
f 28 15 10
f 28 27 15
f 29 9 13
f 30 16 18
f 30 18 17
f 31 20 32
f 31 32 23
f 31 23 22
f 31 22 3
f 33 5 13
f 33 13 12
f 33 12 21
f 34 6 5
f 34 21 6
f 34 5 33
f 34 33 21
f 35 8 21
f 35 1 7
f 35 7 8
f 35 2 1
f 35 12 2
f 35 21 12
f 38 20 39
f 38 40 20
f 41 37 20
f 41 20 40
f 41 4 37
f 41 42 4
f 41 40 42
f 43 29 13
f 43 44 29
f 43 13 5
f 43 5 44
f 45 9 29
f 45 28 9
f 45 17 28
f 45 30 17
f 45 29 44
f 45 44 30
f 46 47 20
f 46 24 47
f 48 32 20
f 48 20 47
f 48 23 32
f 48 24 23
f 48 47 24
f 49 25 20
f 49 20 50
f 49 26 25
f 49 2 26
f 49 3 2
f 49 50 3
f 51 50 20
f 51 31 3
f 51 20 31
f 52 40 38
f 52 42 40
f 52 44 5
f 52 5 4
f 52 4 42
f 53 16 30
f 53 20 16
f 53 54 20
f 55 39 20
f 55 20 54
f 55 56 39
f 55 54 56
f 57 56 54
f 57 30 44
f 57 44 56
f 57 53 30
f 57 54 53
f 58 20 37
f 58 46 20
f 59 3 50
f 59 51 3
f 59 50 51
f 60 44 52
f 60 52 38
f 60 38 39
f 60 39 56
f 60 56 44
f 36 46 58
f 36 22 24
f 36 24 46
f 36 58 37
f 36 37 4
f 36 4 7
f 36 7 22
