v 0.0053085356 -0.0022248582 0.032215394
v -0.0069757606 0.014226016 0.032215394
v 0.0051927473 0.013738745 0.032215394
v -0.0035251808 0.012443669 0.037287227
v -0.0069757606 0.013526676 0.036961073
v -0.0069757555 0.010893747 0.037337425
v 0.0095424179 0.0075547609 0.032215394
v -0.0069757606 0.0059893405 0.032215394
v 0.00087983196 0.013516558 0.036944213
v 0.0022191771 0.014114315 0.035933722
v 0.0045352576 0.013230427 0.036714888
v 0.0037522176 0.013931387 0.035933722
v 0.0022191771 0.011677147 0.037314553
v 0.0097736967 0.00016150195 0.032215394
v 0.0099008992 0.0017172127 0.032215394
v 0.0093722633 -0.00091017306 0.032215394
v 0.0076261183 0.0071014848 0.036713384
v 0.0092351503 0.0072520374 0.035392213
v 0.0050572841 0.013729031 0.034401967
v 0.0097664691 0.0062766848 0.032215394
v 0.007307183 -0.0020217553 0.032215597
v 0.0089881771 0.00028939111 0.034283136
v 0.0070594879 0.00062044544 0.035498513
v 0.0037538694 -0.00033062698 0.034818123
v -0.0069757606 0.014242204 0.032869711
v -0.0069757606 0.014030135 0.035933722
v -0.0062084146 0.014241395 0.034401967
v -0.0053329666 0.014247667 0.03221577
v 0.0025462697 0.01430453 0.032542553
v 0.0039277406 0.014223183 0.033308679
v 0.0022191771 0.0093791982 0.037334109
v -0.00045951333 0.0023663683 0.036735321
v 0.0076079452 0.0024667368 0.036707368
v 0.0089290165 0.0050272408 0.035942807
v 0.0037522176 0.012443669 0.037029762
v 0.004784707 0.01347811 0.035933722
v -0.0069757606 0.0093775787 0.037336615
v -0.0034884245 0.0023938887 0.036728427
v 0.00030618077 0.0004197079 0.035685406
v -0.0039080282 0.014068178 0.035933722
v 0.0022191771 0.014311815 0.034401967
v 0.0077386594 0.0043146457 0.03674936
v 0.0083480336 0.0017253057 0.035924692
v 0.0093037063 0.0026278109 0.035497257
v -0.0049110404 -0.0020624786 0.032215394
v -0.0057169496 -0.00068839178 0.032215394
v 0.00068944078 0.0093791982 0.037336615
v -0.0051784028 0.00016150195 0.034394444
v -0.0049372131 0.00065686746 0.03544436
v -0.0069757606 0.0070011167 0.036775056
v -0.00065114343 0.001599642 0.036460056
v -0.003906376 -0.00059126052 0.034438566
v 0.0095779352 0.0043146457 0.034402343
v -0.0059019714 0.00018578638 0.032215394
v -0.0069757606 0.006391621 0.035166589
v -0.0069757606 0.0078461524 0.037094443
v -0.0045110017 0.0028358315 0.036683299
v -0.0039344595 0.0011336173 0.036044779
v 0.0056685178 0.001678359 0.036365795
f 40 26 5
f 27 40 41
f 27 26 40
f 25 26 27
f 25 27 41
f 25 41 29
f 28 3 2
f 28 29 3
f 28 2 25
f 28 25 29
f 30 29 41
f 30 3 29
f 17 13 42
f 4 9 5
f 4 13 9
f 31 42 13
f 21 1 16
f 21 16 22
f 52 45 1
f 33 44 42
f 33 42 31
f 20 7 18
f 53 44 15
f 53 18 44
f 53 15 20
f 53 20 18
f 14 15 44
f 14 22 16
f 14 44 22
f 34 42 44
f 34 44 18
f 34 17 42
f 34 18 17
f 11 17 18
f 23 21 22
f 24 52 1
f 24 39 52
f 24 23 39
f 24 1 21
f 24 21 23
f 48 46 45
f 48 50 46
f 43 22 44
f 43 44 33
f 43 23 22
f 43 33 23
f 35 13 17
f 35 17 11
f 35 9 13
f 35 11 9
f 19 7 3
f 19 18 7
f 19 3 30
f 6 5 37
f 6 4 5
f 6 13 4
f 6 37 47
f 6 31 13
f 6 47 31
f 59 39 23
f 59 23 33
f 58 52 39
f 54 55 8
f 54 50 55
f 54 46 50
f 36 11 18
f 36 18 19
f 51 59 33
f 51 39 59
f 51 58 39
f 51 38 58
f 49 52 58
f 49 45 52
f 49 48 45
f 49 50 48
f 12 19 30
f 12 36 19
f 12 30 41
f 12 11 36
f 12 9 11
f 32 51 33
f 32 38 51
f 32 33 31
f 32 31 47
f 32 47 37
f 32 37 38
f 57 56 50
f 57 50 49
f 57 37 56
f 57 38 37
f 57 58 38
f 57 49 58
f 10 41 40
f 10 12 41
f 10 9 12
f 10 40 5
f 10 5 9
f 56 2 8
f 56 5 26
f 56 25 2
f 56 26 25
f 56 37 5
f 56 8 55
f 56 55 50
f 54 1 45
f 54 8 2
f 54 20 15
f 54 2 3
f 54 45 46
f 54 16 1
f 54 3 7
f 54 15 14
f 54 7 20
f 54 14 16
