v 0.0075297025 0.041413706 -0.018410035
v 0.032087712 0.026074219 -0.018463144
v 0.018208485 0.03811899 -0.020014595
v -0.028270749 0.025998389 -0.12150758
v 0.033356296 0.025999992 -0.023333185
v -0.033339307 0.026000197 -0.0233917
v -0.031877674 0.026001741 -0.018463825
v -0.031156685 0.028573891 -0.021422455
v -0.024914138 0.038306548 -0.1654365
v -0.032632033 0.025999992 -0.045104912
v -0.0047999721 0.028100721 -0.18628697
v 0.026238786 0.025999992 -0.12400665
v -0.02184518 0.025999992 -0.1258762
v -0.0044822473 0.03486952 -0.18874735
v -0.014544309 0.028201492 -0.18219175
v -0.016268057 0.034532556 -0.18289689
v -0.02302769 0.030710773 -0.17384437
v -0.025008799 0.031479736 -0.16552462
v -0.0075733749 0.041823026 -0.18548575
v -0.013923847 0.043506533 -0.078039431
v -0.0097046872 0.040954002 -0.019146245
v -0.0019951448 0.042296004 -0.022126016
v 0.0038776334 0.043503456 -0.073092384
v -0.022139339 0.035040924 -0.01838527
v -0.018792648 0.037871828 -0.020966572
v -0.017584406 0.043505289 -0.16569594
v -0.01708156 0.042526235 -0.080076788
v -0.018714069 0.041504124 -0.071677484
v -0.022489086 0.041453532 -0.16052229
v -0.015534346 0.041066611 -0.048212784
v -0.024556494 0.034503241 -0.023333185
v 0.031171917 0.028558112 -0.021401781
v 0.025030006 0.034003264 -0.020378826
v 0.028026713 0.03165116 -0.02155698
v 0.032631648 0.025999992 -0.045104912
v 0.010394984 0.028091665 -0.18538424
v 0.024880057 0.038312088 -0.16632532
v 0.028094463 0.025999992 -0.12182117
v 0.02837518 0.025999992 -0.11966062
v 0.021687554 0.028435948 -0.17311094
v -0.030040289 0.025999992 -0.093019336
v -0.021898527 0.028350242 -0.17138555
v 0.015347453 0.043505443 -0.11474784
v 0.014166029 0.043351893 -0.075912796
v 0.017953845 0.04342468 -0.16377496
v 0.013013295 0.039966972 -0.1843092
v 0.00126475 0.042258231 -0.021898032
v -0.022107858 0.04130626 -0.14493241
v -0.020052545 0.042676092 -0.17411779
v 0.018192179 0.042136075 -0.076649379
v 0.030105186 0.025999992 -0.091739621
v 0.024099128 0.039759081 -0.16322069
v 0.021501867 0.041632032 -0.1722792
v 0.0249176 0.031313591 -0.16574625
v 0.0081089772 0.043502204 -0.17992077
v 0.022944236 0.033462383 -0.17426277
v -0.028029675 0.031646379 -0.02153645
v 0.017087702 0.042604474 -0.084251433
v 0.021625876 0.041087508 -0.12426139
v 0.022518197 0.041424304 -0.1602097
f 3 1 2
f 7 6 5
f 7 5 2
f 8 6 7
f 33 3 2
f 4 5 6
f 15 14 11
f 15 11 13
f 15 13 4
f 16 14 15
f 16 15 17
f 22 20 21
f 22 21 1
f 24 21 25
f 24 1 21
f 24 2 1
f 24 7 2
f 27 28 20
f 30 25 21
f 30 28 25
f 30 21 20
f 30 20 28
f 31 25 28
f 31 24 25
f 32 2 5
f 32 33 2
f 50 3 33
f 50 1 3
f 50 44 1
f 29 28 27
f 29 9 6
f 29 6 8
f 43 44 45
f 43 45 55
f 35 5 4
f 12 13 11
f 12 4 13
f 12 38 4
f 10 6 9
f 10 4 6
f 18 9 17
f 18 4 9
f 42 17 15
f 42 15 4
f 42 18 17
f 42 4 18
f 47 1 44
f 47 22 1
f 57 31 28
f 57 29 8
f 57 24 31
f 57 8 7
f 57 7 24
f 58 45 44
f 58 50 45
f 58 44 50
f 60 45 50
f 49 9 29
f 49 29 27
f 49 17 9
f 49 16 17
f 23 43 20
f 23 44 43
f 23 20 22
f 23 47 44
f 23 22 47
f 36 12 11
f 36 38 12
f 36 11 14
f 36 14 46
f 41 9 4
f 41 10 9
f 41 4 10
f 48 28 29
f 48 57 28
f 48 29 57
f 34 50 33
f 34 33 32
f 34 32 60
f 51 35 4
f 53 45 60
f 53 55 45
f 53 46 55
f 19 49 55
f 19 46 14
f 19 55 46
f 19 14 16
f 19 16 49
f 26 55 49
f 26 20 43
f 26 43 55
f 26 27 20
f 26 49 27
f 59 60 50
f 59 50 34
f 59 34 60
f 39 4 38
f 39 51 4
f 56 36 46
f 56 46 53
f 40 38 36
f 40 36 56
f 54 39 38
f 54 38 40
f 54 40 56
f 37 56 53
f 37 54 56
f 37 5 35
f 37 35 51
f 37 51 39
f 37 39 54
f 52 53 60
f 52 37 53
f 52 5 37
f 52 32 5
f 52 60 32
