v 0.0050010248 -0.05020958 -0.0016042747
v 0.0050010248 -0.049334157 -0.00040811925
v 0.012405401 -0.065619353 -0.013434852
v -0.0055967638 -0.049900941 -0.00041714672
v -0.0066688376 -0.05208108 -0.0024453446
v -0.0066690338 -0.052081751 0.0009520498
v -0.012720209 -0.069654114 -0.013781001
v -0.0036222809 -0.071738826 -0.013780986
v 0.001130661 -0.077787145 -0.013766057
v 0.012173588 -0.065619278 -0.01118405
v 0.0089844164 -0.065619278 -0.013434928
v -0.0055967638 -0.051183206 0.00062253082
v -0.0055967638 -0.050201164 -0.0009858845
v -0.012410946 -0.068826357 -0.0090392459
v -0.012700481 -0.068826357 -0.011182545
v -0.0066688376 -0.052689946 0.0010212492
v 0.0050010248 -0.052448645 0.00087379739
v 0.0077672403 -0.066468288 0.0015722072
v -0.0099047294 -0.068826357 0.0008482209
v -0.0087220064 -0.068826357 0.0014816556
v 0.01133651 -0.066720561 -0.0056652226
v 0.010515687 -0.066461029 -0.0022839768
v 0.0096996447 -0.072924295 -0.013434928
v 0.0055130104 -0.076374611 -0.013434928
v -0.00025914228 -0.073663632 0.0015896108
v 0.002977671 -0.074268998 0.00067349885
v 0.0063023891 -0.072561637 0.00074703597
v 0.0050010248 -0.050664126 0.00063682423
v 0.0091811266 -0.066461029 0.00097310258
v 0.0098597789 -0.066461029 0.00017340801
v 0.0026261272 -0.075813176 -0.0030586568
v -0.0016173684 -0.075765562 -0.0011250603
v 0.00029333796 -0.076909209 -0.0063434292
v -0.0074029049 -0.070726579 0.0015599581
v -0.0053305904 -0.072917979 0.001327811
v -0.0085840008 -0.071198346 0.00059826845
v -0.0035162413 -0.077558146 -0.013780986
v -0.0089199461 -0.074834021 -0.013780986
v 0.01210902 -0.068431863 -0.013431746
v 0.0095997523 -0.068584884 -0.00089937044
v 0.0040150124 -0.076705521 -0.010000683
v 0.0072850398 -0.074653045 -0.009316573
v 0.0083512538 -0.06915745 0.00099454244
v 0.0050010248 -0.049703127 1.8433975e-05
v -0.0010817932 -0.074575887 0.0010756027
v -0.0057273926 -0.074273027 -0.00039927974
v -0.0046573938 -0.07578845 -0.004111499
v -0.010531745 -0.068826357 -0.0003825413
v -0.011353976 -0.06908808 -0.0032252396
v -0.0051127486 -0.076774613 -0.010787165
v -0.0017976738 -0.077348367 -0.0091110197
v 0.0067653506 -0.073149202 -0.0016314044
v 0.0090742427 -0.07159126 -0.0049488548
v 0.010364023 -0.071210075 -0.010522956
v 0.0052077248 -0.075215972 -0.0049585877
v 0.0066361823 -0.069544658 0.0015561339
v -0.0095582185 -0.071677671 -0.0028326848
v -0.0074878767 -0.075039201 -0.007847792
v -0.012093596 -0.070702592 -0.012535649
v -0.010201332 -0.073223559 -0.010831927
f 8 7 3
f 8 3 9
f 1 2 3
f 10 3 2
f 11 1 3
f 11 5 1
f 11 3 7
f 11 7 5
f 13 2 1
f 13 1 5
f 37 8 9
f 37 7 8
f 37 38 7
f 4 5 6
f 4 13 5
f 4 6 12
f 4 2 13
f 15 5 7
f 15 6 5
f 21 10 2
f 21 2 22
f 26 27 25
f 26 32 31
f 33 31 32
f 41 33 9
f 41 31 33
f 28 6 17
f 28 12 6
f 28 17 18
f 16 17 6
f 16 18 17
f 16 6 19
f 16 19 20
f 56 25 27
f 56 18 25
f 39 3 10
f 39 10 21
f 39 9 3
f 39 23 9
f 53 27 52
f 45 26 25
f 45 32 26
f 45 25 35
f 50 47 58
f 50 58 38
f 50 38 37
f 51 32 47
f 51 33 32
f 51 50 37
f 51 47 50
f 51 37 9
f 51 9 33
f 42 53 52
f 42 23 53
f 55 31 41
f 55 52 27
f 55 42 52
f 55 27 26
f 55 26 31
f 44 12 28
f 44 2 4
f 44 4 12
f 44 28 30
f 44 22 2
f 44 30 22
f 34 18 16
f 34 16 20
f 34 25 18
f 34 35 25
f 34 36 35
f 34 20 19
f 34 19 36
f 43 18 56
f 43 56 27
f 46 35 36
f 46 58 47
f 46 47 32
f 46 57 58
f 46 36 57
f 46 32 45
f 46 45 35
f 59 7 38
f 54 23 39
f 54 53 23
f 54 39 21
f 24 23 42
f 24 9 23
f 24 41 9
f 24 55 41
f 24 42 55
f 29 43 30
f 29 18 43
f 29 30 28
f 29 28 18
f 40 27 53
f 40 43 27
f 40 30 43
f 40 22 30
f 40 21 22
f 40 54 21
f 40 53 54
f 60 59 38
f 60 38 58
f 60 58 57
f 60 57 49
f 60 49 59
f 48 19 6
f 48 6 49
f 48 36 19
f 48 57 36
f 48 49 57
f 14 6 15
f 14 49 6
f 14 59 49
f 14 15 7
f 14 7 59
