v -0.054784404 -0.017674756 -0.045035761
v -0.0027411125 -0.010501999 -0.044051786
v -0.059239308 0.0015776484 -0.044992689
v -0.017902103 -0.028561099 -0.045452002
v -0.029752065 -0.027660593 -0.044961498
v -0.029065178 -0.031289953 -0.04646033
v -0.056709786 -0.015534696 -0.04865874
v -0.044392832 -0.026428254 -0.045041504
v -0.0027472307 -0.016429109 -0.044249909
v -0.022611484 -0.02865639 -0.084172444
v -0.028527609 -0.029484424 -0.084522426
v -0.048325239 -0.024022381 -0.064094769
v -0.051881152 -0.019120038 -0.084694675
v -0.0027452935 0.015494681 -0.044086214
v -7.6702832e-06 0.0024561111 -0.058157575
v -0.0027773532 0.018659308 -0.045814365
v -0.052894144 0.019546514 -0.045020098
v -0.011223835 0.023051594 -0.084205481
v -0.012912458 0.026710232 -0.045303405
v -0.048220877 0.024927057 -0.050146617
v -0.038985648 0.029778118 -0.047586714
v -0.043454307 0.025891491 -0.084780269
v -0.053001895 0.020592695 -0.049592394
v -0.056699394 0.015445114 -0.049343945
v -0.058907232 0.0030366038 -0.084070952
v -0.0027495143 -0.01864907 -0.045840054
v -0.01278475 -0.026024169 -0.053045074
v -0.058893497 -0.002802527 -0.084616384
v -0.057759557 -0.008902643 -0.082555856
v -0.049674712 0.0067674513 -0.086011798
v -0.05283888 0.018311841 -0.084638076
v -0.018712208 -0.027400757 -0.084180949
v -0.011939569 -0.010778375 -0.086011268
v -0.030927119 -0.021466037 -0.08599576
v -0.042925857 -0.014815506 -0.086012688
v -2.3905161e-05 -0.0035439721 -0.05753003
v 0.00018340046 -0.0014898673 -0.083942155
v -0.00067227643 0.0062756392 -0.084690303
v -0.0052880868 0.01803539 -0.076861123
v -0.0024469714 0.011431002 -0.084706691
v -0.035155056 0.029998156 -0.045050009
v -0.02291458 0.030212362 -0.050621638
v -0.039293422 0.027758319 -0.082896022
v -0.027672327 0.0295994 -0.084449178
v -0.022092878 0.028505838 -0.084218578
v -0.016991779 0.024008334 -0.084980133
v -0.057061433 0.010416245 -0.084213756
v -0.010987224 -0.02289492 -0.083806875
v -0.055570239 -0.013474787 -0.084804652
v -0.043765691 -0.025730117 -0.084653434
v -0.038263322 -0.028683066 -0.073335785
v -0.034434147 -0.030882894 -0.048118445
v -0.0027469573 0.018129996 -0.052391335
v -0.034124163 0.030841931 -0.050036735
v -0.015185027 0.025811748 -0.08406798
v -0.011376238 0.012084835 -0.086013669
v -0.015666413 -0.025908056 -0.084745902
v -0.0030940853 -0.01341448 -0.084663729
v -0.033314148 0.02149856 -0.08601659
v -0.0079727862 -0.020072 -0.082896022
f 1 2 3
f 4 5 6
f 7 1 3
f 8 6 5
f 8 2 1
f 9 5 4
f 9 2 8
f 9 8 5
f 10 4 6
f 10 6 11
f 12 8 1
f 12 7 13
f 12 1 7
f 14 15 16
f 14 3 2
f 14 17 3
f 19 16 18
f 19 14 16
f 20 21 22
f 20 23 17
f 20 17 21
f 24 25 3
f 24 3 17
f 24 17 23
f 26 4 27
f 26 9 4
f 28 3 25
f 28 7 3
f 28 29 7
f 31 22 30
f 31 24 23
f 31 23 20
f 31 20 22
f 32 27 4
f 32 4 10
f 35 33 34
f 36 14 2
f 36 15 14
f 36 2 9
f 36 9 26
f 36 37 15
f 36 26 37
f 38 15 37
f 38 16 15
f 39 40 18
f 41 17 14
f 41 14 19
f 41 21 17
f 41 19 42
f 43 22 21
f 43 44 22
f 45 42 19
f 45 44 42
f 46 18 40
f 46 44 45
f 47 30 28
f 47 31 30
f 47 28 25
f 47 25 24
f 47 24 31
f 48 26 27
f 49 28 30
f 49 30 35
f 49 35 13
f 49 29 28
f 49 13 7
f 49 7 29
f 50 8 12
f 50 51 8
f 50 12 13
f 50 11 51
f 50 34 11
f 50 13 35
f 50 35 34
f 52 6 8
f 52 8 51
f 52 11 6
f 52 51 11
f 53 18 16
f 53 39 18
f 53 40 39
f 53 16 38
f 53 38 40
f 54 43 21
f 54 44 43
f 54 21 41
f 54 42 44
f 54 41 42
f 55 19 18
f 55 45 19
f 55 18 46
f 55 46 45
f 56 46 40
f 56 38 33
f 56 40 38
f 57 27 32
f 57 48 27
f 57 34 33
f 57 11 34
f 57 10 11
f 57 32 10
f 58 37 26
f 58 48 57
f 58 57 33
f 58 38 37
f 58 33 38
f 59 46 56
f 59 22 44
f 59 44 46
f 59 30 22
f 59 35 30
f 59 33 35
f 59 56 33
f 60 26 48
f 60 58 26
f 60 48 58
