v -0.045555614 0.0017018333 0.05376712
v -0.047518602 -0.056640071 -0.020603097
v -0.047519019 -0.039812709 -0.094445625
v -0.047511773 -0.054442638 -0.0057721047
v -0.068847457 0.015724124 0.039340146
v -0.075734257 0.027615306 0.024626426
v -0.065662247 -0.015879905 0.038742437
v -0.079529844 0.021619427 -0.004714783
v -0.076250046 -0.0079784662 -0.023000368
v -0.077094577 0.0028926502 0.0087530292
v -0.049690182 0.058366227 -0.051589097
v -0.046098968 0.04438406 0.052029836
v -0.045588808 0.039974496 0.053357075
v -0.073734329 0.057187913 0.031794162
v -0.06538667 0.058148475 0.044478043
v -0.077797778 0.058376572 -0.010896345
v -0.079215764 0.049686847 -0.013273496
v -0.078239023 0.014311691 -0.028274473
v -0.077800792 0.057152833 -0.018238244
v -0.076844973 -0.00041196315 -0.036425785
v -0.06382145 0.058207864 -0.042541013
v -0.070755757 -0.005354113 -0.09274872
v -0.048835429 -0.040001857 -0.093556933
v -0.066182949 -0.020384219 -0.094477129
v -0.053612083 -0.036142703 -0.094161757
v -0.059039814 -0.031092854 -0.093873621
v -0.046135909 -0.005517149 0.052445587
v -0.05119918 -0.0077082445 0.055108061
v -0.056229703 -0.017809745 0.042530398
v -0.060119916 -0.0099712708 0.048562017
v -0.074373426 -0.013690692 -0.037898835
v -0.057182715 -0.049864323 -0.025531098
v -0.063597065 -0.02539083 -0.09349005
v -0.065975514 -0.037761697 -0.026619456
v -0.056076008 0.056711272 0.044524064
v -0.054881278 0.058365425 0.013390702
v -0.047518614 -0.027992101 -0.08875097
v -0.049685853 0.052998487 -0.056606048
v -0.045560729 0.037748651 0.053535695
v -0.079381248 0.036349952 0.0025030215
v -0.060833716 0.029967434 -0.077423827
v -0.073313594 0.058000567 -0.030307002
v -0.065101369 0.024045531 -0.077207594
v -0.048368686 -0.0081166376 0.053126075
v -0.069610728 -0.030577538 -0.026982634
v -0.068501364 -0.01536971 -0.093713764
v -0.059155556 -0.045152043 -0.0048234676
v -0.059652987 0.055633607 0.049913743
v -0.05097983 0.052299467 0.052953183
v -0.047448921 0.047688896 0.051872535
v -0.050413861 0.057341134 -0.000841071
v -0.047518618 -0.036192354 -0.09403481
v -0.049550488 0.045609283 0.055679264
v -0.05456326 0.058081846 -0.049601101
v -0.069814437 -0.0050286495 -0.094035329
v -0.056012694 -0.041488666 0.011208291
v -0.051363588 -0.053115319 -0.0040945591
v -0.069947489 -0.019789406 0.022200098
v -0.049692596 0.058353195 -0.040659214
v -0.066901573 -0.0048950589 -0.093995797
f 3 1 2
f 4 2 1
f 5 6 7
f 10 8 9
f 10 7 6
f 13 11 12
f 14 5 15
f 14 6 5
f 14 15 16
f 17 18 8
f 17 16 19
f 17 14 16
f 20 9 8
f 20 8 18
f 21 16 11
f 22 20 18
f 22 17 19
f 22 18 17
f 23 3 2
f 25 24 3
f 25 26 24
f 25 3 23
f 27 4 1
f 27 1 28
f 29 4 28
f 30 5 7
f 30 7 29
f 30 29 28
f 30 15 5
f 31 9 20
f 31 20 22
f 32 26 25
f 32 23 2
f 32 25 23
f 33 24 26
f 33 34 24
f 33 26 32
f 33 32 34
f 58 10 9
f 58 7 10
f 36 15 35
f 36 11 16
f 36 16 15
f 37 11 13
f 37 38 11
f 39 1 3
f 40 6 14
f 40 8 10
f 40 10 6
f 40 17 8
f 40 14 17
f 41 11 38
f 42 22 19
f 42 43 22
f 42 19 16
f 42 16 21
f 42 41 43
f 42 21 41
f 44 28 4
f 44 4 27
f 44 27 28
f 45 9 31
f 45 58 9
f 45 34 58
f 45 24 34
f 46 31 22
f 46 24 45
f 46 45 31
f 57 2 4
f 57 32 2
f 48 35 15
f 48 49 35
f 48 15 30
f 48 30 28
f 51 49 50
f 51 36 35
f 51 35 49
f 52 38 37
f 52 41 38
f 52 39 3
f 52 37 13
f 52 13 39
f 53 39 13
f 53 50 49
f 53 13 12
f 53 12 50
f 53 48 28
f 53 49 48
f 53 28 1
f 53 1 39
f 54 21 11
f 54 11 41
f 54 41 21
f 55 22 43
f 55 43 41
f 55 24 46
f 55 46 22
f 47 34 32
f 47 32 57
f 47 58 34
f 56 7 58
f 56 29 7
f 56 58 47
f 56 47 57
f 56 4 29
f 56 57 4
f 59 11 36
f 59 36 51
f 59 51 50
f 59 12 11
f 59 50 12
f 60 41 52
f 60 55 41
f 60 52 3
f 60 3 24
f 60 24 55
