v 0.013184644 -0.018840555 -0.029476736
v 0.030761904 -0.017508777 -0.023783579
v 0.013184644 -0.018840555 -0.024823969
v 0.028668881 -0.017524304 -0.019903427
v 0.01318465 0.012211596 -0.027405542
v 0.026040499 0.012098326 -0.019903429
v 0.029439911 0.01187851 -0.026445423
v 0.029721305 0.011649588 -0.019903442
v 0.031607927 -0.015666807 -0.019903562
v 0.024993989 0.0087520382 -0.030957708
v 0.025157252 -0.014934758 -0.030840255
v 0.022747608 -0.013721471 -0.031068098
v 0.013184644 -0.016715709 -0.030745671
v 0.022229018 -0.016808424 -0.030067213
v 0.032236884 0.010781889 -0.026886811
v 0.032531705 0.010269487 -0.023262325
v 0.033737071 0.0087520382 -0.025888521
v 0.032642172 -0.0159415 -0.024294018
v 0.031515085 0.0095898932 -0.019903427
v 0.013184644 0.0087495543 -0.031068098
v 0.013184644 0.0098874177 -0.030734196
v 0.013184738 0.011349746 -0.029952167
v 0.013184647 0.011933497 -0.028883928
v 0.024993989 0.011493212 -0.029371265
v 0.022747608 0.012035062 -0.019903427
v 0.013184837 -0.014824172 -0.031061398
v 0.031006805 -0.017478709 -0.026656879
v 0.032868394 -0.015128534 -0.026583103
v 0.03183411 -0.0080099981 -0.028382127
v 0.032963966 -0.0071672036 -0.027300089
v 0.029504986 0.007627109 -0.029648264
v 0.029077312 -0.013721471 -0.029778395
v 0.02424201 -0.017526585 -0.019903427
v 0.021979031 -0.017481748 -0.019903427
v 0.019814134 -0.01372603 -0.019903427
v 0.013184644 -0.001738437 -0.022765911
v 0.013184644 -0.01411057 -0.022837502
v 0.013184644 -0.015920792 -0.023003086
v 0.032746167 0.0087520382 -0.027740556
v 0.033517763 -0.013721471 -0.02439334
v 0.032934288 0.0080011991 -0.022324352
v 0.013184644 0.012053299 -0.025889615
v 0.021220192 0.0095191989 -0.03106797
v 0.029352452 0.010343013 -0.029161143
v 0.020131021 0.0093516468 -0.019903427
v 0.013184644 0.0098330813 -0.023664743
v 0.013184644 0.0027434228 -0.022973917
v 0.021078668 0.011088153 -0.019903427
v 0.027992853 -0.017469588 -0.02813785
v 0.02724037 -0.0030470853 -0.030523664
v 0.029586722 -0.015516684 -0.029098365
v 0.013184644 -0.018664244 -0.024622865
v 0.019939632 0.0027565322 -0.019903427
v 0.020435837 -0.015833397 -0.019903427
v 0.033549956 -0.012222831 -0.025888521
v 0.033700854 0.0072503597 -0.02439334
v 0.033018793 -0.012222832 -0.022893789
v 0.027052753 0.0094572805 -0.030371195
v 0.013184644 0.011448374 -0.024667675
v 0.026117683 -0.01428346 -0.030679958
f 41 19 9
f 41 17 16
f 41 16 19
f 56 17 41
f 56 40 17
f 57 41 9
f 57 9 40
f 57 56 41
f 57 40 56
f 55 17 40
f 6 7 5
f 23 22 21
f 24 22 23
f 24 5 7
f 24 23 5
f 4 9 19
f 27 49 51
f 27 1 49
f 14 49 1
f 26 20 12
f 52 34 38
f 52 3 34
f 8 7 6
f 8 19 16
f 8 6 19
f 25 19 6
f 25 6 5
f 43 22 24
f 43 21 22
f 43 20 21
f 43 10 12
f 43 12 20
f 44 24 7
f 50 31 32
f 11 51 49
f 11 49 14
f 11 26 12
f 11 12 10
f 29 32 31
f 33 34 3
f 33 3 4
f 28 27 51
f 28 55 40
f 28 51 32
f 28 32 29
f 13 20 26
f 13 26 11
f 13 14 1
f 13 11 14
f 47 45 46
f 47 36 45
f 54 38 34
f 54 35 38
f 37 38 35
f 37 35 36
f 53 45 36
f 53 36 35
f 42 25 5
f 42 59 25
f 42 5 23
f 42 23 21
f 48 59 46
f 48 25 59
f 48 46 45
f 58 24 44
f 58 10 43
f 58 43 24
f 58 44 31
f 58 50 10
f 58 31 50
f 15 44 7
f 15 16 17
f 15 8 16
f 15 7 8
f 60 32 51
f 60 51 11
f 60 50 32
f 60 10 50
f 60 11 10
f 30 17 55
f 30 55 28
f 30 28 29
f 18 40 9
f 18 28 40
f 18 27 28
f 39 31 44
f 39 44 15
f 39 15 17
f 39 29 31
f 39 17 30
f 39 30 29
f 2 18 9
f 2 27 18
f 2 9 4
f 2 4 3
f 2 3 1
f 2 1 27
f 42 47 46
f 42 46 59
f 42 1 3
f 42 21 20
f 42 52 38
f 42 3 52
f 42 38 37
f 42 13 1
f 42 20 13
f 42 36 47
f 42 37 36
f 48 4 19
f 48 34 33
f 48 19 25
f 48 54 34
f 48 45 53
f 48 33 4
f 48 35 54
f 48 53 35
