v -0.00028660593 0.021473227 0.070706282
v 0.018934222 0.010335479 0.070706282
v -0.00028661515 0.024658914 0.076866154
v 0.018934194 0.024490302 0.070706282
v 0.018934222 0.014859621 0.076896022
v 0.018934234 0.017161555 0.077636685
v 0.015816671 0.016006302 0.076534076
v 0.018934222 0.015188687 0.077054242
v 0.017148732 0.017150965 0.077509227
v -0.00028660593 0.026175024 0.077569659
v 0.017148732 0.015628786 0.076805709
v 0.018934222 0.024459041 0.073527829
v 0.018934222 0.023780721 0.075255385
v 0.018934222 0.020758569 0.077346244
v 0.018934158 0.019013323 0.077642686
v 0.018934222 0.021772516 0.076860035
v 0.01460502 0.027166257 0.074586499
v 0.015476129 0.025344287 0.076291312
v 0.016796903 0.025636005 0.074938258
v 0.017524553 0.025518912 0.073076588
v 0.01537806 0.026848045 0.072399724
v 0.008234923 0.028739413 0.076051425
v 0.01215444 0.02751753 0.075779627
v 0.010930562 0.028920599 0.074505692
v 0.0036775956 0.030697148 0.074448648
v 0.0063191433 0.030305499 0.073527829
v -0.00028660593 0.030943443 0.070706282
v -0.00028660593 0.030861176 0.074071083
v 0.018039831 0.02357228 0.076196408
v 0.01628609 0.023529382 0.077053223
v 0.0022218285 0.030192447 0.075459105
v 0.0018055591 0.029299126 0.076640352
v 0.0054169905 0.029064946 0.076409806
v -0.00028660593 0.029630716 0.076306931
v 0.013988847 0.02696337 0.075298339
v 0.007222236 0.026175024 0.077593428
v 0.009927752 0.026175024 0.077359826
v 0.0063191433 0.027979836 0.077031155
v 0.012703822 0.026108404 0.076799597
v 0.011733938 0.024370213 0.077610403
v 0.0045148383 0.026175024 0.077642322
v 0.0076347429 0.029441956 0.07520751
v 0.0018055591 0.030791023 0.074633356
v 0.00090246617 0.030956565 0.072625341
v -0.00028660593 0.02821099 0.077251856
v 0.017148732 0.018955777 0.077642997
v 0.0093082866 0.027739095 0.076640352
v 0.013538242 0.024370213 0.077412114
v 0.0081253294 0.029860354 0.072625341
v 0.013129029 0.028010119 0.072625341
v 0.011609829 0.028696981 0.070706309
v 0.014683102 0.027231366 0.070706282
v 0.0027086522 0.026175024 0.077634172
v 0.0022571057 0.027979836 0.077312969
v 0.01624658 0.021661986 0.077596821
v 0.0091972815 0.029526241 0.070706282
v 0.0175944 0.025455069 0.070706282
v 0.0027967084 0.030797916 0.070706296
v 0.0063191433 0.030307517 0.070706282
v 0.0063191433 0.030307517 0.071722859
f 5 2 6
f 1 2 3
f 7 3 2
f 7 2 5
f 8 5 6
f 8 6 9
f 8 3 5
f 11 5 3
f 11 3 7
f 11 7 5
f 27 44 58
f 27 1 3
f 10 9 6
f 10 3 8
f 10 8 9
f 28 44 27
f 28 3 34
f 28 27 3
f 56 24 51
f 45 34 3
f 45 3 10
f 22 33 47
f 25 58 44
f 25 24 26
f 50 51 24
f 59 27 58
f 59 58 25
f 52 56 51
f 52 51 50
f 49 26 24
f 49 24 56
f 49 56 59
f 15 46 6
f 23 22 47
f 23 24 22
f 12 2 4
f 12 6 2
f 43 28 34
f 43 44 28
f 43 25 44
f 42 22 24
f 42 24 25
f 42 33 22
f 42 25 33
f 60 26 49
f 60 49 59
f 60 25 26
f 60 59 25
f 32 34 45
f 32 45 54
f 38 47 33
f 38 33 32
f 38 32 54
f 41 15 40
f 41 46 15
f 55 48 40
f 55 40 15
f 39 23 47
f 39 18 23
f 35 23 18
f 13 6 12
f 17 50 24
f 17 24 23
f 17 23 35
f 17 35 18
f 31 32 33
f 31 33 25
f 31 25 43
f 31 43 34
f 31 34 32
f 36 38 54
f 36 54 41
f 36 41 40
f 53 54 45
f 53 41 54
f 53 45 10
f 53 10 6
f 53 6 46
f 53 46 41
f 14 55 15
f 14 48 55
f 14 15 6
f 21 52 50
f 21 50 17
f 21 57 52
f 19 13 12
f 19 17 18
f 19 18 29
f 19 29 13
f 37 38 36
f 37 48 39
f 37 40 48
f 37 36 40
f 37 47 38
f 37 39 47
f 16 6 13
f 16 14 6
f 16 13 29
f 20 57 21
f 20 4 57
f 20 12 4
f 20 21 17
f 20 19 12
f 20 17 19
f 30 48 14
f 30 14 16
f 30 39 48
f 30 18 39
f 30 29 18
f 30 16 29
f 57 2 1
f 57 4 2
f 57 1 27
f 57 27 59
f 57 59 56
f 57 56 52
