v 0.014836989 0.0063171231 0.028316419
v 0.013746256 0.0063168453 0.019595603
v 5.6315431e-05 0.0063168355 0.020557898
v 5.6315431e-05 0.0063168355 0.028321733
v -0.00071847044 0.0051190842 0.028322969
v -0.00071847044 -4.1215e-06 0.028322969
v 0.0098768806 0.0051190842 0.032215389
v 0.00020425704 0.0063133878 0.019595603
v -0.00071847044 0.0051190842 0.032215389
v 0.0034864208 -0.0035203643 0.019595603
v 0.0008821946 0.00086200632 0.019595603
v 0.0040171799 -0.0040186608 0.019595603
v 0.011411201 -0.0034663385 0.019595603
v 0.0052891717 -0.0042376371 0.019595603
v 0.00044218323 0.0018172203 0.019595603
v 5.6315431e-05 -0.0053606739 0.02642926
v 5.6315431e-05 -0.0053802144 0.025905496
v 0.0037548512 -0.0054250425 0.026738085
v -0.00071847044 0.0005878561 0.032215389
v 0.0043603427 -0.0022030673 0.032215389
v 0.0026796067 -0.005271012 0.027674439
v 5.6315431e-05 -0.0052215849 0.024370022
v 0.013493057 -0.0038152034 0.027494396
v 0.01224318 -0.0042445323 0.025163699
v 0.013737084 -0.0036709458 0.025064875
v 0.009439658 -0.0048572741 0.02694716
v 0.0074827461 -0.0048895306 0.024659236
v 0.012950858 -0.0020323698 0.030553296
v 0.0093720491 -0.00091220654 0.032215389
v 0.007956692 -0.0018251761 0.032215389
v 0.013817917 -0.00033459675 0.030636062
v 0.013825543 0.0051190842 0.030641619
v 0.013793516 0.00018439144 0.019595603
v 0.013758436 -0.00091335759 0.019595603
v 0.0037548512 -0.0052997501 0.027759675
v 0.0052877893 -0.0050962931 0.028015345
v 5.6315431e-05 -0.0048847885 0.02415014
v 0.002972058 -0.0051915555 0.024425843
v 0.01221344 -0.0036617496 0.021296605
v 0.014596516 -0.0013478568 0.025972201
v 0.011212023 -0.0041804496 0.028301508
v 0.0082487891 -0.0039315003 0.019595633
v 0.0098329371 0.0015602402 0.032215389
v 0.014133627 -0.0020395536 0.029385325
v 0.014441331 0.0049495361 0.029718239
v 0.0052891717 -0.0038439412 0.030068444
v 0.0059312677 -0.0021680082 0.032215389
v 5.6315431e-05 -0.0044123563 0.023867256
v 5.6315431e-05 -0.0054043535 0.025206319
v 0.012854011 -0.0027375716 0.019595603
v 0.014350202 -0.0028801081 0.026738085
v 0.012610747 -0.0032697775 0.029443383
v 0.011107311 -0.0037228151 0.020687528
v 0.014450862 0.00018439144 0.029802855
v 0.00016307738 0.0024816158 0.020624605
v 0.013642524 -0.0016858016 0.019595603
v 0.0081519139 -0.0033603003 0.030319209
v 0.014772674 -0.0013478568 0.028269852
v 0.01390981 -0.0025358394 0.022810152
v 0.014125239 -0.0013550414 0.022507815
f 3 1 2
f 3 4 1
f 5 3 6
f 7 1 4
f 8 3 2
f 9 7 4
f 33 2 1
f 16 17 18
f 16 19 6
f 16 6 17
f 16 20 19
f 16 21 20
f 25 23 24
f 28 29 30
f 28 31 29
f 32 1 7
f 32 7 31
f 10 12 22
f 49 17 6
f 49 6 22
f 49 18 17
f 35 16 18
f 35 21 16
f 26 18 27
f 26 27 24
f 26 41 36
f 26 24 23
f 26 23 41
f 26 35 18
f 26 36 35
f 14 22 12
f 14 49 22
f 39 25 24
f 39 53 13
f 39 24 27
f 39 27 53
f 43 31 7
f 43 29 31
f 45 1 32
f 37 11 10
f 37 10 22
f 37 15 11
f 37 22 6
f 46 35 36
f 46 47 20
f 46 20 21
f 46 21 35
f 52 41 23
f 52 28 30
f 42 14 13
f 42 13 53
f 42 53 27
f 42 27 14
f 38 14 27
f 38 49 14
f 38 27 18
f 38 18 49
f 44 31 28
f 44 52 23
f 44 28 52
f 54 31 44
f 54 44 58
f 54 32 31
f 54 45 32
f 54 58 1
f 54 1 45
f 55 8 15
f 55 3 8
f 55 6 3
f 57 30 47
f 57 52 30
f 57 47 46
f 57 41 52
f 57 36 41
f 57 46 36
f 50 39 13
f 50 25 39
f 50 56 25
f 40 33 1
f 40 1 58
f 48 37 6
f 48 6 55
f 48 15 37
f 48 55 15
f 34 33 40
f 51 40 58
f 51 23 25
f 51 44 23
f 51 58 44
f 60 56 34
f 60 34 40
f 59 56 60
f 59 25 56
f 59 51 25
f 59 40 51
f 59 60 40
f 9 3 5
f 9 4 3
f 9 5 6
f 9 6 19
f 43 7 9
f 43 47 30
f 43 19 20
f 43 9 19
f 43 20 47
f 43 30 29
f 34 8 2
f 34 2 33
f 34 11 15
f 34 10 11
f 34 13 14
f 34 12 10
f 34 15 8
f 34 14 12
f 34 50 13
f 34 56 50
