v -0.023718836 -0.014194233 -0.12476345
v -0.023718836 0.025999991 -0.12520002
v -0.023718734 -0.0062916577 -0.030073564
v -0.037072523 -0.014194234 -0.12474238
v -0.023718836 0.025999991 -0.028592135
v -0.032768074 0.026000195 -0.042741352
v -0.027339876 0.025999991 -0.018542318
v -0.025699 0.025999991 -0.020153499
v -0.042315606 -0.0010390252 -0.02332176
v -0.039713527 -0.00272609 -0.11981033
v -0.042169853 -0.0032652708 -0.023116538
v -0.041319309 0.0076782303 -0.018802776
v -0.040140963 0.0014412256 -0.10674225
v -0.03811405 -0.0006936011 -0.12457211
v -0.037517229 0.0065758523 -0.12448408
v -0.027878049 0.025528204 -0.1244148
v -0.039693052 0.0038202466 -0.11935602
v -0.037900796 -0.014194234 -0.018479572
v -0.039869049 -0.014194215 -0.021462405
v -0.023718836 -0.014194234 -0.047729655
v -0.023718836 -0.013112262 -0.035766094
v -0.039227951 -0.006852281 -0.11947778
v -0.041002986 -0.010369959 -0.02332147
v -0.041641995 -0.0072617524 -0.02332147
v -0.024370586 0.025999991 -0.02332147
v -0.034720779 0.019091993 -0.12129416
v -0.037207893 0.01408138 -0.12133067
v -0.038920295 0.0082792792 -0.11968883
v -0.042302846 0.0020707354 -0.02332147
v -0.035244635 -0.014194234 -0.018552771
v -0.035847234 -0.014194234 -0.018490025
v -0.040443173 -0.010806682 -0.019752793
v -0.027159645 -0.014194234 -0.035766094
v -0.023718836 -0.012573245 -0.033251019
v -0.023718836 -0.010621763 -0.031567334
v -0.038422357 -0.010699757 -0.11755423
v -0.03968492 0.014495692 -0.02332147
v -0.037305482 0.016045862 -0.090114563
v -0.035008092 0.023790833 -0.020770228
v -0.031823229 0.025999924 -0.018443963
v -0.040656969 -0.0028323124 -0.018503101
v -0.028508729 0.02599496 -0.1187337
v -0.038578832 0.01139142 -0.10355854
v -0.040336672 0.012677981 -0.02332147
v -0.041504298 0.0079642073 -0.023852204
v -0.027769524 0.025999991 -0.018479572
v -0.038862039 0.00050876342 -0.018380222
v -0.033500564 -0.014194234 -0.020288752
v -0.035267848 0.018873739 -0.11036059
v -0.037325505 0.019191445 -0.03664976
v -0.036752762 0.020933544 -0.020539791
v -0.034333004 0.020944236 -0.10258532
v -0.030117131 0.025998911 -0.091992249
v -0.040382669 0.0098282799 -0.052573021
v -0.041971868 0.0052106183 -0.023343829
v -0.033868311 -0.014194234 -0.019682207
v -0.038415919 0.017608044 -0.023321704
v -0.034185087 0.02225047 -0.083568065
f 1 2 3
f 1 4 2
f 36 4 19
f 8 6 7
f 20 1 3
f 20 4 1
f 5 2 6
f 5 3 2
f 18 19 4
f 18 32 19
f 23 36 19
f 23 19 32
f 23 32 24
f 11 24 32
f 46 7 6
f 46 6 40
f 39 40 6
f 39 51 40
f 41 32 18
f 41 11 32
f 25 6 8
f 25 5 6
f 25 8 3
f 25 3 5
f 10 11 9
f 14 4 10
f 14 10 17
f 14 2 4
f 49 27 38
f 49 38 50
f 53 6 2
f 58 50 51
f 58 51 39
f 58 49 50
f 58 52 49
f 58 39 6
f 58 6 53
f 58 53 52
f 47 41 18
f 47 46 40
f 35 34 3
f 30 7 46
f 28 17 45
f 22 4 36
f 22 10 4
f 22 36 23
f 22 23 24
f 22 24 11
f 22 11 10
f 26 49 52
f 26 27 49
f 21 33 20
f 21 20 3
f 21 3 34
f 21 48 33
f 21 34 48
f 56 48 34
f 56 34 35
f 56 35 3
f 56 3 8
f 56 8 7
f 56 7 30
f 31 30 46
f 31 47 18
f 31 46 47
f 57 50 38
f 57 51 50
f 12 44 45
f 12 29 9
f 12 40 51
f 12 9 11
f 12 11 41
f 12 47 40
f 12 41 47
f 55 45 17
f 55 17 29
f 55 12 45
f 55 29 12
f 13 17 10
f 13 29 17
f 13 10 9
f 13 9 29
f 15 14 17
f 15 17 28
f 15 28 27
f 15 27 26
f 15 26 16
f 15 16 2
f 15 2 14
f 54 45 44
f 54 28 45
f 42 52 53
f 42 26 52
f 42 16 26
f 42 2 16
f 42 53 2
f 37 57 38
f 37 38 27
f 37 27 44
f 37 51 57
f 37 12 51
f 37 44 12
f 43 27 28
f 43 28 54
f 43 44 27
f 43 54 44
f 31 18 4
f 31 4 20
f 31 20 33
f 31 33 48
f 31 48 56
f 31 56 30
