v -0.00028660779 0.024656089 0.076866049
v -0.021298738 0.011691516 0.07661384
v -0.00028660691 0.021872449 0.070754322
v -0.018685397 0.011691516 0.070754999
v -0.0002866761 0.031018821 0.071989791
v -0.00028660691 0.030943319 0.070754322
v -0.004692107 0.030596538 0.071799749
v -0.018821336 0.011691516 0.070754322
v -0.0063205895 0.030289342 0.070754322
v -0.028572808 0.011832864 0.070754322
v -0.028638714 0.011691516 0.070754322
v -0.019456638 0.024011538 0.070754322
v -0.0098650334 0.029265262 0.070754322
v -0.011317637 0.028776546 0.070754362
v -0.024208224 0.019230155 0.070754322
v -0.00028660691 0.027978746 0.077371826
v -0.0037960262 0.030717157 0.074492977
v -0.0012376522 0.030509253 0.075052526
v -0.021938547 0.021781278 0.070754322
v -0.022554776 0.019163014 0.076222457
v -0.020058649 0.021851718 0.076375118
v -0.021550326 0.021661012 0.07503082
v -0.02260818 0.011691516 0.077331358
v -0.024392018 0.011702352 0.077609365
v -0.026821911 0.011691516 0.076608446
v -0.02458691 0.015240567 0.076792714
v -0.027046971 0.012558459 0.076204503
v -0.00028661769 0.026174113 0.077569764
v -0.0045145558 0.026173242 0.077642915
v -0.0031614177 0.02922168 0.07656765
v -0.010906415 0.028928616 0.074520628
v -0.020030906 0.02361576 0.070754322
v -0.020036456 0.023611988 0.073528644
v -0.027255372 0.014699894 0.070754368
v -0.027296655 0.01406336 0.074772502
v -0.028290527 0.011691516 0.074471567
v -0.024564021 0.018364155 0.074713495
v -0.010438956 0.027823261 0.076021076
v -0.0099298815 0.027520774 0.076575402
v -0.020760533 0.018954995 0.077325288
v -0.00028660691 0.02940779 0.076422491
v -0.0057948697 0.029808751 0.075278437
v -0.0090268649 0.029557148 0.073528644
v -0.020485882 0.02320396 0.071722709
v -0.019975421 0.023562989 0.074590087
v -0.027804341 0.013540367 0.072625676
v -0.025224292 0.017981568 0.072625676
v -0.02580411 0.015230907 0.075856031
v -0.0047410035 0.027978746 0.077139759
v -0.0189545 0.020762383 0.07709399
v -0.0081238483 0.026173242 0.077416327
v -0.0099298815 0.029102006 0.074810605
v -0.0063205895 0.030281798 0.073528644
v -0.022463745 0.021199743 0.072851417
v -0.0077975278 0.028448496 0.076443145
v -0.0189545 0.017151376 0.077641568
v -0.020760533 0.017151376 0.077613918
v -0.023466809 0.014444062 0.07749118
v -0.0189545 0.018954995 0.077555246
v -0.0063205895 0.026173242 0.077612571
f 4 3 2
f 1 2 3
f 7 5 6
f 8 3 4
f 33 14 12
f 9 7 6
f 48 35 27
f 48 37 35
f 31 33 45
f 31 14 33
f 13 12 14
f 13 14 31
f 23 24 25
f 23 2 1
f 36 27 35
f 36 25 27
f 53 7 9
f 28 23 1
f 28 24 23
f 10 11 34
f 10 34 15
f 46 34 11
f 46 11 36
f 46 36 35
f 47 35 37
f 47 15 34
f 47 46 35
f 47 34 46
f 32 33 12
f 43 9 13
f 43 53 9
f 43 13 31
f 43 31 53
f 17 5 7
f 17 7 53
f 17 18 5
f 17 31 52
f 17 53 31
f 29 24 28
f 39 55 52
f 54 19 15
f 54 15 47
f 54 33 19
f 54 45 33
f 54 37 45
f 54 47 37
f 44 32 19
f 44 19 33
f 44 33 32
f 42 52 55
f 42 17 52
f 16 29 28
f 16 60 29
f 16 28 1
f 16 1 3
f 38 52 31
f 38 39 52
f 38 31 45
f 22 45 37
f 49 60 16
f 49 51 60
f 49 55 39
f 49 39 51
f 41 6 5
f 41 5 18
f 57 29 60
f 21 38 45
f 21 39 38
f 21 45 22
f 26 27 25
f 26 48 27
f 50 51 39
f 50 40 51
f 50 39 21
f 50 21 40
f 30 16 41
f 30 49 16
f 30 55 49
f 30 42 55
f 30 41 18
f 30 18 17
f 30 17 42
f 58 24 57
f 58 57 40
f 58 40 26
f 58 25 24
f 58 26 25
f 59 57 60
f 59 40 57
f 59 60 51
f 59 51 40
f 56 24 29
f 56 57 24
f 56 29 57
f 20 22 37
f 20 21 22
f 20 37 48
f 20 48 26
f 20 40 21
f 20 26 40
f 36 11 8
f 36 8 4
f 36 4 2
f 36 2 23
f 36 23 25
f 32 11 10
f 32 6 3
f 32 8 11
f 32 3 8
f 32 9 6
f 32 12 13
f 32 13 9
f 32 15 19
f 32 10 15
f 41 3 6
f 41 16 3
