v -0.012923685 0.0024620798 -0.016431346
v 0.0056614722 0.0074518824 -0.016521731
v -0.009131871 0.0024620798 -0.016431346
v 0.012764902 0.0012555832 -0.011385049
v -0.012750531 0.00069134791 -0.011396389
v 0.00010800792 0.011335896 -0.016521731
v -0.0099588233 0.0006895948 0.0015868108
v -0.006895727 0.00068718635 -0.011304883
v 0.0016579999 0.012844489 -0.016498692
v -0.0075107125 0.010413244 -0.016430902
v 0.0056607702 0.01188041 -0.01652189
v 0.012114582 0.0038939322 -0.011396389
v -0.0026913086 0.00069134791 -0.00023122422
v -0.01248641 0.0039539227 -0.016431346
v -0.012386315 0.002504059 -0.011033701
v -0.011237556 0.0041629384 -0.0063897873
v -0.011829555 0.00097710739 -0.0055780974
v -0.0089973602 0.0088596448 -0.010509586
v -0.0060076562 0.011456353 -0.014123269
v 0.0042574218 0.011346351 -0.0072372543
v 0.00095985643 0.012762422 -0.012320851
v 0.0018869108 0.010984915 -0.0025680724
v 0.010768563 0.0068408287 -0.011396389
v 0.0090530247 0.0090116544 -0.011396389
v -0.0034761471 0.00069134791 0.00065268415
v 0.0092550367 0.0012469904 0.001376205
v 0.010439508 0.0012469904 0.0001551253
v 0.007754372 0.002004743 0.0014781086
v 0.0040196493 0.0091681198 0.00085826477
v 0.0047630807 0.0072528297 0.0015605185
v 0.0073930077 0.0065164481 0.00097656225
v 0.0069105617 0.0083399976 -0.00087499395
v 0.0086038285 0.0059223366 0.00041032904
v -0.011156291 0.0064601203 -0.013026234
v -0.01074562 0.0021487677 -0.0014572882
v -0.0059844435 0.0083362194 0.00043746655
v -0.0021343628 0.010734112 -0.0016246549
v -0.0069958105 0.0089981553 -0.003524602
v -0.0080480935 0.0070209533 -0.00030277949
v -0.0056595652 0.010731861 -0.0074037417
v 0.0041532 0.012120264 -0.012570779
v 0.0094220348 0.007096144 -0.0058989158
v 0.011217131 0.0038803845 -0.0060269471
v 0.011729265 0.0012509811 -0.0052210318
v 0.010084418 0.0026583876 0.00045862243
v 0.0071659008 0.0099919689 -0.0081070955
v -0.0097824529 0.0067668699 -0.0058261015
v -0.0097037184 0.0050834518 -0.0014977178
v -0.0023064188 0.0093097781 0.001142489
v -0.0025572093 0.011995797 -0.0081327935
v 0.0091941823 0.0031651835 0.0010501111
v 0.0051634983 0.009877101 -0.0024144685
v -0.0091663772 0.0041836603 0.00080598368
v 0.0017667698 0.0093441249 0.0012282213
v -0.0020132024 0.012805069 -0.013977585
v 0.007754372 0.00425968 0.0015552008
v -0.0064743398 0.0065054583 0.0014275993
v -0.0057252626 0.005756255 0.0015560878
v -0.00052124229 0.0087515392 0.0015755816
f 3 1 2
f 3 2 4
f 3 5 1
f 6 2 1
f 8 7 5
f 8 3 4
f 8 5 3
f 10 9 6
f 11 6 9
f 11 2 6
f 11 4 2
f 11 12 4
f 13 8 4
f 13 7 8
f 14 6 1
f 14 10 6
f 15 1 5
f 15 14 1
f 15 16 14
f 17 5 7
f 17 15 5
f 17 16 15
f 19 10 18
f 22 20 21
f 23 11 24
f 23 12 11
f 25 26 7
f 25 7 13
f 25 27 26
f 25 13 27
f 28 7 26
f 31 29 30
f 31 32 29
f 31 33 32
f 34 14 16
f 34 10 14
f 34 18 10
f 35 17 7
f 35 16 17
f 36 37 38
f 36 38 39
f 40 38 37
f 40 18 38
f 40 19 18
f 41 21 20
f 41 11 9
f 41 9 21
f 42 23 24
f 42 24 32
f 42 32 33
f 43 12 23
f 43 42 33
f 43 23 42
f 43 4 12
f 44 13 4
f 44 27 13
f 44 4 43
f 45 26 27
f 45 43 33
f 45 27 44
f 45 44 43
f 46 32 24
f 46 24 11
f 46 41 20
f 46 11 41
f 47 18 34
f 47 38 18
f 47 39 38
f 47 34 16
f 48 16 35
f 48 47 16
f 48 39 47
f 49 37 36
f 50 40 37
f 50 37 22
f 50 22 21
f 50 19 40
f 51 33 31
f 51 45 33
f 51 26 45
f 52 46 20
f 52 32 46
f 52 29 32
f 52 22 29
f 52 20 22
f 53 35 7
f 53 48 35
f 53 39 48
f 54 37 49
f 54 29 22
f 54 22 37
f 54 30 29
f 55 19 50
f 55 50 21
f 55 21 9
f 55 9 10
f 55 10 19
f 56 26 51
f 56 51 31
f 56 31 30
f 56 28 26
f 56 7 28
f 57 53 7
f 57 7 58
f 57 36 39
f 57 39 53
f 57 49 36
f 59 54 49
f 59 49 57
f 59 57 58
f 59 30 54
f 59 58 7
f 59 7 56
f 59 56 30
