v -0.020614582 0.0013205483 4.3908303e-05
v -0.025012199 -0.033868151 0.013379954
v -0.025016574 -0.050888313 0.037003484
v -0.025139874 -0.081056531 -0.047878353
v -0.025001444 -0.085354135 0.050389382
v -0.02501094 -0.11354447 0.038581541
v -0.025013245 -0.13113229 0.0065098999
v 3.9794613e-08 3.0643808e-08 -0.020700001
v -0.0058790796 5.5958258e-08 -0.01984758
v -0.024992905 -0.032884242 -0.017054887
v -0.025012255 -0.051304369 -0.040528376
v 0.021252857 -0.12897693 -0.017098026
v 0.023987455 -0.11469263 -0.034909572
v 0.023757956 -0.1319134 -0.0003417122
v 0.021074184 -0.13044372 0.011320179
v 0.023989277 -0.056839907 -0.043751608
v 0.0058791564 2.664679e-09 -0.019847557
v -0.025012281 -0.059196876 -0.045312048
v -0.0066655835 -0.071512007 -0.049692247
v 0.021501181 -0.066158345 -0.048261814
v 0.0239778 -0.079602873 -0.050361641
v 0.021179993 -0.1037082 -0.045304785
v 0.021383408 -0.087127036 -0.050129013
v -0.0044172089 -0.08940627 -0.050184817
v -0.019154567 -9.1931422e-08 -0.0079363677
v -0.015740378 9.1931422e-08 -0.013443604
v -0.011273994 7.7275691e-08 -0.017360502
v 0.023896579 -0.10196231 0.046011045
v -0.023941538 -0.066393104 0.048359636
v 0.019721459 -5.0109288e-06 -0.0067147158
v 0.015740431 -5.0628899e-08 -0.013443545
v -0.025012545 -0.12854141 -0.017632677
v -0.022986445 -0.11967582 -0.032995411
v 0.021058235 -0.11980175 -0.032645069
v 0.011274062 -2.531445e-08 -0.017360459
v -0.022092089 -0.10631814 -0.044179054
v 0.021454414 -0.089239724 0.050043352
v 0.02261129 -0.064799479 0.047706489
v -3.9794613e-08 -3.0643808e-08 0.020700001
v 0.023987821 -0.061028428 0.04403379
v 0.023987667 -0.033066939 0.013772995
v 0.023610402 -0.02736651 -0.0054619113
v -0.025011977 -0.095468722 -0.045951089
v -0.024196321 -0.13146577 -0.0041370062
v 0.021050788 -0.11237186 -0.039759431
v 0.021054986 -0.074879144 0.050076828
v 0.021080812 -0.1230307 0.028338762
v 0.021091129 -0.1172816 0.035369506
v 0.021077054 -0.12753181 0.020162473
v 0.015740378 -9.0599089e-08 0.013443604
v 0.021086602 -0.11000977 0.04150634
v 0.023987301 -0.12508397 0.020409803
v -0.015738252 4.9296563e-08 0.013446473
v -0.011274062 2.531445e-08 0.017360459
v -0.0058791564 -2.664679e-09 0.019847557
v 0.018910375 -9.7260785e-08 0.0084194846
v 0.011273994 -7.5943351e-08 0.017360502
v -0.018910409 7.327867e-08 0.0084194118
v 0.021305747 -0.010359174 0.0095750505
v 0.0058790796 -5.5958258e-08 0.01984758
f 3 1 2
f 3 4 5
f 3 2 4
f 6 5 4
f 6 4 7
f 8 9 1
f 10 2 1
f 10 1 11
f 10 4 2
f 10 11 4
f 18 19 4
f 18 4 11
f 18 9 8
f 12 13 14
f 15 7 14
f 17 16 8
f 17 8 1
f 20 19 18
f 20 8 16
f 20 18 8
f 21 13 22
f 21 22 23
f 21 16 13
f 21 20 16
f 21 19 20
f 24 4 19
f 24 23 22
f 24 19 21
f 24 21 23
f 25 11 1
f 25 1 26
f 25 26 11
f 27 11 26
f 27 9 18
f 27 18 11
f 27 1 9
f 27 26 1
f 28 5 6
f 29 3 5
f 30 31 1
f 30 16 31
f 32 7 4
f 32 33 12
f 34 13 12
f 34 12 33
f 35 31 16
f 35 16 17
f 35 1 31
f 35 17 1
f 36 24 22
f 37 5 28
f 37 28 38
f 40 38 28
f 40 16 41
f 42 41 16
f 42 16 30
f 43 32 4
f 43 33 32
f 43 36 33
f 43 4 24
f 43 24 36
f 44 14 7
f 44 7 32
f 44 12 14
f 44 32 12
f 45 22 13
f 45 13 34
f 45 36 22
f 45 34 33
f 45 33 36
f 46 5 37
f 46 37 38
f 46 29 5
f 46 38 29
f 48 6 47
f 49 6 7
f 49 47 6
f 49 7 15
f 53 3 29
f 39 29 38
f 39 55 29
f 39 1 55
f 51 28 6
f 51 6 48
f 51 48 28
f 52 47 49
f 52 15 14
f 52 49 15
f 52 14 13
f 52 28 48
f 52 48 47
f 52 40 28
f 52 13 16
f 52 16 40
f 54 29 55
f 54 53 29
f 54 55 1
f 54 1 53
f 58 1 3
f 58 53 1
f 58 3 53
f 50 38 40
f 59 41 42
f 59 42 30
f 59 40 41
f 57 38 50
f 57 50 1
f 56 59 30
f 56 30 1
f 56 1 50
f 56 50 40
f 56 40 59
f 60 39 38
f 60 38 57
f 60 1 39
f 60 57 1
