v -0.012402873 -0.0016320208 0.0096986585
v 0.00873602 0.0022398711 0.0096986585
v -0.011985777 0.0005716583 0.0096986578
v -0.0033547372 0.0026581262 0.0096986251
v -0.00017085932 0.002761436 0.009698596
v 0.01228297 0.00093011237 0.0096986351
v 0.012461327 -0.0015112365 0.0096986585
v -0.0066464367 -0.0049862842 -0.02970287
v -0.0072612846 -0.0028323859 -0.019029193
v -0.0033864495 -0.0043082912 -0.03003847
v -0.0098850405 0.0015593502 0.0075841628
v -0.010737305 0.00064737254 0.004202875
v 0.010038462 -0.0032432195 0.0096986585
v 0.011406427 -0.0028427836 0.0096620388
v 0.01203763 -0.0021882943 0.0096986585
v 0.0073915728 -0.0085521974 -0.031495908
v -0.0040190276 -0.0034221802 0.0096986585
v 0.0039045944 -0.0085521974 -0.026266817
v 0.008501951 -0.0032786776 0.0096986585
v 0.0067901172 -0.0085521974 -0.027014508
v -0.0045169936 -0.0085521974 -0.026226337
v -0.012173978 0.00055872183 0.0091366979
v 0.0097206887 0.0012025367 0.004661253
v 0.011428262 -0.0018655548 0.0010739923
v 0.0029794997 0.0027281561 0.0096969066
v -0.003699809 -0.0059709649 -0.035089119
v -0.0065816034 -0.0075109499 -0.034425215
v -0.0039972263 -0.0085521974 -0.037977355
v -0.0064425964 0.0024192872 0.009697882
v -0.0068814172 -0.0085521974 -0.034500967
v -0.0072685894 -0.0085521974 -0.031093484
v -0.011904906 -0.0022847007 0.0096986585
v -0.011231618 -0.0030858671 0.0096986585
v -0.007123704 -0.0085521974 -0.029176628
v 0.0056906971 -0.0085521974 -0.026621613
v -0.0085189831 -0.0034027891 0.0096986585
v -0.0099459167 -0.0033811807 0.0096986585
v -0.0076034063 -0.0055137471 -0.027781253
v -0.0075961029 -0.0070545801 -0.029309975
v -0.010664253 -0.0024442676 -0.0047884939
v -0.012212939 -0.00093002892 0.007317471
v 0.010900466 0.00066288442 0.0041457264
v 0.0089171253 -0.0028312779 -0.015165713
v 0.00702118 -0.0019740641 -0.015309776
v 0.007754394 -0.0055148541 -0.027766962
v 0.0061477374 -0.0085478391 -0.037349535
v -0.0092318149 0.0020617496 0.0096985768
v -0.0072186712 -0.0085521974 -0.03220074
v -0.0066780919 -0.0085521974 -0.026885924
v -0.0099118258 -0.0016846558 -0.0071101525
v 0.0072567325 -0.0080959308 -0.032701978
v 0.012310354 0.00044347904 0.009217659
v 0.0082121816 -0.0020439625 -0.014151328
v 0.00071697813 -0.0045958202 -0.033211304
v 0.0035685589 -0.00090842197 -0.011212941
v -0.0014308837 -0.0073646447 -0.037496503
v 0.0074310116 0.0024214063 0.0096896581
v 0.0063591156 -0.005412909 -0.032662689
v 0.0043572076 -0.0067380055 -0.036128509
v 0.0046658108 -0.0049200042 -0.032447191
f 3 1 2
f 4 2 5
f 4 3 2
f 6 2 7
f 54 4 5
f 12 11 9
f 12 9 8
f 15 13 14
f 15 16 7
f 15 14 16
f 19 17 18
f 19 18 13
f 20 16 14
f 20 14 13
f 21 18 17
f 22 1 3
f 22 11 12
f 23 2 6
f 24 7 16
f 25 5 2
f 25 54 5
f 26 27 8
f 26 28 27
f 46 16 28
f 30 27 28
f 32 1 31
f 32 31 33
f 34 33 31
f 35 13 18
f 35 20 13
f 36 21 17
f 36 37 21
f 47 9 11
f 47 29 9
f 47 11 22
f 47 22 3
f 47 3 4
f 47 4 29
f 10 4 54
f 10 29 4
f 10 9 29
f 10 8 9
f 10 26 8
f 10 54 26
f 38 8 27
f 38 39 40
f 38 27 30
f 38 30 39
f 38 40 22
f 41 1 22
f 41 22 40
f 41 40 39
f 42 6 43
f 42 23 6
f 45 43 6
f 55 54 25
f 56 28 26
f 56 46 28
f 56 26 54
f 48 39 30
f 48 41 39
f 48 31 1
f 48 1 41
f 49 37 33
f 49 33 34
f 49 21 37
f 50 8 38
f 50 38 22
f 50 12 8
f 50 22 12
f 59 54 60
f 59 56 54
f 59 46 56
f 53 23 42
f 51 24 16
f 51 45 24
f 51 16 46
f 51 46 45
f 52 45 6
f 52 24 45
f 52 6 7
f 52 7 24
f 58 45 46
f 58 46 59
f 58 59 60
f 58 60 53
f 58 43 45
f 58 42 43
f 58 53 42
f 57 25 2
f 57 55 25
f 44 23 53
f 44 53 60
f 44 2 23
f 44 57 2
f 44 55 57
f 44 60 54
f 44 54 55
f 36 2 1
f 36 17 19
f 36 7 2
f 36 15 7
f 36 1 32
f 36 33 37
f 36 13 15
f 36 19 13
f 36 32 33
f 49 35 18
f 49 28 16
f 49 16 20
f 49 34 31
f 49 18 21
f 49 30 28
f 49 31 48
f 49 20 35
f 49 48 30
