v -0.01491296 0.0051207619 0.028323338
v -0.013139375 0.014099077 0.02832334
v -0.011607153 0.014206781 0.02832334
v 0.014810648 0.0051207563 0.02832334
v 0.014718463 0.011666244 0.02832334
v 0.014154583 0.013677964 0.02832334
v 0.012952126 0.01425578 0.02832334
v -0.020272135 0.0083583692 0.030358714
v -0.021623987 0.0099716281 0.030464254
v -0.020767691 0.014564564 0.029750234
v 0.0098825391 0.0051207686 0.0322154
v -0.018705293 0.0069688408 0.032215385
v -0.017905479 0.0067580524 0.032215385
v -0.0060722058 0.0051207563 0.032215385
v -0.014747207 0.0051207563 0.029290257
v 0.011363424 0.014369494 0.02832334
v 0.012155953 0.014314486 0.02832334
v -0.021520593 0.0095679672 0.032215385
v -0.022075818 0.010911849 0.031336389
v -0.022322231 0.012419368 0.032215385
v -0.022414695 0.014564564 0.032215385
v -0.019434057 0.0074098284 0.031336389
v -0.013286949 0.014564564 0.029373033
v -0.019526974 0.014564564 0.029670413
v -0.014103162 0.0051207563 0.030793448
v -0.011638126 0.014564564 0.029433614
v -0.0098672338 0.014564564 0.030609324
v 0.0098330254 0.014362098 0.02832334
v 0.0067649362 0.014345456 0.02832334
v -0.010109547 0.014222497 0.02832334
v 0.014037981 0.013543913 0.029539156
v 0.014380499 0.010911849 0.029803958
v 0.0037515056 0.014276119 0.032215385
v -0.022214284 0.014564564 0.030989288
v -0.022329065 0.013211091 0.031336389
v -0.019419482 0.0073698437 0.032215385
v -0.020494405 0.0081448097 0.032215385
v -0.015001362 0.010952526 0.02832334
v -0.01485561 0.012480732 0.02832334
v -0.014303572 0.013629891 0.02832334
v -0.021547467 0.014564564 0.03006781
v -0.021880874 0.013211091 0.03021907
v -0.013414484 0.0051207563 0.03095652
v 0.013822996 0.0051207563 0.030642567
v 0.014172803 0.012562088 0.02995141
v 0.013659026 0.013151923 0.03056065
v 0.013068729 0.013686285 0.02995141
v -0.0094682364 0.014564564 0.032215385
v 0.0051944544 0.013739907 0.032215385
v 0.0095415201 0.0075559001 0.032215385
v -0.020965369 0.0088051355 0.031336389
v -0.021758808 0.010911849 0.030326327
v -0.020767691 0.010911849 0.029867587
v -0.020767691 0.013211091 0.02975995
v 0.014409649 0.0063152157 0.029803958
v 0.013792025 0.011520635 0.030622945
v 0.0028733473 0.014298307 0.032215385
v 0.0044547609 0.01405054 0.032215385
v 0.014185554 0.0051207563 0.030130676
v 0.013822996 0.0063152157 0.030640661
f 48 21 11
f 3 1 2
f 5 4 1
f 5 1 6
f 7 6 1
f 57 33 16
f 57 16 48
f 57 11 33
f 57 48 11
f 8 9 1
f 10 3 2
f 13 11 12
f 13 14 11
f 15 1 4
f 15 12 1
f 27 48 16
f 17 1 16
f 17 7 1
f 17 16 33
f 17 33 7
f 49 11 50
f 46 49 50
f 19 9 18
f 20 11 21
f 20 18 11
f 20 19 18
f 22 1 12
f 22 8 1
f 24 23 3
f 24 3 10
f 25 13 12
f 25 12 15
f 26 16 23
f 26 27 16
f 28 16 1
f 28 1 29
f 28 23 16
f 28 29 23
f 30 1 3
f 30 29 1
f 30 3 23
f 30 23 29
f 31 5 6
f 31 6 7
f 32 4 5
f 58 46 33
f 58 49 46
f 58 33 11
f 58 11 49
f 35 21 34
f 35 20 21
f 35 19 20
f 37 11 18
f 37 8 22
f 38 1 10
f 38 39 1
f 38 10 39
f 40 10 2
f 40 39 10
f 40 2 1
f 40 1 39
f 42 34 41
f 42 35 34
f 43 14 13
f 43 13 25
f 47 7 33
f 47 31 7
f 47 33 46
f 47 46 31
f 44 11 14
f 45 31 46
f 45 5 31
f 45 32 5
f 36 22 12
f 36 37 22
f 36 12 11
f 36 11 37
f 51 9 8
f 51 8 37
f 51 18 9
f 51 37 18
f 52 35 42
f 52 9 19
f 52 19 35
f 52 42 53
f 52 1 9
f 52 53 1
f 54 41 10
f 54 42 41
f 54 53 42
f 54 10 1
f 54 1 53
f 55 4 32
f 56 50 11
f 56 46 50
f 56 45 46
f 56 32 45
f 59 4 55
f 60 11 44
f 60 56 11
f 60 32 56
f 60 55 32
f 60 44 59
f 60 59 55
f 26 41 34
f 26 21 48
f 26 34 21
f 26 48 27
f 26 23 24
f 26 10 41
f 26 24 10
f 59 15 4
f 59 14 43
f 59 25 15
f 59 43 25
f 59 44 14
