v -0.010971981 -0.028948155 0.070753583
v -0.019354368 -0.010732311 0.070753734
v -0.00028792399 -0.021864767 0.070753583
v -0.02903215 -0.01073233 0.070754259
v -0.028570326 -0.010732311 0.074993278
v -0.021411559 -0.010732311 0.076549027
v -0.024367798 -0.010732311 0.077630703
v -0.00028792399 -0.026174933 0.077581473
v -0.022563705 -0.010732311 0.077252383
v -0.00028792399 -0.027978913 0.077367701
v -0.0027102427 -0.026174933 0.077636097
v -0.0045143361 -0.026174933 0.077642838
v -0.00028792399 -0.024639967 0.07687744
v -0.010214655 -0.029191455 0.070753583
v -0.0020927201 -0.030853511 0.070753583
v -0.0048920196 -0.030541378 0.070753675
v -0.0063212408 -0.026174933 0.077608443
v -0.0047412536 -0.027978913 0.077147688
v -0.020759611 -0.017151077 0.077614514
v -0.018955517 -0.023124783 0.075872647
v -0.010896108 -0.028932333 0.074528647
v -0.008476599 -0.028718701 0.076036512
v -0.020054274 -0.021848942 0.076377737
v -0.019975589 -0.023565888 0.074584618
v -0.00028792399 -0.030936096 0.073528572
v -0.00028792399 -0.030938071 0.070753583
v -0.00028792399 -0.029967345 0.075820888
v -0.0018081959 -0.030784776 0.074625083
v -0.0099294289 -0.029098488 0.074806484
v -0.0072232876 -0.030059818 0.073528572
v -0.020028982 -0.023611381 0.070754259
v -0.022196985 -0.021496848 0.070754259
v -0.018955517 -0.024341282 0.070754259
v -0.020031792 -0.023615339 0.073528572
v -0.023533195 -0.019932214 0.074532017
v -0.018955517 -0.017151077 0.077636767
v -0.024353047 -0.017574873 0.075760699
v -0.021741922 -0.020032722 0.076311103
v -0.021202205 -0.022112022 0.074908649
v -0.025071335 -0.018130342 0.070754503
v -0.026385462 -0.015689299 0.074744777
v -0.026812599 -0.010732311 0.076833946
v -0.024632652 -0.01244258 0.077402175
v -0.018955517 -0.018955057 0.077577426
v -0.018955517 -0.020761015 0.077188318
v -0.0079735884 -0.028061989 0.076704804
v -0.0045283872 -0.029106153 0.076452932
v -0.0037977576 -0.030716532 0.074490205
v -0.0099294289 -0.029300249 0.073528572
v -0.021511317 -0.022205485 0.072399861
v -0.028149513 -0.012740029 0.070754259
v -0.026006799 -0.013863065 0.076433544
v -0.0081253353 -0.026174933 0.077349489
v -0.014276677 -0.024867442 0.076558803
v -0.0051367771 -0.029831602 0.075360133
v -0.01092702 -0.02895607 0.073528572
v -0.025717005 -0.017141186 0.073077087
v -0.028205715 -0.012488817 0.073537336
v -0.027425907 -0.012273704 0.075723782
v -0.022063856 -0.017833751 0.077153673
f 1 4 2
f 3 2 6
f 3 1 2
f 13 3 6
f 13 6 9
f 5 2 4
f 51 4 1
f 51 1 32
f 15 26 25
f 48 15 25
f 48 16 15
f 17 10 12
f 46 22 47
f 46 17 53
f 36 12 7
f 35 41 57
f 59 42 5
f 59 5 41
f 31 32 1
f 31 1 33
f 58 41 5
f 58 57 41
f 58 51 57
f 58 5 4
f 58 4 51
f 40 51 32
f 40 57 51
f 40 32 35
f 40 35 57
f 14 15 16
f 34 21 24
f 34 31 33
f 34 24 35
f 55 47 22
f 55 22 48
f 55 48 47
f 29 22 21
f 29 48 22
f 29 21 48
f 27 10 47
f 8 9 7
f 8 13 9
f 18 47 10
f 18 46 47
f 18 10 17
f 18 17 46
f 49 1 14
f 50 35 32
f 50 34 35
f 50 32 31
f 50 31 34
f 28 25 27
f 28 48 25
f 28 47 48
f 28 27 47
f 11 10 8
f 11 12 10
f 11 7 12
f 11 8 7
f 43 7 42
f 19 36 7
f 19 7 43
f 19 43 60
f 19 17 12
f 19 12 36
f 52 42 59
f 52 43 42
f 52 60 43
f 52 59 41
f 39 35 24
f 20 24 21
f 20 21 22
f 23 35 39
f 23 39 24
f 23 24 20
f 56 1 49
f 56 49 21
f 56 33 1
f 56 34 33
f 56 21 34
f 30 14 16
f 30 49 14
f 30 16 48
f 30 48 21
f 30 21 49
f 44 17 19
f 38 35 23
f 38 23 60
f 54 22 46
f 54 20 22
f 54 23 20
f 45 60 23
f 45 19 60
f 45 44 19
f 45 23 54
f 45 53 17
f 45 17 44
f 45 46 53
f 45 54 46
f 37 60 52
f 37 38 60
f 37 52 41
f 37 41 35
f 37 35 38
f 42 6 2
f 42 7 9
f 42 9 6
f 42 2 5
f 14 3 26
f 14 1 3
f 14 26 15
f 8 26 3
f 8 25 26
f 8 3 13
f 8 27 25
f 8 10 27
