v -0.023933272 0.020304276 0.041677758
v -0.02405886 0.030523224 0.051312029
v -0.024065762 0.030522326 0.048188451
v -0.0069729809 0.0059445897 0.032231824
v -0.012475315 0.014568302 0.029405517
v -0.010205623 0.014567334 0.029852181
v -0.0069772854 0.014229886 0.032217834
v -0.0069772854 0.014134415 0.034786626
v -0.010433113 0.030522329 0.042062003
v -0.01065391 0.030522329 0.040298242
v -0.010791074 0.030522329 0.039749013
v -0.013025818 0.026232758 0.049723238
v -0.01386803 0.027909198 0.05039714
v -0.013519517 0.024520805 0.050815987
v -0.013616789 0.0062233091 0.032233811
v -0.0069772854 0.012444165 0.037283406
v -0.02372042 0.014104093 0.048384426
v -0.021890783 0.010229727 0.032216759
v -0.019312556 0.0074519242 0.032216759
v -0.021421587 0.0092609112 0.034021361
v -0.023679068 0.030544273 0.039507562
v -0.014770459 0.030522329 0.037808045
v -0.01896228 0.028445994 0.030811984
v -0.013704941 0.027219888 0.030402481
v -0.0069772854 0.0070041423 0.036776096
v -0.0069772854 0.0065790293 0.035935595
v -0.0069772854 0.013529768 0.03696311
v -0.010645547 0.030522329 0.043042228
v -0.018125923 0.029572427 0.050680891
v -0.0069772854 0.0093794983 0.037339293
v -0.01846883 0.013978899 0.051255908
v -0.015407764 0.024894368 0.051283318
v -0.021722886 0.0225022 0.051260881
v -0.022636815 0.013168 0.050692982
v -0.013769612 0.012756217 0.050843188
v -0.02339079 0.017734077 0.05080879
v -0.018286418 0.006783539 0.036108596
v -0.022991222 0.011865337 0.041872297
v -0.022970102 0.011795684 0.048192708
v -0.02139963 0.010939641 0.048533697
v -0.021330006 0.014567334 0.029982232
v -0.020737632 0.01455718 0.029729818
v -0.013542687 0.026235159 0.03025416
v -0.015737288 0.028524052 0.030669033
v -0.018547865 0.02761483 0.030209554
v -0.015285655 0.011651579 0.050512144
v -0.020011072 0.0077402869 0.034405068
v -0.017701053 0.0067087262 0.032216759
v -0.023522516 0.014139818 0.039738264
v -0.022433163 0.02470523 0.031341865
v -0.015406927 0.026235159 0.029723204
v -0.017223181 0.010920239 0.049342215
v -0.022364581 0.015805449 0.031339715
v -0.019998527 0.026235159 0.029726429
v -0.019233258 0.0104627 0.048192708
v -0.021890783 0.02413871 0.030228362
v -0.021990729 0.026722722 0.030876474
f 1 2 3
f 6 4 5
f 6 7 4
f 8 4 7
f 8 7 9
f 10 9 7
f 10 7 11
f 24 11 7
f 12 13 14
f 15 5 4
f 16 12 14
f 17 2 1
f 18 19 20
f 21 1 3
f 21 22 23
f 21 3 2
f 21 11 22
f 21 10 11
f 21 9 10
f 43 7 6
f 43 24 7
f 44 23 22
f 44 22 11
f 44 11 24
f 26 4 25
f 27 8 9
f 27 4 8
f 27 16 4
f 28 12 16
f 28 13 12
f 28 27 9
f 28 16 27
f 28 29 13
f 28 2 29
f 28 21 2
f 28 9 21
f 30 16 14
f 30 25 4
f 30 4 16
f 32 2 31
f 32 14 13
f 32 29 2
f 32 13 29
f 33 31 2
f 33 34 31
f 35 30 14
f 35 25 30
f 35 14 32
f 35 32 31
f 36 2 17
f 36 17 34
f 36 33 2
f 36 34 33
f 37 15 4
f 37 4 26
f 38 18 20
f 39 34 17
f 39 40 34
f 39 17 38
f 39 38 20
f 39 37 40
f 41 42 19
f 41 19 18
f 51 6 5
f 51 43 6
f 51 24 43
f 51 44 24
f 46 31 34
f 46 35 31
f 46 26 25
f 46 25 35
f 47 20 19
f 47 19 37
f 47 39 20
f 47 37 39
f 48 37 19
f 48 15 37
f 48 19 42
f 48 42 5
f 48 5 15
f 49 18 38
f 49 17 1
f 49 38 17
f 50 1 21
f 45 23 44
f 45 44 51
f 52 34 40
f 52 46 34
f 52 26 46
f 53 41 18
f 53 18 49
f 53 49 1
f 53 1 50
f 54 23 45
f 54 45 51
f 54 5 42
f 54 51 5
f 55 37 26
f 55 26 52
f 55 40 37
f 55 52 40
f 56 41 53
f 56 53 50
f 56 42 41
f 56 54 42
f 57 56 50
f 57 54 56
f 57 50 21
f 57 21 23
f 57 23 54
