v 0.024374185 0.043029892 -0.026912692
v 0.0069046184 0.046344369 0.021052972
v -0.00048728763 0.052081179 -0.058682278
v 0.011922021 0.050994464 0.049883763
v 0.021898316 0.043028523 0.038122439
v 0.027368686 0.058375384 -0.016385215
v 0.030914166 0.056926451 9.4281247e-05
v 0.030426255 0.056862126 -0.01516236
v -0.0004869299 0.058373935 -0.042837777
v -0.00048688891 0.058361961 -0.050175631
v -0.00048147792 0.058372182 -0.0717318
v 0.021898316 0.043028523 0.027039545
v 0.0053754401 0.04773839 0.021051787
v 0.029302197 0.043025998 -0.026875199
v 0.031537881 0.043028626 -0.0053824286
v 0.02900455 0.043028523 0.017881061
v 0.0090674959 0.058350463 0.0132005
v 0.0044356952 0.05831835 -0.00086900152
v 0.028556862 0.057991388 0.0030447111
v 0.024350225 0.049139698 -0.037778249
v 0.020802543 0.056482595 -0.038721215
v 0.029540417 0.047451724 0.01391884
v 0.0050999836 0.054491385 0.021061034
v 0.005106249 0.050252016 0.021053088
v 0.030993105 0.043030027 -0.016889398
v 0.01685907 0.053359708 0.044794956
v 0.021570849 0.057133707 0.03889497
v 0.016442349 0.05824731 0.040640585
v 0.011846264 0.056644685 0.047721963
v 0.015964769 0.056937089 0.04497243
v 0.0053616238 0.056783654 0.021063684
v 0.0019461827 0.055193373 0.00037596965
v 0.0025305674 0.057286206 0.00037596965
v 0.027954649 0.057032077 -0.025545223
v -0.0004869299 0.058118533 -0.040369025
v 0.031227719 0.047346724 -0.011329409
v 0.01798466 0.049063622 -0.046503822
v 0.014214228 0.049083512 -0.050532412
v 0.0093894739 0.049061961 -0.054973128
v 0.011846264 0.054000479 0.049210634
v 0.027113915 0.043028523 0.026104492
v 0.024067793 0.043028596 0.034138788
v 0.025458113 0.056978384 0.031061466
v 0.027814323 0.05703543 0.022934689
v 0.0069079737 0.057824061 0.021063684
v -0.0004869299 0.055018723 -0.038634012
v -0.0004869299 0.052080426 -0.042541103
v 0.023266842 0.058339945 0.025253542
v 0.011846264 0.0570308 0.046100855
v 0.011846264 0.057702743 0.038997893
v 0.0069079737 0.058075709 0.017673124
v 0.0044356952 0.058201163 0.0016209409
v 0.0024365642 0.05025352 0.0016209409
v 0.0029880492 0.048877328 0.0016209409
v 0.0020903212 0.052764013 0.0016209409
f 1 2 3
f 5 4 2
f 8 6 7
f 9 6 11
f 39 1 3
f 39 3 11
f 12 2 1
f 12 5 2
f 54 3 2
f 13 2 4
f 13 54 2
f 34 11 6
f 34 6 8
f 14 20 34
f 14 34 8
f 14 12 1
f 14 1 39
f 14 15 16
f 14 5 12
f 36 7 15
f 36 8 7
f 17 6 9
f 17 9 18
f 19 7 6
f 10 11 3
f 10 3 9
f 10 9 11
f 37 11 20
f 37 20 14
f 22 15 7
f 22 16 15
f 53 54 13
f 30 27 28
f 24 13 4
f 24 4 23
f 21 20 11
f 21 34 20
f 21 11 34
f 25 14 8
f 25 8 36
f 25 15 14
f 25 36 15
f 26 4 5
f 26 5 27
f 26 30 4
f 26 27 30
f 35 32 33
f 35 33 9
f 35 46 32
f 35 9 3
f 35 3 46
f 52 18 9
f 52 9 33
f 38 39 11
f 38 11 37
f 38 14 39
f 38 37 14
f 47 46 3
f 47 3 54
f 47 54 53
f 55 53 13
f 55 13 24
f 55 47 53
f 55 23 32
f 55 24 23
f 55 32 46
f 55 46 47
f 41 5 14
f 41 14 16
f 42 27 5
f 42 43 27
f 42 5 41
f 42 41 43
f 44 16 22
f 44 41 16
f 44 43 41
f 44 22 7
f 44 7 19
f 31 32 23
f 31 33 32
f 50 49 28
f 48 43 44
f 48 28 27
f 48 27 43
f 48 44 19
f 48 19 6
f 48 6 17
f 48 17 28
f 29 49 31
f 29 30 28
f 29 28 49
f 45 52 33
f 45 33 31
f 45 31 49
f 45 49 50
f 40 31 23
f 40 29 31
f 40 23 4
f 40 4 30
f 40 30 29
f 51 50 28
f 51 45 50
f 51 17 18
f 51 28 17
f 51 18 52
f 51 52 45
