v -0.039794075 -0.030000711 -0.027491344
v -0.031901617 -0.030000645 0.023680441
v -0.036921695 -0.030000647 -0.11787049
v -0.036843376 -0.030978234 0.021444037
v -0.02878955 -0.034765093 0.0234059
v -0.0012700412 -0.033244527 -0.11787051
v -0.0012700412 -0.037208623 0.020053507
v -0.0012700412 -0.037620157 0.022470495
v -0.024505738 -0.03000065 0.020991911
v -0.02339622 -0.03000065 -0.045287757
v -0.033444379 -0.033777612 -0.1178705
v -0.03723688 -0.031193224 -0.095660437
v -0.027004039 -0.03000065 -0.11787051
v -0.0012700412 -0.047990094 -0.018753847
v -0.0012700515 -0.04278048 -0.11786778
v -0.005781373 -0.042605456 -0.11786947
v -0.039033542 -0.0300018 0.0068687624
v -0.0012700412 -0.039782743 0.023088311
v -0.0012700412 -0.044152066 0.023796367
v -0.027351235 -0.03000065 0.023005009
v -0.039382603 -0.030000882 -0.069869605
v -0.001280074 -0.048122041 0.02267462
v -0.014988047 -0.044992769 0.02232125
v -0.014299322 -0.046139334 0.020794273
v -0.016718365 -0.04098895 -0.11787046
v -0.021889719 -0.039713768 -0.11787032
v -0.0012700581 -0.045472459 -0.077923834
v -0.016627792 -0.040195435 0.02390049
v -0.029602237 -0.038144336 0.021972387
v -0.024641598 -0.03000065 0.021977639
v -0.027584622 -0.037699536 -0.11787009
v -0.035755872 -0.033851513 -0.072916721
v -0.010938461 -0.042135319 -0.11786701
v -0.023304007 -0.042245881 0.021416543
v -0.035226115 -0.03442505 0.00057627358
v -0.018743044 -0.044381727 -0.043579222
v -0.017760541 -0.045299981 -0.013104362
v -0.024442647 -0.042689015 -0.026186338
v -0.013686652 -0.046291225 -0.026260465
v -0.034233824 -0.034475848 -0.093543211
v -0.037537032 -0.033106061 -0.029828009
v -0.006047756 -0.04781134 0.019617444
v -0.006835787 -0.048062194 0.0012199495
v -0.010278261 -0.047318959 -0.0098671289
v -0.0066560396 -0.046934761 -0.046133251
v -0.0018172512 -0.048380822 0.0048107338
v -0.0028748774 -0.047363955 -0.038551672
v -0.0039325035 -0.047864956 -0.022688944
v -0.006047756 -0.045347795 -0.075560648
v -0.023497586 -0.041695226 -0.068791269
v -0.013904101 -0.043961406 -0.080529752
v -0.031025564 -0.037770413 -0.0720566
v -0.018770051 -0.042858062 -0.07855384
v -0.030236827 -0.03723258 -0.095717273
v -0.033817755 -0.036294334 -0.016605383
v -0.03163764 -0.038192566 -0.028243199
v -0.028177474 -0.040087532 -0.049260594
v -0.025248659 -0.042289229 -0.0040755932
v -0.03383285 -0.03631889 -0.045694715
v -0.01451254 -0.044904468 -0.059166015
f 3 1 2
f 15 6 14
f 9 10 2
f 9 7 6
f 9 6 10
f 13 10 6
f 13 6 11
f 13 11 3
f 13 2 10
f 13 3 2
f 25 11 6
f 17 2 1
f 17 4 2
f 28 19 2
f 16 6 15
f 16 25 6
f 26 31 11
f 26 11 25
f 22 14 19
f 22 19 28
f 54 11 31
f 54 31 52
f 58 56 38
f 58 55 56
f 37 38 36
f 37 58 38
f 57 56 52
f 57 38 56
f 5 28 2
f 5 2 4
f 18 2 19
f 18 8 2
f 20 2 8
f 33 25 16
f 51 26 25
f 51 25 33
f 35 4 17
f 40 11 54
f 40 54 52
f 21 1 3
f 41 55 35
f 41 1 21
f 41 21 32
f 41 56 55
f 41 17 1
f 41 35 17
f 59 52 56
f 59 56 41
f 59 41 32
f 59 40 52
f 59 32 40
f 39 37 36
f 39 44 37
f 50 38 57
f 50 36 38
f 50 52 31
f 50 57 52
f 50 31 26
f 30 20 8
f 30 8 7
f 30 7 9
f 30 9 2
f 30 2 20
f 53 26 51
f 53 36 50
f 53 50 26
f 27 15 14
f 27 16 15
f 29 55 58
f 29 35 55
f 29 58 34
f 29 4 35
f 29 5 4
f 29 28 5
f 46 14 22
f 46 22 43
f 24 34 58
f 24 58 37
f 24 37 44
f 24 44 43
f 12 40 32
f 12 32 21
f 12 21 3
f 12 3 11
f 12 11 40
f 47 27 14
f 60 36 53
f 60 53 51
f 60 39 36
f 49 51 33
f 49 33 16
f 49 16 27
f 23 34 24
f 23 24 22
f 23 22 28
f 23 29 34
f 23 28 29
f 42 43 22
f 42 22 24
f 42 24 43
f 48 47 14
f 48 14 46
f 48 46 43
f 45 60 51
f 45 51 49
f 45 47 48
f 45 27 47
f 45 49 27
f 45 39 60
f 45 44 39
f 45 43 44
f 45 48 43
f 18 6 7
f 18 14 6
f 18 19 14
f 18 7 8
