v 0.030106097 -0.0076343538 0.016670704
v 0.030911185 -1.0501769e-06 0.016670696
v 0.030988113 -0.0015333489 0.070705631
v -0.025037044 0.022024426 0.016653927
v 0.025049818 -0.021996226 0.016670515
v 0.030551114 0.0067993027 0.070695641
v -0.030686332 -0.0062616243 0.072375215
v 0.010512863 0.032205904 0.016670604
v -0.00011596792 0.033851992 0.016670473
v -0.02949306 0.0094087603 0.016680077
v -0.030373928 -0.0059837199 0.016670694
v -0.028491594 0.012164848 0.070725638
v 0.0055229125 -0.030438725 0.070705996
v -0.0019356373 -0.030846086 0.070748355
v 0.00013492568 -0.033857672 0.016670596
v 0.015502906 -0.029695172 0.016670691
v 0.010622787 -0.029150912 0.070637572
v 0.0099256171 -0.032222305 0.016670692
v -0.0046697305 0.030597997 0.070749538
v 0.001408199 0.030938811 0.070747107
v -0.010617844 0.029066177 0.070748429
v 0.024973765 0.022118448 0.016670651
v 0.029719247 0.0088313469 0.016670729
v 0.015853363 0.026658237 0.070701951
v 0.021156685 0.022659229 0.070702628
v -0.010517987 -0.032201285 0.016670523
v -0.030762657 0.0019215 0.017454107
v -0.030975465 0.0011574743 0.070748355
v -0.020511902 0.023262142 0.07074975
v -0.024976189 0.018365175 0.070747213
v -0.030610566 0.0052889512 0.070725034
v 0.021542422 -0.02228882 0.070708314
v 0.020922662 -0.026178972 0.016670686
v 0.017522024 -0.025514058 0.070705996
v -0.020926325 0.026175862 0.016670649
v -0.015482822 0.029704535 0.016670682
v -0.0152588 0.0268362 0.070747797
v -0.0099213974 0.032224414 0.016670692
v 0.024453328 0.018929305 0.070695408
v 0.026964126 0.015064467 0.070695408
v 0.030593336 0.0045659246 0.016670722
v 0.0071551992 0.030205228 0.070479142
v 0.018366982 0.028353751 0.016670701
v -0.0154936 -0.029861027 0.01667077
v -0.014129477 -0.027526025 0.070747698
v -0.025217234 -0.021467973 0.016670692
v -0.024482417 -0.022714923 0.016670546
v -0.026480019 -0.015921532 0.070748355
v -0.019313471 -0.027715227 0.016670334
v 0.014938881 -0.027076344 0.070705996
v 0.024842693 -0.018465612 0.070705996
v 0.027492117 -0.014041341 0.070705996
v 0.029888751 -0.0082922907 0.070705903
v 0.021809584 0.02538405 0.016670692
v -0.0059570591 -0.030400746 0.070748189
v -0.021170564 -0.022533166 0.070748355
v -0.029376961 -0.0098203646 0.016673213
v -0.028189741 -0.01267558 0.070748355
v -0.023705982 -0.019821465 0.070748355
f 1 2 3
f 1 4 2
f 1 5 4
f 6 3 2
f 6 7 3
f 8 4 9
f 10 4 11
f 12 4 10
f 13 14 15
f 13 7 14
f 18 16 17
f 18 15 4
f 18 4 16
f 18 13 15
f 18 17 13
f 19 20 9
f 19 7 20
f 19 21 7
f 23 4 22
f 23 22 6
f 40 6 22
f 40 7 6
f 24 20 7
f 24 7 25
f 26 4 15
f 27 10 11
f 27 7 28
f 27 11 7
f 30 29 4
f 30 4 12
f 30 7 29
f 30 12 7
f 31 28 7
f 31 7 12
f 31 12 10
f 31 27 28
f 31 10 27
f 33 5 32
f 33 16 4
f 33 4 5
f 34 16 33
f 34 33 32
f 34 32 7
f 35 4 29
f 35 36 4
f 37 21 36
f 37 29 7
f 37 7 21
f 37 35 29
f 37 36 35
f 38 36 21
f 38 19 9
f 38 21 19
f 38 9 4
f 38 4 36
f 41 2 4
f 41 4 23
f 41 6 2
f 41 23 6
f 39 25 7
f 39 7 40
f 39 22 25
f 39 40 22
f 42 20 24
f 42 24 8
f 42 9 20
f 42 8 9
f 43 8 24
f 43 4 8
f 43 24 25
f 45 44 26
f 46 11 4
f 46 4 47
f 46 47 48
f 49 47 4
f 49 4 26
f 49 26 44
f 49 44 45
f 50 17 16
f 50 16 34
f 50 13 17
f 50 7 13
f 50 34 7
f 51 32 5
f 51 5 52
f 51 7 32
f 51 52 7
f 53 5 1
f 53 52 5
f 53 1 3
f 53 3 7
f 53 7 52
f 54 22 4
f 54 4 43
f 54 25 22
f 54 43 25
f 55 45 26
f 55 15 14
f 55 26 15
f 55 14 7
f 55 7 45
f 56 45 7
f 56 49 45
f 56 47 49
f 57 7 11
f 57 11 46
f 57 46 7
f 58 48 7
f 58 7 46
f 58 46 48
f 59 7 48
f 59 56 7
f 59 48 47
f 59 47 56
