v 0.023350935 -0.014464861 0.050775629
v 0.023825126 -0.015763568 0.049724702
v 0.0237555 -0.014464861 0.049724702
v 0.023947521 -0.015510627 0.048192191
v 0.010053107 -0.014464861 0.029827714
v 0.01152478 -0.014464861 0.029350409
v 0.014639626 -0.019727689 0.029714273
v 0.022355651 -0.014464861 0.031338822
v 0.02377602 -0.019727689 0.040529623
v 0.022396695 -0.019727689 0.031338822
v 0.021967945 -0.014464861 0.030392773
v 0.02374524 -0.016020373 0.040529623
v 0.023878628 -0.014464861 0.048192191
v 0.023910876 -0.01601651 0.048699461
v 0.0092557059 -0.014464861 0.030891482
v 0.013433264 -0.019727689 0.030172316
v 0.0091193855 -0.014464861 0.03177439
v 0.010494315 -0.019727689 0.040529623
v 0.0090065181 -0.014464861 0.032871335
v 0.010352132 -0.019727689 0.042062139
v 0.0090153135 -0.014464861 0.033658999
v 0.0090446297 -0.014464861 0.034403851
v 0.020766712 -0.014464861 0.029752802
v 0.021901982 -0.016530119 0.030207631
v 0.021914443 -0.019727689 0.030200142
v 0.015982309 -0.019727689 0.029659692
v 0.019232131 -0.019727689 0.029654341
v 0.013145966 -0.014464861 0.029341846
v 0.020766716 -0.019727689 0.029742094
v 0.023947521 -0.015510627 0.042062139
v 0.023981257 -0.019727689 0.042059055
v 0.020733 -0.014464861 0.051207988
v 0.016171398 -0.014464861 0.051041043
v 0.022298486 -0.019727689 0.051173742
v 0.013811444 -0.014798167 0.050546614
v 0.013758674 -0.014464861 0.050597976
v 0.010607183 -0.019727689 0.043078817
v 0.014333272 -0.019727689 0.029827714
v 0.012895312 -0.019727689 0.031338822
v 0.010323549 -0.015763826 0.042062139
v 0.019233477 -0.014464861 0.029654341
v 0.023666085 -0.014464861 0.040529623
v 0.023874231 -0.014464861 0.042062139
v 0.023875697 -0.014464861 0.043594649
v 0.020838539 -0.019727689 0.050899773
v 0.021097987 -0.019727689 0.050972546
v 0.01502147 -0.014464861 0.050898705
v 0.013292547 -0.019727689 0.030463408
v 0.010459136 -0.014464861 0.042398177
v 0.010621841 -0.014464861 0.043061694
v 0.010592525 -0.015510627 0.0430938
v 0.022298486 -0.015510627 0.051203708
v 0.022298486 -0.014464861 0.051180165
v 0.023386116 -0.016403263 0.050803989
v 0.023399308 -0.019727689 0.050812018
v 0.02397977 -0.019727689 0.048194329
v 0.014148579 -0.014464861 0.050737103
v 0.022569659 -0.019727689 0.051100965
v 0.023968043 -0.018159556 0.047126281
v 0.02385664 -0.019727689 0.049724702
f 33 34 32
f 6 7 5
f 47 34 33
f 35 37 45
f 35 36 37
f 16 15 5
f 46 34 47
f 46 35 45
f 26 6 28
f 26 28 27
f 26 7 6
f 41 27 28
f 41 29 27
f 41 23 29
f 18 15 39
f 38 5 7
f 38 16 5
f 48 39 15
f 48 15 16
f 30 12 8
f 30 4 31
f 9 30 31
f 9 12 30
f 9 10 8
f 9 8 12
f 13 3 4
f 13 4 30
f 2 4 3
f 2 3 1
f 52 53 32
f 52 32 34
f 52 1 53
f 49 40 50
f 49 22 40
f 51 40 37
f 51 50 40
f 51 36 50
f 51 37 36
f 57 46 47
f 57 35 46
f 57 36 35
f 11 24 23
f 11 8 10
f 11 10 24
f 25 24 10
f 25 29 23
f 25 23 24
f 17 18 19
f 17 15 18
f 20 21 19
f 20 19 18
f 20 22 21
f 20 37 40
f 20 40 22
f 42 30 8
f 42 43 30
f 44 30 43
f 44 13 30
f 59 56 31
f 59 31 4
f 59 4 56
f 14 2 60
f 14 4 2
f 14 60 56
f 14 56 4
f 54 55 60
f 54 60 2
f 54 2 1
f 54 1 52
f 54 52 55
f 58 52 34
f 58 55 52
f 44 17 19
f 44 19 21
f 44 49 50
f 44 8 11
f 44 33 32
f 44 28 6
f 44 50 36
f 44 32 53
f 44 6 5
f 44 41 28
f 44 1 3
f 44 3 13
f 44 47 33
f 44 36 57
f 44 5 15
f 44 53 1
f 44 21 22
f 44 23 41
f 44 42 8
f 44 22 49
f 44 57 47
f 44 11 23
f 44 15 17
f 44 43 42
f 58 45 37
f 58 7 26
f 58 34 46
f 58 37 20
f 58 9 31
f 58 39 48
f 58 29 25
f 58 27 29
f 58 31 56
f 58 38 7
f 58 60 55
f 58 46 45
f 58 26 27
f 58 18 39
f 58 16 38
f 58 48 16
f 58 10 9
f 58 56 60
f 58 25 10
f 58 20 18
