v 0.015679127 0.030552214 -0.1678049
v 0.027105766 0.030552214 -0.20397791
v 0.013483632 -0.031720029 -0.16782722
v 0.025209479 -0.031148622 -0.20386361
v 0.030534086 0.030552214 -0.16780491
v 0.040824958 0.018357815 0.023985109
v 0.041418959 -0.023507221 0.023813947
v 0.047862836 -0.006688346 0.02253014
v 0.034256389 -0.02534371 0.023847055
v 0.03425352 -0.033905054 0.022491063
v 0.023408279 -0.042638451 -0.060803304
v 0.036038665 0.018372875 0.023012756
v 0.034428875 0.018372875 0.01959852
v 0.023397448 -0.035367297 -0.060803508
v 0.046639652 0.011246544 0.022229977
v 0.049295502 -0.0021161987 -0.052230866
v 0.049442893 0.0019185998 -0.05020067
v 0.050309808 -0.0014215779 -0.032192274
v 0.03806992 0.030551852 -0.20397267
v 0.039013797 -0.015563538 -0.20394828
v 0.038444407 0.030554178 -0.18940878
v 0.013925606 -0.035993543 -0.16782722
v 0.015614449 -0.038683744 -0.16782722
v 0.048555511 0.011685565 -0.0013242099
v 0.049907717 0.0066420821 -0.014868486
v 0.049430473 0.0092110918 -0.028288087
v 0.049059626 0.00055310717 0.016005628
v 0.03663845 -0.037007931 -0.20386882
v 0.038334801 -0.034337313 -0.19840567
v 0.039782867 -0.0021314008 -0.19614527
v 0.04353066 0.018372875 0.022588772
v 0.038640557 0.03055194 -0.19629533
v 0.045750392 0.018615391 -0.066812193
v 0.03953585 0.018750443 -0.19415029
v 0.034398893 -0.036419893 -0.014967913
v 0.026733042 -0.041288804 -0.059331333
v 0.040221088 -0.027324488 0.017286394
v 0.04905334 -0.0062647683 -0.049674923
v 0.046281444 -0.017201341 0.0071378417
v 0.041680468 -0.02769942 -0.013244276
v 0.019347868 -0.039142264 -0.16782722
v 0.032032157 -0.039264056 -0.20386633
v 0.025599642 -0.036538369 -0.20386691
v 0.039151701 -0.019489475 -0.19928892
v 0.039828335 0.0029122335 -0.19565093
v 0.035626337 0.030552214 -0.17957619
v 0.04654093 0.018372875 -0.017400153
v 0.035686476 -0.038700623 -0.19407962
v 0.049358222 -0.0081443068 -0.0041384546
v 0.027802968 -0.038772384 -0.20390064
v 0.042909024 -0.025866784 -0.01844897
v 0.037938285 -0.035847227 -0.19687885
v 0.040976286 -0.02987973 -0.1249375
v 0.044616554 0.01837289 0.019596011
v 0.038502197 -0.032097533 -0.014547073
v 0.047008959 -0.017341244 -0.031146344
v 0.045854611 0.018372875 0.002747725
v 0.048906212 -0.010578131 -0.033266293
v 0.048207869 -0.013774087 -0.027624797
v 0.045235223 -0.021140125 -0.016354128
f 1 2 3
f 4 3 2
f 5 1 6
f 7 8 6
f 9 7 6
f 9 10 7
f 9 11 10
f 12 6 1
f 12 1 13
f 12 9 6
f 12 13 9
f 14 13 1
f 14 1 3
f 14 3 11
f 14 11 9
f 14 9 13
f 15 6 8
f 16 17 18
f 20 2 19
f 21 19 2
f 21 2 1
f 21 1 5
f 22 11 3
f 22 23 11
f 26 24 25
f 26 18 17
f 26 25 18
f 27 15 8
f 27 24 15
f 27 25 24
f 27 18 25
f 29 28 20
f 30 17 16
f 30 16 20
f 31 5 6
f 31 6 15
f 32 19 21
f 32 33 26
f 32 26 17
f 32 17 34
f 32 34 19
f 35 10 11
f 35 11 36
f 37 7 10
f 38 16 18
f 38 29 16
f 39 8 7
f 39 7 37
f 39 37 40
f 41 11 23
f 41 42 11
f 43 23 22
f 43 3 4
f 43 22 3
f 43 4 2
f 44 20 16
f 44 16 29
f 44 29 20
f 45 34 17
f 45 17 30
f 45 19 34
f 45 20 19
f 45 30 20
f 46 21 5
f 46 5 31
f 47 32 21
f 47 33 32
f 47 26 33
f 47 24 26
f 48 35 36
f 48 42 28
f 48 36 11
f 48 11 42
f 49 8 39
f 49 18 27
f 49 27 8
f 50 23 43
f 50 41 23
f 50 42 41
f 50 20 28
f 50 28 42
f 50 2 20
f 50 43 2
f 51 39 40
f 52 28 29
f 52 48 28
f 52 53 51
f 52 51 40
f 54 21 46
f 54 46 31
f 54 15 24
f 54 31 15
f 55 35 48
f 55 40 37
f 55 52 40
f 55 48 52
f 55 10 35
f 55 37 10
f 56 53 52
f 57 47 21
f 57 21 54
f 57 24 47
f 57 54 24
f 58 38 18
f 58 18 49
f 58 29 38
f 59 49 39
f 59 39 56
f 59 58 49
f 59 56 52
f 59 52 29
f 59 29 58
f 60 39 51
f 60 56 39
f 60 51 53
f 60 53 56
