v -0.034597158 0.038661236 -0.18345322
v -0.026293858 0.037891103 -0.1210203
v -0.031434125 0.038903023 -0.17922535
v -0.022966058 0.038750786 -0.16651228
v -0.039729317 -0.0068304136 -0.19613686
v -0.045234237 -0.0068304136 -0.1210203
v -0.045301761 -0.006342364 -0.1210203
v -0.045615098 -0.002111103 -0.1210203
v -0.018020275 0.038674673 -0.16221087
v -0.018020275 0.038235875 -0.15201251
v -0.030985735 0.031725548 -0.19613686
v -0.018020275 0.035956811 -0.16893873
v -0.018020275 0.031725553 -0.16930637
v -0.031412516 0.035956811 -0.19613686
v -0.035831275 0.038727147 -0.19613684
v -0.032687454 0.038661236 -0.19613686
v -0.037838522 0.038141847 -0.19613686
v -0.030969531 -0.0068304136 -0.19613686
v -0.018020275 0.023021246 -0.16676228
v -0.027882128 -0.0068304136 -0.1787327
v -0.018020275 0.02216156 -0.16226603
v -0.018020275 0.027494293 -0.16920342
v -0.037436251 -0.0068304136 -0.12102031
v -0.027663336 -0.0068304136 -0.17076958
v -0.036893122 -0.0058319263 -0.1210203
v -0.039810352 0.0021425457 -0.19613686
v -0.039810352 -0.002111103 -0.19613686
v -0.037843923 0.038146326 -0.19300455
v -0.018595618 0.038750786 -0.16668876
v -0.018020275 0.038732879 -0.16651228
v -0.018020275 0.03677172 -0.16858579
v -0.030969531 0.027494293 -0.19613686
v -0.018020275 0.02407794 -0.15758595
v -0.018020275 0.029831561 -0.15201251
v -0.026293858 0.030292744 -0.1210203
v -0.018020275 0.024046597 -0.15763006
v -0.027656586 -0.0068304136 -0.17475113
v -0.018020275 0.023267509 -0.16710787
v -0.039742821 -0.0063378866 -0.19613686
v -0.038567827 0.031725553 -0.19613686
v -0.045304465 0.0063514188 -0.1210203
v -0.038162658 0.035956811 -0.19613686
v -0.044718319 0.01058268 -0.1210203
v -0.039132368 0.02326303 -0.19613686
v -0.045612394 0.0021201577 -0.1210203
v -0.039375469 0.01904968 -0.19613686
v -0.039529434 0.014813941 -0.19613686
v -0.039734719 0.0063738062 -0.19613686
v -0.031180217 0.035150858 -0.1210203
v -0.033295206 0.033624024 -0.1210203
v -0.04073684 0.023267509 -0.1210203
v -0.041879423 0.020809348 -0.1210203
v -0.042627639 0.018695955 -0.1210203
v -0.043794531 0.014813941 -0.1210203
v -0.035728934 -0.002111103 -0.1210203
v -0.039634779 0.01058268 -0.19613686
v -0.027620118 0.03726873 -0.1210203
v -0.038751506 0.0269749 -0.1210203
v -0.037414442 0.029088291 -0.1210203
v -0.035299452 0.03151063 -0.1210203
f 1 2 3
f 4 3 2
f 20 18 19
f 38 19 18
f 7 5 6
f 7 8 5
f 23 25 6
f 23 24 25
f 36 25 24
f 9 4 2
f 9 2 10
f 15 16 17
f 15 1 3
f 15 3 16
f 27 8 26
f 21 36 24
f 21 24 37
f 21 37 20
f 21 20 19
f 29 9 30
f 29 4 9
f 29 3 4
f 29 16 3
f 29 30 16
f 39 5 8
f 39 8 27
f 28 50 49
f 28 2 1
f 28 15 17
f 28 1 15
f 42 40 41
f 42 41 43
f 42 43 17
f 45 40 44
f 45 41 40
f 45 44 46
f 45 46 47
f 45 48 26
f 45 26 8
f 33 55 25
f 33 25 36
f 33 35 55
f 33 34 35
f 31 14 16
f 31 16 30
f 32 13 18
f 32 11 13
f 22 38 18
f 22 18 13
f 52 51 28
f 52 28 53
f 58 28 51
f 58 59 28
f 54 53 28
f 54 17 43
f 54 28 17
f 60 50 28
f 60 28 59
f 57 2 28
f 57 28 49
f 56 45 47
f 56 48 45
f 12 11 14
f 12 14 31
f 12 13 11
f 35 34 10
f 35 10 2
f 37 6 5
f 37 5 18
f 37 24 23
f 37 18 20
f 37 23 6
f 57 8 7
f 57 25 55
f 57 6 25
f 57 45 8
f 57 7 6
f 57 35 2
f 57 50 60
f 57 51 52
f 57 58 51
f 57 43 41
f 57 49 50
f 57 54 43
f 57 55 35
f 57 41 45
f 57 52 53
f 57 59 58
f 57 53 54
f 57 60 59
f 56 18 5
f 56 17 16
f 56 42 17
f 56 26 48
f 56 16 14
f 56 47 46
f 56 46 44
f 56 27 26
f 56 5 39
f 56 44 40
f 56 14 11
f 56 39 27
f 56 32 18
f 56 40 42
f 56 11 32
f 12 19 38
f 12 30 9
f 12 21 19
f 12 10 34
f 12 34 33
f 12 9 10
f 12 36 21
f 12 31 30
f 12 33 36
f 12 38 22
f 12 22 13
