v -0.01296145 0.0024575636 -0.016430448
v -0.0091337862 0.0024575593 -0.016430451
v -0.013217292 -0.018852253 -0.016495971
v -0.0087085225 0.00067738917 0.0015953045
v -0.0087197368 -0.067669296 0.0015715784
v 0.0057613318 0.0012684752 0.00096249025
v 0.0057624686 -0.018852253 0.00095179469
v -0.0099200992 -0.063589448 -0.016495971
v 0.0057624686 -0.018852253 -0.0022887823
v -0.013638941 -0.063589448 -0.016495971
v -0.012685488 -0.069652757 -0.013462578
v -0.0079372238 0.0024575593 -0.011397817
v 0.0057624686 0.0012434855 -0.002354302
v -0.010767648 0.00077717113 -0.00043420799
v -0.01002266 -0.0010011378 0.00096064928
v -0.011299944 -0.061669517 -0.00041703901
v -0.011067279 -0.0013575957 -0.0015388456
v -0.0098954063 -0.018852253 -0.016495971
v 0.0049989473 -0.034698733 0.00086502586
v -0.013562967 -0.064669408 -0.013462578
v -0.008554498 -0.069652757 -0.013462578
v -0.013119159 -0.067183854 -0.011950419
v -0.012446175 -0.069652757 -0.011183549
v -0.011814952 -0.067750251 -0.0045074937
v -0.013395354 -0.064669408 -0.011721431
v -0.013213494 -0.00025292983 -0.016430451
v -0.013105235 -0.00025292983 -0.014649904
v -0.011006026 -0.054173321 0.000414355
v -0.011044488 -0.063172991 0.00049138548
v -0.01021829 -0.063172991 0.0011412715
v -0.0098743538 -0.06882853 0.00071970787
v -0.011725152 -0.0081152908 -0.0041629605
v -0.012628509 -0.06335916 -0.0063514578
v -0.012015034 -0.060166042 -0.0034150158
v -0.0064690601 -0.069652757 -0.011183549
v -0.0059315571 -0.068819844 -0.010613349
v -0.0055289036 -0.068819844 -0.0095384689
v -0.002645758 -0.068819844 -0.00041703901
v -0.003147174 -0.068819844 0.00044180252
v 0.0049989473 -0.036308085 0.00073398515
v 0.0049989473 -0.036541021 -0.0019417046
v -0.013110932 -0.064662351 -0.0093914912
v -0.011853591 -0.064978 -0.00284548
v -0.01262186 -0.033954056 -0.0077694319
v -0.012484161 -0.0032528222 -0.0085397332
v -0.012755762 -0.00025292983 -0.010903761
v -0.013118529 0.0012434855 -0.016430451
v -0.012341714 -0.00090672953 -0.0078820995
v -0.011002821 -0.066363904 6.2130688e-05
v -0.012296368 -0.022425653 -0.006431587
v -0.011694049 -0.063172991 -0.001915142
v -0.0072268826 -0.068819844 0.0014015806
v 0.0049989473 -0.037652745 0.00054539446
v 0.0049989473 -0.035037545 -0.0020815982
v 0.0049989473 -0.037903325 -0.0016406669
v -0.012921001 -0.00025292983 -0.012403635
v -0.012714531 0.0024422416 -0.011328779
v 0.0049989473 -0.038595062 -0.00098723914
v 0.0049989473 -0.038743291 -0.00037985112
v 0.0049989473 -0.038178606 -0.0014653569
f 3 1 2
f 6 5 7
f 6 4 5
f 19 7 5
f 9 8 2
f 18 2 8
f 18 3 2
f 12 2 1
f 15 4 14
f 16 14 17
f 13 9 2
f 13 2 12
f 13 12 6
f 13 6 7
f 13 7 9
f 40 19 39
f 40 7 19
f 52 19 5
f 52 39 19
f 35 38 39
f 35 52 23
f 35 39 52
f 26 3 10
f 50 33 32
f 34 32 33
f 34 17 32
f 28 14 16
f 28 16 29
f 28 15 14
f 28 29 15
f 30 4 15
f 30 15 29
f 30 5 4
f 49 43 24
f 53 39 38
f 53 40 39
f 53 7 40
f 21 8 35
f 47 26 27
f 47 1 3
f 47 3 26
f 48 46 45
f 48 17 14
f 48 32 17
f 48 45 50
f 48 50 32
f 44 50 45
f 44 33 50
f 22 11 23
f 22 23 24
f 51 16 17
f 51 17 34
f 51 29 16
f 51 33 43
f 51 34 33
f 51 43 49
f 51 49 29
f 31 49 24
f 31 52 5
f 31 5 30
f 31 24 23
f 31 23 52
f 31 30 29
f 31 29 49
f 37 38 35
f 37 35 36
f 41 35 8
f 41 36 35
f 56 25 46
f 57 48 14
f 57 46 48
f 57 12 1
f 57 56 46
f 57 14 4
f 57 1 47
f 57 4 6
f 57 6 12
f 57 47 27
f 57 27 56
f 20 10 11
f 20 11 22
f 20 22 25
f 20 26 10
f 20 27 26
f 20 56 27
f 20 25 56
f 42 22 24
f 42 25 22
f 42 24 43
f 42 43 33
f 42 33 44
f 42 44 45
f 42 45 46
f 42 46 25
f 54 8 9
f 54 41 8
f 54 9 41
f 55 41 9
f 55 36 41
f 59 9 7
f 59 58 9
f 59 7 53
f 59 53 38
f 59 38 58
f 60 9 58
f 60 55 9
f 60 58 38
f 60 38 37
f 60 37 36
f 60 36 55
f 18 10 3
f 18 8 10
f 21 10 8
f 21 11 10
f 21 23 11
f 21 35 23
