v -0.0012706799 -0.045609415 -0.075023554
v -0.0012665507 -0.037331955 0.022303921
v -0.0012701427 -0.028470306 -0.13764055
v -0.0012700411 -0.029066332 -0.16107982
v 0.02338959 -0.016026882 -0.15255473
v 0.034252068 -0.016117224 -0.044995989
v 0.023390058 -0.016068637 -0.1665209
v 0.02338959 -0.016421537 -0.16783979
v 0.034252075 -0.036224713 -0.060787948
v 0.023389615 -0.038870961 -0.16783956
v 0.034252068 -0.025782299 -0.060788045
v 0.017800393 -0.040799163 0.024034612
v 0.034248441 -0.033918305 0.022447885
v 0.034252068 -0.025290961 0.023843127
v -0.0012700411 -0.035960898 -0.16346459
v -0.0012700409 -0.038670997 -0.16164402
v 0.023374638 -0.016068771 -0.12877216
v 0.028239331 -0.040741546 -0.054892956
v 0.025244749 -0.042398742 -0.048236297
v 0.0099279773 -0.046438264 -0.047371369
v 0.0086292791 -0.046523058 -0.049878193
v -0.0012665624 -0.048161908 0.019599354
v -0.0012666089 -0.047335682 0.022656532
v -0.0012665624 -0.048347344 -0.0025959091
v -0.0012700365 -0.028491689 -0.15800879
v 0.034252068 -0.016218661 -0.046610869
v -0.0012700411 -0.042149366 -0.12465574
v -0.0012699808 -0.043720939 -0.10382674
v 0.01933867 -0.039143498 -0.16783979
v -0.0012700411 -0.032006427 -0.16295759
v 0.034252068 -0.018716555 0.02059457
v 0.034252058 -0.019635838 0.022547455
v 0.033266599 -0.037240599 -0.060078438
v 0.011231946 -0.047508064 0.0072478386
v 0.023999084 -0.042793794 0.0069841591
v 0.013009264 -0.04660786 0.021772316
v 0.026423521 -0.042126695 -0.0084330412
v 0.019303393 -0.044480512 -0.046116399
v 0.011617007 -0.047166039 -0.022938121
v -0.0012665632 -0.044425981 0.02384361
v 0.0024191686 -0.048386969 0.00057752467
v -0.0012700411 -0.039298818 -0.1580566
v -0.0012682054 -0.045554162 -0.077204646
v -0.0012665624 -0.047139607 -0.045944261
v 0.023054408 -0.042198813 0.022670764
v 0.004895325 -0.047936703 0.021971758
v 0.027435706 -0.041569411 -0.037214946
v 0.034243283 -0.035516025 0.0087141144
v 0.019335284 -0.04475266 -0.032213058
v 0.014844533 -0.045681757 -0.044522127
v -0.0012665162 -0.03966898 0.023070754
v -0.0012665624 -0.047947937 -0.02465972
v -0.0012700411 -0.040736774 -0.14171295
v 0.013700637 -0.03386796 -0.16783979
v 0.015607829 -0.038683855 -0.16783979
v 0.015056708 -0.025812413 -0.16783979
v 0.0040909626 -0.046368803 -0.060904459
v 0.034251393 -0.036687153 -0.018190766
v 0.0034770781 -0.047646398 -0.030091176
v 0.034251867 -0.036851102 -0.042256584
f 3 4 1
f 11 26 9
f 11 9 10
f 6 31 9
f 6 9 26
f 33 10 9
f 33 18 10
f 8 10 29
f 8 11 10
f 8 26 11
f 14 9 31
f 17 5 3
f 17 6 5
f 17 31 6
f 25 3 5
f 25 4 3
f 20 10 50
f 20 21 10
f 57 29 10
f 57 10 21
f 12 13 14
f 2 3 1
f 2 31 17
f 2 17 3
f 28 1 27
f 28 27 29
f 42 16 29
f 42 1 16
f 7 8 4
f 7 4 25
f 7 25 5
f 7 5 6
f 7 6 26
f 7 26 8
f 47 18 33
f 58 14 13
f 45 13 12
f 45 12 36
f 30 8 56
f 30 4 8
f 30 1 4
f 32 14 31
f 32 31 2
f 43 1 28
f 43 28 29
f 43 29 57
f 53 29 27
f 53 42 29
f 53 27 1
f 53 1 42
f 48 58 13
f 48 37 58
f 48 13 45
f 60 9 14
f 60 14 58
f 60 33 9
f 60 47 33
f 60 37 47
f 60 58 37
f 35 45 36
f 35 37 48
f 35 48 45
f 39 20 50
f 39 21 20
f 34 49 37
f 34 35 36
f 34 37 35
f 34 39 49
f 34 41 39
f 19 47 37
f 19 37 49
f 19 18 47
f 19 10 18
f 38 50 10
f 38 39 50
f 38 49 39
f 38 10 19
f 38 19 49
f 55 29 16
f 15 56 54
f 15 30 56
f 15 54 55
f 15 55 16
f 15 16 1
f 15 1 30
f 40 12 14
f 40 2 1
f 59 39 41
f 59 41 52
f 59 21 39
f 59 57 21
f 44 43 57
f 44 57 59
f 44 59 52
f 44 1 43
f 44 52 1
f 46 34 36
f 46 41 34
f 46 36 12
f 22 41 46
f 51 40 14
f 51 2 40
f 51 14 32
f 51 32 2
f 24 52 41
f 24 41 22
f 24 1 52
f 24 22 1
f 23 22 46
f 23 12 40
f 23 46 12
f 23 40 1
f 23 1 22
f 55 56 8
f 55 8 29
f 55 54 56
