v -0.033340469 -0.026010984 -0.023301218
v 0.033357985 -0.026009019 -0.02377292
v -0.031292739 -0.026011015 -0.086891177
v -0.032127226 -0.02601098 -0.018490244
v 0.032741306 -0.026086456 -0.018491315
v 0.02927745 -0.03815395 -0.079270925
v 0.030779477 -0.035260777 -0.083934327
v 0.027603649 -0.039960427 -0.090720299
v 0.020948825 -0.037198217 -0.10487621
v 0.028433956 -0.036951622 -0.095374137
v 0.03013932 -0.02601288 -0.092831507
v 0.031392122 -0.026012584 -0.083530219
v -0.030623996 -0.035995099 -0.087579519
v 0.0022282846 -0.040534923 -0.018384421
v -0.01165004 -0.040338269 -0.018731392
v 0.028830734 -0.030308736 -0.018547595
v 0.017135993 -0.038192221 -0.019041228
v 0.025119904 -0.0338948 -0.020874971
v 0.02761093 -0.040323166 -0.083980507
v 0.025270177 -0.026012325 -0.10107763
v -0.016318 -0.0385699 -0.018895232
v -0.029274118 -0.038149154 -0.079270925
v -0.027983132 -0.040260244 -0.086187035
v -0.028823771 -0.034568435 -0.049748163
v -0.029396509 -0.026012405 -0.093705193
v -0.0043733687 -0.042065891 -0.022437812
v -0.0010348539 -0.042314934 -0.021806643
v 0.012947496 -0.040094138 -0.020819291
v 0.021675615 -0.041248055 -0.094240141
v 0.0062050505 -0.026012584 -0.11249168
v 0.0136874 -0.02601258 -0.10995601
v -0.002529865 -0.026012545 -0.11332105
v 0.0087930932 -0.037747112 -0.11255209
v -0.031195547 -0.027898017 -0.018826506
v -0.025097359 -0.033776258 -0.019674559
v -0.021337577 -0.036562161 -0.023324756
v 0.016157424 -0.03726372 -0.10911312
v -0.026851968 -0.037916985 -0.097725436
v -0.020588576 -0.038919257 -0.10514561
v -0.020806903 -0.041268506 -0.094114773
v 0.001567437 -0.042335405 -0.023406288
v -0.01181617 -0.026012586 -0.11123433
v -0.0025661343 -0.038766912 -0.11288165
v -0.0077684416 -0.041578844 -0.023324756
v -0.023302133 -0.041090603 -0.077721249
v -0.023302133 -0.041206471 -0.082379563
v 0.0044342531 -0.042040785 -0.022502857
v 0.0093251444 -0.041189686 -0.023324756
v -0.0046421235 -0.041305555 -0.10414929
v 0.0076282244 -0.041274497 -0.10547369
v -0.027276929 -0.039542764 -0.076171567
v -0.024724966 -0.026012584 -0.10249754
v -0.011850479 -0.040518321 -0.10743599
v -0.01603132 -0.036789102 -0.10913239
v 0.023298939 -0.041093 -0.077721249
v 0.013369842 -0.040257912 -0.10717045
v -0.026910591 -0.040397287 -0.081989998
v -0.027133341 -0.026012584 -0.098869245
v -0.013582969 -0.041293768 -0.099089638
f 3 1 2
f 4 2 1
f 4 5 2
f 6 2 5
f 6 7 2
f 6 8 7
f 10 8 9
f 10 7 8
f 10 11 7
f 12 11 2
f 12 2 7
f 12 7 11
f 13 1 3
f 42 3 32
f 14 5 4
f 14 4 15
f 16 17 18
f 16 6 5
f 16 5 14
f 16 14 17
f 19 18 17
f 19 16 18
f 19 6 16
f 19 8 6
f 20 11 10
f 20 10 9
f 20 2 11
f 22 1 13
f 22 13 23
f 21 15 4
f 56 9 8
f 27 15 26
f 27 14 15
f 28 17 14
f 28 19 17
f 55 28 48
f 55 19 28
f 29 8 19
f 29 56 8
f 29 50 56
f 29 19 55
f 29 41 50
f 29 55 41
f 30 20 31
f 30 32 3
f 30 3 2
f 30 2 20
f 24 22 23
f 36 21 35
f 34 21 4
f 34 35 21
f 34 4 1
f 34 24 35
f 34 1 22
f 34 22 24
f 38 23 13
f 38 39 23
f 44 26 15
f 44 15 45
f 44 45 26
f 33 30 31
f 33 32 30
f 46 26 45
f 46 27 26
f 47 14 27
f 47 28 14
f 47 27 41
f 47 48 28
f 47 41 55
f 47 55 48
f 51 36 35
f 51 24 23
f 51 35 24
f 37 9 56
f 37 56 33
f 37 33 31
f 37 20 9
f 37 31 20
f 54 53 39
f 43 50 53
f 43 56 50
f 43 33 56
f 43 53 54
f 43 32 33
f 43 42 32
f 43 54 42
f 40 46 23
f 40 41 27
f 40 27 46
f 40 23 39
f 40 39 53
f 57 21 36
f 57 36 51
f 57 51 23
f 57 15 21
f 57 45 15
f 57 23 46
f 57 46 45
f 25 38 13
f 25 58 38
f 25 13 3
f 25 3 58
f 52 3 42
f 52 58 3
f 52 42 54
f 52 54 39
f 52 39 38
f 52 38 58
f 49 53 50
f 49 50 41
f 59 40 53
f 59 53 49
f 59 41 40
f 59 49 41
