v -0.03108967 0.022897882 -0.043290909
v 0.021879591 0.018376795 -0.16769926
v 0.021766153 0.018379006 -0.12861408
v 0.027085325 0.030557597 -0.20397597
v 0.033508709 0.018379003 -0.1677821
v -0.031003231 0.037088644 -0.10047404
v -0.018011246 0.038735497 -0.1664877
v -0.026283296 0.035660275 -0.15198424
v -0.014546199 0.046176959 0.021967318
v -0.014960969 0.046304256 -0.02277707
v -0.025130055 0.042401958 -0.012823548
v 0.046679461 0.018379003 -0.019383765
v 0.04559976 0.018379003 -0.056329586
v 0.042395937 0.02631845 -0.11676816
v 0.038437666 0.030806391 -0.20044103
v -0.018091304 0.023095613 -0.16690348
v -0.031081043 0.025908339 -0.12096808
v -0.031081018 0.035266844 -0.12095356
v -0.021644212 0.042888365 -0.063062113
v -0.031087827 0.038786242 -0.034301958
v 0.022112958 0.039168261 -0.20537339
v 0.032025896 0.039247114 -0.20397353
v 0.035235091 0.038637643 -0.203974
v 0.035682761 0.038678666 -0.19450651
v 0.016921046 0.045550399 -0.042288417
v 0.03122771 0.039050082 -0.018438684
v 0.027113316 0.041539813 -0.0074546647
v 0.023563632 0.043348353 -0.018438684
v 0.03329921 0.037377306 -0.01526439
v 0.032276692 0.036186838 0.022659919
v 0.038237294 0.03282084 -0.037611281
v -0.0044096817 0.048414891 0.015466898
v 0.0034582508 0.048536704 -0.0077189472
v -0.006174645 0.046693437 -0.052948292
v 0.044422095 0.01838313 0.02274307
v 0.034800466 0.018378019 0.023618421
v -0.031076093 0.023451739 0.020272199
v 0.042904515 0.024795528 0.0032872698
v 0.042048477 0.027775209 -0.072921609
v 0.043521728 0.018385476 -0.084437218
v -0.018119615 0.036024135 -0.1689723
v -0.026283296 0.027592936 -0.15198424
v -0.018010955 0.022156892 -0.16229302
v -0.014505856 0.044212709 -0.073441154
v -0.0079048045 0.04519757 -0.075919622
v -0.0013348519 0.047071423 -0.048450393
v 0.037931184 0.035774938 -0.19623624
v 0.037622278 0.030573953 -0.20401
v 0.010633179 0.047213762 -0.020581925
v 0.0098835982 0.047256443 0.02228633
v -0.031087822 0.037103812 0.022372914
v 0.036553125 0.023306526 0.023936518
v 0.037178033 0.031900644 0.018139456
v 0.016129616 0.032986075 -0.20397457
v -0.018010955 0.027510617 -0.16918785
v 0.016949103 0.045921953 0.0055389562
v -0.017474022 0.040676022 0.023966263
v 0.01544223 0.037913196 -0.20403362
v 0.023287914 0.041206838 0.023959577
v -0.031088536 0.027833952 0.023576154
f 3 1 2
f 4 5 2
f 6 7 8
f 9 10 11
f 13 12 2
f 13 2 5
f 13 14 12
f 13 15 14
f 16 4 2
f 18 8 17
f 18 6 8
f 18 17 1
f 19 7 6
f 19 11 10
f 20 6 18
f 20 11 19
f 20 19 6
f 20 18 1
f 23 21 22
f 25 24 23
f 27 26 24
f 27 24 28
f 29 26 27
f 29 27 30
f 29 24 26
f 29 31 24
f 32 10 9
f 32 33 34
f 32 34 10
f 36 12 35
f 36 2 12
f 36 3 2
f 36 37 1
f 36 1 3
f 38 35 12
f 38 12 39
f 38 39 31
f 40 5 15
f 40 15 13
f 40 13 5
f 41 8 7
f 42 17 8
f 42 16 17
f 42 8 41
f 43 1 17
f 43 17 16
f 43 2 1
f 43 16 2
f 44 10 34
f 44 7 19
f 44 19 10
f 45 21 7
f 45 34 21
f 45 7 44
f 45 44 34
f 46 22 21
f 46 21 34
f 46 33 22
f 46 34 33
f 47 15 23
f 47 23 24
f 47 14 15
f 47 24 31
f 47 31 39
f 47 12 14
f 47 39 12
f 48 23 15
f 48 15 5
f 48 5 4
f 48 4 21
f 48 21 23
f 49 23 22
f 49 25 23
f 49 22 33
f 50 49 33
f 50 33 32
f 50 32 9
f 51 9 11
f 51 11 20
f 51 20 1
f 52 35 30
f 52 36 35
f 53 31 29
f 53 38 31
f 53 29 30
f 53 30 35
f 53 35 38
f 54 21 4
f 54 4 16
f 55 16 42
f 55 42 41
f 55 54 16
f 56 27 28
f 56 28 24
f 56 24 25
f 56 25 49
f 56 49 50
f 57 50 9
f 57 9 51
f 58 21 54
f 58 7 21
f 58 41 7
f 58 55 41
f 58 54 55
f 59 56 50
f 59 52 30
f 59 30 27
f 59 27 56
f 59 50 57
f 59 57 52
f 60 36 52
f 60 52 57
f 60 37 36
f 60 57 51
f 60 1 37
f 60 51 1
