v -0.014930019 0.0063180276 0.028320857
v 5.3589474e-05 0.0063179869 0.020557813
v -0.01384329 0.0063179869 0.019595603
v -0.00035251112 0.0063122149 0.019595603
v -0.014628553 0.0032685636 0.029556414
v -0.014102783 0.0051196901 0.030792327
v -0.014526112 -0.0013292387 0.029103985
v -0.013913661 -0.00079675835 0.030600856
v -0.012651375 -0.0022270972 0.030635445
v -0.013904131 -0.0021572527 0.029983208
v -0.0070932272 -0.0051808464 0.025730471
v -0.0016111325 -0.0054063928 0.025206319
v -0.0039091978 -0.0054756591 0.026738085
v -0.0054461755 -0.0042975953 0.019595609
v -0.0010826141 0.00066128529 0.019595603
v -0.00056948952 0.0017152779 0.019595603
v 5.3589924e-05 -0.0046485111 0.024008699
v 5.3589924e-05 0.0017152779 0.021653607
v 5.3589924e-05 0.0063179869 0.028321733
v -0.0060775152 0.0051196901 0.032215389
v -0.0007190289 0.0051196901 0.032215389
v 5.3589924e-05 -0.0053602161 0.02642926
v -0.0045352093 -0.0020677854 0.032215389
v -0.003594359 -0.004560197 0.028845888
v -0.01298857 -0.002769678 0.019595603
v -0.013888738 -0.0021532129 0.02125584
v -0.013704013 -0.0013474212 0.019595603
v -0.013139576 -0.0013243315 0.030681152
v -0.013102923 -0.0043143029 0.026738085
v -0.010401872 -0.0045482207 0.02824314
v -0.013356554 -0.0037379549 0.028546869
v -0.00041262025 0.0032472056 0.019595603
v -0.010016983 -0.004950791 0.026937893
v -0.0084036973 -0.0040495353 0.019595606
v -0.0030544787 -0.0033445843 0.019595603
v 5.3589924e-05 -0.0052216838 0.024370022
v -0.0007190289 0.00058740115 0.032215389
v 5.3589924e-05 -0.0044678431 0.027226027
v 5.3589924e-05 1.4805203e-05 0.028321733
v -0.0049632106 -0.0051742084 0.028030668
v -0.0093684768 -0.0037947382 0.029642267
v -0.013796375 0.00018450656 0.019595603
v -0.014780842 0.00018450656 0.027503967
v -0.014290441 -0.00294111 0.025927114
v -0.013895335 -0.0036689782 0.025056848
v -0.012567945 -0.003879625 0.022602508
v -0.012173435 -0.0033624778 0.019595603
v -0.0081388105 -0.0026115215 0.031098682
v -0.012858823 -0.0033059114 0.0294965
v -0.011570881 -0.0046456237 0.025206319
v -0.010547564 -0.0037777821 0.019595603
v 5.3589924e-05 -0.0053919635 0.025555907
v -0.0037669885 -0.0039760568 0.019595603
v -0.0030969946 -0.0013139419 0.032215389
v -0.0051524252 -0.001621021 0.032215389
v -0.0058282834 -0.00012228295 0.032215389
v -0.013412998 0.0051196901 0.030956005
v -0.014337813 -0.0013474212 0.024129912
v -0.014067415 -0.0035793661 0.027386772
v -0.0033623532 -0.0036701332 0.019595603
f 2 1 19
f 2 3 1
f 20 19 1
f 4 3 2
f 24 22 23
f 18 2 19
f 32 4 2
f 32 18 16
f 32 2 18
f 6 1 5
f 25 47 45
f 54 23 22
f 21 19 20
f 52 22 13
f 8 6 5
f 11 13 33
f 38 37 54
f 38 54 22
f 38 39 37
f 40 24 23
f 40 23 41
f 40 13 22
f 40 22 24
f 40 33 13
f 57 56 20
f 57 20 1
f 57 1 6
f 57 6 8
f 57 8 56
f 7 8 5
f 7 5 1
f 55 56 8
f 55 9 23
f 50 33 29
f 50 11 33
f 14 53 36
f 42 1 3
f 26 44 58
f 26 42 27
f 26 58 42
f 26 45 44
f 26 27 25
f 26 25 45
f 30 40 41
f 30 33 40
f 30 31 29
f 30 29 33
f 59 7 44
f 59 44 45
f 59 45 29
f 59 29 31
f 10 8 7
f 10 9 8
f 10 59 31
f 10 7 59
f 43 7 1
f 43 1 42
f 43 42 58
f 43 58 44
f 43 44 7
f 48 41 23
f 48 23 9
f 28 8 9
f 28 55 8
f 28 9 55
f 46 50 29
f 46 45 47
f 46 29 45
f 51 46 47
f 51 50 46
f 12 13 11
f 12 11 14
f 12 14 36
f 12 36 52
f 12 52 13
f 17 36 35
f 17 16 18
f 60 36 53
f 60 35 36
f 49 10 31
f 49 9 10
f 49 31 30
f 49 30 41
f 49 41 48
f 49 48 9
f 34 51 53
f 34 53 14
f 34 50 51
f 34 11 50
f 34 14 11
f 15 16 17
f 15 17 35
f 21 39 19
f 21 37 39
f 55 23 54
f 55 21 20
f 55 54 37
f 55 37 21
f 55 20 56
f 17 19 39
f 17 18 19
f 17 22 52
f 17 38 22
f 17 39 38
f 17 52 36
f 15 32 16
f 15 3 4
f 15 42 3
f 15 4 32
f 15 47 25
f 15 60 53
f 15 25 27
f 15 27 42
f 15 51 47
f 15 53 51
f 15 35 60
