v 0.012137455 -0.0032334228 -0.0091297517
v 0.010370027 -0.0057055885 -0.0073232418
v 0.010553575 -0.00066145438 -0.0095321498
v 0.018926614 -0.0038011224 -0.010473933
v 0.010252567 0.0066523084 -0.0067596064
v 0.011589581 0.0016199127 -0.0095166316
v 0.018926614 0.00083440857 -0.011000473
v 0.009710974 0.0033024646 -0.0057757231
v 0.022251441 0.01303614 0.0016408125
v 0.022251441 0.011486268 0.0063604257
v 0.02229011 0.0099188775 -0.0085962705
v 0.022251441 0.011808717 -0.0050751383
v 0.021721733 0.012892895 -0.00083564616
v 0.010244992 -0.0083391997 0.0028640592
v 0.010102711 -0.0064910924 0.005231357
v 0.0096721708 -0.0065744571 0.00039830279
v 0.010558503 -0.0078660179 0.0054015196
v 0.018926614 -0.010949326 -0.00088273546
v 0.018926614 -0.010136818 -0.0035914303
v 0.018926614 -0.0085634617 -0.0065419918
v 0.018926614 -0.0060343493 -0.0089413958
v 0.011842115 -0.0077673902 -0.0057853541
v 0.018926614 -0.0017269924 -0.010830846
v 0.011842115 -0.0060343493 -0.0076143389
v 0.011794072 0.0045799362 -0.0083966603
v 0.018926614 0.00337761 -0.010587374
v 0.010225744 -0.0020463603 -0.0081711141
v 0.010507995 -0.0054707592 0.0079058049
v 0.018926632 -0.0065904463 0.0090170692
v 0.018924794 -0.0086254918 0.0068755688
v 0.018922189 -0.0099854425 0.0042595886
v 0.011816246 0.0088726167 0.0039289164
v 0.010974876 0.0093728038 0.0024070801
v 0.010388346 0.0073006897 0.005715392
v 0.022252154 0.0096876003 0.0089718575
v 0.010452563 0.0048265068 0.007993561
v 0.018926614 0.00083440857 0.010865998
v 0.018926614 -0.0016359961 0.010739714
v 0.018926614 -0.0041064006 0.0099927096
v 0.018926614 -0.010834261 0.001619408
v 0.021289346 0.012301125 0.0037063132
v 0.010555423 0.0095219194 -3.6201473e-05
v 0.010584373 0.009497263 -0.0021198956
v 0.020929022 0.012281164 -0.0031141177
v 0.010236676 -0.0078666054 -0.0036781167
v 0.011842115 -0.0096107997 -0.0008335055
v 0.0097430039 -0.0053404288 -0.0045407041
v 0.0096755582 -0.00064619051 0.0065723278
v 0.011842115 0.0033024646 0.009038085
v 0.011842115 -0.0041064006 0.0087919369
v 0.011842115 -0.0095215649 0.0016301112
v 0.010141823 0.0081693028 0.0010077852
v 0.021116885 0.011697613 -0.0050640348
v 0.011842115 -0.0090730416 -0.003305685
v 0.010200644 0.0013281372 0.00840693
v 0.010076225 -0.0041064006 0.0073760526
v 0.0098600318 0.0051364817 0.0053303515
v 0.0097085109 0.0057728694 -0.003305685
v 0.01175804 -0.00064619051 0.0094779392
f 1 2 3
f 1 3 4
f 6 3 5
f 6 7 3
f 8 5 3
f 9 10 11
f 12 9 11
f 12 13 9
f 14 15 16
f 14 17 15
f 19 11 18
f 19 20 11
f 21 4 11
f 21 11 20
f 22 20 19
f 23 4 3
f 23 3 7
f 23 11 4
f 23 7 11
f 24 2 1
f 24 1 4
f 24 4 21
f 24 22 2
f 24 21 20
f 24 20 22
f 25 5 11
f 25 6 5
f 26 11 7
f 26 7 6
f 26 25 11
f 26 6 25
f 27 3 2
f 27 8 3
f 28 15 17
f 28 17 29
f 30 29 17
f 30 17 31
f 32 10 33
f 32 33 34
f 32 34 10
f 35 10 34
f 35 34 36
f 35 37 38
f 35 38 39
f 35 39 29
f 35 29 30
f 35 30 31
f 35 31 40
f 35 11 10
f 35 18 11
f 35 40 18
f 41 33 10
f 41 9 33
f 41 10 9
f 42 34 33
f 42 33 9
f 42 9 13
f 42 13 43
f 44 13 12
f 44 43 13
f 45 2 22
f 45 46 14
f 45 14 16
f 47 16 8
f 47 8 27
f 47 27 2
f 47 45 16
f 47 2 45
f 48 16 15
f 59 38 37
f 50 29 39
f 50 28 29
f 50 39 38
f 50 38 59
f 50 59 28
f 51 31 17
f 51 40 31
f 51 17 14
f 51 14 46
f 51 46 18
f 51 18 40
f 52 34 42
f 52 42 43
f 53 44 12
f 53 43 44
f 53 12 11
f 53 11 5
f 53 5 43
f 54 46 45
f 54 45 22
f 54 22 19
f 54 18 46
f 54 19 18
f 55 28 59
f 56 15 28
f 56 48 15
f 56 28 55
f 56 55 48
f 49 59 37
f 49 37 35
f 49 35 36
f 49 36 55
f 49 55 59
f 57 34 52
f 57 36 34
f 57 55 36
f 57 48 55
f 58 43 5
f 58 52 43
f 58 5 8
f 58 57 52
f 58 48 57
f 58 8 16
f 58 16 48
