v 0.010427217 -0.030293716 0.042070934
v 0.021068492 -0.030293655 0.050804627
v 0.013593833 -0.030293655 0.038000286
v 0.014640313 -0.037735286 0.051204677
v 0.013854436 -0.034654554 0.05051121
v 0.013637268 -0.036203595 0.050719727
v 0.010746302 -0.030293844 0.039760259
v 0.024292764 -0.059952635 0.044077799
v 0.024283261 -0.060717614 0.048195126
v 0.024096127 -0.062493463 0.044340309
v 0.010639949 -0.030293785 0.043041885
v 0.013105205 -0.036968574 0.049727409
v 0.018852361 -0.032866135 0.051122496
v 0.018374164 -0.037831124 0.05133432
v 0.01617135 -0.052288969 0.051335763
v 0.022298209 -0.061482594 0.05131267
v 0.022298209 -0.03744842 0.051260456
v 0.024059986 -0.045395483 0.049726731
v 0.024038779 -0.030565994 0.048510276
v 0.013613853 -0.048459738 0.050753005
v 0.02345531 -0.055357126 0.039367863
v 0.021333962 -0.062858482 0.037659486
v 0.021674539 -0.030294083 0.037842994
v 0.023431452 -0.030293661 0.050857978
v 0.024024698 -0.030293655 0.041793637
v 0.023348083 -0.063099285 0.050728553
v 0.02407288 -0.031605046 0.047143043
v 0.024185876 -0.046163067 0.042064639
v 0.010567347 -0.030293836 0.04049047
v 0.016173019 -0.063015828 0.051157915
v 0.024020625 -0.06224931 0.049726053
v 0.01151309 -0.063192094 0.040209737
v 0.011727544 -0.061486066 0.03943884
v 0.01617135 -0.063019494 0.037652536
v 0.013219897 -0.051523994 0.049726053
v 0.013796072 -0.062672566 0.050580486
v 0.023656527 -0.062252782 0.039985259
v 0.022008257 -0.064571353 0.040279099
v 0.022203487 -0.030293975 0.038296848
v 0.023355547 -0.030293655 0.039467368
v 0.023855325 -0.030293672 0.040533163
v 0.014638956 -0.030293655 0.037625367
v 0.014638956 -0.059952635 0.037801961
v 0.016178137 -0.030293655 0.037460999
v 0.020678074 -0.030293655 0.037602813
v 0.014640313 -0.052288969 0.051163247
v 0.010732642 -0.06195182 0.041529427
v 0.014512727 -0.06311663 0.050811418
v 0.013916871 -0.063692537 0.050403895
v 0.015906213 -0.064785111 0.038477442
v 0.016931905 -0.065643039 0.044356971
v 0.012247391 -0.064755875 0.042064639
v 0.013699703 -0.059952635 0.038092659
v 0.010755715 -0.06071935 0.042903455
v 0.024087131 -0.059952635 0.040533716
v 0.016045672 -0.06503168 0.049601037
v 0.022797379 -0.064645995 0.046062206
v 0.018210694 -0.030293655 0.037462359
v 0.010905019 -0.062759298 0.042461973
v 0.021121046 -0.064394851 0.05028962
f 19 25 24
f 27 25 19
f 16 26 24
f 31 24 26
f 3 7 1
f 57 31 26
f 58 34 44
f 58 22 34
f 53 7 3
f 13 5 4
f 6 4 5
f 46 15 4
f 18 19 24
f 18 24 31
f 28 8 55
f 28 27 8
f 28 25 27
f 10 31 57
f 10 55 8
f 41 25 28
f 41 28 55
f 21 22 23
f 45 23 22
f 45 22 58
f 29 1 7
f 42 53 3
f 42 44 34
f 2 13 24
f 2 5 13
f 2 3 1
f 2 24 25
f 17 16 24
f 17 24 13
f 20 12 35
f 20 6 12
f 20 4 6
f 20 46 4
f 11 12 6
f 11 6 5
f 11 2 1
f 11 5 2
f 9 18 31
f 9 10 8
f 9 31 10
f 9 19 18
f 9 8 27
f 9 27 19
f 37 22 21
f 37 21 55
f 37 38 22
f 37 55 10
f 37 57 38
f 37 10 57
f 40 41 55
f 40 55 21
f 40 25 41
f 43 34 53
f 43 42 34
f 43 53 42
f 14 13 4
f 14 17 13
f 14 4 15
f 14 15 16
f 14 16 17
f 30 26 16
f 30 16 15
f 30 15 46
f 47 1 29
f 47 29 7
f 56 30 49
f 39 45 40
f 39 23 45
f 39 21 23
f 39 40 21
f 48 30 46
f 48 49 30
f 33 53 34
f 33 7 53
f 33 47 7
f 54 35 12
f 54 12 11
f 54 11 1
f 54 1 47
f 60 26 30
f 60 30 56
f 60 57 26
f 51 38 57
f 51 57 60
f 51 60 56
f 36 49 48
f 36 20 35
f 36 46 20
f 36 48 46
f 36 35 54
f 50 38 51
f 50 34 22
f 50 22 38
f 59 54 47
f 59 49 36
f 59 36 54
f 52 50 51
f 52 51 56
f 52 56 49
f 52 49 59
f 32 50 52
f 32 33 34
f 32 34 50
f 32 47 33
f 32 59 47
f 32 52 59
f 40 2 25
f 40 44 42
f 40 58 44
f 40 45 58
f 40 42 3
f 40 3 2
