v 0.0064543163 0.01953038 -0.035586857
v 0.0036664531 0.019994226 -0.03477248
v 0.0080504532 0.016692578 -0.034772602
v 0.0080490928 -0.017388137 -0.034772499
v 0.0025007852 -0.0085627907 -0.05589034
v 0.0032018758 -0.014776794 -0.05492291
v -0.00066118061 -0.0067191394 -0.058109607
v 0.0069818496 -0.014291417 -0.051046332
v 0.0063361923 0.014345844 -0.052129127
v 0.0072229082 0.01435488 -0.050552336
v 0.008036389 -0.0095081024 -0.045672352
v 0.0079337062 0.014345844 -0.047576373
v 0.0072213325 0.017871436 -0.043758049
v 0.0069347917 -0.019412588 -0.03477248
v 0.0019538514 -0.0199672 -0.03477248
v 0.0045356105 -0.019971399 -0.034772549
v 0.0061424423 -0.018938464 -0.041995087
v 0.0070140532 -0.017616642 -0.047576373
v 0.0017595729 0.019962913 -0.03477248
v -0.00273522 0.018132689 -0.052471476
v -0.0010490103 0.016256039 -0.03477248
v -0.0027352171 0.015300942 -0.044152105
v -0.0027352171 -0.0049970777 -0.044034029
v -0.0027352171 0.017727827 -0.044933359
v 0.0063361923 -0.0047247867 -0.052129127
v 0.0050168982 -0.0076116076 -0.05367336
v 0.0059703372 -0.014291417 -0.052606557
v 0.0050179531 0.014345844 -0.05367336
v -0.0027352171 -0.012741342 -0.058109607
v -0.0027352171 -0.017863247 -0.053567135
v 0.0065346945 0.017523305 -0.049323348
v 0.007843177 -0.016170229 -0.048510666
v 0.0078388106 0.016256039 -0.045070992
v 0.00025603073 0.019528423 -0.03477248
v -0.0027352171 0.01844415 -0.047595795
v -0.0010500672 -0.012381222 -0.03477248
v -0.0010500672 -0.01620161 -0.03477248
v -0.0027352171 -0.016270112 -0.044236626
v -0.0027352171 -0.017959147 -0.045473039
v -0.00057492953 0.01831498 -0.03477248
v 0.00011665762 3.6021018e-05 -0.058109607
v 0.0025971332 -0.017526613 -0.053036022
v 0.0036653979 -0.01804135 -0.050440973
v 0.0044369669 -0.01611941 -0.053609969
v -0.0022405465 -0.011510283 -0.058109607
v 0.0056298224 0.015990843 -0.052452934
v 0.0041171736 0.017199884 -0.052817293
v 0.0060706433 0.019202064 -0.040082498
v 0.0050989889 0.018149598 -0.04853124
v -0.00069846554 -0.018111808 -0.03477248
v 0.00039382029 -0.019558152 -0.03477248
v -0.0027352171 -0.018448438 -0.048595778
v -0.00098988245 0.016647472 -0.03477248
v -0.0027336086 0.012885779 -0.058119944
v 0.0054693322 -0.017797682 -0.049848751
v -0.0027348564 -0.016551899 -0.055755086
v -0.0027352171 -0.018188136 -0.051740782
v 0.0027235727 0.015312685 -0.055219881
v -7.150157e-05 0.0034203079 -0.058109613
v -0.00040348533 0.016885268 -0.054731596
f 1 2 3
f 4 3 2
f 7 5 6
f 10 8 9
f 11 3 4
f 11 12 3
f 13 1 3
f 14 15 16
f 14 4 2
f 19 2 20
f 23 21 22
f 23 22 20
f 24 22 21
f 24 20 22
f 25 9 8
f 27 5 26
f 27 6 5
f 27 25 8
f 27 26 28
f 27 9 25
f 27 28 9
f 29 30 20
f 31 12 10
f 32 11 4
f 32 4 14
f 32 14 18
f 32 27 8
f 32 12 11
f 32 8 10
f 32 10 12
f 33 3 12
f 33 13 3
f 33 12 31
f 33 31 13
f 17 14 16
f 17 18 14
f 57 20 30
f 57 16 15
f 35 34 19
f 35 19 20
f 35 20 24
f 36 23 37
f 36 21 23
f 38 39 37
f 38 37 23
f 38 20 39
f 38 23 20
f 40 34 35
f 40 35 24
f 41 26 5
f 41 28 26
f 41 5 7
f 44 6 27
f 44 27 32
f 45 7 6
f 45 6 29
f 46 10 9
f 46 31 10
f 46 47 31
f 46 9 28
f 48 1 13
f 48 13 31
f 48 2 1
f 48 20 2
f 49 47 20
f 49 31 47
f 49 20 48
f 49 48 31
f 50 37 39
f 50 39 51
f 52 15 51
f 52 57 15
f 52 51 39
f 52 39 20
f 52 20 57
f 43 17 16
f 43 16 57
f 43 30 42
f 43 57 30
f 53 24 21
f 53 40 24
f 54 29 20
f 54 41 7
f 54 45 29
f 54 7 45
f 56 44 42
f 56 42 30
f 56 30 29
f 56 29 6
f 56 6 44
f 55 18 17
f 55 17 43
f 55 43 42
f 55 42 44
f 55 32 18
f 55 44 32
f 58 47 46
f 58 46 28
f 59 41 54
f 59 54 58
f 59 28 41
f 59 58 28
f 60 54 20
f 60 58 54
f 60 20 47
f 60 47 58
f 53 37 50
f 53 14 2
f 53 2 19
f 53 36 37
f 53 15 14
f 53 19 34
f 53 51 15
f 53 21 36
f 53 34 40
f 53 50 51
