v -0.00010261849 -0.048589289 -0.02549798
v -0.00010266813 -0.056883759 -0.025495207
v -0.0024489496 0.002676734 0.053145178
v 0.024372299 0.043016882 -0.026919222
v 0.0052846288 0.056807392 0.021226019
v -0.00010429654 -0.054868056 -0.0062995038
v 0.00030078272 -0.0067349253 0.054697587
v -0.0018382169 -0.0055135828 0.052452216
v 0.019747149 -0.021282425 0.024672089
v 0.025371019 -0.012091765 0.01334346
v 0.022103399 -0.0079513924 0.032527172
v 0.013467794 -0.045261711 -0.025502157
v 0.0072814847 -0.052240321 -0.019240171
v -0.0023406003 -0.001036794 0.053724075
v 0.0068534651 0.057825746 0.021148799
v 0.011581552 0.057299134 0.046973346
v 0.021885062 0.05093799 0.038315408
v 0.011803799 0.058392044 0.021171148
v -0.0023795484 0.03663988 0.05109558
v 0.021890494 0.050934716 0.025949315
v 0.031323582 0.043029431 -0.013779098
v 0.029317065 0.043017191 -0.026917509
v 0.028477645 -0.0062545721 -0.016419431
v 0.031088904 0.01340149 -0.0044765698
v 0.029659502 0.043037453 0.014700872
v 0.03136992 0.043111175 0.00088248299
v 0.032022067 0.030534752 -0.0077246244
v 0.026412685 0.042633866 0.029691736
v 0.0075964424 -0.043040593 0.0091633288
v 0.0085487179 -0.017806467 0.042551987
v 0.015056763 -0.038375347 -0.00061007726
v 0.021891854 -0.027567761 -0.011869238
v 0.020672077 -0.031773001 -0.025492961
v 0.023746019 -0.023868558 -0.02549798
v -0.0020714068 -0.0040964695 0.052807527
v 0.0093588858 0.058290306 0.021099983
v 0.0018382587 0.05111724 0.053771727
v 0.0048509944 0.054466249 0.046097011
v 0.018953857 0.050907717 0.042662767
v 0.010334556 0.053041937 0.050843562
v 0.0019594443 0.023369918 0.055567241
v 0.0035418025 0.021220349 0.054937373
v -0.0022628258 0.043591178 0.052650792
v 0.030152074 0.0096922557 -0.026919222
v 0.027723712 0.010647883 0.02095001
v 0.023523286 0.023825159 0.035585887
v 0.013722568 -0.01088459 0.046466132
v 0.0052400088 -0.0075345039 0.053871145
v 0.015731858 -0.017145491 0.039339165
v 0.0046380266 -0.052318702 -0.0036183105
v 0.02430682 -0.021296176 -0.016756039
v 0.012905639 0.011650094 0.048298486
v -0.0016756792 0.045301638 0.053957677
v -0.0014784384 0.035402717 0.054479099
v 0.030355632 0.024726329 -0.026919008
v 0.025361691 0.0096922557 -0.026919222
v 0.0071356808 -0.013400954 0.048219093
v 0.018341601 0.032701156 0.043227844
v -0.00020320457 0.041378364 0.055392569
v 0.0044345862 -0.01118203 0.050893701
f 21 27 55
f 1 2 3
f 1 4 2
f 1 5 4
f 56 2 4
f 22 55 4
f 22 21 55
f 22 4 18
f 22 18 21
f 50 6 2
f 8 6 7
f 20 21 18
f 20 18 17
f 14 3 2
f 14 2 6
f 19 1 3
f 38 5 37
f 44 4 55
f 44 56 4
f 44 55 27
f 44 2 56
f 13 50 2
f 29 6 50
f 29 30 6
f 57 6 30
f 35 6 8
f 35 14 6
f 35 8 7
f 35 7 14
f 59 14 7
f 59 40 37
f 26 17 25
f 26 21 20
f 26 20 17
f 26 27 21
f 11 45 46
f 11 46 47
f 28 45 25
f 28 46 45
f 28 25 17
f 28 17 46
f 48 57 47
f 58 47 46
f 15 5 38
f 15 4 5
f 16 37 40
f 16 38 37
f 16 17 18
f 16 15 38
f 12 2 44
f 12 13 2
f 24 44 27
f 24 25 45
f 24 27 26
f 24 26 25
f 49 30 29
f 49 47 57
f 49 57 30
f 49 29 9
f 49 9 11
f 49 11 47
f 53 59 37
f 53 37 5
f 60 48 7
f 60 57 48
f 60 7 6
f 60 6 57
f 41 40 59
f 41 59 7
f 41 7 48
f 39 40 58
f 39 17 16
f 39 16 40
f 39 46 17
f 39 58 46
f 52 47 58
f 52 58 40
f 52 48 47
f 52 40 48
f 36 18 4
f 36 4 15
f 36 16 18
f 36 15 16
f 33 44 34
f 33 12 44
f 33 34 32
f 33 32 12
f 31 50 13
f 31 13 12
f 31 9 29
f 31 29 50
f 31 32 9
f 31 12 32
f 23 34 44
f 23 44 24
f 54 14 59
f 54 53 14
f 54 59 53
f 43 3 14
f 43 14 53
f 43 19 3
f 43 53 5
f 43 5 1
f 43 1 19
f 42 48 40
f 42 40 41
f 42 41 48
f 51 32 34
f 51 34 23
f 10 51 23
f 10 11 9
f 10 9 32
f 10 32 51
f 10 45 11
f 10 24 45
f 10 23 24
