v -0.037586769 0.033614035 -0.0782341
v -0.037587053 0.045914255 -0.078233355
v -0.049998956 0.032773015 -0.077419097
v -0.06583682 -0.0049350049 -0.077333607
v -0.063030543 -0.0049350049 -0.080623064
v -0.06955343 -0.0088806571 -0.093973399
v -0.037586989 0.033243778 -0.087321367
v -0.037586989 0.033740767 -0.088961041
v -0.070834104 -0.0049349988 -0.077333624
v -0.071111305 0.00083504984 -0.077333607
v -0.037586989 0.033208985 -0.083622411
v -0.062518523 -0.0049350049 -0.082378777
v -0.070977728 -0.0034449696 -0.09353334
v -0.070938395 0.0045588728 -0.093717854
v -0.070338346 0.0086253702 -0.077333607
v -0.068314023 0.0097123602 -0.094476533
v -0.037586933 0.042854817 -0.094514801
v -0.063517948 0.020602832 -0.094461123
v -0.062853309 -0.0049350049 -0.088439711
v -0.06306337 -0.0049350049 -0.089014858
v -0.06600093 -0.0049350049 -0.093431063
v -0.062554623 -0.0049350049 -0.087318
v -0.07074862 -0.0049350049 -0.092379989
v -0.07109161 -0.00039997056 -0.088527585
v -0.061656592 0.028927757 -0.0774335
v -0.059597372 0.031434733 -0.077431149
v -0.070773238 0.0056061548 -0.077333607
v -0.063805144 0.024780034 -0.093772458
v -0.065982055 0.020048688 -0.093921073
v -0.065950055 0.021358257 -0.092258902
v -0.037586989 0.04508208 -0.092258902
v -0.038532262 0.044450904 -0.093870835
v -0.046261825 0.041618059 -0.093518519
v -0.037586989 0.04088748 -0.094029756
v -0.0561084 0.03171553 -0.094403946
v -0.04465519 0.041073856 -0.094141807
v -0.062510319 -0.0049350049 -0.085669913
v -0.071008732 0.00145256 -0.093599659
v -0.068328003 0.015717419 -0.092967753
v -0.067655155 0.018135276 -0.077433672
v -0.040588348 0.044506501 -0.087123761
v -0.066512949 -0.0049350049 -0.093749748
v -0.060635367 0.028096512 -0.094002114
v -0.063209423 0.026010085 -0.092258902
v -0.053646755 0.036663068 -0.093498333
v -0.049452116 0.039630101 -0.092258902
v -0.05112275 0.039093348 -0.077431149
v -0.056249534 0.034317273 -0.093629505
v -0.056577753 0.034635349 -0.077431149
v -0.050796992 0.037957109 -0.093906785
v -0.069808275 0.010725154 -0.092258902
v -0.064097256 0.025237265 -0.077431149
v -0.043865821 0.043104061 -0.081542121
v -0.058684922 0.031827356 -0.093599241
v -0.057815138 0.033397843 -0.077431149
v -0.053404695 0.037326549 -0.077431149
v -0.069051318 0.013892223 -0.079285567
v -0.066110884 0.021571963 -0.077431149
v -0.049892847 0.039884626 -0.077431173
f 3 1 2
f 4 1 3
f 4 5 1
f 4 6 5
f 13 14 6
f 16 6 14
f 16 17 6
f 9 4 10
f 9 6 4
f 9 10 13
f 15 4 3
f 59 3 2
f 59 15 3
f 12 5 6
f 12 1 5
f 11 1 12
f 8 17 1
f 24 10 14
f 24 13 10
f 29 16 14
f 18 17 16
f 18 29 28
f 18 16 29
f 23 13 6
f 23 6 9
f 23 9 13
f 27 14 10
f 27 15 14
f 22 6 19
f 22 19 8
f 34 6 17
f 34 17 8
f 21 34 8
f 38 14 13
f 38 24 14
f 38 13 24
f 51 14 15
f 31 2 1
f 31 1 17
f 53 59 2
f 53 33 59
f 46 33 45
f 46 59 33
f 44 54 28
f 44 25 54
f 35 17 18
f 26 25 15
f 26 54 25
f 56 49 15
f 56 45 49
f 37 12 6
f 37 6 22
f 37 11 12
f 7 22 8
f 7 1 11
f 7 8 1
f 7 11 37
f 7 37 22
f 20 8 19
f 20 21 8
f 20 19 6
f 20 6 21
f 42 6 34
f 42 21 6
f 42 34 21
f 52 15 25
f 52 25 44
f 39 29 14
f 39 14 51
f 57 51 15
f 57 15 40
f 57 39 51
f 57 40 39
f 41 2 31
f 41 31 33
f 41 53 2
f 41 33 53
f 32 31 17
f 32 33 31
f 48 35 54
f 48 49 45
f 43 18 28
f 43 35 18
f 43 28 54
f 43 54 35
f 36 17 35
f 36 32 17
f 36 33 32
f 55 15 49
f 55 26 15
f 55 54 26
f 55 48 54
f 55 49 48
f 47 15 59
f 47 56 15
f 47 45 56
f 47 46 45
f 47 59 46
f 58 40 15
f 58 15 52
f 50 35 48
f 50 36 35
f 50 48 45
f 50 45 33
f 50 33 36
f 30 52 44
f 30 58 52
f 30 44 28
f 30 28 29
f 30 29 39
f 30 39 40
f 30 40 58
f 27 4 15
f 27 10 4
