v -0.030960195 -0.0068253073 -0.19614433
v -0.03268229 0.038662934 -0.19614434
v -0.039754078 -0.0068146527 -0.19614436
v 0.031844974 -0.039259833 -0.20388251
v -0.031187471 0.033834982 -0.19614436
v 0.038867997 -0.00046141682 -0.20390337
v 0.037177843 0.035047469 -0.20400224
v 0.032040371 0.039248137 -0.20398313
v -0.038107329 0.038717209 -0.19614729
v -0.033340039 0.0018158484 -0.21666273
v -0.027763153 0.036661967 -0.22108744
v -0.029239005 -0.0078839334 -0.22203006
v -0.03396128 0.038848201 -0.21175273
v -0.034010284 -0.039194971 -0.20651163
v -0.016160132 0.039254331 -0.22372706
v 0.012896485 0.039252794 -0.2259534
v 0.035253535 0.038697528 -0.20401693
v 0.034506733 0.035191423 -0.21188742
v 0.035070624 0.0016814095 -0.21377554
v 0.037303261 -0.034406334 -0.20389218
v -0.016758168 0.039246007 -0.20938022
v -0.037944133 0.033358386 -0.20183948
v -0.019133323 0.037404016 -0.22769301
v -0.019972374 -0.021706404 -0.22842508
v -0.026275475 -0.038149328 -0.22230402
v -0.028196452 -0.039258307 -0.21248852
v -0.03399784 -0.021424646 -0.21449873
v 0.029768637 0.038501532 -0.21788399
v 0.018555852 0.037903455 -0.22796953
v 0.013647137 0.0024548105 -0.23212321
v 0.0080601794 0.030405292 -0.23271642
v 0.0013144816 -0.038291763 -0.23274339
v -0.0084404514 -0.032012211 -0.23232019
v -0.00022711479 -0.0131187 -0.23423842
v 0.035213997 -0.038726057 -0.20389583
v -0.00011925631 0.022868531 -0.2338589
v 0.0049967018 0.0027997927 -0.2341143
v 0.0008536462 0.038283982 -0.23278101
v -0.010615579 0.027277007 -0.23225342
v -0.03843526 0.013319086 -0.20528508
v -0.039334411 -0.0049032347 -0.20105051
v -0.021113825 0.0048756373 -0.22818547
v -0.032264524 -0.038029952 -0.21416458
v 0.026731693 0.039187141 -0.21385218
v 0.028992523 0.0095714402 -0.22199206
v 0.028757805 -0.011763892 -0.22224245
v 0.018659919 -0.036815963 -0.22803674
v 0.027129217 -0.037207645 -0.22159251
v 0.020948401 0.0043029339 -0.22868083
v 0.0094183275 -0.030933754 -0.23220374
v -0.016645453 -0.037946931 -0.22895026
v -0.010261082 -0.0009712929 -0.23323927
v -0.035736991 -0.036488483 -0.20640831
v 0.035021758 -0.035585144 -0.21001607
v 0.024649739 -0.039267996 -0.21834423
v 0.012838791 -0.015236039 -0.2320596
v -0.011596548 -0.039266161 -0.22650682
v -0.037916713 -0.011896586 -0.20666073
v -0.036526685 -0.032299558 -0.20699087
v 0.035086583 -0.022419436 -0.21250899
f 1 2 3
f 1 3 4
f 5 1 6
f 5 2 1
f 5 6 7
f 5 7 2
f 9 2 8
f 9 3 2
f 10 11 12
f 10 13 11
f 24 25 12
f 16 15 8
f 17 2 7
f 17 8 2
f 57 26 25
f 20 6 1
f 32 33 34
f 21 8 15
f 21 9 8
f 21 15 13
f 21 13 9
f 22 3 9
f 22 9 13
f 23 13 15
f 23 11 13
f 59 3 41
f 28 8 17
f 28 29 16
f 28 45 29
f 52 34 33
f 52 36 34
f 52 39 36
f 35 1 4
f 35 20 1
f 37 34 36
f 37 36 31
f 38 36 39
f 38 31 36
f 38 39 23
f 38 29 31
f 38 16 29
f 38 15 16
f 38 23 15
f 55 57 32
f 55 4 26
f 55 26 57
f 55 35 4
f 55 48 35
f 51 57 25
f 51 32 57
f 51 33 32
f 51 25 24
f 51 24 52
f 51 52 33
f 30 31 29
f 30 37 31
f 30 56 37
f 46 45 19
f 50 32 34
f 50 34 37
f 50 37 56
f 40 13 10
f 40 22 13
f 40 41 3
f 40 3 22
f 14 4 3
f 14 26 4
f 14 25 26
f 14 43 25
f 44 16 8
f 44 8 28
f 44 28 16
f 42 52 24
f 42 24 12
f 42 23 39
f 42 39 52
f 42 12 11
f 42 11 23
f 54 35 48
f 54 20 35
f 18 45 28
f 18 19 45
f 18 17 7
f 18 28 17
f 18 7 6
f 18 6 19
f 49 29 45
f 49 30 29
f 49 45 46
f 49 56 30
f 58 40 10
f 58 59 41
f 58 41 40
f 53 3 59
f 53 14 3
f 53 59 43
f 53 43 14
f 60 46 19
f 60 19 6
f 60 48 46
f 60 54 48
f 60 6 20
f 60 20 54
f 47 46 48
f 47 49 46
f 47 56 49
f 47 50 56
f 47 32 50
f 47 48 55
f 47 55 32
f 27 58 10
f 27 59 58
f 27 43 59
f 27 10 12
f 27 12 25
f 27 25 43
