v -0.031109458 0.036742983 0.021885684
v -0.024523004 -0.029993939 0.02193779
v -0.023396894 -0.029993929 -0.045274518
v -0.031102891 0.038767989 -0.023111644
v -0.031116414 0.038254607 0.00347612
v -0.037163003 -0.030259515 -0.117778
v -0.037090383 0.033711866 -0.039413192
v -0.037905527 0.028616608 -0.12101625
v -0.04466175 0.011030947 -0.12101611
v -0.04183851 0.021192502 -0.1210155
v -0.049753684 0.0030297807 -0.025461933
v -0.049363275 -0.0025159581 0.0029951756
v -0.048066444 0.010361269 0.0085295813
v -0.048432679 -0.0030940897 0.019372165
v -0.04665664 0.01266111 0.022290696
v -0.044093643 0.00896838 0.023961087
v -0.036297452 0.025534847 0.023865287
v -0.031094703 0.031898244 0.023691095
v -0.038754929 -0.022149009 0.023976823
v -0.039365458 -0.029987216 -0.065731273
v -0.039499002 -0.029989792 -0.016648715
v -0.03838114 -0.029997381 -0.11786646
v -0.042282521 -0.02048215 -0.117865
v -0.04525432 -0.006816721 -0.12101697
v -0.027009888 -0.03000065 -0.11786616
v -0.031094713 0.035206064 -0.12101678
v -0.045860237 -9.8219239e-05 -0.12074938
v -0.047424774 0.0057061436 -0.092219992
v -0.031122579 0.037089453 -0.092319058
v -0.042394061 0.022587268 -0.10445877
v -0.046229865 0.017989033 -0.0545091
v -0.042339981 0.026336925 -0.053270801
v -0.037820361 0.030910995 -0.091501764
v -0.033342293 0.033621583 -0.12101677
v -0.048192651 0.0084590716 -0.063922694
v -0.048448709 -0.010712536 -0.0094755419
v -0.037760497 -0.029984702 0.022228072
v -0.046453062 -0.014859268 -0.078568109
v -0.036533801 -0.0068023048 -0.12101606
v -0.031115412 0.038615334 -0.048536171
v -0.039178973 0.030164658 0.0023535624
v -0.046401317 0.018490773 -0.0219866
v -0.042508636 0.02383782 0.014938817
v -0.046161138 0.013613339 -0.089955734
v -0.048692922 0.0099322851 -0.038334136
v -0.045981634 -0.014776602 0.022300616
v -0.046120104 -0.017524407 0.0040069945
v -0.041903241 -0.026285387 -0.0058076913
v -0.031441574 -0.029995513 0.023656448
v -0.046404946 -0.018368266 -0.021757047
v -0.044541324 -0.013354965 -0.11686347
v -0.048106429 -0.010564267 -0.052829935
v -0.031094703 0.025897415 -0.12101676
v -0.036368693 0.031870252 0.021956983
v -0.027358572 -0.029995811 0.023016972
v -0.041099998 -0.028217527 -0.03909926
v -0.042053666 -0.025493887 -0.078151636
v -0.049708116 -0.0021870204 -0.018228553
v -0.048672644 -0.004162491 -0.069572461
v -0.044138954 -0.023086367 -0.041067113
f 1 2 3
f 5 3 4
f 5 1 3
f 6 3 2
f 7 5 4
f 8 9 10
f 13 11 12
f 13 14 15
f 13 12 14
f 16 17 15
f 18 2 1
f 19 17 16
f 19 18 17
f 21 20 6
f 22 6 20
f 22 23 24
f 25 26 3
f 25 3 6
f 25 22 24
f 25 6 22
f 27 9 24
f 27 28 9
f 29 3 26
f 30 8 10
f 30 31 32
f 33 32 7
f 33 30 32
f 33 8 30
f 33 7 29
f 34 24 9
f 34 9 8
f 34 26 24
f 34 8 33
f 34 29 26
f 34 33 29
f 35 28 11
f 36 14 12
f 37 21 6
f 38 23 22
f 39 25 24
f 40 7 4
f 40 29 7
f 40 4 3
f 40 3 29
f 41 7 32
f 41 5 7
f 42 32 31
f 42 41 32
f 42 43 41
f 42 13 15
f 42 15 43
f 44 31 30
f 44 10 9
f 44 30 10
f 44 9 28
f 44 28 35
f 45 35 11
f 45 42 31
f 45 31 44
f 45 44 35
f 45 11 13
f 45 13 42
f 46 14 36
f 46 36 47
f 46 47 37
f 46 37 19
f 46 19 16
f 46 15 14
f 46 16 15
f 48 37 47
f 48 21 37
f 49 37 6
f 49 19 37
f 49 18 19
f 50 47 36
f 50 48 47
f 51 24 23
f 51 23 38
f 58 12 11
f 58 36 12
f 59 27 24
f 59 24 51
f 59 51 38
f 59 28 27
f 59 11 28
f 59 58 11
f 53 26 25
f 53 25 39
f 53 24 26
f 53 39 24
f 54 1 5
f 54 5 41
f 54 41 43
f 54 43 15
f 54 15 17
f 54 18 1
f 54 17 18
f 55 6 2
f 55 49 6
f 55 2 18
f 55 18 49
f 56 22 20
f 56 20 21
f 56 21 48
f 57 38 22
f 57 22 56
f 52 59 38
f 52 50 36
f 52 38 50
f 52 36 58
f 52 58 59
f 60 50 38
f 60 38 57
f 60 57 56
f 60 48 50
f 60 56 48
