v -0.021709235 -0.018771471 -0.086015415
v -0.010791793 0.0080975144 -0.086015415
v -0.021709183 -0.013596689 -0.086015415
v -0.016094344 0.0080975144 -0.086017947
v -0.021709235 -0.013853205 -0.090544542
v -0.009489158 0.0047993839 -0.086015415
v -0.0098988802 0.0067057371 -0.086015427
v -0.021709235 -0.014489686 -0.091892628
v -0.015809845 0.0080975144 -0.090544542
v -0.011357157 0.0080975144 -0.090544542
v -0.0099031933 -0.0028383939 -0.090544542
v -0.0099068247 0.0028899387 -0.090544542
v -0.0093461521 -0.00034276869 -0.086015415
v -0.010324491 -0.0014063105 -0.091855232
v -0.0093584104 0.0028899387 -0.086015415
v -0.01061383 0.0058987603 -0.091554174
v -0.011716713 0.0080975144 -0.091420449
v -0.013520548 -0.0085667266 -0.092318537
v -0.021158398 -0.016204503 -0.092302063
v -0.013520548 -0.0028383939 -0.092490299
v -0.011611388 -0.0014063105 -0.092380972
v -0.011611388 -0.0047478383 -0.092236781
v -0.011611388 0.0028899387 -0.092370512
v -0.013662191 -0.013445541 -0.086015415
v -0.01508589 -0.013663839 -0.090544542
v -0.013830469 -0.01222781 -0.090544542
v -0.014924876 -0.014800038 -0.086015415
v -0.019426596 -0.017036928 -0.09108168
v -0.021709235 -0.018263864 -0.090544542
v -0.021709235 -0.017708913 -0.091852701
v -0.01704408 -0.015474654 -0.090544542
v -0.017821909 -0.015610104 -0.091776638
v -0.01630257 -0.016012509 -0.086015415
v -0.019411463 -0.017840419 -0.086015415
v -0.015749314 0.0080975144 -0.090734044
v -0.015203322 0.0080975144 -0.091864742
v -0.0093874655 -0.0038799085 -0.086015415
v -0.010203429 0.0047993839 -0.090544542
v -0.010405603 0.0038446612 -0.091776008
v -0.012650711 -0.0090052939 -0.09193731
v -0.010607777 -0.0058656257 -0.091559885
v -0.012427352 -0.0097870876 -0.091646711
v -0.012593813 -0.010474856 -0.090544542
v -0.010530298 -0.0084247018 -0.086015415
v -0.020236506 -0.016887012 -0.091890411
v -0.020294011 -0.017942993 -0.088279978
v -0.01481713 0.0080975144 -0.092026358
v -0.013520548 0.0080975144 -0.092299525
v -0.021709235 -0.016204503 -0.092311566
v -0.013520548 0.0028899387 -0.092487768
v -0.012489699 0.0080975144 -0.092046643
v -0.01011021 -0.0075041703 -0.086015415
v -0.011152863 -0.007649483 -0.090544542
v -0.010469766 -0.0047478383 -0.091711363
v -0.0096065892 -0.0057814629 -0.086015415
v -0.016281384 -0.013445541 -0.09207041
v -0.011572043 0.0057028188 -0.092086255
v -0.0094831052 -0.0047478383 -0.086015415
v -0.010191322 -0.0047478383 -0.090544542
v -0.014981171 -0.012878757 -0.091802307
f 3 2 4
f 3 5 1
f 3 4 5
f 9 8 5
f 9 5 4
f 15 13 12
f 15 12 6
f 7 2 6
f 11 12 13
f 40 41 42
f 19 20 18
f 35 36 8
f 35 8 9
f 38 6 12
f 38 7 6
f 23 48 57
f 23 57 39
f 37 11 13
f 14 23 39
f 14 12 11
f 14 39 12
f 49 20 19
f 49 8 36
f 49 19 30
f 16 12 39
f 16 38 12
f 16 39 57
f 16 7 38
f 50 48 23
f 50 20 49
f 50 49 48
f 51 57 48
f 51 16 57
f 51 17 16
f 10 2 7
f 10 7 16
f 10 16 17
f 55 52 41
f 43 44 24
f 43 42 44
f 53 42 41
f 53 44 42
f 53 52 44
f 53 41 52
f 54 14 11
f 54 41 40
f 22 14 54
f 22 40 18
f 22 54 40
f 34 28 33
f 56 19 18
f 47 49 36
f 47 48 49
f 59 55 41
f 59 11 55
f 59 41 54
f 59 54 11
f 58 11 37
f 58 55 11
f 21 23 14
f 21 14 22
f 21 20 50
f 21 50 23
f 21 18 20
f 21 22 18
f 29 34 1
f 29 30 28
f 45 28 30
f 45 30 19
f 27 25 24
f 31 33 28
f 31 27 33
f 31 25 27
f 26 43 24
f 26 24 25
f 26 42 43
f 60 40 42
f 60 42 26
f 60 26 25
f 60 18 40
f 60 56 18
f 46 28 34
f 46 29 28
f 46 34 29
f 32 31 28
f 32 28 45
f 32 25 31
f 32 60 25
f 32 56 60
f 32 19 56
f 32 45 19
f 47 4 2
f 47 36 35
f 47 9 4
f 47 2 10
f 47 35 9
f 47 51 48
f 47 17 51
f 47 10 17
f 29 5 8
f 29 1 5
f 29 8 49
f 29 49 30
f 27 13 15
f 27 2 3
f 27 6 2
f 27 52 55
f 27 3 1
f 27 15 6
f 27 37 13
f 27 58 37
f 27 24 44
f 27 44 52
f 27 1 34
f 27 34 33
f 27 55 58
