v -0.022518485 0.00206136 -0.02376296
v -0.019601552 0.011005489 -0.02376296
v 0.021645107 0.0068458421 -0.023763269
v -0.015757299 0.016257727 -0.02376296
v -0.011800413 0.019186283 0.00074552543
v -0.013075182 0.018301429 -0.023761797
v -0.021841547 0.0054685038 -0.023762914
v -0.0091800913 0.020525308 -0.02376296
v -0.0063764376 0.021583372 -0.016351352
v 0.0061957731 0.022549143 -0.02376296
v -0.0040212589 0.022235794 -0.00041781691
v -0.022388291 -0.0026563179 -0.023762952
v -0.022503141 0.0003132869 0.00032823884
v -0.021893745 -0.0054036151 -0.00075220325
v -0.016259926 0.015583811 -0.0011255985
v 0.019426305 -0.011461651 -0.023762961
v 0.022556382 0.0005330515 -0.023762955
v 0.016254701 -0.015683441 -0.02376296
v -0.015185765 -0.013852247 0.0017079832
v 0.0076299014 0.017736433 0.0017074209
v -0.018370665 0.0054847864 0.0017048253
v -0.001701792 0.0225369 0.0004568371
v 0.0083523514 0.020896603 8.6846272e-05
v 0.011626921 0.019384196 -0.02376101
v 0.018668653 0.012423969 -0.0015563413
v 0.02158664 0.0061346402 -0.0021052108
v 0.022384298 -0.0026493947 0.00099148449
v 0.01798351 0.010636744 0.0016679732
v 0.018718137 0.012402611 -0.023762934
v 0.015758123 0.016274455 -0.023759732
v -0.018513821 -0.012810955 0.0010470228
v -0.017051989 -0.014752085 -0.023762958
v -0.013640752 -0.017865262 -0.0015563413
v -0.021644089 0.0059784414 -0.0015563413
v -0.00613502 -0.021747144 0.00071358524
v 0.0039537176 -0.019211355 0.0017065325
v -0.002103841 -0.022549616 -0.023763039
v -0.0015512367 -0.022550109 -0.0015563413
v -0.007665217 -0.021208445 -0.023762856
v -0.017874856 0.013616113 -0.023762881
v -0.01252295 -0.018786681 -0.023762849
v -0.021608786 -0.0067324382 -0.023762954
v 0.02197181 -0.0058691227 -0.023762734
v 0.014417879 -0.017269168 -0.0015563413
v 0.017688809 -0.013671088 -0.001088196
v 0.0091974418 -0.020493947 0.0003955721
v 0.003436744 -0.022368852 -0.023762961
v 0.0029953474 -0.022441176 0.00026005358
v 0.0096160998 -0.020275567 -0.023762954
v 0.016955771 -0.0096826472 0.0017063408
v -0.0062173652 0.01760887 0.0016789027
v 0.0016180633 0.022542089 -0.012659651
v 0.015426445 0.015921046 0.00035987135
v -0.020928228 0.0082628562 -0.023762749
v -0.019499924 0.011215225 -0.0015563413
v -0.019496807 -0.011529441 -0.02376277
v 0.012838734 -0.018488468 -0.023762607
v 0.014417879 -0.017269168 -0.02376296
v -0.020034583 0.0085306009 0.00055186729
f 4 5 6
f 2 3 1
f 2 4 3
f 8 6 5
f 8 5 9
f 8 9 10
f 8 4 6
f 8 10 3
f 8 3 4
f 11 9 5
f 13 34 1
f 13 1 12
f 13 12 14
f 7 1 34
f 7 2 1
f 15 5 4
f 40 4 2
f 40 2 55
f 40 15 4
f 40 55 15
f 16 3 17
f 16 18 3
f 21 19 20
f 22 20 23
f 22 23 10
f 22 11 5
f 22 9 11
f 24 10 23
f 26 3 25
f 26 27 17
f 26 17 3
f 28 27 26
f 28 26 25
f 29 25 3
f 29 30 25
f 29 24 30
f 29 3 10
f 29 10 24
f 31 13 14
f 31 19 21
f 31 21 13
f 31 32 33
f 35 36 19
f 35 31 33
f 35 19 31
f 35 37 38
f 35 39 37
f 41 33 32
f 41 35 33
f 41 39 35
f 41 37 39
f 41 32 37
f 42 14 12
f 42 1 3
f 42 12 1
f 42 3 37
f 42 37 32
f 54 7 34
f 54 2 7
f 54 34 55
f 54 55 2
f 43 17 27
f 43 16 17
f 45 44 18
f 45 18 16
f 45 46 44
f 45 43 27
f 45 16 43
f 48 47 46
f 48 38 37
f 48 37 47
f 48 35 38
f 48 46 36
f 48 36 35
f 49 46 47
f 49 47 37
f 50 36 46
f 50 27 28
f 50 45 27
f 50 46 45
f 50 28 20
f 50 20 19
f 50 19 36
f 51 5 21
f 51 21 20
f 51 22 5
f 51 20 22
f 59 13 21
f 59 55 34
f 59 34 13
f 59 21 5
f 59 5 15
f 59 15 55
f 52 10 9
f 52 22 10
f 52 9 22
f 53 28 25
f 53 25 30
f 53 23 20
f 53 20 28
f 53 24 23
f 53 30 24
f 56 32 31
f 56 42 32
f 56 31 14
f 56 14 42
f 58 49 37
f 58 37 3
f 58 3 18
f 58 18 44
f 57 58 44
f 57 49 58
f 57 44 46
f 57 46 49
