v -0.040992345 -0.013562344 -0.092309387
v -0.037184652 -0.01355957 -0.086015413
v -0.044332536 -0.01355957 -0.086015413
v -0.036353879 0.013761263 -0.086016691
v -0.036353879 0.017129452 -0.086015413
v -0.036353879 0.016255859 -0.092336261
v -0.037943187 -0.01355957 -0.090669212
v -0.038752558 -0.01355957 -0.091807236
v -0.037888339 -0.01355957 -0.09054447
v -0.049793445 0.004366896 -0.086015413
v -0.049272371 0.006169087 -0.086015413
v -0.04890247 0.0040514315 -0.091569271
v -0.045984723 0.002893111 -0.092549285
v -0.040257587 0.014346895 -0.092313239
v -0.04407434 0.010528967 -0.092311955
v -0.036353879 0.014330718 -0.090545112
v -0.039117776 -0.01355957 -0.091962043
v -0.049972713 0.002893111 -0.086015413
v -0.050013183 0.00028769881 -0.086015413
v -0.036353879 0.018650154 -0.090545112
v -0.039322462 0.017223282 -0.091512338
v -0.036373745 0.019488248 -0.086015413
v -0.042463623 0.014620296 -0.091721192
v -0.041109767 0.015275492 -0.091904786
v -0.039309084 0.018087171 -0.086015413
v -0.047211486 0.0082511525 -0.091756691
v -0.047892429 0.002893111 -0.092154593
v -0.047508478 -0.010104022 -0.086015413
v -0.049721206 -0.0047621584 -0.086015413
v -0.046921184 -0.0094925057 -0.091338335
v -0.036353879 0.014874286 -0.091862892
v -0.03639602 0.017067978 -0.092152673
v -0.044855616 0.011467271 -0.091934851
v -0.048194771 0.006707803 -0.090545112
v -0.042424495 0.01505952 -0.090545112
v -0.044007449 -0.01355957 -0.09054447
v -0.045761308 -0.012216824 -0.086015413
v -0.043232192 -0.01355957 -0.091830745
v -0.046463988 0.0070103257 -0.092189015
v -0.047369348 -0.0074363256 -0.091860012
v -0.045120335 -0.011344444 -0.09183722
v -0.048903808 -0.0040050437 -0.091571184
v -0.04804494 -0.001883748 -0.092059275
v -0.045986058 -0.0066549448 -0.092377202
v -0.0482135 -0.0066549448 -0.090545112
v -0.04895866 -0.0011658643 -0.091640432
v -0.049975387 -0.0028370167 -0.086015413
v -0.045986058 -0.0028370167 -0.092550563
v -0.044073002 -0.010476108 -0.092313239
v -0.037869942 0.016957969 -0.092033367
v -0.045234213 0.011745527 -0.091683772
v -0.046907805 0.0095259509 -0.091216791
v -0.040143876 0.017619636 -0.086015413
v -0.045025518 -0.012391542 -0.09054447
v -0.045985391 0.00047131502 -0.092550563
v -0.045005451 0.012420135 -0.090545112
v -0.047333226 0.010381749 -0.086015413
v -0.045373346 0.01270648 -0.086015413
v -0.047766674 0.0095809553 -0.086015413
v -0.043194066 0.014938997 -0.086015413
f 4 5 2
f 16 4 2
f 3 37 36
f 26 52 51
f 26 12 52
f 26 27 12
f 26 39 27
f 13 27 39
f 15 13 39
f 45 29 42
f 18 12 19
f 18 10 12
f 11 12 10
f 31 16 2
f 1 48 6
f 1 6 17
f 1 2 3
f 1 3 36
f 9 6 31
f 9 31 2
f 9 2 1
f 56 51 52
f 56 52 57
f 20 22 5
f 43 27 48
f 46 12 27
f 46 19 12
f 46 43 42
f 46 27 43
f 55 6 48
f 55 13 6
f 55 48 27
f 55 27 13
f 47 42 29
f 47 19 46
f 47 46 42
f 54 36 37
f 28 54 37
f 59 57 52
f 59 52 11
f 34 52 12
f 34 12 11
f 34 11 52
f 44 43 48
f 8 17 6
f 8 1 17
f 58 56 57
f 58 60 56
f 35 60 53
f 35 56 60
f 21 22 20
f 21 35 53
f 33 26 51
f 33 39 26
f 33 15 39
f 14 6 13
f 14 13 15
f 14 15 33
f 14 33 24
f 49 48 1
f 49 44 48
f 7 6 9
f 7 8 6
f 7 9 1
f 7 1 8
f 25 21 53
f 25 22 21
f 32 20 6
f 23 35 21
f 23 51 56
f 23 56 35
f 23 21 24
f 23 33 51
f 23 24 33
f 38 1 36
f 38 49 1
f 38 36 54
f 40 44 49
f 40 42 43
f 40 43 44
f 50 6 14
f 50 32 6
f 50 14 24
f 50 24 21
f 50 21 20
f 50 20 32
f 41 49 38
f 41 40 49
f 41 38 54
f 30 41 54
f 30 40 41
f 30 54 28
f 30 45 42
f 30 42 40
f 30 28 29
f 30 29 45
f 20 31 6
f 20 5 4
f 20 4 16
f 20 16 31
f 25 2 5
f 25 57 59
f 25 5 22
f 25 28 37
f 25 3 2
f 25 18 19
f 25 37 3
f 25 53 60
f 25 58 57
f 25 19 47
f 25 10 18
f 25 11 10
f 25 47 29
f 25 29 28
f 25 59 11
f 25 60 58
