v -0.060812843 0.027342514 -0.063706017
v -0.00050511329 0.05386813 -0.038932469
v -0.04967495 0.055184854 -0.036108125
v -0.00050511329 0.053884234 -0.038921036
v 0.0093750227 0.017280865 -0.079926548
v 0.0093741954 0.018139364 -0.078759188
v 0.009374209 0.052071433 -0.042553629
v -0.058049693 0.052833272 -0.040944959
v -0.060811504 0.023281438 -0.071246654
v -0.060811504 0.02493238 -0.067713366
v -0.060811504 0.022608982 -0.072721715
v -0.010694915 0.043073946 -0.094517947
v -0.019047724 0.046720741 -0.093715726
v -0.0085184929 0.044289012 -0.09385186
v -0.0017812929 0.041418929 -0.094055103
v 0.0093741954 0.037672819 -0.057410775
v -0.060811504 0.021050658 -0.077421339
v 0.0093741954 0.017237387 -0.084842401
v 0.0093741954 0.017402482 -0.085722864
v -0.037583447 0.040890128 -0.094030106
v 0.0093741954 0.027791325 -0.094115862
v -0.0005298419 0.058368599 -0.055231821
v -0.04967495 0.058369958 -0.045449685
v -0.00056888877 0.058372836 -0.050331158
v 0.0056522918 0.036616036 -0.093631321
v -0.04967815 0.057556851 -0.037791951
v -0.060811504 0.026530974 -0.064934756
v -0.060811504 0.021956661 -0.074585563
v -0.00050511329 0.058369958 -0.042848822
v -0.00050511329 0.058112252 -0.040378947
v -0.00050511329 0.057141824 -0.038475087
v -0.037582678 0.042844275 -0.0945109
v 0.0093741954 0.032675692 -0.09382428
v 0.0082680976 0.03432663 -0.093624177
v 0.0093741954 0.01872726 -0.088307082
v -0.04967495 0.058216947 -0.050515722
v -0.037581494 0.044585599 -0.093977298
v -0.04967495 0.05721027 -0.052814074
v 0.0093741954 0.052072228 -0.052591102
v -0.01648514 0.046551646 -0.09351554
v -0.031846269 0.058292469 -0.055261789
v -0.018610688 0.057126103 -0.060012107
v -0.031273561 0.046550841 -0.093692533
v -0.04967495 0.058333719 -0.040636226
v -0.00050511329 0.05518888 -0.038263545
v 0.0093741985 0.030542049 -0.094387683
v -0.06080207 0.030052681 -0.077428003
v 0.0093741954 0.017752803 -0.087312272
v -0.023592178 0.046839715 -0.093966506
v -0.045103526 0.058311236 -0.052364954
v -0.035110182 0.058212916 -0.055203909
v -0.04967495 0.05827332 -0.05026416
v -0.058049693 0.052833272 -0.051441926
v -0.060811504 0.03658963 -0.06369982
v 0.0093741954 0.017885685 -0.087529531
v -0.025224001 0.046861698 -0.093898603
f 3 1 2
f 3 2 4
f 6 1 5
f 6 2 1
f 7 4 2
f 8 1 3
f 10 1 9
f 10 9 5
f 11 5 9
f 11 9 1
f 14 12 13
f 14 15 12
f 39 34 25
f 39 7 5
f 16 6 5
f 16 5 7
f 16 2 6
f 16 7 2
f 18 5 17
f 18 19 5
f 18 17 19
f 21 17 20
f 22 23 24
f 22 15 14
f 22 25 15
f 22 39 25
f 26 8 3
f 27 5 1
f 27 1 10
f 27 10 5
f 28 17 5
f 28 5 11
f 28 1 17
f 28 11 1
f 29 30 7
f 29 22 24
f 29 24 23
f 29 7 39
f 29 39 22
f 31 7 30
f 31 26 3
f 31 30 26
f 32 21 20
f 32 20 17
f 33 25 34
f 33 34 39
f 33 39 5
f 35 17 21
f 35 21 5
f 38 36 37
f 40 14 13
f 40 13 22
f 40 22 14
f 41 22 42
f 43 32 37
f 43 37 36
f 44 23 8
f 44 8 26
f 44 26 30
f 44 29 23
f 44 30 29
f 45 4 7
f 45 7 31
f 45 3 4
f 45 31 3
f 46 32 12
f 46 21 32
f 46 12 15
f 46 15 25
f 46 25 33
f 46 5 21
f 46 33 5
f 47 32 17
f 47 37 32
f 48 19 17
f 48 5 19
f 49 13 12
f 49 12 32
f 49 22 13
f 49 42 22
f 50 43 36
f 50 51 43
f 50 36 52
f 50 41 51
f 50 52 23
f 50 23 22
f 50 22 41
f 53 38 37
f 53 37 47
f 53 36 38
f 53 52 36
f 53 8 23
f 53 23 52
f 54 1 8
f 54 17 1
f 54 47 17
f 54 8 53
f 54 53 47
f 55 17 35
f 55 48 17
f 55 35 5
f 55 5 48
f 56 32 43
f 56 49 32
f 56 43 51
f 56 51 41
f 56 41 42
f 56 42 49
