v -0.024960708 -0.0073118608 -0.022411781
v -0.0249579 -0.015791106 -0.028877048
v -0.029153396 -0.0076896722 0.019351381
v 0.029499979 -0.00084755594 -3.898717e-05
v 0.029499972 -0.012415664 -0.024688633
v 0.025625754 -0.00048858168 -0.013618518
v -0.024938111 -0.050647886 -0.021043364
v -0.028981903 -0.048298677 0.017517176
v -0.0249391 -0.039641081 -0.029188119
v 0.029499752 -0.056124058 0.0018822175
v 0.026100824 -0.056000489 -0.0130855
v 0.029499885 -0.045945977 -0.023029514
v 0.029499947 -0.0034805345 0.011303449
v 0.025888557 -0.035505496 -0.02949742
v -0.024547486 -0.056000474 -0.014361901
v -0.013779723 -0.056000612 0.025164367
v -3.17784e-06 -0.055989174 -0.029500165
v 0.0095783416 -0.055998644 -0.026551714
v 0.029499794 -0.033242397 0.0268743
v 0.029497644 -0.023040503 0.02702457
v 0.026311864 -0.034230364 0.029499922
v 0.029499748 -0.045031277 0.020449273
v 0.025893035 -0.056000769 0.012003324
v 0.020255886 -0.046525684 0.029474608
v -0.0096570448 0.0075221978 0.0031214409
v -0.0064541666 0.0080955742 -0.0055770134
v -0.024897477 -0.000588659 -0.015118927
v 0.023945203 -0.0067085129 -0.02402648
v 0.00043935661 -0.00076718375 -0.029500226
v 0.0053620377 0.0074039326 -0.0085165499
v 0.011862638 -0.00063515975 -0.026938424
v -0.018750861 -0.0087092337 -0.029499975
v -0.0064033297 -0.0010038967 -0.029499994
v -0.0020344757 0.0074997201 -0.0094890462
v -0.015542644 -0.050907571 -0.028535024
v 0.020443893 -0.046525664 -0.029499971
v -0.0247499 -0.055683028 0.015132508
v -0.025006925 -0.044030865 0.02949994
v 0.022967777 -0.051119351 -0.023161159
v 0.0095086678 0.0075029713 -0.0033630137
v 0.0058236277 0.0077810453 0.0075158939
v 0.025947831 -0.00041907676 0.012884736
v -0.0034010248 0.0075020421 0.0094616681
v 0.00023195417 -0.056000577 0.029499861
v 0.022702454 -0.052021059 0.022575654
v -0.028834182 -0.036470979 0.026118185
v -0.028000245 -0.019651733 0.026714647
v 0.023521865 -0.014452947 -0.029495655
v -0.018914387 -0.00066140378 -0.022612278
v -0.016910218 -0.055520737 -0.022555593
v 0.029420018 -0.010934872 0.021534509
v -0.020266519 -0.00054775364 0.020889261
v 0.017095455 -0.00051553466 0.023016597
v 0.015056343 -0.055592328 0.023604259
v -0.025061496 -0.00064869792 0.016208125
v 0.0059889005 -0.00090312006 0.0295003
v -0.0089353443 -0.00094626216 0.028770965
v 0.018891916 -0.0084548571 0.02950151
v -0.025005388 -0.012004257 0.029499973
f 1 2 3
f 6 4 5
f 9 7 8
f 9 3 2
f 9 8 3
f 12 10 11
f 12 5 4
f 12 4 13
f 14 5 12
f 15 8 7
f 15 10 16
f 15 17 10
f 18 11 10
f 18 10 17
f 19 20 21
f 19 13 20
f 19 12 13
f 19 22 10
f 19 10 12
f 23 10 22
f 24 19 21
f 24 22 19
f 27 25 26
f 27 1 3
f 28 6 5
f 31 29 30
f 31 30 6
f 31 6 28
f 31 28 5
f 32 2 1
f 32 9 2
f 32 17 9
f 32 29 17
f 32 33 29
f 34 26 30
f 34 30 29
f 34 29 33
f 35 7 9
f 35 9 17
f 36 17 29
f 36 29 14
f 36 18 17
f 36 14 12
f 37 15 16
f 37 8 15
f 37 16 38
f 37 38 8
f 39 12 11
f 39 11 18
f 39 36 12
f 39 18 36
f 40 4 6
f 40 6 30
f 40 30 26
f 40 26 41
f 42 13 4
f 42 4 40
f 42 40 41
f 43 26 25
f 43 41 26
f 44 38 16
f 44 24 21
f 44 16 10
f 44 10 23
f 45 23 22
f 45 22 24
f 46 8 38
f 46 3 8
f 46 47 3
f 48 5 14
f 48 31 5
f 48 14 29
f 48 29 31
f 49 1 27
f 49 32 1
f 49 33 32
f 49 27 26
f 49 26 34
f 49 34 33
f 50 17 15
f 50 35 17
f 50 15 7
f 50 7 35
f 51 20 13
f 51 13 42
f 52 43 25
f 53 42 41
f 53 51 42
f 54 24 44
f 54 45 24
f 54 44 23
f 54 23 45
f 55 25 27
f 55 52 25
f 55 27 3
f 56 41 43
f 56 53 41
f 57 43 52
f 57 56 43
f 58 38 44
f 58 44 21
f 58 21 20
f 58 20 51
f 58 51 53
f 58 53 56
f 59 56 57
f 59 38 58
f 59 58 56
f 59 46 38
f 59 47 46
f 59 3 47
f 59 57 52
f 59 55 3
f 59 52 55
