v 0.0061205198 -0.06645848 0.0011650943
v 0.0050015616 -0.06645848 0.00084193991
v 0.0071477617 -0.06645848 -0.011182683
v 0.0050015616 -0.06167357 0.00088003282
v 0.0056017422 -0.06645848 -0.0096323124
v 0.013991964 -0.0062292942 -0.0082521139
v 0.012720305 -0.06167357 -0.01118269
v 0.013005435 -0.036953719 -0.01118269
v 0.010015094 -0.064191943 0.0003505429
v 0.012565421 -0.058678026 -0.0079067083
v 0.0066036567 0.0012460635 -0.010684944
v 0.0061781617 0.0012460635 -0.0094101042
v 0.0092600273 -0.0017428558 0.0014488858
v 0.0092600273 -0.0077339354 0.0014215848
v 0.010282183 -0.0024917384 0.00080003807
v 0.0077613358 -0.06645848 0.0015733226
v 0.0074762065 -0.06645848 0.0015187222
v 0.0062908058 -0.06645848 -0.010790334
v 0.0050015659 -0.066458472 -0.0026869082
v 0.010345105 -0.06645848 -0.0016052056
v 0.010175919 -0.027403776 0.00065687222
v 0.010118936 -0.040698147 0.00056132245
v 0.010037672 -0.059565462 0.00039784143
v 0.012737026 -0.060175796 -0.0094050254
v 0.0050015616 -0.018847926 -0.0020086719
v 0.0057636675 0.0012460635 -0.0023553161
v 0.0050015616 -0.019490774 0.00085717735
v 0.0057633514 0.0012438529 0.00096250089
v 0.01051231 -0.00024508435 0.00018928326
v 0.010442787 0.0012460635 0.00015690454
v 0.013663699 -0.0035388536 -0.008252083
v 0.012656943 0.0012460635 -0.010888106
v 0.012003851 0.0012460635 -0.0065899673
v 0.0077622162 0.0012460635 0.0014247602
v 0.0050015616 -0.058674709 0.00087939768
v 0.011572967 -0.06645848 -0.007416581
v 0.0077622162 0.0012460635 -0.011293159
v 0.0081863903 0.0012460635 -0.01139601
v 0.008260313 -0.018847926 -0.01139601
v 0.012092844 -0.06645848 -0.01118269
v 0.012713265 0.0012460635 -0.01139601
v 0.010229821 -0.014788701 0.00073528061
v 0.0092591474 -0.063171335 0.0010133579
v 0.012710625 -0.06167357 -0.010903342
v 0.01151989 -0.063171335 -0.0050738732
v 0.0098954092 -0.065825572 0.00030610076
v 0.011239875 0.0012460635 -0.0027679885
v 0.013933207 -0.0050134287 -0.008252083
v 0.0092600273 0.00050048957 0.0014101577
v 0.0050015616 -0.027218212 0.00086225588
v 0.012062923 -0.06645848 -0.010903342
v 0.0092593671 -0.025500081 0.0013174651
v 0.0092591474 -0.043692859 0.0011826326
v 0.0091841246 -0.065941548 0.00097653443
v 0.011151212 -0.066166875 -0.0049113439
v 0.012298551 -0.06392022 -0.0097796052
v 0.013081998 -0.018847926 -0.01139601
v 0.013164721 -0.0041353109 -0.01139601
v 0.013145361 -0.0032207443 -0.01139601
v 0.012140366 -0.066166875 -0.01118269
f 5 12 11
f 10 6 9
f 3 39 40
f 19 5 2
f 57 40 39
f 38 39 3
f 26 28 34
f 45 9 46
f 45 10 9
f 13 34 16
f 18 5 11
f 25 19 2
f 25 28 26
f 25 26 12
f 25 12 5
f 25 5 19
f 60 40 57
f 60 57 7
f 58 59 6
f 58 6 57
f 8 6 7
f 8 57 6
f 8 7 57
f 37 38 3
f 37 3 18
f 37 18 11
f 51 40 60
f 20 45 46
f 20 55 45
f 20 36 55
f 17 16 34
f 23 9 6
f 23 6 22
f 21 22 6
f 48 41 31
f 48 59 41
f 48 6 59
f 27 28 25
f 27 34 28
f 27 17 34
f 24 6 10
f 24 7 6
f 24 55 36
f 24 10 45
f 24 45 55
f 42 6 15
f 42 21 6
f 43 22 21
f 43 21 42
f 43 23 22
f 43 9 23
f 30 48 31
f 44 60 7
f 44 7 24
f 53 42 15
f 53 43 42
f 53 15 52
f 53 16 43
f 53 52 16
f 54 46 9
f 54 9 43
f 54 43 16
f 54 16 20
f 54 20 46
f 49 30 34
f 49 34 13
f 49 13 15
f 49 15 30
f 29 15 6
f 29 30 15
f 29 6 48
f 29 48 30
f 4 1 17
f 4 17 35
f 4 2 1
f 50 17 27
f 50 35 17
f 56 60 44
f 56 44 24
f 56 51 60
f 56 36 51
f 56 24 36
f 14 15 13
f 14 52 15
f 14 13 16
f 14 16 52
f 32 31 41
f 32 33 31
f 47 30 31
f 47 31 33
f 17 3 40
f 17 2 5
f 17 5 18
f 17 1 2
f 17 20 16
f 17 18 3
f 17 40 51
f 17 51 36
f 17 36 20
f 41 39 38
f 41 57 39
f 41 59 58
f 41 58 57
f 50 27 25
f 50 25 2
f 50 2 4
f 50 4 35
f 47 11 12
f 47 37 11
f 47 12 26
f 47 26 34
f 47 38 37
f 47 41 38
f 47 34 30
f 47 32 41
f 47 33 32
