v 0.029662109 0.01044216 -0.0022390235
v 0.029555927 -0.016143238 -0.0024970597
v 0.031816125 0.0087486155 -0.019903422
v 0.025213318 -0.016883985 0.0066654967
v 0.025152892 -0.01753837 0.0054413204
v 0.028161193 -0.017512356 -0.0019125629
v 0.028188155 -0.017550373 -0.019903398
v 0.01827917 -0.017304148 0.00062575913
v 0.017199584 -0.01625401 0.0019340274
v 0.013154846 -0.01638829 -0.0081995483
v 0.01945034 -0.017438845 -0.019903287
v 0.024238157 0.008745602 0.0074144483
v 0.022742624 -0.012604082 0.0071296659
v 0.024234509 -0.010922045 0.0073399109
v 0.031718961 -0.0024626117 -0.019902935
v 0.031620976 -0.01370968 -0.019903429
v 0.030246727 -0.016761713 -0.019903429
v 0.026051945 0.0027550053 0.0053507677
v 0.025761045 0.010481829 0.0057893083
v 0.021068174 0.011075469 -0.019903071
v 0.028744812 0.012010025 -0.019903429
v 0.019979538 0.0072501351 -0.019903429
v 0.020142327 0.009442012 -0.019901064
v 0.031305455 0.010290529 -0.019903429
v 0.021983563 -0.017484503 -0.019903364
v 0.022834022 0.01208741 -0.01985381
v 0.016594303 -0.015261881 0.0016211658
v 0.015169217 -0.013991171 -0.0013510166
v 0.022803609 -0.015573014 0.0066017112
v 0.031299985 -0.015478637 -0.019903429
v 0.029146054 -0.017369792 -0.019478259
v 0.029602007 0.011192465 -0.0023912145
v 0.023696305 0.012111371 0.0058991971
v 0.025295971 0.0035034658 0.0068488931
v 0.020436862 -0.015830684 -0.019903429
v 0.027234692 0.012079852 -0.0019098886
v 0.026306141 0.012094037 -0.019149353
v 0.016471651 -0.0021165369 0.0019580938
v 0.014475253 0.0095748003 -0.0040464381
v 0.015016015 -0.00061125054 -0.0019499991
v 0.017637414 -0.0067969636 0.0039893529
v 0.01318399 -0.0064330992 -0.0073301453
v 0.01444972 0.0096388073 -0.0049101491
v 0.015505996 0.011067222 -0.0042063365
v 0.01892446 -0.015401538 0.0048848188
v 0.020383516 -0.012222214 0.0060045675
v 0.031450906 -0.014865467 -0.019900755
v 0.030900567 0.010881151 -0.019903429
v 0.028929816 0.011569241 -0.0046591248
v 0.018830989 0.012026209 -0.00024213037
v 0.026693132 0.011543602 0.0025869921
v 0.019815396 -0.013721318 -0.019903429
v 0.021522034 0.008745602 0.006454473
v 0.014462487 0.0096097126 -0.0058594298
v 0.013163831 -0.0034722129 -0.0082150926
v 0.016134359 0.011285931 -0.0066950633
v 0.019891996 -0.0032312276 -0.019903429
v 0.01855867 -0.00062052424 0.004834513
v 0.018238932 0.010153603 0.0038665144
v 0.016865483 0.010668487 0.0005742841
f 15 16 3
f 53 13 12
f 24 3 16
f 55 11 10
f 55 22 11
f 2 16 15
f 2 15 3
f 2 3 1
f 27 10 9
f 14 12 13
f 14 13 4
f 29 4 13
f 46 13 53
f 38 27 41
f 18 1 19
f 18 4 2
f 18 2 1
f 33 53 12
f 33 12 19
f 52 35 11
f 42 55 10
f 47 16 2
f 8 9 10
f 8 5 9
f 8 10 11
f 8 11 5
f 58 46 53
f 45 27 9
f 45 41 27
f 45 4 29
f 45 29 13
f 45 13 46
f 45 58 41
f 45 46 58
f 45 5 4
f 45 9 5
f 28 38 40
f 28 27 38
f 28 40 42
f 28 10 27
f 28 42 10
f 34 4 18
f 34 18 19
f 34 19 12
f 34 12 14
f 34 14 4
f 59 53 33
f 59 58 53
f 59 38 41
f 59 41 58
f 56 20 54
f 56 26 20
f 17 7 35
f 17 31 7
f 25 11 35
f 25 35 7
f 25 5 11
f 25 7 5
f 6 7 31
f 6 5 7
f 6 31 17
f 6 17 2
f 6 2 4
f 6 4 5
f 57 11 22
f 57 52 11
f 39 40 38
f 39 38 59
f 39 42 40
f 39 55 42
f 32 19 1
f 32 49 36
f 32 1 3
f 32 3 24
f 37 26 33
f 37 33 36
f 21 22 20
f 21 20 26
f 21 26 37
f 21 49 32
f 21 36 49
f 21 37 36
f 23 54 20
f 23 20 22
f 23 55 54
f 23 22 55
f 50 59 33
f 50 33 26
f 50 26 56
f 30 16 47
f 30 47 2
f 30 2 17
f 43 54 55
f 43 55 39
f 51 36 33
f 51 32 36
f 51 33 19
f 51 19 32
f 48 32 24
f 48 21 32
f 44 50 56
f 44 43 39
f 44 56 54
f 44 54 43
f 60 59 50
f 60 50 44
f 60 39 59
f 60 44 39
f 48 57 22
f 48 24 16
f 48 22 21
f 48 35 52
f 48 17 35
f 48 52 57
f 48 16 30
f 48 30 17
