v -0.039817274 -0.014195386 -0.023327342
v -0.023717018 -0.014195386 -0.047727938
v -0.030895591 -0.014195392 -0.12478493
v -0.023717018 -0.014195395 -0.12475788
v -0.023717018 -0.026009272 -0.10256926
v -0.023717018 -0.02600823 -0.029656504
v -0.037224717 -0.014195396 -0.11991517
v -0.02434432 -0.026009387 -0.023327342
v -0.027157728 -0.014195386 -0.035756654
v -0.032874382 -0.026009387 -0.020037841
v -0.031329767 -0.026009387 -0.085494726
v -0.033456839 -0.026009232 -0.020736707
v -0.033983987 -0.024147366 -0.018840711
v -0.023717018 -0.021838923 -0.12189784
v -0.023717018 -0.023060223 -0.1198419
v -0.033500112 -0.014195386 -0.020287674
v -0.033867351 -0.014195386 -0.019673497
v -0.025754964 -0.026009387 -0.020058662
v -0.033883112 -0.020890563 -0.11658883
v -0.034915485 -0.019452993 -0.11347631
v -0.035519934 -0.017964533 -0.11814509
v -0.026321587 -0.026009387 -0.019574604
v -0.038890282 -0.016596164 -0.023330866
v -0.023717018 -0.024112671 -0.11658883
v -0.026427976 -0.024362479 -0.11501696
v -0.023717018 -0.01813545 -0.12435899
v -0.034930397 -0.014195438 -0.12455098
v -0.034600255 -0.018627228 -0.12183538
v -0.03736559 -0.018246582 -0.053898351
v -0.037799817 -0.019038953 -0.023327342
v -0.034377627 -0.024602753 -0.027212802
v -0.034214099 -0.024383297 -0.037755339
v -0.034188883 -0.021240416 -0.10389407
v -0.031450756 -0.026009387 -0.082358784
v -0.03924356 -0.014195386 -0.020173169
v -0.037823865 -0.01419542 -0.018399485
v -0.034169967 -0.014964483 -0.018642927
v -0.024743082 -0.026009387 -0.10250436
v -0.027884723 -0.026009387 -0.097260417
v -0.028199553 -0.024445751 -0.11295581
v -0.031052367 -0.026009387 -0.087795297
v -0.03084747 -0.026009387 -0.089221441
v -0.030210708 -0.026009387 -0.091803073
v -0.030860867 -0.018748663 -0.12377681
v -0.035817567 -0.014195397 -0.12317466
v -0.029537697 -0.02356563 -0.11658883
v -0.036267812 -0.016591727 -0.11658883
v -0.036915603 -0.020592179 -0.023327342
v -0.034044667 -0.021066648 -0.11114711
v -0.037512171 -0.018532969 -0.019402843
v -0.035026624 -0.01419542 -0.018537354
v -0.023717018 -0.019904849 -0.12326866
v -0.033063517 -0.020863387 -0.11970137
v -0.035597953 -0.022809256 -0.023327342
v -0.030508598 -0.025982787 -0.018514105
v -0.032327462 -0.022147718 -0.11658883
v -0.030506234 -0.021644047 -0.12173129
v -0.028298852 -0.024679372 -0.018767846
v -0.026427976 -0.022472704 -0.1207996
v -0.027982838 -0.023456914 -0.11814509
f 3 1 2
f 4 3 2
f 4 26 3
f 9 8 2
f 7 1 3
f 16 8 9
f 16 18 8
f 16 17 18
f 27 3 26
f 6 2 8
f 6 8 5
f 35 36 17
f 51 17 36
f 34 49 11
f 12 30 48
f 45 7 3
f 45 3 27
f 44 27 26
f 37 51 58
f 37 18 17
f 37 17 51
f 23 1 7
f 19 11 49
f 20 19 49
f 55 58 51
f 55 51 36
f 54 12 48
f 32 34 12
f 22 37 58
f 22 18 37
f 22 58 55
f 50 35 1
f 50 1 23
f 50 23 30
f 50 30 12
f 50 36 35
f 28 7 45
f 28 45 27
f 28 27 44
f 29 48 30
f 29 47 20
f 29 30 23
f 29 23 7
f 29 7 47
f 21 19 20
f 21 20 47
f 21 28 19
f 21 47 7
f 21 7 28
f 33 49 34
f 33 34 32
f 33 32 54
f 33 54 48
f 33 20 49
f 33 48 29
f 33 29 20
f 31 12 54
f 31 32 12
f 31 54 32
f 38 39 40
f 38 5 8
f 41 56 42
f 41 11 19
f 41 19 56
f 46 42 56
f 10 22 55
f 10 12 34
f 53 56 19
f 53 19 28
f 43 46 40
f 43 42 46
f 43 40 39
f 25 24 5
f 25 5 38
f 25 38 40
f 25 40 46
f 52 44 26
f 52 14 44
f 13 10 55
f 13 55 36
f 13 36 50
f 13 50 12
f 13 12 10
f 57 44 14
f 57 28 44
f 57 53 28
f 57 46 56
f 57 56 53
f 60 25 46
f 60 24 25
f 60 15 24
f 60 46 57
f 59 14 15
f 59 57 14
f 59 15 60
f 59 60 57
f 35 17 16
f 35 2 1
f 35 9 2
f 35 16 9
f 43 8 18
f 43 34 11
f 43 38 8
f 43 18 22
f 43 10 34
f 43 11 41
f 43 39 38
f 43 41 42
f 43 22 10
f 52 26 4
f 52 4 2
f 52 2 6
f 52 6 5
f 52 5 24
f 52 24 15
f 52 15 14
