v -0.023717021 -0.013475413 -0.12477887
v -0.017096279 0.025994898 -0.12590871
v 0.02368137 -0.013470438 -0.12477887
v 0.017789048 0.025999991 -0.1258987
v 0.022510163 -0.00090702068 -0.023515487
v 0.023681369 -0.026004299 -0.029772127
v 0.023681369 0.025999991 -0.028662279
v 0.023681369 0.025999991 -0.12541878
v -0.023717021 -0.023158117 -0.11969556
v -0.023716442 -0.018194223 -0.12438855
v -0.023717021 0.00069785511 -0.07716301
v -0.023717021 -0.02600939 -0.10253197
v -0.023712382 0.025994898 -0.028592291
v -0.023712371 0.025994896 -0.12538175
v 0.0029217694 -0.022545646 -0.023773151
v -0.023712382 -0.02600939 -0.029672139
v 0.020575142 0.025999991 -0.12586372
v -0.014201154 0.025999991 -0.031411896
v -0.023617269 -0.020572231 -0.12278289
v 0.023676425 -0.021832934 -0.12192887
v -0.023717021 -0.024359912 -0.11501022
v 0.023681369 -0.018189654 -0.12437892
v 0.023680291 -0.016648541 -0.12457633
v 0.020201652 -0.021010055 -0.12252917
v -0.020200187 0.025994898 -0.12586871
v -0.023717021 -0.026004299 -0.029672139
v 0.0052578501 0.022544169 -0.023762975
v -0.014201154 0.025999991 -0.1258987
v -0.013500571 -0.02600939 -0.11007092
v -0.0021330942 -0.02600939 -0.11319105
v -0.014911016 -0.025059925 -0.11457778
v -0.0097401558 -0.019732219 -0.12345405
v 0.023681369 -0.023122801 -0.11971854
v 0.021534965 -0.0067585107 -0.023772966
v 0.0088377652 -0.020489185 -0.023772966
v -0.022519998 0.0016193214 -0.023762965
v -0.019603559 -0.011093475 -0.023772966
v -0.0032168456 -0.022272615 -0.023772966
v -0.01621475 -0.015710351 -0.023772966
v -0.013507844 -0.01800192 -0.023767515
v 0.0094307672 -0.02600939 -0.11165069
v 0.023681369 -0.024359912 -0.11502022
v 0.023681369 -0.026004299 -0.1022628
v -0.019793639 0.010352886 -0.023762965
v -0.015755427 0.016250779 -0.023762965
v 0.021783623 0.0058811198 -0.023762017
v 0.019109022 0.011481809 -0.023762965
v 0.014591189 0.017132789 -0.023762965
v 0.019182096 -0.011741938 -0.023772966
v 0.016211577 -0.015710351 -0.023772966
v 0.014529713 -0.017124368 -0.023772966
v -0.01769943 -0.013975601 -0.023772966
v -0.02260776 -0.0035769718 -0.024021331
v -0.009219358 -0.020416956 -0.023772966
v 0.013390685 -0.025052288 -0.11480276
v 0.014952801 -0.026009353 -0.10888418
v -0.022181886 0.003716802 -0.023762965
v -0.0028769932 0.022362492 -0.023762965
v -0.0077659961 0.021173749 -0.023762965
v -0.012675298 0.018499079 -0.023762965
f 2 3 1
f 2 4 3
f 28 4 2
f 17 3 4
f 17 8 3
f 7 5 6
f 7 3 8
f 7 6 3
f 14 13 28
f 15 16 6
f 11 26 13
f 11 14 1
f 11 13 14
f 27 7 13
f 18 28 13
f 18 13 7
f 25 28 2
f 25 14 28
f 25 2 1
f 25 1 14
f 12 16 26
f 39 26 16
f 43 3 6
f 43 42 3
f 9 10 19
f 9 1 10
f 34 6 5
f 35 15 6
f 35 5 15
f 32 19 10
f 32 10 22
f 32 22 24
f 21 29 12
f 20 9 19
f 20 19 32
f 20 32 24
f 20 24 22
f 46 5 7
f 46 47 5
f 46 7 47
f 48 7 27
f 48 47 7
f 48 27 5
f 48 5 47
f 49 50 6
f 49 6 34
f 49 5 50
f 49 34 5
f 51 6 50
f 51 35 6
f 51 50 5
f 51 5 35
f 38 16 15
f 38 54 16
f 38 15 5
f 38 5 54
f 40 39 16
f 40 16 54
f 40 54 5
f 37 5 36
f 56 42 43
f 56 41 42
f 56 43 6
f 56 16 41
f 56 6 16
f 23 3 22
f 23 22 10
f 23 1 3
f 23 10 1
f 52 26 39
f 52 37 26
f 52 39 40
f 52 40 5
f 52 5 37
f 53 26 37
f 53 37 36
f 53 13 26
f 53 36 13
f 44 45 13
f 44 5 45
f 31 21 9
f 31 9 30
f 31 30 29
f 31 29 21
f 33 9 20
f 33 30 9
f 33 20 22
f 33 3 42
f 33 22 3
f 58 27 13
f 58 13 59
f 58 5 27
f 58 59 5
f 60 13 45
f 60 59 13
f 60 45 5
f 60 5 59
f 57 13 36
f 57 44 13
f 57 36 5
f 57 5 44
f 55 41 30
f 55 30 33
f 55 42 41
f 55 33 42
f 18 17 4
f 18 4 28
f 18 8 17
f 18 7 8
f 21 26 11
f 21 11 1
f 21 12 26
f 21 1 9
f 30 12 29
f 30 16 12
f 30 41 16
