v -0.021299439 0.011690246 0.076614419
v -0.021415571 -0.01073231 0.076548338
v -0.018685832 0.011690246 0.070755005
v -0.019356251 -0.010732309 0.070754203
v -0.028639755 0.011690246 0.070753651
v -0.0289962 -0.01073231 0.070754328
v -0.030720465 0.0038097603 0.070753677
v -0.021323385 0.011690246 0.076630608
v -0.030706267 -0.0037000202 0.074465941
v -0.030762238 -6.0540901e-07 0.074579741
v -0.030849338 -0.0020305645 0.072174001
v -0.030910996 -0.00048347178 0.070754328
v -0.030831978 -0.002707949 0.070754328
v -0.030335266 -0.0058520674 0.070754328
v -0.030872983 0.0015777637 0.072157563
v -0.029103741 0.010427113 0.070753651
v -0.030172888 -0.0013542773 0.075483031
v -0.029154026 -0.0039738273 0.076500962
v -0.029262077 -0.0099899019 0.070754328
v -0.029840652 -0.008122637 0.073527928
v -0.030484175 -0.0050547892 0.072625308
v -0.029641009 -0.0056018547 0.075519449
v -0.029216284 -0.0090247186 0.074957549
v -0.027805318 -0.01073231 0.076004808
v -0.02891757 -0.01073231 0.074488871
v -0.027998677 -0.0072951796 0.076852128
v -0.027980119 -0.0036100311 0.07723853
v -0.02617466 0.0063172616 0.077632691
v -0.026175557 -9.3847366e-06 0.077641456
v -0.024371593 0.0099277852 0.077642803
v -0.024393742 0.011690246 0.07760942
v -0.029487763 -0.009226096 0.072625308
v -0.028068117 -0.0094757594 0.076252635
v -0.022589481 0.011690246 0.07732417
v -0.027980119 -6.0540901e-07 0.077340359
v -0.028600296 0.011690246 0.073623686
v -0.02256733 -0.01073231 0.077251683
v -0.024372791 -0.01073231 0.077629991
v -0.024372791 -0.0099268002 0.077641456
v -0.026175855 -0.0099268002 0.077349465
v -0.027980119 0.0027067382 0.077298882
v -0.02929111 -6.0540901e-07 0.076636672
v -0.029185752 0.0036099175 0.076532491
v -0.029181861 0.010174156 0.072174678
v -0.029839454 0.0081214255 0.073528599
v -0.028892425 0.01085401 0.074448413
v -0.026175855 -0.0072194575 0.07759358
v -0.026240506 -0.01073231 0.077154572
v -0.0275955 0.011690246 0.075837739
v -0.030695491 0.0036483275 0.074444366
v -0.030303073 0.0060186079 0.072571579
v -0.02617466 0.009024605 0.077451964
v -0.026437155 0.011690246 0.076858705
v -0.028015439 0.0066744722 0.076909872
v -0.028884045 0.0072215377 0.076236112
v -0.02985921 0.0081214255 0.071238511
v -0.028568569 0.0091760499 0.075826445
v -0.029257288 0.0085291186 0.075044536
v -0.030107939 0.0035605336 0.075319668
v -0.02740364 0.010640013 0.076530803
f 4 3 2
f 4 5 3
f 1 2 3
f 6 7 4
f 6 4 2
f 16 5 4
f 16 4 7
f 8 37 2
f 8 2 1
f 15 7 12
f 15 50 7
f 45 50 46
f 60 55 54
f 60 54 53
f 58 50 55
f 58 46 50
f 13 12 7
f 13 7 14
f 19 7 6
f 19 14 7
f 19 6 25
f 39 30 29
f 39 38 37
f 47 40 38
f 47 29 35
f 47 38 39
f 47 39 29
f 48 38 40
f 48 40 26
f 59 55 50
f 41 42 35
f 52 31 53
f 52 53 54
f 52 54 41
f 34 37 8
f 34 30 39
f 34 39 37
f 34 31 30
f 56 16 7
f 51 7 50
f 51 50 45
f 51 56 7
f 51 45 56
f 49 36 46
f 49 60 53
f 44 36 5
f 44 5 16
f 44 46 36
f 44 45 46
f 44 16 56
f 44 56 45
f 20 14 19
f 20 25 9
f 22 18 9
f 17 18 42
f 17 9 18
f 17 42 59
f 11 15 12
f 11 12 13
f 11 13 9
f 27 47 35
f 27 18 26
f 27 26 40
f 27 40 47
f 27 42 18
f 27 35 42
f 43 42 41
f 43 41 54
f 43 54 55
f 43 55 59
f 43 59 42
f 28 52 41
f 28 35 29
f 28 41 35
f 28 31 52
f 28 30 31
f 28 29 30
f 57 49 46
f 57 58 55
f 57 46 58
f 57 55 60
f 57 60 49
f 32 19 25
f 32 25 20
f 32 20 19
f 21 14 20
f 21 20 9
f 21 13 14
f 21 9 13
f 10 9 17
f 10 50 15
f 10 59 50
f 10 17 59
f 10 15 11
f 10 11 9
f 33 24 48
f 33 48 26
f 33 26 18
f 33 18 22
f 23 25 24
f 23 24 33
f 23 33 22
f 23 9 25
f 23 22 9
f 49 1 3
f 49 3 5
f 49 8 1
f 49 53 31
f 49 5 36
f 49 31 34
f 49 34 8
f 24 2 37
f 24 6 2
f 24 37 38
f 24 25 6
f 24 38 48
