v -0.026888246 -0.016206507 -0.092541116
v -0.040988777 -0.013562764 -0.092309886
v -0.021710446 -0.014492614 -0.091892763
v -0.034597363 -0.020098887 -0.086015418
v -0.042025225 -0.015999727 -0.086015418
v -0.039927217 -0.017757442 -0.086015431
v -0.021710446 -0.013855704 -0.090544957
v -0.043453659 -0.01368405 -0.091757342
v -0.043323272 -0.013562764 -0.091744889
v -0.032617487 -0.016206507 -0.092520043
v -0.042151461 -0.014311019 -0.091987296
v -0.038344514 -0.016206507 -0.092238976
v -0.040094068 -0.016159452 -0.091851247
v -0.036013272 -0.019547811 -0.086015443
v -0.039349953 -0.017186727 -0.091531221
v -0.037912659 -0.013562764 -0.090607235
v -0.037181835 -0.013562764 -0.086015418
v -0.026888246 -0.01357138 -0.086015418
v -0.038932496 -0.013562764 -0.091885096
v -0.021710446 -0.013599879 -0.086015418
v -0.021710446 -0.016206507 -0.092311796
v -0.024020301 -0.019071612 -0.091501834
v -0.021710446 -0.017710306 -0.091853157
v -0.021710446 -0.018265035 -0.090544957
v -0.040255736 -0.014296439 -0.092313072
v -0.041507002 -0.015491391 -0.09170369
v -0.023265115 -0.019697256 -0.086015418
v -0.038344514 -0.01743261 -0.09173818
v -0.034032632 -0.019195547 -0.091650032
v -0.036435503 -0.018622926 -0.090544957
v -0.032617487 -0.018115252 -0.092277306
v -0.032617487 -0.01959254 -0.090544957
v -0.026888246 -0.019621039 -0.090544957
v -0.030708476 -0.020330189 -0.086015418
v -0.029753974 -0.01931153 -0.091779696
v -0.04368398 -0.013919329 -0.090544957
v -0.044007318 -0.013562764 -0.090544957
v -0.04396081 -0.014200337 -0.086015418
v -0.044335082 -0.013562764 -0.086015418
v -0.042680755 -0.014874362 -0.090544957
v -0.021710446 -0.013831844 -0.090231317
v -0.021710446 -0.018771382 -0.086015418
v -0.022833263 -0.019487162 -0.086015418
v -0.024979235 -0.020169803 -0.086015418
v -0.023898499 -0.01989277 -0.086015418
v -0.027690494 -0.020316852 -0.086015418
v -0.034857584 -0.01915777 -0.090544957
v -0.032617487 -0.019284357 -0.091752232
v -0.036435503 -0.017838218 -0.091977718
v -0.026888246 -0.018115252 -0.092291359
v -0.032617487 -0.020288437 -0.086015418
v -0.041724035 -0.015672986 -0.090544957
v -0.021710446 -0.013743035 -0.088636306
v -0.025849584 -0.020265238 -0.086015418
v -0.034612866 -0.018264372 -0.092010292
v -0.029753974 -0.018115252 -0.09230477
v -0.026888246 -0.019297614 -0.09176565
v -0.024979235 -0.019178316 -0.091627678
v -0.024979235 -0.018115252 -0.092152739
v -0.023258472 -0.018168273 -0.091906815
f 5 6 4
f 32 4 29
f 14 4 6
f 14 6 15
f 47 29 4
f 28 29 15
f 9 2 8
f 11 26 8
f 11 8 2
f 16 17 18
f 7 3 2
f 24 22 23
f 24 42 43
f 33 34 32
f 59 21 23
f 50 21 59
f 30 14 15
f 30 15 29
f 30 29 47
f 30 4 14
f 30 47 4
f 52 26 15
f 52 15 6
f 40 5 38
f 40 38 36
f 40 6 5
f 40 52 6
f 40 26 52
f 40 8 26
f 40 36 8
f 37 8 36
f 37 9 8
f 37 38 39
f 37 36 38
f 19 16 18
f 19 18 20
f 19 7 2
f 1 3 21
f 1 2 3
f 1 50 56
f 1 21 50
f 51 4 32
f 51 32 34
f 27 45 22
f 27 24 43
f 27 22 24
f 44 22 45
f 44 54 33
f 46 33 54
f 46 34 33
f 35 33 32
f 35 56 50
f 60 23 22
f 60 59 23
f 13 26 11
f 13 11 12
f 13 12 28
f 13 15 26
f 13 28 15
f 41 7 19
f 10 2 1
f 10 1 56
f 58 22 44
f 58 44 33
f 58 60 22
f 58 59 60
f 48 32 29
f 48 35 32
f 48 29 55
f 49 28 12
f 49 29 28
f 49 55 29
f 53 19 20
f 53 41 19
f 25 2 10
f 25 10 12
f 25 11 2
f 25 12 11
f 31 10 56
f 31 12 10
f 31 48 55
f 31 49 12
f 31 55 49
f 31 56 35
f 31 35 48
f 57 33 35
f 57 58 33
f 57 35 50
f 57 50 59
f 57 59 58
f 19 39 17
f 19 17 16
f 19 2 9
f 19 37 39
f 19 9 37
f 46 17 39
f 46 42 20
f 46 39 38
f 46 18 17
f 46 43 42
f 46 5 4
f 46 4 51
f 46 20 18
f 46 38 5
f 46 54 44
f 46 27 43
f 46 51 34
f 46 45 27
f 46 44 45
f 53 20 42
f 53 23 21
f 53 24 23
f 53 3 7
f 53 21 3
f 53 42 24
f 53 7 41
