v 0.011549017 0.008717602 -0.016985908
v 0.011548809 0.0087175991 0.018099879
v 0.011550404 -0.0051346791 -0.017625977
v -0.0010310858 0.0087209591 0.018599169
v -2.0417504e-05 -0.0094431325 -0.034770203
v 6.368088e-05 -0.019414857 -0.034767299
v -0.0010494163 -0.0123866 -0.034766624
v 0.0073998249 0.0087176088 -0.022019234
v -0.00016934713 0.0087175855 -0.019242292
v -0.001049176 0.0087176088 -0.016094384
v -0.0010489712 -0.018088282 -0.034736389
v 0.00051019481 -0.021180686 -0.02297659
v 0.00841226 0.0086919067 0.022770194
v 0.0016181047 -0.0089665589 -0.034766728
v 0.0043011408 -0.0096467277 -0.034766731
v 0.01154634 -0.018371758 -0.0050458027
v 0.011426047 -0.011906204 -0.014627755
v 0.0080208573 -0.016399579 -0.034766731
v 0.0069376367 -0.019409589 -0.034760655
v 0.0077074264 -0.018116535 -0.034754575
v 0.0087258081 -0.023297317 -0.0055381535
v 0.0080352083 -0.015018423 -0.034762104
v 0.010514043 -0.00025575643 0.021181636
v 0.0080350806 -0.0020035133 0.023649594
v 0.0091201142 -0.013806529 0.019827042
v 0.011227774 -0.006241329 0.018291781
v 0.0046215245 -0.01993226 -0.034766731
v -0.0010337507 -0.018114769 -0.026087279
v -0.00076362901 -0.020023373 0.00016095064
v -0.00043769533 -0.020023373 -0.022740845
v -1.9320313e-05 -0.021115551 0.0024425819
v -0.00063612333 -0.0081509341 0.018184689
v -0.00067728959 0.001458832 0.019730689
v 0.00054935644 2.1383234e-05 0.021249377
v 0.0078088418 -0.0073580794 0.022429811
v 0.0045061989 -0.0059565968 0.023163374
v 0.00015095882 -0.0076094432 0.019635816
v 0.0048945748 0.00026455464 0.023608986
v 0.0063505236 -0.023816907 0.00099540324
v 0.0086531345 -0.022267809 0.0086474055
v 0.0023691276 -0.02211221 0.003938627
v 0.0043248846 -0.020285527 0.012063215
v 0.0040448954 -0.023362634 -0.0017422607
v 5.0588279e-05 -0.018424477 0.0096903101
v 0.010131354 -0.018676602 0.014433352
v 0.0095617188 -0.02269726 0.0014730038
v 0.010736946 -0.020787855 -0.001625466
v 0.0090390519 0.0087176088 -0.021760489
v 0.0024283706 -0.020773018 -0.028174666
v 0.0022120193 0.005872283 0.021553405
v 0.0060519953 -0.02377105 -0.0031725445
v -0.00012625435 -0.013859568 0.015241465
v 0.011546286 -0.017904585 0.0071707311
v 0.010070199 0.0087176088 -0.020449514
v 0.0065758935 -0.0113787 -0.034766731
v -0.0010386844 -0.01368653 0.01222565
v 0.0042798643 -0.01658021 0.016760872
v 0.0084914118 0.0077425244 -0.02277247
v 0.0072832647 -0.012398541 -0.034766731
v 0.0033894053 -0.011117745 0.020174868
f 1 4 2
f 1 2 3
f 1 3 22
f 9 4 8
f 9 10 4
f 9 7 10
f 17 3 16
f 20 21 19
f 13 2 4
f 11 7 6
f 11 6 12
f 11 10 7
f 55 15 58
f 48 8 4
f 48 58 8
f 5 9 8
f 5 7 9
f 5 6 7
f 5 15 55
f 46 39 21
f 18 20 19
f 18 22 3
f 18 3 17
f 18 17 16
f 18 16 20
f 47 20 16
f 47 21 20
f 47 46 21
f 33 4 32
f 27 19 21
f 27 18 19
f 27 6 5
f 27 5 18
f 28 11 29
f 30 29 11
f 30 11 12
f 30 31 29
f 30 12 31
f 54 4 1
f 54 48 4
f 54 1 22
f 59 55 58
f 59 58 48
f 59 22 18
f 59 54 22
f 59 48 54
f 59 5 55
f 59 18 5
f 14 8 58
f 14 5 8
f 14 58 15
f 14 15 5
f 40 39 46
f 37 33 32
f 41 39 40
f 41 40 42
f 43 31 12
f 43 39 41
f 43 41 31
f 44 29 31
f 44 41 42
f 44 31 41
f 23 2 13
f 49 12 6
f 49 6 27
f 51 39 43
f 51 43 12
f 51 12 49
f 51 21 39
f 51 27 21
f 51 49 27
f 52 60 37
f 52 37 32
f 24 23 13
f 24 13 38
f 24 35 25
f 24 25 23
f 50 13 4
f 50 38 13
f 36 60 25
f 36 25 35
f 36 37 60
f 36 35 24
f 36 24 38
f 45 42 40
f 45 40 46
f 57 25 60
f 57 60 52
f 57 42 45
f 57 45 25
f 57 44 42
f 57 52 44
f 56 29 44
f 56 44 52
f 56 52 32
f 56 32 4
f 56 28 29
f 56 11 28
f 56 4 10
f 56 10 11
f 34 38 50
f 34 36 38
f 34 4 33
f 34 50 4
f 34 33 37
f 34 37 36
f 26 2 23
f 26 23 25
f 26 25 45
f 53 2 26
f 53 3 2
f 53 16 3
f 53 26 45
f 53 47 16
f 53 46 47
f 53 45 46
