v 0.037404594 -0.0010115465 -0.018613638
v 0.023683192 -0.0040807376 -0.029797395
v 0.034501242 -0.026009251 0.011168711
v 0.023683192 -0.0040807432 -0.12479585
v 0.023683192 -0.026009388 -0.10224065
v 0.023683192 -0.026009388 -0.029776564
v 0.042315848 -0.00101239 -0.023765668
v 0.042173932 -0.0010307417 -0.022553334
v 0.035756678 -0.00098785506 -0.022956638
v 0.024365856 -0.026009388 -0.023328137
v 0.039127203 -0.0072698249 -0.1197874
v 0.039596149 -0.0040807376 -0.11967953
v 0.040402479 -0.0041394619 -0.088721344
v 0.035586849 -0.0040827719 -0.12459309
v 0.024747342 -0.026009388 -0.021932192
v 0.042315848 -0.0010490933 -0.023765668
v 0.041630697 -0.0072628802 -0.022891381
v 0.040582559 -0.012214248 -0.021554398
v 0.03811492 -0.0040807376 -0.1233517
v 0.030818047 -0.026009388 -0.018511034
v 0.033411342 -0.026009343 -0.021052322
v 0.031303818 -0.026009388 -0.085489324
v 0.03419783 -0.024360212 -0.038902288
v 0.036252202 -0.021689477 -0.023328137
v 0.03776857 -0.018975924 -0.024994933
v 0.040985203 -0.010376477 -0.023328137
v 0.038402421 -0.010378569 -0.11963958
v 0.023683197 -0.015023324 -0.12468969
v 0.023683197 -0.018202579 -0.12437839
v 0.033319593 -0.020851681 -0.12160233
v 0.023683257 -0.020839994 -0.12266097
v 0.031648835 -0.017520491 -0.12475557
v 0.028588228 -0.022722046 -0.11968995
v 0.028434664 -0.024158349 -0.11572565
v 0.027739464 -0.026009388 -0.097110031
v 0.032327809 -0.02214826 -0.11657512
v 0.03148373 -0.026009289 -0.081656302
v 0.037650381 -0.012923645 -0.11967953
v 0.038878808 -0.016589024 -0.023328137
v 0.025811493 -0.026009388 -0.020046625
v 0.029016717 -0.026009388 -0.018494416
v 0.027678772 -0.026009388 -0.018629844
v 0.035832785 -0.011815453 -0.12399498
v 0.023683192 -0.023639615 -0.11804138
v 0.030409876 -0.026009388 -0.090948088
v 0.037356509 -0.018234528 -0.053861807
v 0.036856378 -0.015020593 -0.11968474
v 0.037168504 -0.014645002 -0.1150125
v 0.03395415 -0.020966434 -0.11424421
v 0.026079812 -0.026009388 -0.01977056
v 0.037778153 -0.010334268 -0.12218234
v 0.0362045 -0.016513938 -0.11968411
v 0.034937076 -0.019492207 -0.11191329
v 0.034206044 -0.021262502 -0.1028657
v 0.036715831 -0.01556624 -0.11657512
f 1 2 3
f 8 7 1
f 8 1 3
f 9 7 4
f 9 1 7
f 9 4 2
f 9 2 1
f 21 20 22
f 21 3 20
f 16 7 8
f 16 12 7
f 17 8 3
f 17 3 18
f 17 16 8
f 37 23 3
f 37 3 21
f 37 21 22
f 54 46 25
f 54 23 37
f 32 30 31
f 10 2 6
f 39 25 46
f 39 18 3
f 39 3 25
f 26 17 18
f 13 12 16
f 13 16 17
f 24 23 54
f 24 54 25
f 24 3 23
f 24 25 3
f 29 44 4
f 29 31 44
f 29 32 31
f 33 31 30
f 33 44 31
f 43 30 32
f 41 20 3
f 41 3 42
f 50 3 40
f 50 42 3
f 15 3 2
f 15 2 10
f 15 40 3
f 48 38 18
f 48 18 39
f 48 39 46
f 11 17 26
f 11 12 13
f 11 13 17
f 28 4 32
f 28 29 4
f 28 32 29
f 36 22 45
f 36 30 22
f 34 5 44
f 34 44 33
f 34 35 5
f 34 45 35
f 34 36 45
f 34 33 30
f 34 30 36
f 53 46 54
f 53 52 46
f 14 4 7
f 14 32 4
f 14 43 32
f 47 38 48
f 47 48 52
f 55 46 52
f 55 48 46
f 55 52 48
f 19 43 14
f 19 7 12
f 19 14 7
f 51 38 47
f 51 43 19
f 51 30 43
f 51 12 11
f 51 19 12
f 51 52 30
f 51 47 52
f 27 26 18
f 27 11 26
f 27 18 38
f 27 38 51
f 27 51 11
f 49 30 52
f 49 52 53
f 49 53 54
f 49 22 30
f 49 37 22
f 49 54 37
f 44 6 2
f 44 2 4
f 44 5 6
f 15 6 5
f 15 5 35
f 15 22 20
f 15 10 6
f 15 45 22
f 15 35 45
f 15 20 41
f 15 50 40
f 15 41 42
f 15 42 50
