v 0.023683087 -0.0040794542 -0.029794199
v 0.023683187 0.025999992 -0.12543177
v 0.023683187 -0.0040794753 -0.12479258
v 0.023683187 0.025999992 -0.028652568
v 0.02437861 0.025999992 -0.023319022
v 0.035436024 -0.0040794753 -0.023769597
v 0.037519019 -0.00097649856 -0.018532369
v 0.042085744 -0.0040794753 -0.023769688
v 0.040675151 0.0094417863 -0.018346811
v 0.041530336 -0.0010185428 -0.018587629
v 0.042328454 -0.0010063346 -0.023323691
v 0.042303351 0.0020662284 -0.022822735
v 0.04042628 -0.0026779653 -0.093577206
v 0.039876873 -0.0010438519 -0.11657745
v 0.040431752 0.00041948952 -0.096867442
v 0.035753616 -0.0010438519 -0.12469828
v 0.036330398 -0.0040794753 -0.12454634
v 0.032647028 -0.0040794753 -0.12479258
v 0.039597613 -0.0040794753 -0.11968956
v 0.038391029 -0.0040788509 -0.12313043
v 0.027339178 0.025999992 -0.018540839
v 0.033271269 0.025999992 -0.026064383
v 0.031456958 0.025999992 -0.018577513
v 0.033060268 0.025999875 -0.020712891
v 0.031491639 0.02594405 -0.018540839
v 0.024457096 0.025999992 -0.12535842
v 0.039840372 0.0020653804 -0.11657745
v 0.040428103 0.0036906615 -0.090559404
v 0.039554635 0.014903646 -0.023411321
v 0.037530163 0.018799771 -0.021237081
v 0.025636212 0.025999992 -0.020227873
v 0.034408402 0.022664045 -0.018540839
v 0.033840983 0.015958615 -0.12459449
v 0.027884929 0.025281571 -0.12428962
v 0.039218411 0.0012880723 -0.12124561
v 0.03778148 0.016825401 -0.059721248
v 0.037020347 0.015302069 -0.11075274
v 0.041428345 0.008283845 -0.023544309
v 0.032750688 0.025999963 -0.043072444
v 0.033948437 0.021986108 -0.094043492
v 0.030109922 0.025999992 -0.091712035
v 0.037350889 0.019223234 -0.035776247
v 0.033369828 0.021421529 -0.11347583
v 0.028259188 0.026000408 -0.12168006
v 0.037370796 0.0025883706 -0.12440619
v 0.037928414 0.009077347 -0.12247422
v 0.039425829 0.00536161 -0.11970433
v 0.040769425 0.011136919 -0.023769597
v 0.040424453 0.0098620162 -0.0500077
v 0.035325822 0.023072574 -0.025300764
v 0.034748814 0.020090684 -0.1057008
v 0.035807072 0.017311746 -0.12080954
v 0.028766215 0.025999992 -0.018475561
v 0.040345965 0.012691535 -0.023769597
v 0.038884393 0.011387188 -0.092490062
v 0.034200322 0.022273919 -0.082506696
v 0.03781342 0.012405933 -0.11968956
v 0.034353644 0.019331041 -0.12150234
v 0.038945339 0.0082060671 -0.11966619
v 0.033869951 0.020442534 -0.11813351
f 3 1 2
f 4 2 1
f 4 1 5
f 6 7 1
f 6 1 3
f 10 9 7
f 10 8 11
f 10 7 6
f 10 6 8
f 12 10 11
f 12 9 10
f 13 11 8
f 13 14 11
f 15 12 11
f 15 11 14
f 18 16 17
f 18 3 2
f 18 2 16
f 19 14 13
f 19 13 8
f 19 17 20
f 21 1 7
f 24 22 23
f 24 23 25
f 26 16 2
f 27 14 19
f 27 15 14
f 27 28 12
f 27 12 15
f 29 30 9
f 53 25 23
f 53 9 25
f 53 7 9
f 53 21 7
f 31 5 1
f 31 1 21
f 32 24 25
f 32 30 24
f 32 25 9
f 32 9 30
f 33 16 26
f 33 26 34
f 35 19 20
f 37 36 29
f 38 12 28
f 38 9 12
f 39 40 41
f 42 29 36
f 42 30 29
f 43 41 40
f 44 4 5
f 44 2 4
f 44 53 23
f 44 23 22
f 44 26 2
f 44 21 53
f 44 31 21
f 44 5 31
f 44 22 39
f 44 39 41
f 44 34 26
f 44 41 43
f 45 16 33
f 45 33 46
f 45 17 16
f 45 20 17
f 45 35 20
f 45 46 35
f 47 35 46
f 47 27 19
f 47 19 35
f 47 28 27
f 47 38 28
f 48 38 49
f 48 9 38
f 50 30 42
f 50 22 24
f 50 24 30
f 52 51 42
f 52 36 37
f 52 42 36
f 52 46 33
f 54 37 29
f 54 29 9
f 54 9 48
f 54 49 55
f 54 48 49
f 56 50 42
f 56 51 40
f 56 42 51
f 56 40 39
f 56 39 22
f 56 22 50
f 57 52 37
f 57 46 52
f 57 37 54
f 57 54 55
f 58 34 44
f 58 33 34
f 58 52 33
f 59 57 55
f 59 55 49
f 59 47 46
f 59 46 57
f 59 49 38
f 59 38 47
f 60 52 58
f 60 51 52
f 60 44 43
f 60 58 44
f 60 40 51
f 60 43 40
f 19 6 3
f 19 8 6
f 19 3 18
f 19 18 17
