v -0.040629743 0.028873422 0.081853774
v -0.031872905 0.028873422 0.07454989
v -0.03772269 0.028873422 0.07454989
v -0.011833608 -0.037857036 0.12578693
v -0.011922294 -0.086355648 0.06036877
v -0.011922294 -0.054576739 0.060368776
v -0.038433398 -0.081711496 0.060368736
v -0.030324919 -0.085774881 0.060369298
v -0.030617312 -0.050820974 0.060368776
v -0.036885967 -0.051019138 0.060369479
v -0.041298526 -0.074359362 0.060368776
v -0.04062164 -0.039361512 0.1555462
v -0.041477898 -0.065415443 0.060368776
v -0.037488352 -0.081746826 0.073115004
v -0.0363832 -0.080483622 0.07961857
v -0.03610836 -0.053516555 0.15554622
v -0.03093905 -0.085039305 0.073082995
v -0.040711231 0.028873422 0.13433976
v -0.019418239 0.028873422 0.1555369
v -0.0353948 0.028873288 0.15553931
v -0.038119021 0.028873367 0.15203011
v -0.012396875 -0.03936188 0.1555506
v -0.039012999 -0.048114118 0.15554622
v -0.021874455 -0.056809899 0.15554622
v -0.030610096 -0.05567296 0.15554623
v -0.021874455 -0.083641622 0.081864071
v -0.011922294 -0.048114118 0.13462861
v -0.011922294 -0.063114621 0.12344771
v -0.015096449 -0.054645733 0.15554622
v -0.041150979 -0.060419043 0.060368776
v -0.011922294 -0.083641622 0.081864071
v -0.011922057 -0.079179958 0.095546368
v -0.01846063 -0.078927174 0.095514087
v -0.040309214 0.028873398 0.14276623
v -0.040800917 0.013117255 0.13433976
v -0.018622644 0.028873422 0.15333798
v -0.018466419 0.028873422 0.14466347
v -0.018677614 0.028873422 0.13550445
v -0.019128932 0.028873422 0.12559071
v -0.024622872 0.028873422 0.083671647
v -0.022065398 0.028873422 0.090622443
v -0.019632325 0.028873422 0.1165994
v -0.04003136 -0.074359362 0.073115004
v -0.012463298 -0.048114118 0.15554622
v -0.011922294 -0.085412358 0.073115004
v -0.040783559 0.028873422 0.088880082
v -0.040800917 0.028873422 0.090622443
v -0.040800917 0.028873422 0.12559071
v -0.01846063 0.028873422 0.14308883
v -0.011922294 -0.047809599 0.073115004
v -0.027504368 0.028873422 0.079301774
v -0.021113577 0.028873422 0.099371499
v -0.011922294 -0.072024694 0.11058036
v -0.021874455 -0.085412358 0.073115004
v -0.011922294 -0.050584124 0.066397153
v -0.011922294 -0.035944537 0.1165994
v -0.011922294 -0.076784252 0.10129088
v -0.011922294 -0.068720072 0.11566767
v -0.011922294 -0.040016102 0.099362172
v -0.011922294 -0.042553781 0.090203153
f 6 4 5
f 7 6 5
f 8 7 5
f 9 6 7
f 9 2 6
f 9 3 2
f 9 10 3
f 11 12 13
f 11 13 7
f 11 7 14
f 15 16 14
f 17 16 15
f 17 15 14
f 17 14 7
f 17 7 8
f 20 21 12
f 20 19 21
f 22 19 20
f 22 20 12
f 30 7 13
f 30 9 7
f 30 10 9
f 30 3 10
f 30 1 3
f 30 13 1
f 43 11 14
f 31 32 26
f 31 4 32
f 33 24 26
f 33 32 24
f 33 26 32
f 34 19 18
f 34 21 19
f 34 12 21
f 34 18 12
f 35 13 12
f 35 12 18
f 36 19 22
f 36 22 4
f 27 28 4
f 27 4 22
f 27 44 28
f 27 22 44
f 23 22 12
f 23 16 22
f 23 12 11
f 23 11 43
f 23 14 16
f 23 43 14
f 25 24 22
f 25 22 16
f 25 16 17
f 25 26 24
f 25 17 26
f 56 4 59
f 40 41 6
f 45 5 4
f 45 4 31
f 58 4 28
f 58 53 4
f 58 28 44
f 58 44 53
f 57 32 4
f 57 4 53
f 57 24 32
f 46 1 13
f 46 13 47
f 48 47 13
f 48 13 35
f 48 35 18
f 49 59 38
f 49 56 59
f 60 38 59
f 60 50 38
f 60 59 4
f 60 4 50
f 51 6 2
f 51 40 6
f 54 26 17
f 54 5 45
f 54 8 5
f 54 17 8
f 29 24 57
f 29 57 53
f 29 53 44
f 29 22 24
f 29 44 22
f 37 36 4
f 37 4 56
f 37 56 49
f 39 38 50
f 52 6 41
f 55 52 42
f 55 6 52
f 55 4 6
f 55 50 4
f 55 42 39
f 55 39 50
f 54 45 31
f 54 31 26
f 52 2 3
f 52 3 1
f 52 19 36
f 52 36 37
f 52 18 19
f 52 49 38
f 52 1 46
f 52 48 18
f 52 41 40
f 52 46 47
f 52 47 48
f 52 51 2
f 52 38 39
f 52 40 51
f 52 37 49
f 52 39 42
