v 0.066315493 -0.025981537 0.20987529
v 0.06727818 -0.025981537 0.20914335
v 0.074697549 -0.025981537 0.20862488
v 0.076464963 -0.025981537 0.20987529
v 0.076306997 0.023026254 0.20987529
v 0.066453587 0.023026254 0.20987529
v 0.066315493 -0.024384083 0.20987529
v 0.067282158 0.023026254 0.20924556
v 0.066966226 0.023026254 0.20948509
v 0.074704504 0.023026254 0.20878215
f 5 4 3
f 10 5 3
f 7 2 1
f 8 3 2
f 8 10 3
f 8 2 7
f 9 7 6
f 9 8 7
f 2 4 1
f 2 3 4
f 7 4 5
f 7 1 4
f 7 5 6
f 9 6 5
f 9 5 10
f 9 10 8
