v 0.040804789 0.013115419 0.31806835
v 0.040700935 0.021849156 0.31806835
v 0.040804789 0.013115419 0.32681972
v -0.040581237 -0.02184519 0.32681554
v 0.033375556 -0.02184519 0.34073112
v -0.033359708 -0.02184519 0.34073112
v 0.040573111 0.021849156 0.32682038
v -0.033367692 0.021849156 0.34073112
v 0.03345544 0.021849156 0.34073112
v -0.021880349 -0.02184519 0.29482125
v 0.021856254 -0.02184519 0.29482125
v -0.027072823 -0.02184519 0.29554042
v 0.038655906 -0.02184519 0.30931696
v 0.040700935 -0.02184519 0.31804589
v 0.038767736 -0.013120007 0.30933045
v -0.037889141 -0.013120007 0.33430807
v -0.040581234 0.021849156 0.32681558
v -0.037673455 0.021849156 0.33411029
v 0.037889015 0.013115419 0.33434851
v 0.037673328 0.021849156 0.33416424
v 0.038472173 0.013115419 0.33285176
v -0.040709054 -0.02184519 0.31806835
v -0.038679996 -0.02184519 0.30933045
v -0.035860083 0.021849156 0.3035861
v -0.035868078 -0.02184519 0.3035951
v 0.040804789 -0.013120007 0.32681972
v 0.037681316 -0.02184519 0.33409231
v 0.040804789 -0.013120007 0.31806835
v 0.021864243 0.021849156 0.29481225
v -0.040796928 -0.013120007 0.32681523
v -0.037889141 0.013115419 0.33430807
v -0.037673455 -0.02184519 0.33411029
v -0.038672012 0.021849156 0.30933045
v -0.031434498 -0.02184519 0.29921265
v 0.040573123 -0.02184519 0.32679726
v 0.037889015 -0.013120007 0.33430807
v 0.038671878 0.021849156 0.30933045
v -0.027056846 0.021849156 0.29553142
v 0.035843978 -0.02184519 0.3035771
v 0.031418393 -0.02184519 0.29920368
v 0.02704074 -0.02184519 0.29553142
v -0.038416377 -0.01481372 0.33284725
v -0.040796928 -0.013120007 0.31806835
v -0.03876787 0.013115419 0.30933045
v -0.040709054 0.021849156 0.31806835
v -0.040804915 0.013115419 0.31806835
v -0.040804915 0.013115419 0.32681523
v 0.038759752 0.013115419 0.30933045
v -0.031434498 0.021849156 0.29921265
v -0.021872359 0.021849156 0.29481676
v -0.038456318 -0.013120007 0.33285176
v -0.03876787 -0.013120007 0.30933045
v 0.038767736 -1.0848869e-05 0.30933045
v 0.035859957 0.021849156 0.3035861
v 0.031426382 0.021849156 0.29921265
v 0.027056717 0.021849156 0.29553142
v -0.038464313 0.013115419 0.33285176
v -0.040804915 -1.0848869e-05 0.31806835
v -0.038464313 -1.0848869e-05 0.33285176
v -0.040804915 -1.0848869e-05 0.32681523
f 45 46 47
f 37 1 48
f 37 2 1
f 41 11 29
f 30 22 4
f 17 45 47
f 17 47 57
f 17 57 31
f 33 46 45
f 10 38 50
f 10 12 38
f 10 50 29
f 10 29 11
f 43 22 30
f 53 48 1
f 16 6 8
f 16 8 31
f 36 9 5
f 18 31 8
f 18 17 31
f 56 41 29
f 40 56 55
f 40 41 56
f 54 37 48
f 54 39 40
f 54 40 55
f 54 48 53
f 15 13 39
f 15 39 54
f 15 54 53
f 15 14 13
f 15 28 14
f 32 6 16
f 27 35 36
f 27 36 5
f 25 24 34
f 44 33 24
f 44 46 33
f 44 24 25
f 49 34 24
f 49 12 34
f 49 38 12
f 42 4 32
f 42 32 16
f 42 16 51
f 42 30 4
f 42 51 30
f 59 60 30
f 59 30 51
f 59 51 16
f 19 9 36
f 52 25 23
f 52 44 25
f 52 43 58
f 20 9 19
f 20 19 7
f 26 36 35
f 26 35 14
f 26 14 28
f 3 2 7
f 3 1 2
f 21 26 3
f 21 19 36
f 21 36 26
f 21 7 19
f 21 3 7
f 9 6 5
f 9 8 6
f 58 60 47
f 58 47 46
f 58 43 30
f 58 30 60
f 15 53 1
f 15 1 28
f 25 39 13
f 25 12 10
f 25 34 12
f 25 4 22
f 25 40 39
f 25 14 35
f 25 32 4
f 25 22 23
f 25 35 27
f 25 11 41
f 25 13 14
f 25 5 6
f 25 10 11
f 25 41 40
f 25 6 32
f 25 27 5
f 59 47 60
f 59 57 47
f 59 31 57
f 59 16 31
f 52 23 22
f 52 22 43
f 52 58 46
f 52 46 44
f 20 29 50
f 20 8 9
f 20 18 8
f 20 7 2
f 20 50 38
f 20 2 37
f 20 37 54
f 20 45 17
f 20 33 45
f 20 56 29
f 20 17 18
f 20 24 33
f 20 55 56
f 20 54 55
f 20 38 49
f 20 49 24
f 3 28 1
f 3 26 28
