v 0.041745132 -0.04811359 0.3407311
v 0.041614377 -0.039375122 0.3407311
v 0.039318 -0.030182646 0.3407311
v 0.033376841 -0.02185494 0.3407311
v -0.033373355 -0.02185494 0.3407311
v -0.039314512 -0.030182646 0.3407311
v -0.040401411 -0.03406545 0.3407311
v -0.041602718 -0.039375122 0.3407311
v -0.041668095 -0.042617997 0.3407311
v -0.041741646 -0.04811359 0.3407311
v -0.041177766 -0.057055283 0.3407311
v -0.039878393 -0.059718764 0.3407311
v -0.037696426 -0.062991907 0.3407311
v -0.033258945 -0.064185288 0.3407311
v -0.030611163 -0.064864129 0.3407311
v -0.025446358 -0.065067351 0.3407311
v -0.021858782 -0.065201388 0.3407311
v -0.013114571 -0.065465145 0.3407311
v -0.0043621885 -0.06550406 0.3407311
v 0.0007780993 -0.065508377 0.3407311
v 0.0043738489 -0.065508377 0.3407311
v 0.013118059 -0.065473785 0.3407311
v 0.021870443 -0.065248949 0.3407311
v 0.030614652 -0.064903044 0.3407311
v 0.037699914 -0.062991907 0.3407311
v 0.041181254 -0.057072579 0.3407311
v 0.041557173 -0.053133563 0.3407311
v 0.040797163 -0.048109267 0.1555462
v 0.040707268 -0.02185494 0.31803616
v 0.040576514 -0.02185494 0.32679149
v 0.040707268 -0.043067675 0.1555462
v 0.040617373 -0.039375122 0.1555462
v 0.039979947 -0.056860706 0.1555462
v 0.037070656 -0.062771393 0.1555462
v 0.030606481 -0.064306351 0.1555462
v 0.02186227 -0.064306351 0.1555462
v 0.016820047 -0.063701018 0.1555462
v 0.013118059 -0.063255663 0.1555462
v -0.030611163 -0.055671653 0.1555462
v -0.036102853 -0.053509738 0.1555462
v -0.039012141 -0.048109267 0.1555462
v -0.040622058 -0.039375122 0.1555462
v -0.0379089 -0.030684212 0.1555462
v -0.034141533 -0.021340403 0.1555462
v 0.034136853 -0.021340403 0.1555462
v 0.037904217 -0.030684212 0.1555462
v 0.039015632 -0.033537942 0.1555462
v 0.03768357 -0.02185494 0.3340785
v -0.033994437 -0.021340403 0.15565496
v -0.029892013 -0.021340403 0.15846464
v 0.029895501 -0.021340403 0.15846464
v -0.04070378 -0.02185494 0.3180543
v -0.040573025 -0.02185494 0.32680959
v -0.037680082 -0.02185494 0.33409665
v -0.037075342 -0.062771393 0.32680959
v -0.030611163 -0.063999362 0.3180543
f 52 43 42
f 52 44 43
f 52 53 44
f 2 1 28
f 11 42 41
f 11 10 42
f 30 3 2
f 30 2 29
f 32 29 2
f 27 28 1
f 34 26 25
f 24 35 34
f 24 34 25
f 12 11 41
f 8 53 52
f 8 52 42
f 54 6 5
f 54 53 6
f 54 44 53
f 54 5 44
f 49 5 50
f 49 44 5
f 48 4 3
f 48 3 30
f 31 2 28
f 31 32 2
f 47 46 29
f 47 29 32
f 33 26 34
f 33 27 26
f 33 28 27
f 7 6 53
f 7 53 8
f 9 42 10
f 9 8 42
f 45 51 4
f 45 4 48
f 45 48 30
f 45 30 29
f 45 29 46
f 21 35 22
f 23 35 24
f 23 22 35
f 19 36 20
f 19 18 36
f 17 36 18
f 14 13 55
f 14 55 15
f 40 39 55
f 40 55 13
f 40 13 12
f 40 12 41
f 16 15 36
f 16 36 17
f 56 39 38
f 56 38 15
f 56 15 55
f 56 55 39
f 37 36 15
f 37 15 38
f 50 5 4
f 50 4 51
f 45 50 51
f 45 44 49
f 45 49 50
f 36 21 20
f 36 35 21
f 16 1 2
f 16 12 13
f 16 10 11
f 16 3 4
f 16 27 1
f 16 6 7
f 16 4 5
f 16 2 3
f 16 25 26
f 16 9 10
f 16 5 6
f 16 26 27
f 16 24 25
f 16 13 14
f 16 11 12
f 16 23 24
f 16 20 21
f 16 19 20
f 16 7 8
f 16 8 9
f 16 21 22
f 16 22 23
f 16 18 19
f 16 17 18
f 16 14 15
f 37 43 44
f 37 46 47
f 37 41 42
f 37 42 43
f 37 28 33
f 37 38 39
f 37 31 28
f 37 34 35
f 37 32 31
f 37 47 32
f 37 33 34
f 37 44 45
f 37 45 46
f 37 35 36
f 37 40 41
f 37 39 40
