v -0.066852773 -0.056357405 0.39463303
v -0.06169612 -0.0657914 0.39176896
v -0.066040752 -0.058437556 0.41205884
v -0.049115219 -0.064990917 0.44100594
v 0.010012684 -0.065814438 0.45698825
v 0.05285409 0.062152558 0.44171686
v 0.061548498 -0.061480526 0.42724051
v 0.063466564 0.057897454 0.42257365
v -0.061928914 -0.065130461 0.41609403
v -0.061534986 -0.056249804 0.42713756
v 0.062081525 -0.065801564 0.39407368
v 0.045034566 -0.064155957 0.44966558
v 0.061734437 -0.062062476 0.37241421
v 0.037701648 -0.062991316 0.34074349
v 0.066393871 -0.056742012 0.39108793
v 0.041729931 -0.055847575 0.34074346
v 0.041713892 0.060426558 0.34074374
v 0.066531976 0.056288784 0.39151861
v -0.038141084 -0.063092947 0.3407452
v -0.02615213 -0.065798465 0.34074365
v 0.066467734 0.062285018 0.40823601
v -0.066842628 0.056899703 0.405483
v 0.057646056 0.065802827 0.41603395
v -0.01343323 -0.06354603 0.46566032
v -0.02538185 -0.055851004 0.46230782
v -0.037802597 -0.060213317 0.45538912
v -0.024040405 0.056326443 0.46283629
v 0.00051629636 -0.055618195 0.46717225
v 0.00057073331 0.054455936 0.46738455
v 0.013736196 -0.062201028 0.46563313
v 0.025765784 -0.054565086 0.4624061
v -0.043002675 0.056560192 0.45144778
v -0.051455615 -0.057057085 0.44332702
v -0.061502922 -0.060535795 0.37317483
v -0.041730778 -0.054804049 0.34074349
v 0.054539501 -0.056748606 0.4388896
v 0.061419861 0.061180341 0.37206963
v 0.030013311 0.065034671 0.34074349
v 0.029604015 -0.065137644 0.34074352
v 0.06616238 -0.056743173 0.41015456
v 0.039883224 0.056766278 0.45403633
v 0.02695566 0.062387328 0.46154442
v 0.01590792 0.062224184 0.46490242
v -0.055771085 -0.052963218 0.36286772
v -0.059553242 0.057575839 0.36931343
v -0.041734821 0.055827906 0.34074346
v -0.064949431 0.062160808 0.41611077
v -0.061611373 0.055995918 0.42712461
v -0.032736527 0.062019208 0.45836051
v 0.016190402 0.065798116 0.45572884
v -0.051985749 0.062368522 0.44263399
v -0.043998906 0.065799308 0.4422801
v -0.065774101 0.061980518 0.38771663
v -0.014379818 0.062399339 0.46544553
v -0.00022282322 0.065811665 0.33708857
v -0.037704832 0.062989374 0.34074349
v -0.030184663 0.064958719 0.34073554
v -0.062846289 0.062598659 0.37640339
v 0.052530451 0.065768413 0.37677113
v -0.055526223 0.065795782 0.38115549
f 3 1 2
f 4 2 5
f 8 6 7
f 9 3 2
f 9 2 4
f 10 3 9
f 10 9 4
f 12 5 11
f 12 11 7
f 13 11 14
f 13 15 11
f 13 14 16
f 13 16 17
f 13 18 15
f 20 2 19
f 20 5 2
f 20 11 5
f 21 6 8
f 21 15 18
f 22 1 3
f 23 6 21
f 24 25 26
f 24 27 25
f 24 4 5
f 24 26 4
f 24 28 29
f 30 29 28
f 30 28 24
f 30 12 31
f 30 5 12
f 30 24 5
f 33 26 32
f 33 4 26
f 33 10 4
f 34 19 2
f 34 35 19
f 34 2 1
f 36 7 6
f 36 6 12
f 36 12 7
f 37 18 13
f 37 13 17
f 37 21 18
f 37 17 38
f 39 14 11
f 39 11 20
f 40 8 7
f 40 21 8
f 40 15 21
f 40 7 11
f 40 11 15
f 41 31 12
f 41 42 31
f 41 12 6
f 41 6 42
f 43 29 30
f 43 31 42
f 43 30 31
f 44 34 45
f 44 35 34
f 44 45 46
f 44 46 35
f 47 22 3
f 47 10 48
f 47 3 10
f 49 32 26
f 49 26 25
f 49 25 27
f 50 6 23
f 50 42 6
f 50 43 42
f 51 47 48
f 51 52 47
f 51 33 32
f 51 32 49
f 51 49 52
f 51 48 10
f 51 10 33
f 53 22 47
f 53 1 22
f 53 34 1
f 54 49 27
f 54 24 29
f 54 27 24
f 54 29 43
f 54 43 50
f 54 52 49
f 54 50 52
f 55 50 23
f 55 52 50
f 55 38 17
f 55 17 16
f 55 16 14
f 55 14 39
f 55 39 20
f 55 19 35
f 55 20 19
f 55 35 46
f 55 46 56
f 55 56 57
f 58 45 34
f 58 34 53
f 58 56 46
f 58 46 45
f 59 38 55
f 59 55 23
f 59 37 38
f 59 23 21
f 59 21 37
f 60 57 56
f 60 56 58
f 60 52 55
f 60 55 57
f 60 47 52
f 60 53 47
f 60 58 53
