v -0.062499981 0.08357771 0.30414449
v -0.048526772 0.09150852 -0.0074600748
v -0.062501118 0.083542785 -0.0045439024
v -0.057767378 0.082433549 -0.024842241
v -0.06249978 -0.083536775 -0.0088278492
v 0.048535981 -0.091501042 0.32568668
v -0.033520792 -0.09150441 0.33691236
v -0.0065631612 -0.091524591 -0.052243987
v -0.048536964 -0.091500496 -0.01680569
v -0.04138577 -0.083547736 -0.046907228
v -0.027743191 0.091500599 -0.043865437
v 0.024133584 0.091640026 -0.045194485
v 0.0021872587 0.082645102 -0.06280854
v -0.030513401 0.084316206 -0.055032958
v 0.0061392029 0.091511315 0.34869615
v 0.048540578 0.091500075 0.31027408
v 0.062499713 0.08358217 -0.0057278582
v 0.062499996 0.083578021 0.29990616
v 0.062500317 -0.083578409 0.30286208
v -0.048540332 0.091500212 0.30711013
v -0.054636608 -0.080728264 -0.031255946
v -0.048542012 -0.091500965 0.30790582
v -0.059778167 -0.083655437 0.31961452
v -0.047301569 0.084481207 -0.040919045
v 0.03195924 0.091500015 0.33773323
v 0.048540585 0.091500528 -0.0086288701
v 0.062499754 -0.083582126 -0.0045264693
v 0.059827394 -0.083542561 -0.018638836
v 0.060788064 -0.084863629 0.31488101
v 0.032025309 -0.083435614 -0.054145323
v 0.048536767 -0.09150049 -0.027376821
v -0.029409147 -0.083597198 -0.055275183
v -0.019555001 -0.084428972 -0.059434459
v 0.01439145 -0.083631872 -0.061193273
v -0.012969829 0.079180048 -0.061223774
v 0.0018322035 -0.084338433 0.36291561
v -0.062500004 -0.083578616 0.30315466
v 0.061401686 0.083562808 0.31178149
v -0.058347807 0.083578862 0.32251426
v -0.052586926 0.083461548 0.33415284
v -0.031892355 0.09150007 0.33854576
v -0.051650791 -0.083573485 0.33520178
v -0.033774289 -0.083830717 0.35276256
v 0.044904265 -0.08423016 -0.043737943
v 0.043423617 0.083544849 -0.045548986
v 0.018676148 0.081363644 -0.059724319
v 0.054011337 0.084228844 -0.031635828
v -0.0065625712 -0.083643755 -0.062202918
v -0.019085249 -0.08342938 0.3599811
v -0.022296539 0.083501091 0.35854096
v 0.037361383 0.083460315 0.35031087
v 0.050842886 0.083684412 0.33667731
v -0.043064558 0.08347061 0.34553773
v 0.052995659 -0.083854517 0.33365016
v 0.032500099 -0.083560717 0.35353445
v 0.012738116 0.083257769 0.36118992
v -0.0045410281 0.083775027 0.36271433
v 0.021416546 -0.083663194 0.358628
v 0.024372477 0.083575325 0.35755128
v 0.05830757 0.08352202 0.32279174
f 4 3 2
f 11 2 12
f 11 12 13
f 11 13 14
f 16 12 15
f 17 16 18
f 17 18 19
f 5 3 4
f 1 2 3
f 24 4 2
f 24 2 11
f 24 11 14
f 25 16 15
f 47 17 28
f 26 12 16
f 26 16 17
f 26 47 12
f 26 17 47
f 27 17 19
f 27 28 17
f 9 8 22
f 20 2 1
f 20 12 2
f 37 23 1
f 37 22 23
f 37 3 5
f 37 1 3
f 37 9 22
f 37 5 9
f 35 14 13
f 35 13 48
f 21 5 4
f 21 4 24
f 21 9 5
f 7 23 22
f 7 6 36
f 7 22 8
f 7 8 6
f 38 18 16
f 38 16 60
f 38 19 18
f 52 16 25
f 52 60 16
f 52 25 51
f 31 28 27
f 31 6 8
f 30 31 8
f 29 27 19
f 29 6 31
f 29 31 27
f 29 19 38
f 29 38 60
f 33 14 35
f 33 35 48
f 33 48 8
f 10 24 14
f 10 21 24
f 10 9 21
f 10 8 9
f 56 57 36
f 56 15 57
f 58 36 6
f 58 6 55
f 58 56 36
f 34 48 13
f 34 8 48
f 34 30 8
f 45 12 47
f 54 55 6
f 54 6 29
f 54 51 55
f 54 52 51
f 54 60 52
f 54 29 60
f 32 14 33
f 32 10 14
f 32 33 8
f 32 8 10
f 41 15 12
f 41 12 20
f 41 57 15
f 41 50 57
f 40 41 20
f 49 36 57
f 49 57 50
f 49 50 43
f 49 7 36
f 49 43 7
f 59 56 58
f 59 51 25
f 59 55 51
f 59 58 55
f 59 25 15
f 59 15 56
f 46 45 30
f 46 34 13
f 46 30 34
f 46 13 12
f 46 12 45
f 44 30 45
f 44 28 31
f 44 31 30
f 44 47 28
f 44 45 47
f 39 1 23
f 39 23 40
f 39 20 1
f 39 40 20
f 42 40 23
f 42 23 7
f 42 7 43
f 53 43 50
f 53 50 41
f 53 41 40
f 53 40 42
f 53 42 43
