v -0.00012398391 0.062973593 0.12144206
v -0.053950316 0.060891306 -0.031614836
v -0.058900716 0.060893981 -0.021163322
v 0.061064158 -0.015174517 0.12473944
v 0.062500908 -0.060915614 0.00031593588
v 0.062809463 -0.00516637 0.12370638
v -0.062497187 0.060851436 -0.001081885
v -0.062499785 -0.060976258 -0.00061387972
v -0.062812552 -0.0046969566 0.12473934
v -0.062768453 0.0047938401 0.12474064
v -0.029715517 0.05525053 0.1247299
v 0.0099002749 0.062051674 0.1247396
v -0.049826924 0.038514137 0.12463185
v -0.061072451 -0.015565761 0.12373929
v -0.061735816 0.060934893 0.0092056762
v -0.057182943 0.060899971 0.023960705
v -0.01136939 0.060893808 -0.061510457
v 0.005707658 0.060894257 -0.062483358
v 0.006465405 -0.060863185 -0.062871964
v -0.047644396 0.060892333 -0.040496815
v -0.034482261 0.06089358 -0.052415886
v 0.06095145 0.061043535 0.012449396
v 0.061547644 0.060887786 -0.010876965
v 0.043168298 0.04641804 0.1226204
v 0.052664057 0.034124515 0.12473944
v -0.015980052 0.061175687 0.1226331
v -0.038695633 0.049615676 0.12373939
v -0.047662434 -0.060908492 -0.04075066
v -0.022336559 -0.071573883 0.0048587687
v -0.061032515 -0.061183623 0.013031771
v -2.4621915e-07 -0.063100184 0.12373935
v 0.017001018 -0.070902501 0.023895441
v 0.042902134 -0.046324182 0.12455824
v 0.055075838 -0.031550336 0.12314985
v -0.010333876 -0.062212304 0.12410152
v -0.059443672 0.02233245 0.12218157
v -0.020752742 0.060893419 -0.059019654
v 0.026466656 0.057277221 0.12457632
v 0.062804241 0.0045456328 0.12473963
v 0.026551098 0.060893929 -0.056844116
v 0.040289066 0.060893203 -0.047794175
v 0.052545018 0.060897357 -0.03439857
v 0.052430487 -0.060949056 -0.035091658
v -0.017106424 -0.070924988 -0.021266448
v -0.018786059 -0.060885215 -0.059893662
v -0.058351613 -0.060963431 -0.023411804
v 0.021311138 -0.071010245 -0.016994242
v 0.010270545 -0.062161904 0.1247384
v 0.030524309 -0.058433635 0.10800352
v 0.061032459 -0.061183643 0.013031937
v 0.061071897 0.015361976 0.12374849
v 0.062500219 0.060886041 6.1763944e-05
v -0.034489562 -0.060900954 -0.052124915
v 0.032534947 -0.060984354 -0.053740558
v 0.061629386 -0.060857712 -0.011993222
v -0.020135256 -0.059676337 0.12459831
v -0.046228671 -0.042593651 0.12473476
v -0.055542121 -0.029912982 0.12473921
v 0.057693485 0.025206619 0.1237396
v -0.034379789 -0.052957049 0.12456046
f 3 1 2
f 4 5 6
f 7 8 9
f 7 3 8
f 10 7 9
f 11 10 12
f 11 13 10
f 14 9 8
f 15 1 3
f 15 3 7
f 15 16 1
f 15 7 10
f 17 18 19
f 17 1 18
f 20 2 1
f 20 1 21
f 22 1 12
f 22 23 1
f 22 24 25
f 26 12 1
f 26 11 12
f 26 1 16
f 26 16 11
f 27 11 16
f 27 13 11
f 27 16 15
f 27 15 13
f 28 20 21
f 28 2 20
f 30 8 29
f 30 14 8
f 32 31 29
f 34 4 33
f 35 29 31
f 35 30 29
f 36 10 13
f 36 13 15
f 36 15 10
f 37 21 1
f 37 1 17
f 38 12 25
f 38 25 24
f 38 22 12
f 38 24 22
f 39 12 10
f 39 25 12
f 39 10 4
f 39 4 6
f 40 18 1
f 40 1 41
f 40 19 18
f 42 1 23
f 42 41 1
f 43 41 42
f 45 19 44
f 45 17 19
f 45 37 17
f 45 21 37
f 46 28 44
f 46 8 3
f 46 29 8
f 46 44 29
f 46 3 2
f 46 2 28
f 47 29 44
f 47 32 29
f 47 44 19
f 48 31 32
f 48 49 33
f 48 35 31
f 48 33 4
f 48 4 10
f 50 47 5
f 50 32 47
f 50 33 49
f 50 48 32
f 50 49 48
f 50 34 33
f 50 5 4
f 50 4 34
f 51 25 39
f 52 23 22
f 52 22 51
f 52 51 39
f 52 6 5
f 52 39 6
f 53 44 28
f 53 45 44
f 53 28 21
f 53 21 45
f 54 47 19
f 54 43 47
f 54 19 40
f 54 40 41
f 54 41 43
f 55 5 47
f 55 47 43
f 55 52 5
f 55 23 52
f 55 42 23
f 55 43 42
f 56 35 48
f 56 48 57
f 56 30 35
f 58 10 9
f 58 48 10
f 58 57 48
f 58 9 14
f 58 14 30
f 58 30 57
f 59 22 25
f 59 25 51
f 59 51 22
f 60 57 30
f 60 30 56
f 60 56 57
