v 0.050178928 -0.17580751 0.35197512
v -0.026117777 -0.096415939 0.30846745
v 0.093892639 -0.0085996301 0.35063834
v 0.045387651 -0.17824657 0.35203686
v -0.03485004 -0.10114594 0.30908091
v -0.063271486 -0.096969874 0.30823549
v -0.026512421 -0.09046052 0.3086769
v 0.086387911 0.077979069 0.35064794
v -0.078632037 0.083438844 0.33491128
v 0.03003323 -0.17364057 0.36458029
v 0.00019931069 -0.17820384 0.36377293
v -0.065782849 -0.15567782 0.34942603
v -0.053814281 -0.17770646 0.34950809
v -0.038827965 -0.17824092 0.34948997
v -0.040613414 -0.17816954 0.36076616
v -0.056045915 -0.10122411 0.30919527
v -0.083236499 -0.11270946 0.35027079
v -0.098594012 0.0020717486 0.34707285
v -0.099503968 0.0010817227 0.33478041
v 0.090524081 -0.0086975249 0.35676853
v 0.078798382 0.00054004215 0.37372736
v 0.050255164 -0.11218496 0.38467862
v 0.050194346 -0.148813 0.36877209
v 0.020893433 -0.066889726 0.40711432
v 0.029657727 -0.050589912 0.40606374
v -0.031903785 -0.055506707 0.42067397
v 0.029747617 0.05050406 0.40590396
v 0.019353121 0.066407817 0.40808172
v 0.05024725 -0.077043387 0.38901456
v 0.093377275 0.035339007 0.35079908
v -0.027236891 -0.17425095 0.36441168
v -0.056160036 -0.15964831 0.36301986
v -0.075096009 -0.11576069 0.36923578
v 0.050264639 -0.17271084 0.35622833
v 0.040813924 -0.1313844 0.38042705
v 0.0088824899 -0.16678017 0.36891377
v -0.097053083 0.050802462 0.33514631
v -0.090709331 0.083438781 0.3349115
v -0.09640757 0.031204468 0.354118
v -0.089094351 0.082098123 0.3609091
v -0.055021423 -0.08597255 0.30908777
v -0.075485287 0.083482914 0.37565214
v -0.0386843 0.057766113 0.41830642
v -0.04431447 0.083443376 0.39769768
v 0.0027133815 0.083413166 0.39572816
v -0.043331756 -0.042334569 0.41633002
v -0.04791059 -0.0024146011 0.41355188
v -0.083225081 0.0056229227 0.37558774
v -0.075827159 -0.081753287 0.37546808
v -0.095028566 0.011851956 0.35875359
v 0.038185063 0.00074391111 0.40155518
v 0.070365253 0.078061587 0.37762519
v -0.031721518 0.066089119 0.41701326
v 0.0027133815 0.083413166 0.38081972
v -0.040381516 -0.056841823 0.41703031
v 0.040918105 -0.17222289 0.36298029
v -0.042863571 0.043412908 0.41673347
v -0.079459434 -0.11399848 0.36208321
v 0.05591119 0.078173417 0.38699698
f 1 2 3
f 1 4 2
f 5 2 4
f 5 6 2
f 7 2 6
f 8 7 9
f 8 2 7
f 10 11 4
f 17 19 6
f 17 18 19
f 14 5 4
f 14 15 13
f 14 4 11
f 14 11 15
f 16 13 6
f 16 6 5
f 16 14 13
f 16 5 14
f 20 21 22
f 20 23 3
f 20 22 23
f 24 25 26
f 24 22 25
f 27 28 26
f 27 26 25
f 29 22 21
f 29 25 22
f 29 21 25
f 30 3 2
f 30 2 8
f 30 20 3
f 30 21 20
f 31 11 26
f 31 26 15
f 31 15 11
f 32 13 15
f 34 1 3
f 34 3 23
f 34 4 1
f 35 26 10
f 35 24 26
f 35 22 24
f 36 26 11
f 36 10 26
f 36 11 10
f 12 6 13
f 12 17 6
f 12 13 32
f 12 32 33
f 37 6 19
f 37 38 6
f 37 19 18
f 37 18 39
f 37 40 38
f 37 39 40
f 41 7 6
f 41 6 38
f 41 9 7
f 41 38 9
f 42 38 40
f 42 43 44
f 42 9 38
f 42 44 45
f 46 47 48
f 46 48 49
f 50 49 48
f 50 39 18
f 50 48 40
f 50 40 39
f 51 25 21
f 51 27 25
f 52 21 30
f 52 30 8
f 52 51 21
f 52 27 51
f 52 8 45
f 53 28 45
f 53 26 28
f 53 43 26
f 53 44 43
f 53 45 44
f 54 8 9
f 54 45 8
f 54 9 42
f 54 42 45
f 55 15 26
f 55 32 15
f 55 33 32
f 55 26 46
f 55 49 33
f 55 46 49
f 56 35 10
f 56 34 23
f 56 23 22
f 56 22 35
f 56 10 4
f 56 4 34
f 57 43 42
f 57 48 47
f 57 40 48
f 57 42 40
f 57 47 46
f 57 26 43
f 57 46 26
f 58 33 49
f 58 49 50
f 58 12 33
f 58 17 12
f 58 18 17
f 58 50 18
f 59 28 27
f 59 27 52
f 59 45 28
f 59 52 45
