v 0.019210088 0.08614814 0.060359462
v 0.013440183 -0.086355698 0.060359462
v -0.011919401 -0.054575716 0.060359462
v -0.011919401 -0.086331906 0.060359462
v -0.011919739 -0.083656465 0.081825803
v -0.011919401 -0.085402868 0.073115008
v 0.03061779 -0.064288379 0.1555462
v 0.037076755 -0.062768135 0.1555462
v -0.00093248249 -0.053502231 0.1555462
v 0.041466348 -0.065619974 0.060359462
v 0.041455888 0.06550662 0.060359462
v 0.041288668 0.074357813 0.060359462
v 0.040802675 0.048091385 0.1555462
v 0.039982242 0.056841228 0.1555462
v 0.04079745 -0.048106232 0.1555462
v -0.011919401 -0.048106232 0.13462861
v -0.011919401 -0.063105966 0.1234477
v -0.011919401 -0.039204364 0.13224334
v 0.0078076128 -0.061720859 0.1555462
v 0.013127374 -0.063257991 0.1555462
v 0.037076755 0.062770176 0.1555462
v 0.037547067 0.081148236 0.081873381
v 0.019210088 0.063986375 0.1555462
v -0.0015686007 -0.039802107 0.1555462
v 0.040465982 0.074356209 0.081754838
v -0.011919401 -0.047819075 0.073115008
v -0.011919401 -0.0425489 0.090203155
v 0.030506641 -0.085263659 0.073471728
v 0.03061779 -0.083595472 0.081873381
v 0.037547067 -0.081146184 0.081873381
v 0.021760342 -0.064288287 0.1555462
v 0.02189985 -0.083631264 0.081865648
v -0.011919401 -0.036890215 0.12575842
v -0.011919401 -0.035944287 0.1165994
v 0.019210732 0.083634914 0.081868269
v -0.011919401 -0.040015164 0.099362179
v 0.03061779 0.064307314 0.1555462
v -0.0025131442 -0.048106232 0.1555462
v 0.03061779 0.08554004 0.060359462
v 0.038424802 0.081715315 0.060359519
v 0.037897188 0.08195902 0.073115008
v -0.011919401 -0.050589296 0.066397153
v 0.039982242 -0.056839187 0.1555462
v 0.040452907 -0.074338843 0.081870261
v 0.041299118 -0.074338879 0.060359462
v 0.038457326 -0.081676064 0.060359462
v 0.030074607 -0.085700029 0.060359467
v 0.035753047 -0.079109618 0.094465296
v 0.037897188 -0.081956984 0.073115008
v -0.011919401 -0.068713976 0.11566766
v -0.011919401 -0.072024723 0.11058035
v 0.0034389275 -0.057869575 0.1555462
v -0.011919412 -0.079098631 0.09575861
v 0.019215796 0.085428064 0.073097976
v 0.021869971 0.064307314 0.1555462
v 0.03061779 0.083614401 0.081873381
v 0.021875196 0.086131247 0.060359462
v -0.011919401 -0.076788156 0.10129089
v 0.03581581 0.079188553 0.094103867
v 0.030622439 0.085309343 0.073069654
f 6 5 4
f 15 10 13
f 11 13 10
f 3 4 5
f 32 7 5
f 32 5 6
f 32 6 28
f 31 5 7
f 42 1 3
f 42 26 1
f 42 5 26
f 42 3 5
f 22 21 14
f 34 54 1
f 24 16 38
f 20 5 31
f 9 38 16
f 58 51 5
f 58 19 51
f 55 35 23
f 55 37 35
f 59 37 21
f 59 21 22
f 12 14 13
f 12 13 11
f 36 5 34
f 36 34 1
f 18 5 16
f 18 24 23
f 18 16 24
f 2 46 47
f 2 47 28
f 2 6 4
f 2 28 6
f 52 51 19
f 17 9 16
f 17 16 5
f 53 20 19
f 53 19 58
f 53 5 20
f 53 58 5
f 29 7 32
f 29 32 28
f 29 28 30
f 56 35 37
f 56 37 59
f 56 54 35
f 56 59 22
f 25 22 14
f 25 14 12
f 57 1 54
f 40 12 39
f 27 26 5
f 27 5 36
f 27 1 26
f 27 36 1
f 33 34 5
f 33 5 18
f 33 35 54
f 33 54 34
f 33 23 35
f 33 18 23
f 45 10 15
f 49 44 30
f 49 30 28
f 49 46 45
f 49 45 44
f 49 28 47
f 49 47 46
f 43 45 15
f 43 44 45
f 43 8 30
f 43 30 44
f 50 9 17
f 50 52 9
f 50 51 52
f 50 5 51
f 50 17 5
f 48 8 7
f 48 7 29
f 48 30 8
f 48 29 30
f 60 56 22
f 60 54 56
f 60 39 57
f 60 57 54
f 41 25 12
f 41 12 40
f 41 22 25
f 41 60 22
f 41 40 39
f 41 39 60
f 45 11 10
f 45 3 1
f 45 1 57
f 45 4 3
f 45 2 4
f 45 12 11
f 45 39 12
f 45 46 2
f 45 57 39
f 43 13 14
f 43 31 7
f 43 38 9
f 43 19 20
f 43 15 13
f 43 7 8
f 43 23 24
f 43 21 37
f 43 14 21
f 43 24 38
f 43 20 31
f 43 55 23
f 43 52 19
f 43 37 55
f 43 9 52
