v -0.0054030287 0.17820501 0.35063504
v -0.049534632 0.17827087 0.35098363
v 0.04746436 0.17845965 0.35125942
v 0.025679027 0.11487056 0.22574839
v 0.034705427 0.11502684 0.22823963
v 0.022738457 0.1002374 0.22355883
v -0.068891682 0.14758861 0.35058622
v -0.078521997 0.12399244 0.3515774
v -0.065739057 0.14071362 0.36463441
v 0.086353638 0.078012865 0.35068958
v 0.063648366 0.07801695 0.384731
v 0.060281154 0.075382014 0.3070963
v -0.051164832 0.086190582 0.23905352
v -0.068969475 0.083445847 0.3432879
v -0.068237143 0.1016761 0.22868541
v -0.083699332 0.10769249 0.35088348
v 0.05610671 0.17022044 0.35064064
v 0.06357298 0.15196778 0.35059725
v 0.067194336 0.1076623 0.26244548
v 0.069441268 0.10022734 0.26244548
v 0.062557819 0.092702569 0.23845511
v 0.063699117 0.11157597 0.25860482
v 0.020674323 0.078018112 0.39685882
v 0.052801175 0.1067162 0.38622252
v 0.0027491647 0.078023039 0.39872026
v 0.073899047 0.1063864 0.36428904
v -0.057499617 0.17188404 0.35223802
v -0.077552793 0.10675747 0.36894844
v -0.051991404 0.083393587 0.39243211
v -0.068965953 0.083445509 0.38098676
v 0.0027491239 0.078023045 0.38191738
v 0.0027491239 0.11502684 0.22823963
v -0.068237143 0.092188717 0.23717259
v 0.048063004 0.17246187 0.35851055
v 0.0374745 0.17277221 0.36404236
v 0.068004462 0.092862513 0.25471887
v 0.049898629 0.087872715 0.23086435
v 0.052179694 0.17480405 0.35061512
v 0.078327022 0.11085927 0.35067998
v 0.038770464 0.11206361 0.3883175
v 0.00072562114 0.11080288 0.39069854
v -0.037754609 0.083074085 0.39750971
v 0.010482013 0.16697966 0.36910806
v 0.015298631 0.11502684 0.22621642
v 0.064845376 0.11478418 0.37323579
v 0.022738457 0.092822547 0.22457042
v 0.023660575 0.087253619 0.22783775
v -0.037794976 0.087487708 0.22893312
v 0.058572796 0.075819718 0.29958328
v -0.06084711 0.087901401 0.23857952
v 0.083545139 0.09187469 0.35154908
v 0.071972721 0.12992922 0.35062489
v -0.060042822 0.11197686 0.38179811
v 0.022097404 0.1782136 0.36147493
v -0.068237143 0.09799383 0.22868541
v 0.063681126 0.08868521 0.24390412
v -0.041270754 0.17265769 0.36352008
v -0.033559039 0.12400142 0.38487604
v -0.020390237 0.17542392 0.36472052
v -0.052561343 0.17840505 0.35383846
f 12 10 11
f 14 13 12
f 1 2 3
f 1 3 4
f 1 4 2
f 5 4 3
f 5 6 4
f 17 18 19
f 20 21 19
f 23 11 24
f 23 25 12
f 23 12 11
f 26 18 17
f 26 11 10
f 30 25 29
f 30 16 14
f 30 28 16
f 31 12 25
f 31 14 12
f 31 25 30
f 31 30 14
f 33 14 16
f 32 15 2
f 22 19 21
f 22 21 5
f 22 17 19
f 34 35 24
f 34 3 35
f 36 20 10
f 36 21 20
f 37 6 5
f 37 5 21
f 39 20 19
f 40 24 35
f 40 23 24
f 40 25 23
f 40 41 25
f 43 40 35
f 43 41 40
f 8 16 28
f 8 28 9
f 8 15 16
f 44 15 32
f 44 4 6
f 44 6 15
f 44 2 4
f 44 32 2
f 38 17 22
f 38 3 34
f 38 34 17
f 38 5 3
f 38 22 5
f 45 34 24
f 45 24 11
f 45 11 26
f 45 26 17
f 45 17 34
f 46 6 37
f 46 37 47
f 46 47 48
f 49 47 37
f 49 48 47
f 49 10 12
f 49 12 13
f 49 13 48
f 50 48 13
f 50 13 14
f 50 14 33
f 55 16 15
f 55 33 16
f 55 46 48
f 55 50 33
f 55 48 50
f 55 15 6
f 55 6 46
f 51 26 10
f 51 39 26
f 51 10 20
f 51 20 39
f 52 18 26
f 52 26 39
f 52 19 18
f 52 39 19
f 54 43 35
f 54 35 3
f 58 41 43
f 7 9 27
f 7 8 9
f 7 27 15
f 7 15 8
f 56 10 49
f 56 49 37
f 56 37 21
f 56 36 10
f 56 21 36
f 60 3 2
f 60 54 3
f 60 2 15
f 60 15 27
f 60 27 9
f 42 29 25
f 42 25 41
f 42 41 58
f 57 60 9
f 59 58 43
f 59 57 58
f 59 43 54
f 59 54 60
f 59 60 57
f 53 57 9
f 53 9 28
f 53 58 57
f 53 30 29
f 53 28 30
f 53 29 42
f 53 42 58
