v -0.040625301 0.039363659 0.15554622
v -0.040589374 0.039363659 0.16208166
v -0.040324074 0.040855233 0.16208166
v -0.039014138 0.048114219 0.16208166
v -0.039956514 0.043065821 0.15554622
v -0.039014138 0.048114219 0.15554622
v -0.036109627 0.053514478 0.15554622
v -0.032942572 0.054761277 0.15554622
v -0.030618408 0.055671526 0.15554622
v -0.025574892 0.056329341 0.15554622
v -0.021874468 0.056811235 0.15554622
v -0.01796125 0.055564436 0.15554622
v -0.015095426 0.054646544 0.15554622
v -0.013978943 0.051885222 0.15554622
v -0.01245898 0.048114219 0.15554622
v -0.012431343 0.044412057 0.15554622
v -0.012395416 0.039363659 0.15554622
v -0.022814083 -0.021331875 0.15554622
v -0.034147489 -0.021331875 0.15554622
v -0.038179541 0.033129652 0.16208166
v -0.037684863 0.03197464 0.16208166
v -0.031143487 0.028318372 0.16208166
v -0.029709196 0.02833367 0.16208166
v -0.021816433 0.028815564 0.16208166
v -0.020691659 0.029220967 0.16208166
v -0.015029101 0.032586565 0.16208166
v -0.012392653 0.039363659 0.16208166
v -0.01245898 0.048114219 0.16208166
v -0.014647728 0.053537422 0.16208166
v -0.015095426 0.054646544 0.16208166
v -0.016247836 0.055013701 0.16208166
v -0.021874468 0.056803587 0.16208166
v -0.023361271 0.056612361 0.16208166
v -0.030618408 0.055671526 0.16208166
v -0.036109627 0.053514478 0.16208166
v -0.038522226 0.049032111 0.16208166
v -0.029902643 -0.021331875 0.15843139
v -0.023947146 -0.021331875 0.15843139
f 19 2 1
f 17 27 18
f 37 2 19
f 16 15 27
f 16 27 17
f 28 27 15
f 38 18 27
f 3 1 2
f 3 4 1
f 7 36 35
f 22 37 38
f 6 4 36
f 6 36 7
f 8 35 34
f 8 7 35
f 8 34 9
f 31 11 32
f 31 30 11
f 33 32 11
f 33 11 34
f 10 9 34
f 10 34 11
f 21 37 22
f 5 1 4
f 5 4 6
f 12 11 30
f 12 30 13
f 14 30 29
f 14 13 30
f 14 29 28
f 14 28 15
f 20 2 37
f 20 37 21
f 26 38 27
f 26 25 38
f 24 38 25
f 23 22 38
f 23 38 24
f 38 19 18
f 38 37 19
f 14 19 1
f 14 17 18
f 14 18 19
f 14 15 16
f 14 9 10
f 14 16 17
f 14 11 12
f 14 8 9
f 14 6 7
f 14 7 8
f 14 10 11
f 14 1 5
f 14 5 6
f 14 12 13
f 23 29 30
f 23 27 28
f 23 35 36
f 23 2 20
f 23 3 2
f 23 31 32
f 23 4 3
f 23 36 4
f 23 34 35
f 23 28 29
f 23 32 33
f 23 30 31
f 23 33 34
f 23 21 22
f 23 26 27
f 23 20 21
f 23 25 26
f 23 24 25
