v -0.013411569 0.07973861 -0.065677638
v 0.023830819 0.079587054 -0.062864591
v 7.1346738e-05 0.0741436 -0.067340738
v -0.000140823 0.093237528 -0.050926981
v 0.042863521 0.093310879 0.021309529
v 0.062109639 0.079252901 0.026628845
v 0.067026749 0.083779141 -0.00026601821
v 0.066025247 0.074343466 0.011855775
v 0.067186349 -0.074145996 -0.0013694246
v -0.034099628 0.084187429 0.061292892
v -0.041446551 -0.082299565 0.060355968
v 0.030320048 -0.085584635 0.060350237
v 0.060641401 0.079544376 -0.029038159
v 0.061029354 -0.077980975 -0.028224587
v 0.052782939 -0.080721535 -0.041743714
v 0.032431748 -0.093236233 -0.035806831
v 0.01332162 -0.08054317 -0.065734214
v 0.039668647 -0.075539322 -0.054460055
v -8.4706114e-05 -0.07434962 -0.067190155
v -0.013442867 -0.08043701 -0.065711933
v -0.023207742 -0.074714252 -0.0631034
v -0.054263631 0.080410845 -0.039349712
v -0.054515863 -0.074350115 -0.039044605
v -0.06161035 0.076435659 -0.027368849
v -0.062811911 0.08602105 0.0010201097
v -0.037644867 0.09330989 -0.031006709
v 0.032623157 0.093292866 -0.035237445
v 0.013102521 0.074343466 -0.065785078
v 0.022526709 -0.074080335 -0.063245515
v -0.024284055 0.074449648 -0.062701579
v 0.03845647 -0.093246685 0.027332942
v -0.03869171 -0.093245457 0.027329925
v 0.062006844 -0.079965285 0.026874055
v 0.065999024 -0.074350115 0.011855775
v -0.0075106338 0.093224707 0.046632653
v 0.041443436 0.073874214 0.060350138
v -0.065220176 -0.081091021 -0.015529568
v 0.065305106 0.074341598 -0.015494686
v 0.065433218 -0.07433601 -0.014784891
v -0.065527775 0.074343466 -0.01437357
v -0.067100966 0.074381078 -0.0011811809
v -0.06718675 -0.074167291 -0.0013814313
v -0.065999713 -0.074350115 0.011855775
v -0.061630145 0.079738237 0.027466991
v -0.061894779 -0.079020766 0.026988635
v 0.052990691 0.079811794 -0.041270834
v -0.036140107 0.080062493 -0.056514237
v -0.047764464 0.074269714 -0.047293003
v 0.0001628051 -0.092732655 0.047466468
v 0.06202726 -0.08691345 -0.0012544468
v 0.04143388 -0.079768872 0.060350122
v 0.035325057 0.084254569 0.060407706
v -0.00055979296 -0.091306598 -0.055860186
v -0.037964024 -0.081822691 -0.055495103
v -0.041471604 0.073751086 0.060350138
v -0.066052154 0.074343466 0.011855775
v 0.040637956 0.078310968 -0.053786556
v -0.060471685 -0.088234949 -0.00013277563
v -0.049142149 -0.079714591 -0.045688201
v -0.040945576 -0.092939704 -0.023123149
f 1 2 3
f 1 4 2
f 7 5 6
f 7 6 8
f 7 8 9
f 10 11 12
f 15 13 14
f 15 16 17
f 15 17 18
f 19 3 17
f 53 17 16
f 22 23 24
f 22 24 25
f 22 25 26
f 27 2 4
f 27 7 13
f 27 5 7
f 27 26 5
f 27 4 26
f 28 17 3
f 28 3 2
f 29 18 17
f 29 2 18
f 29 17 28
f 29 28 2
f 30 1 21
f 31 32 16
f 34 6 33
f 34 8 6
f 34 9 8
f 35 5 26
f 35 26 25
f 35 25 10
f 55 11 10
f 36 33 6
f 37 24 23
f 38 13 7
f 38 14 13
f 38 39 14
f 38 7 9
f 38 9 39
f 40 25 24
f 40 41 25
f 40 24 37
f 40 42 41
f 40 37 42
f 43 42 37
f 20 17 53
f 20 19 17
f 20 21 1
f 20 1 3
f 20 3 19
f 46 27 13
f 46 13 15
f 47 1 30
f 47 22 26
f 47 48 22
f 47 26 4
f 47 4 1
f 49 31 12
f 49 32 31
f 49 12 11
f 49 11 32
f 50 33 31
f 50 31 16
f 50 39 9
f 50 14 39
f 50 9 34
f 50 34 33
f 50 16 15
f 50 15 14
f 44 45 11
f 44 11 55
f 44 10 25
f 44 55 10
f 51 10 12
f 51 36 10
f 51 33 36
f 51 12 31
f 51 31 33
f 52 35 10
f 52 10 36
f 52 5 35
f 52 6 5
f 52 36 6
f 58 11 45
f 58 32 11
f 58 45 43
f 58 43 37
f 54 20 53
f 54 21 20
f 54 30 21
f 54 47 30
f 54 48 47
f 57 2 27
f 57 27 46
f 57 18 2
f 57 15 18
f 57 46 15
f 56 43 45
f 56 45 44
f 56 41 42
f 56 42 43
f 56 25 41
f 56 44 25
f 60 54 53
f 60 32 58
f 60 58 37
f 60 16 32
f 60 53 16
f 59 60 37
f 59 54 60
f 59 37 23
f 59 48 54
f 59 22 48
f 59 23 22
