v 0.051599745 0.14517258 0.18812407
v 0.038586688 0.1706786 0.26595336
v 0.051599907 0.13115099 0.18809864
v 0.05159971 0.07530692 -0.0097948966
v 0.051599745 0.025551438 -0.01311407
v 0.0027596511 0.056909934 0.0047432586
v 0.051599745 0.028093066 -0.018618028
v 0.038577149 0.1242415 0.24545687
v 0.038577149 0.12111679 0.24150092
v 0.035476532 0.11503182 0.24061226
v -0.029235772 0.10296655 0.24866752
v -0.045864628 0.16798746 0.27395129
v -0.036066677 0.10296655 0.24694752
v 0.0027339936 0.10296655 0.24895419
v 0.051599745 0.025581336 -0.012512073
v -0.04584555 0.078432324 0.096993577
v -0.04584555 0.078432324 0.082689041
v -0.045864628 0.1474451 0.26073607
v -0.04586794 0.17828593 0.25131115
v 0.051599745 0.058413239 -0.018560684
v 0.051590351 0.043093931 -0.018861228
v 0.002762615 0.063137687 0.0031971047
v -0.045864628 0.17458075 0.27323461
v -0.045864628 0.17668881 0.26970865
v 0.0048627127 0.17823047 0.24373692
v -0.018159407 0.17818388 0.24382288
v 0.038745535 0.17823792 0.24955858
v 0.019193591 0.17820423 0.24384334
v 0.038586688 0.16704555 0.26572403
v 0.030043291 0.11503182 0.24422422
v -0.021813366 0.10296655 0.24895419
v 0.038635697 0.17825767 0.25956632
v -0.039171979 0.10296655 0.24055254
v 0.017683748 0.1118772 0.020482952
v 0.02502983 0.10446162 0.013144353
v 0.002762615 0.069088088 0.0047450975
v 0.04416628 0.078793549 -0.0075414479
v -0.045864628 0.17020016 0.27400861
v 0.038586688 0.17437143 0.2650647
v -0.045864628 0.17822874 0.26535135
v 0.05159971 0.10646388 0.077024159
v 0.041593722 0.090316365 0.0060120172
v -0.045864718 0.11827029 0.084888574
v -0.041829385 0.12037567 0.080091616
v 0.051599745 0.063137687 -0.017471364
v 0.038586688 0.17633 0.26305805
v 0.03280421 0.098367919 0.0074662245
v 0.0071804614 0.12136068 0.034916547
v 0.013674022 0.11922953 0.033504329
v -0.025968268 0.12654211 0.065034945
v -0.018926573 0.12667884 0.057380779
v 0.0024859447 0.12007023 0.034414822
v 0.00047292667 0.12552727 0.045766703
v -0.045866598 0.1076589 0.082666034
v 0.020870883 0.111262 0.019718713
v 0.025001209 0.11036718 0.024840236
v 0.028815025 0.10488007 0.016994018
v -0.032431798 0.12572162 0.07411779
v -0.011564316 0.1265933 0.050451146
v -0.0069590171 0.12675322 0.049149352
f 1 2 3
f 1 3 4
f 7 5 6
f 7 3 5
f 8 9 3
f 8 10 9
f 11 12 13
f 15 10 14
f 15 9 10
f 15 5 3
f 15 3 9
f 15 11 13
f 15 16 5
f 15 13 16
f 17 6 5
f 17 5 16
f 18 13 12
f 18 12 19
f 20 7 21
f 20 3 7
f 22 21 7
f 22 7 6
f 22 20 21
f 22 6 17
f 23 24 19
f 25 26 19
f 25 19 27
f 25 27 28
f 29 14 8
f 29 2 12
f 29 12 14
f 29 3 2
f 29 8 3
f 30 14 10
f 30 10 8
f 30 8 14
f 31 15 14
f 31 11 15
f 31 14 12
f 31 12 11
f 32 1 27
f 32 27 19
f 33 16 13
f 33 13 18
f 33 18 16
f 34 35 36
f 37 36 35
f 38 12 2
f 38 2 23
f 38 19 12
f 38 23 19
f 39 2 1
f 39 23 2
f 40 19 24
f 40 32 19
f 40 24 32
f 41 27 1
f 41 42 27
f 41 1 4
f 41 4 42
f 43 36 22
f 43 44 36
f 43 19 44
f 45 36 37
f 45 22 36
f 45 20 22
f 45 37 4
f 45 4 3
f 45 3 20
f 46 1 32
f 46 39 1
f 46 23 39
f 46 24 23
f 46 32 24
f 47 42 4
f 47 27 42
f 47 4 37
f 47 37 35
f 49 48 27
f 50 36 44
f 50 51 36
f 50 19 51
f 52 34 36
f 52 48 34
f 53 27 48
f 53 28 27
f 54 22 17
f 54 43 22
f 54 17 16
f 54 16 18
f 54 18 19
f 54 19 43
f 55 35 34
f 55 47 35
f 55 34 48
f 55 48 49
f 55 27 56
f 55 49 27
f 57 56 27
f 57 27 47
f 57 55 56
f 57 47 55
f 58 44 19
f 58 19 50
f 58 50 44
f 59 36 51
f 59 52 36
f 59 51 19
f 59 48 52
f 60 26 25
f 60 19 26
f 60 59 19
f 60 53 48
f 60 48 59
f 60 25 28
f 60 28 53
