v 0.022802075 -0.021331876 0.15556397
v -0.040622025 0.028881768 0.081875847
v -0.037723 0.028881585 0.074548586
v -0.031869647 0.028881768 0.07454821
v -0.036528934 0.050687317 0.060360793
v 0.023938006 -0.021331876 0.15844563
v -0.040581166 0.021857553 0.32678939
v -0.041185906 0.05705245 0.34073112
v -0.037704565 0.062979791 0.34073112
v -0.038431889 0.081700489 0.060359464
v -0.040790601 0.028844892 0.08967521
v -0.04147193 0.065426666 0.060359464
v -0.04071192 0.021857553 0.31803462
v 0.041745133 0.048108707 0.34073112
v 0.04118125 0.057063002 0.34073112
v 0.039484287 0.030456244 0.34073781
v -0.033373325 0.021857553 0.34073112
v 0.03344222 0.021857553 0.34073112
v -0.030619308 0.064857131 0.34073112
v -0.039322653 0.030189578 0.34073112
v -0.0043703431 0.086414937 0.060359464
v 0.0043656913 0.065500496 0.34073112
v 0.0043738628 0.086404392 0.060359464
v -0.030611135 0.050840346 0.060359464
v 0.019198153 0.053688002 0.060359464
v -0.041610858 0.039375901 0.34073112
v -0.041741613 0.048108707 0.34073112
v -0.037680052 0.021857553 0.3340896
v 0.041614379 0.039375901 0.34073112
v 0.040576513 0.021857553 0.32678939
v 0.037667226 0.021857553 0.33411704
v 0.04079716 0.048108707 0.15559141
v 0.039971773 0.056852065 0.15559141
v 0.040617375 0.039375901 0.15559141
v 0.034145026 -0.021331876 0.15556397
v 0.029895505 -0.021331876 0.15844563
v 0.037699915 0.062979791 0.34073112
v 0.019198153 0.085391892 0.073121102
v 0.033270604 0.064192683 0.34073112
v 0.030606482 0.064899325 0.34073112
v 0.013109897 0.065468853 0.34073112
v 0.019198153 0.086140709 0.060359464
v 0.03707066 0.062758314 0.15559141
v 0.039881878 0.059720808 0.34073112
v -0.0043703431 0.065489944 0.34073112
v -0.013114549 0.065458308 0.34073112
v -0.030215321 0.085810357 0.060359756
v -0.016391584 0.086330562 0.060359464
v -0.037483918 0.081721579 0.073121102
v -0.039461581 0.056852065 0.060359464
v -0.041553652 0.053107926 0.34073112
v -0.041283972 0.074349319 0.060359464
v -0.041382035 0.070436427 0.060359464
v -0.039772123 0.078314944 0.060359464
v 0.040699097 0.021857553 0.31803462
v 0.02196365 0.065234115 0.34073112
v 0.013118069 0.086330562 0.060359464
v -0.02186693 0.085381347 0.073121102
v -0.02186693 0.065184086 0.34073112
v -0.030611135 0.085064937 0.073121102
f 13 2 1
f 3 1 2
f 3 4 1
f 7 13 1
f 11 2 13
f 8 9 10
f 12 2 11
f 5 4 3
f 6 7 1
f 26 7 20
f 26 13 7
f 26 11 13
f 26 27 12
f 26 12 11
f 23 21 22
f 24 25 4
f 24 4 5
f 35 18 36
f 35 1 4
f 35 4 25
f 28 6 17
f 28 7 6
f 28 17 20
f 28 20 7
f 41 23 22
f 41 38 23
f 39 37 38
f 39 38 40
f 42 43 33
f 42 38 37
f 42 37 43
f 44 43 37
f 44 15 33
f 44 33 43
f 45 22 21
f 45 21 46
f 58 46 21
f 49 10 9
f 49 47 10
f 51 52 27
f 51 8 52
f 53 12 27
f 53 27 52
f 54 8 10
f 54 52 8
f 50 24 5
f 50 5 3
f 50 3 2
f 50 2 12
f 31 18 35
f 31 35 30
f 32 14 29
f 32 15 14
f 32 33 15
f 32 25 42
f 32 42 33
f 56 40 38
f 56 38 41
f 57 23 38
f 57 38 42
f 59 46 58
f 60 9 19
f 60 19 59
f 60 59 58
f 60 49 9
f 60 47 49
f 48 58 21
f 48 10 47
f 48 47 60
f 48 60 58
f 34 32 29
f 34 35 25
f 34 25 32
f 16 14 15
f 16 44 37
f 16 29 14
f 16 17 18
f 16 20 17
f 16 27 26
f 16 22 45
f 16 37 39
f 16 9 8
f 16 19 9
f 16 26 20
f 16 41 22
f 16 40 56
f 16 51 27
f 16 39 40
f 16 15 44
f 16 45 46
f 16 8 51
f 16 56 41
f 16 46 59
f 16 59 19
f 16 18 31
f 16 30 29
f 16 31 30
f 55 29 30
f 55 34 29
f 55 30 35
f 55 35 34
f 6 18 17
f 6 36 18
f 35 36 6
f 35 6 1
f 48 21 23
f 48 23 57
f 48 12 53
f 48 25 24
f 48 42 25
f 48 54 10
f 48 50 12
f 48 53 52
f 48 52 54
f 48 24 50
f 48 57 42
