v 0.08572912 0.040837187 0.23322108
v 0.08572912 0.035485627 0.23177829
v 0.08572912 0.033658336 0.22530027
v 0.08572912 0.033648198 0.2252597
v 0.08572912 0.046310374 0.2252597
v 0.08572912 0.046308928 0.22530027
v 0.08572912 0.045312748 0.23118728
v 0.08572912 0.04269923 0.23245623
v 0.081599246 0.040837187 0.28444853
v 0.080616473 0.036074935 0.28444853
v 0.081556805 0.040974739 0.28444853
v 0.079399172 0.044936288 0.28444853
v 0.074849382 0.046430552 0.28444853
v 0.074704195 0.046458061 0.28444853
v 0.06753219 0.046194543 0.28444853
v 0.067282032 0.046182959 0.28444853
v 0.063509522 0.044662628 0.28444853
v 0.062955592 0.040837187 0.28444853
v 0.063015903 0.036279094 0.28444853
v 0.067136845 0.034330175 0.28444853
v 0.067282032 0.034276599 0.28444853
v 0.074704195 0.034070995 0.28444853
v 0.074704195 0.032734553 0.2252597
v 0.074641659 0.032741796 0.2252597
v 0.067282032 0.033929101 0.2252597
v 0.063004735 0.036215383 0.2252597
v 0.062913157 0.040796644 0.2252597
v 0.062913157 0.040837187 0.2252597
v 0.063473783 0.044761087 0.2252597
v 0.063509522 0.044787151 0.2252597
v 0.067282032 0.046555075 0.2252597
v 0.074708666 0.047525192 0.2252597
f 2 1 9
f 26 19 27
f 25 19 26
f 17 16 31
f 8 9 1
f 8 7 9
f 22 23 4
f 32 31 16
f 6 12 7
f 11 9 7
f 11 7 12
f 18 27 19
f 29 18 17
f 21 23 22
f 10 22 4
f 10 4 3
f 10 3 2
f 10 2 9
f 14 5 32
f 30 17 31
f 30 29 17
f 28 27 18
f 28 18 29
f 24 23 21
f 24 21 25
f 20 19 25
f 20 25 21
f 15 32 16
f 15 14 32
f 13 6 5
f 13 5 14
f 13 12 6
f 6 4 5
f 6 1 2
f 6 2 3
f 6 8 1
f 6 7 8
f 6 3 4
f 24 26 27
f 24 27 28
f 24 4 23
f 24 5 4
f 24 25 26
f 24 32 5
f 24 31 32
f 24 30 31
f 24 29 30
f 24 28 29
f 13 19 20
f 13 9 11
f 13 10 9
f 13 16 17
f 13 18 19
f 13 11 12
f 13 17 18
f 13 21 22
f 13 22 10
f 13 15 16
f 13 20 21
f 13 14 15
