v 0.025207137 0.16701152 0.35056241
v 0.03108662 0.15371311 0.18810297
v 0.022623285 -0.16701953 0.35192831
v 0.050275376 -0.0086950935 0.39025632
v 0.03108662 0.14177595 0.18810297
v 0.053179111 -0.058314771 -0.020383506
v 0.056350637 0.17853054 0.34875835
v 0.064607398 0.16911017 0.27859923
v 0.055992859 0.17829322 0.26280392
v 0.10019173 -0.10005628 0.21050479
v 0.11062148 -0.075673697 0.20941967
v 0.083430526 -0.13764204 0.24242354
v 0.09279077 -0.11025203 0.2871032
v 0.057555157 -0.17812014 0.34154364
v 0.1122609 -0.03730296 0.27798153
v 0.089447649 -0.065179402 0.35478946
v 0.090747873 0.055051858 0.35018768
v 0.095672312 0.091024103 0.30597556
v 0.075139886 0.12790867 0.34939877
v 0.093715673 0.0098640356 0.35382252
v 0.027502636 -0.17809042 0.35158433
v 0.048815374 -0.17829812 0.25151096
v 0.050393014 -0.11878268 0.38188794
v 0.070320736 -0.041274718 -0.036430117
v 0.063365268 0.044885706 -0.030973881
v 0.057553968 -0.17644517 0.26040116
v 0.065037492 -0.058148344 -0.019186844
v 0.047161552 0.17827677 0.35055205
v 0.038783099 0.17821215 0.24915474
v 0.1055324 0.029276963 0.31246026
v 0.12338563 -0.0060917435 0.22614532
v 0.085321401 -0.054740219 0.052838122
v 0.12015213 -0.046011987 0.22606412
v 0.09804996 -0.024945279 0.096433778
v 0.073083722 -0.12675581 0.35968585
v 0.065156121 -0.0097757461 0.38321829
v 0.038636495 -0.17819349 0.24866295
v 0.051626302 0.029344669 -0.018780607
v 0.051696475 0.062930939 -0.018542999
v 0.073121469 -0.0032561007 -0.033670959
v 0.10080609 0.0049191257 0.10429282
v 0.051639119 0.076215963 -0.0068227591
v 0.05826085 0.17340114 0.25503745
v 0.11401003 0.078906494 0.22863166
v 0.070646244 -0.05051961 -0.021695602
v 0.03108662 0.16024016 0.20987461
v 0.05005959 -0.17025609 0.35800566
v 0.066778117 -0.070188141 0.38060329
v 0.059956473 -0.057957601 -0.023406452
v 0.038652915 -0.15839842 0.20987479
v 0.048916543 0.1781764 0.25123214
v 0.08677752 0.13239619 0.23881198
v 0.063781988 0.058368267 -0.022435466
v 0.12185496 0.034921289 0.22691094
v 0.029331905 0.17785433 0.35057822
v 0.050323249 -0.070277464 0.38938272
v 0.10079858 0.1086012 0.23230663
v 0.071788045 0.03776939 -0.031861605
v 0.070235969 0.050686075 -0.022610814
v 0.07784832 0.050302473 0.008715369
f 1 2 3
f 1 3 4
f 30 18 17
f 36 7 4
f 10 11 12
f 33 34 31
f 33 24 34
f 13 12 11
f 13 14 12
f 13 11 33
f 5 3 2
f 5 6 3
f 50 37 3
f 50 3 6
f 50 6 37
f 19 17 18
f 19 7 36
f 19 36 17
f 8 9 7
f 15 31 30
f 15 33 31
f 15 16 13
f 15 13 33
f 20 30 17
f 20 17 36
f 20 16 15
f 20 15 30
f 26 12 14
f 26 14 22
f 26 22 27
f 32 11 10
f 32 24 33
f 32 33 11
f 21 14 47
f 21 3 37
f 21 37 22
f 21 22 14
f 23 21 47
f 23 3 21
f 35 13 16
f 35 14 13
f 35 47 14
f 35 23 47
f 25 24 6
f 28 4 7
f 29 7 9
f 45 10 12
f 45 12 26
f 45 26 27
f 45 27 24
f 45 24 32
f 45 32 10
f 49 22 37
f 49 27 22
f 49 37 6
f 49 6 24
f 49 24 27
f 56 36 4
f 56 4 3
f 56 3 23
f 38 25 6
f 38 39 25
f 38 6 5
f 38 5 2
f 38 2 39
f 40 34 24
f 44 18 30
f 44 7 19
f 44 19 18
f 42 9 43
f 42 39 2
f 42 2 29
f 46 2 1
f 46 29 2
f 48 36 56
f 48 16 20
f 48 20 36
f 48 56 23
f 48 35 16
f 48 23 35
f 41 31 34
f 41 34 40
f 53 25 39
f 53 39 42
f 53 42 43
f 57 8 7
f 57 7 44
f 51 29 9
f 51 9 42
f 51 42 29
f 55 46 1
f 55 29 46
f 55 1 4
f 55 4 28
f 55 28 7
f 55 7 29
f 54 31 41
f 54 30 31
f 54 44 30
f 58 25 53
f 58 24 25
f 58 40 24
f 58 41 40
f 58 54 41
f 52 9 8
f 52 8 57
f 52 43 9
f 59 58 53
f 59 52 57
f 59 53 43
f 59 43 52
f 60 57 44
f 60 59 57
f 60 58 59
f 60 44 54
f 60 54 58
