v 0.0027288819 -0.068052028 0.0031537951
v 0.0027285009 0.06817785 0.0032298066
v 0.002772069 -0.071250406 0.045503679
v -0.068607005 -0.00054652326 -0.017242548
v -0.026205008 0.16678958 0.35080593
v -0.029229656 -0.17190628 0.34941756
v -0.096507802 -0.0091482855 0.35558687
v -0.087419639 0.1023492 0.35201117
v -0.099900342 0.012648164 0.33548298
v -0.069506181 -0.083125188 0.38065847
v -0.068743788 0.094973718 0.38065197
v -0.094239088 0.046467331 0.24581433
v -0.087342322 0.080505151 0.24358652
v -0.086991018 0.043644593 0.14089179
v -0.055151254 0.17832495 0.25852233
v -0.058636472 0.10860359 0.098440645
v -0.061586009 0.17177 0.27179536
v -0.069883745 0.089226079 0.10984142
v -0.054786064 0.17828941 0.35028569
v -0.095881899 -0.060671116 0.3443583
v -0.081458327 0.10049334 0.36701007
v -0.070029187 -0.10442634 0.37740868
v -0.078341818 -0.0036413295 0.38168565
v -0.090765535 0.01081328 0.14734251
v -0.090287674 -0.018984916 0.14785617
v -0.080171986 0.069571988 0.13200437
v -0.070198722 0.013416061 0.0032431746
v -0.057935173 0.041766472 0.0032422454
v -0.027816042 0.071566849 0.012413984
v -0.040314767 -0.057245554 0.0033844671
v -0.058568561 -0.035944458 -0.0015479532
v -0.041539079 -0.12093629 0.080844575
v -0.022511301 -0.068355988 0.0057485755
v 0.0027284835 -0.079341354 0.021833405
v -0.029221844 -0.17821977 0.25153633
v -0.055270106 -0.17824145 0.25884708
v -0.054936524 -0.17831569 0.34904443
v -0.06152136 -0.17179279 0.27145051
v 0.0027303101 0.078376314 0.022259254
v -0.035376372 0.17816364 0.35073034
v -0.045900599 0.17816771 0.25105419
v -0.098101986 0.0044388886 0.24407086
v -0.081014204 -0.099932132 0.36801693
v -0.083984836 -0.11313514 0.34926476
v -0.063610093 -0.16924749 0.32216198
v -0.035419709 -0.17819435 0.34943801
v -0.087638775 -0.090820812 0.29251373
v -0.085821894 -0.075239481 0.20777147
v -0.094090041 -0.046951761 0.244374
v -0.086559661 -0.038580207 0.13363715
v 0.0027285132 -0.079341056 0.03998957
v -0.047958657 -0.17830224 0.25141245
v -0.028804428 0.17502651 0.35080593
v 0.0027262882 0.078119784 0.046007454
v -0.046356056 0.12043573 0.090497416
v -0.079002703 -0.070437309 0.12712665
v -0.070051806 -0.089039491 0.11041567
v -0.062476892 -0.1034236 0.10398336
v -0.054732161 -0.11256056 0.094994996
v -0.069854027 -0.014407387 0.0027434613
f 1 2 3
f 1 4 2
f 5 6 3
f 7 8 9
f 10 6 5
f 10 5 11
f 12 13 14
f 12 9 8
f 12 8 13
f 17 15 16
f 17 13 8
f 18 17 16
f 19 17 8
f 19 15 17
f 20 7 9
f 21 8 7
f 21 11 19
f 21 19 8
f 22 6 10
f 23 10 11
f 23 11 21
f 23 21 7
f 24 12 14
f 24 14 4
f 24 4 25
f 26 14 13
f 26 13 17
f 26 17 18
f 27 18 16
f 27 26 18
f 27 4 14
f 27 14 26
f 28 2 4
f 28 29 2
f 28 4 27
f 28 27 16
f 31 4 30
f 31 30 32
f 33 1 32
f 33 32 30
f 33 4 1
f 33 30 4
f 34 32 1
f 34 35 32
f 34 1 3
f 36 37 38
f 39 3 2
f 40 19 11
f 40 41 15
f 40 15 19
f 42 20 9
f 42 24 25
f 42 9 12
f 42 12 24
f 43 7 20
f 43 23 7
f 43 20 44
f 43 22 10
f 43 10 23
f 43 44 37
f 43 37 22
f 45 44 38
f 45 37 44
f 45 38 37
f 46 35 6
f 46 37 35
f 46 6 22
f 46 22 37
f 47 38 44
f 47 48 38
f 47 44 20
f 49 42 25
f 49 20 42
f 49 47 20
f 49 48 47
f 50 25 4
f 50 49 25
f 50 48 49
f 51 3 6
f 51 34 3
f 51 6 35
f 51 35 34
f 52 32 35
f 52 36 32
f 52 35 37
f 52 37 36
f 53 5 39
f 53 39 41
f 53 41 40
f 53 11 5
f 53 40 11
f 54 5 3
f 54 3 39
f 54 39 5
f 55 41 39
f 55 16 15
f 55 15 41
f 55 28 16
f 55 29 28
f 55 2 29
f 55 39 2
f 56 48 50
f 56 38 48
f 56 57 38
f 58 36 38
f 58 38 57
f 60 57 56
f 60 58 57
f 60 50 4
f 60 56 50
f 60 4 31
f 60 31 58
f 59 32 36
f 59 36 58
f 59 31 32
f 59 58 31
