v -0.029166059 -0.17821375 0.25165708
v -0.064465442 -0.097561714 0.30797942
v -0.071586299 -0.10333457 0.28731628
v 0.0027871289 -0.10969786 0.39083956
v 0.0027623706 -0.07708907 0.39956418
v 0.053055799 -0.022454276 -0.01983079
v 0.053064873 -0.020267281 -0.013239674
v 0.11800205 -0.050788929 0.21816877
v 0.078246814 -0.058813677 0.028123466
v 0.082113114 -0.13693787 0.27851565
v 0.077680531 -0.11628459 0.35063
v 0.038421573 -0.17833762 0.25899746
v 0.050554298 -0.11744742 0.38201539
v 0.077877705 -0.072130157 0.36974287
v 0.10830359 -0.050933731 0.28443179
v 0.05132775 -0.071909387 0.38897526
v -0.062433318 -0.087999679 0.31072209
v 0.09517493 -0.050934777 0.28444009
v -0.041306275 -0.16375343 0.22712262
v -0.071461916 -0.10359379 0.22716385
v 0.091216419 -0.058372288 0.087425895
v 0.088213877 -0.065514461 0.084707481
v 0.11080985 -0.073895454 0.20904467
v 0.0027744965 -0.056935272 0.0047802816
v -0.041327328 -0.079361972 0.078092192
v 0.070628035 -0.058748271 -0.00065262653
v 0.038619171 -0.1777185 0.24757546
v 0.082457102 -0.13937031 0.24514023
v 0.094206084 -0.10808908 0.28202336
v 0.061739522 -0.11747314 0.37468172
v 0.048448862 -0.10899431 0.38778054
v -0.071461916 -0.089056496 0.22716385
v -0.041282064 -0.12118489 0.079647572
v -0.029165937 -0.17802782 0.24625592
v -0.029143387 -0.12623681 0.06851723
v 0.0024772789 -0.12011063 0.034446328
v -0.0069489291 -0.12671427 0.049273486
v -0.015426626 -0.12680913 0.054131303
v 0.011583737 -0.11981167 0.032595266
v 0.020189772 -0.11124607 0.018687875
v 0.0027514124 -0.066008941 0.0032394821
v 0.057887833 -0.057381051 -0.022539065
v 0.056211601 -0.067911447 -0.017397624
v 0.064773716 -0.058881829 -0.018251635
v 0.081021828 -0.13566944 0.22897844
v 0.11708076 -0.062433575 0.22594471
v 0.070977917 -0.11743515 0.36188054
v 0.019175144 -0.17818716 0.24379955
v 0.00048772361 -0.12549252 0.045974638
v 0.043184647 -0.089095652 0.0065799018
v 0.027689985 -0.10390585 0.011724665
v 0.06165421 -0.1470974 0.2098449
v 0.069036167 -0.14086315 0.20942761
v 0.11744107 -0.050939573 0.23784871
v 0.10412893 -0.075548015 0.2833631
v 0.10711586 -0.095562348 0.23083269
v 0.076944726 -0.090159196 0.36807003
v -0.017374156 -0.17820945 0.24371043
v 0.09433862 -0.12060677 0.23570647
v 0.10076312 -0.10617101 0.22633239
f 1 2 3
f 1 4 2
f 5 2 4
f 6 7 8
f 6 8 9
f 54 8 7
f 54 7 15
f 10 11 12
f 13 1 12
f 13 4 1
f 14 15 16
f 17 2 5
f 17 5 7
f 17 3 2
f 18 15 7
f 18 7 5
f 18 16 15
f 18 5 16
f 19 1 3
f 19 3 20
f 21 9 8
f 22 9 21
f 22 21 23
f 24 25 7
f 24 7 6
f 26 6 9
f 46 8 54
f 46 21 8
f 46 23 21
f 28 12 27
f 28 10 12
f 30 13 12
f 31 5 4
f 31 4 13
f 31 16 5
f 31 13 30
f 31 14 16
f 32 7 25
f 32 17 7
f 32 25 20
f 32 20 3
f 32 3 17
f 33 19 20
f 33 20 25
f 34 1 19
f 34 33 35
f 34 19 33
f 38 36 37
f 38 34 35
f 38 37 34
f 39 37 36
f 39 36 40
f 39 40 27
f 41 6 42
f 41 24 6
f 41 42 43
f 41 40 36
f 41 36 38
f 41 38 35
f 41 35 33
f 41 25 24
f 41 33 25
f 44 26 45
f 44 43 42
f 44 42 6
f 44 6 26
f 29 11 10
f 59 10 28
f 59 28 45
f 59 45 26
f 59 26 9
f 47 12 11
f 47 30 12
f 48 27 12
f 49 39 27
f 49 37 39
f 49 27 48
f 49 48 37
f 51 43 50
f 51 40 41
f 51 41 43
f 51 27 40
f 51 52 27
f 53 50 43
f 53 52 51
f 53 51 50
f 53 44 45
f 53 43 44
f 53 45 28
f 53 27 52
f 53 28 27
f 55 54 15
f 55 46 54
f 55 15 11
f 55 11 29
f 56 46 55
f 56 55 29
f 56 23 46
f 56 29 10
f 56 10 59
f 56 22 23
f 57 30 47
f 57 14 31
f 57 31 30
f 57 47 11
f 57 11 15
f 57 15 14
f 58 34 37
f 58 37 48
f 58 1 34
f 58 12 1
f 58 48 12
f 60 9 22
f 60 22 56
f 60 59 9
f 60 56 59
