v -0.06897096 0.027699999 0.011958341
v -0.061391843 0.027700059 -0.033630915
v -0.06898218 0.027699922 -0.011905624
v 0.068970968 0.027699984 0.011958317
v 0.066071831 -0.027700044 0.023119491
v 0.068980355 -0.027212423 0.011914729
v -0.012675028 -0.028500549 0.06891789
v -0.068968809 -0.027699984 -0.011970889
v -0.061391851 -0.027699956 -0.033630997
v -0.047226944 -0.027699925 -0.051668367
v -0.068968517 -0.027700014 0.011974064
v -0.061391851 -0.027700044 0.033630911
v -0.047226944 -0.027700074 0.051668292
v -0.047226935 0.02769994 0.051668371
v 0.00051091526 0.027699909 0.070456029
v -0.061391843 0.027699969 0.033630992
v 0.061391847 -0.027700074 0.033630911
v 0.038124728 -0.027700105 0.0587069
v 0.061391851 -3.4563393e-07 -0.033630957
v 0.055053119 -0.027699956 -0.043233744
v 0.055053131 0.027700059 -0.043233664
v 0.068968509 -0.027699999 -0.011974149
v -0.047226935 0.02770009 -0.051668287
v -0.017103829 -0.027699895 -0.067878308
v -6.8981268e-09 -0.027699895 -0.07040585
v -0.027992443 -0.027699895 -0.064159399
v -0.0057530873 0.02770009 -0.069763147
v -0.038124737 -0.027699895 -0.058706984
v -0.066071831 3.7092422e-08 -0.023119535
v -0.017103822 0.02769991 0.067878308
v -0.027992435 0.02769991 0.064159399
v 0.027992447 0.02769991 0.064159399
v 0.038124728 0.02769991 0.058706979
v 0.017103834 0.02769991 0.067878308
v 0.017103826 -0.027700105 0.067878224
v -0.027992443 -0.027700105 0.064159319
v -0.066072493 6.1392455e-05 0.023118047
v -0.055053127 -5.2266594e-08 0.043233706
v 0.051768441 -0.020997361 0.047343744
v 0.066071843 0.027699969 0.023119575
v 0.068970968 0.027699999 -0.011958235
v 0.038124728 -0.027699925 -0.058706984
v 0.027992433 -0.027699895 -0.064159399
v 0.017103826 -0.027699895 -0.067878308
v 0.066071831 -0.027699984 -0.023119577
v 0.038124728 0.02770009 -0.0587069
v -0.055053127 6.6878762e-08 -0.043233706
v 0.0044031655 -0.027700105 0.069947797
v 0.027992433 -0.027700105 0.064159319
v -0.038124732 -8.2052933e-08 0.058706942
v 0.055053131 0.02769994 0.043233744
v 0.066071843 0.027700029 -0.023119495
v 0.047226948 -6.6878762e-08 -0.051668321
v -0.017103822 0.02770009 -0.067878224
v -0.038124728 0.02770009 -0.0587069
v 0.061391847 0.02769994 0.033630992
v 0.0045276325 0.02770009 -0.069946328
v 0.017103834 0.02770009 -0.067878224
v 0.027992447 0.02770009 -0.064159319
v -0.027992435 0.02770009 -0.064159319
f 1 2 3
f 4 5 6
f 9 7 8
f 9 10 7
f 11 8 7
f 11 7 12
f 11 3 8
f 11 1 3
f 13 12 7
f 16 14 15
f 17 18 7
f 17 7 5
f 19 20 21
f 22 5 7
f 22 6 5
f 23 2 1
f 23 1 16
f 24 25 7
f 24 7 26
f 24 27 25
f 28 7 10
f 28 26 7
f 28 10 23
f 29 9 8
f 29 2 9
f 29 8 3
f 29 3 2
f 30 15 14
f 30 14 31
f 30 7 15
f 32 18 33
f 36 13 7
f 36 7 30
f 36 30 31
f 38 12 13
f 38 16 12
f 38 13 14
f 38 14 16
f 37 11 12
f 37 12 16
f 37 1 11
f 37 16 1
f 39 33 18
f 39 18 17
f 40 5 4
f 40 17 5
f 40 15 34
f 40 16 15
f 40 23 16
f 41 4 6
f 41 6 22
f 42 20 7
f 42 7 43
f 44 7 25
f 44 43 7
f 45 7 20
f 45 22 7
f 45 20 19
f 46 40 4
f 46 23 40
f 60 24 26
f 60 26 28
f 47 10 9
f 47 23 10
f 47 9 2
f 47 2 23
f 48 15 7
f 48 7 35
f 48 34 15
f 48 35 34
f 49 18 32
f 49 7 18
f 49 35 7
f 49 34 35
f 49 32 34
f 50 14 13
f 50 31 14
f 50 13 36
f 50 36 31
f 51 39 17
f 51 33 39
f 51 32 33
f 51 34 32
f 51 40 34
f 52 19 21
f 52 4 41
f 52 45 19
f 52 21 46
f 52 46 4
f 52 41 22
f 52 22 45
f 53 46 21
f 53 42 46
f 53 21 20
f 53 20 42
f 54 27 24
f 54 24 60
f 55 28 23
f 55 60 28
f 56 17 40
f 56 51 17
f 56 40 51
f 57 25 27
f 57 44 25
f 57 58 44
f 59 43 44
f 59 44 58
f 59 42 43
f 59 46 42
f 59 23 46
f 59 55 23
f 59 27 54
f 59 57 27
f 59 54 60
f 59 60 55
f 59 58 57
