v -0.059742483 0.027700004 0.036972678
v -0.02799244 0.027699913 0.064159401
v -0.017103827 0.027699913 0.067878303
v 0.068966627 -0.027700039 0.011983411
v 0.068970381 -0.027699989 -0.011964803
v 0.068980969 0.027699986 0.011888177
v 0.066071823 -0.027699981 -0.023119577
v 0.05505312 -0.027699949 -0.043233745
v 0.06607184 0.027700032 -0.023119496
v 0.027992444 -0.02769992 -0.064159401
v 0.0057530948 0.027699883 0.06976323
v 0.027992444 0.027699913 0.064159401
v 0.017103831 0.027699883 0.067878303
v 0.015100368 -0.0277001 0.068360171
v -0.0039617247 -0.0277001 0.070008182
v -0.068968802 0.027700002 0.011970892
v -0.061391839 0.027700062 -0.033630908
v -0.068982182 0.027699925 -0.011905625
v -0.066071836 -1.50201e-05 0.023119533
v 0.047226943 -3.7284331e-07 0.05166833
v 0.038124745 0.027699913 0.058706979
v 0.038124729 -0.0277001 0.058706896
v 0.05505312 -0.02770007 0.043233661
v -0.0039617083 0.027700091 -0.070008169
v -0.0045276345 -0.02769989 -0.069946399
v -0.017103827 0.027700091 -0.067878224
v -0.047226931 0.027700091 -0.051668284
v -0.055053124 7.0912246e-08 -0.043233703
v -0.047226939 -0.02769992 -0.051668367
v 0.068968811 0.027700002 -0.011970814
v 0.061391852 -3.4181918e-07 -0.033630948
v 0.055053132 0.027700062 -0.043233661
v -0.017103833 -0.02769989 -0.067878303
v -0.027992448 -0.02769989 -0.064159401
v 0.047226943 -2.2381678e-07 -0.051668325
v 0.012291656 -0.024726478 -0.069095934
v 0.027992444 -0.0277001 0.064159318
v -0.017103833 -0.0277001 0.067878224
v -0.0045276345 0.027699883 0.069946408
v -0.047226931 0.027699943 0.051668371
v -0.061391847 -0.027700039 0.03363091
v -0.061391847 -0.027699949 -0.03363099
v 0.066075984 0.00037526483 0.023110199
v 0.061391847 0.027699943 0.033630994
v 0.055053132 0.027699943 0.043233745
v -0.038124737 -0.02769992 -0.058706975
v -0.038124729 0.027700091 -0.058706896
v 0.038124729 -0.02769992 -0.058706975
v 0.017103831 0.027700091 -0.067878224
v 0.027992444 0.027700091 -0.064159309
v 0.061391847 -0.02770007 0.03363091
v -0.038124733 -7.8114271e-08 0.058706938
v -0.027992448 -0.0277001 0.064159318
v -0.047226939 -0.02770007 0.051668288
v -0.055053128 -0.02770007 0.043233661
v -0.068968811 -0.027699981 -0.011970892
v -0.068970385 -0.027700009 0.011964751
v -0.066070413 0.0002088892 -0.023122721
v -0.02799244 0.027700091 -0.064159309
v 0.038124745 0.027700091 -0.058706896
f 1 2 3
f 17 58 18
f 19 41 1
f 4 10 7
f 9 6 30
f 27 17 1
f 27 28 17
f 27 29 28
f 8 7 10
f 39 11 3
f 13 11 14
f 12 3 11
f 12 1 3
f 12 11 13
f 57 41 19
f 42 28 29
f 42 17 28
f 42 58 17
f 55 4 51
f 55 51 22
f 55 22 53
f 55 41 57
f 55 53 54
f 55 1 41
f 16 17 18
f 16 1 17
f 16 19 1
f 16 18 57
f 16 57 19
f 45 51 44
f 45 44 6
f 45 12 21
f 45 6 1
f 45 1 12
f 43 51 4
f 43 44 51
f 43 4 6
f 43 6 44
f 5 4 7
f 5 7 9
f 5 9 30
f 5 6 4
f 5 30 6
f 46 42 29
f 46 10 4
f 46 4 55
f 60 10 50
f 60 9 32
f 60 27 1
f 60 1 6
f 60 6 9
f 31 32 9
f 31 8 32
f 31 9 7
f 31 7 8
f 38 39 3
f 38 3 2
f 38 2 53
f 37 22 21
f 37 21 12
f 37 13 14
f 37 12 13
f 40 2 1
f 40 1 55
f 40 55 54
f 56 55 57
f 56 58 42
f 56 42 46
f 56 46 55
f 56 18 58
f 56 57 18
f 23 22 51
f 23 51 45
f 25 36 10
f 25 10 46
f 25 46 33
f 25 24 36
f 49 50 10
f 49 10 36
f 49 36 24
f 35 32 8
f 35 60 32
f 15 39 38
f 15 14 11
f 15 11 39
f 52 54 53
f 52 53 2
f 52 40 54
f 52 2 40
f 20 45 21
f 20 23 45
f 20 21 22
f 20 22 23
f 47 29 27
f 47 46 29
f 34 33 46
f 34 47 59
f 34 46 47
f 26 24 25
f 26 25 33
f 26 33 34
f 26 34 59
f 48 10 60
f 48 60 35
f 48 8 10
f 48 35 8
f 15 53 22
f 15 37 14
f 15 38 53
f 15 22 37
f 26 27 60
f 26 49 24
f 26 60 50
f 26 50 49
f 26 47 27
f 26 59 47
