v 0.017103813 -0.027700104 0.06787822
v 0.017103842 0.027699897 0.067878304
v 0.0042306501 0.0027586433 0.069983776
v -0.063718395 0.027699965 0.029494897
v 0.055053137 0.027699929 0.043233744
v -0.038124724 0.027700094 -0.058706897
v 0.0041117671 -0.027699901 -0.070008566
v -0.061391843 -0.027700043 0.03363091
v -0.070045069 -0.027699992 -4.2131917e-08
v 0.027992449 -0.027699911 -0.064159399
v 0.017103813 -0.027699904 -0.067878312
v -0.068966636 -0.02770001 0.011983412
v -0.00575308 0.027699897 0.069763225
v 0.064309968 -0.027673887 0.028614281
v 0.068975573 -0.027700028 0.011931393
v 0.068976455 0.027699973 0.011934438
v 0.055053137 -0.027700072 0.043233661
v -0.00575308 -0.027700104 0.069763145
v -0.038124753 -0.027700082 0.058706897
v -0.047226949 -0.027700071 0.051668289
v -0.055053129 0.027700071 -0.043233656
v -0.055053129 -0.027699929 -0.04323374
v -0.061391843 0.027700058 -0.03363091
v 0.017103842 0.027700099 -0.067878229
v -0.00051090268 0.027700104 -0.070455943
v 0.047226957 0.027700071 -0.051668289
v 0.055053137 0.027700056 -0.043233656
v 0.055053137 -0.027699944 -0.04323374
v 0.061391851 0.027700041 -0.03363091
v -0.068152786 0.0036550099 0.017161088
v -0.055053129 -0.027700058 0.043233661
v -0.047226949 0.027699929 0.051668369
v 0.064085351 0.027699949 0.028508634
v 0.066071832 0.027700025 -0.02311949
v 0.061391851 -0.027699959 -0.033630991
v 0.066071832 -0.027699975 -0.023119571
v -0.023152392 -0.020997453 0.066222104
v -0.027992438 0.027699909 0.064159399
v 0.046192728 -0.0243219 0.052722541
v 0.038124733 0.027699907 0.058706977
v 0.027992449 -0.027700101 0.064159315
v -0.069999809 0.027700011 -0.00050382467
v -0.068966636 0.027700028 -0.011983414
v -0.047226949 0.027700084 -0.051668289
v -0.038124753 -0.027699909 -0.058706977
v -0.047226949 -0.027699919 -0.051668369
v -0.063604069 -0.020997929 -0.029783784
v -0.027992438 0.027700099 -0.064159315
v -0.01710383 0.027700102 -0.067878229
v -0.027992438 -0.027699901 -0.064159399
v -0.015600538 -0.027699899 -0.068285182
v 0.038124733 -0.027699921 -0.058706977
v 0.027992449 0.027700091 -0.064159315
v -0.038124724 0.027699919 0.058706977
v -0.055053129 0.027699944 0.043233744
v 0.068969611 -4.0719153e-07 -0.011967821
v 0.027992449 0.027699901 0.064159399
v -0.068966636 -0.027699973 -0.011983495
v 0.047226928 -0.02769993 -0.051668369
v 0.038124733 0.027700082 -0.058706897
f 18 1 3
f 18 3 13
f 6 42 54
f 7 18 8
f 31 8 18
f 14 15 16
f 14 17 15
f 2 54 13
f 2 6 54
f 2 13 3
f 2 3 1
f 37 18 13
f 58 9 42
f 58 46 9
f 26 6 16
f 26 28 59
f 26 27 28
f 43 42 6
f 43 58 42
f 43 47 58
f 49 6 25
f 52 36 15
f 52 15 7
f 52 7 10
f 52 59 28
f 52 26 59
f 12 9 46
f 12 46 7
f 12 7 8
f 12 42 9
f 33 14 16
f 5 16 6
f 5 6 2
f 5 33 16
f 5 39 17
f 5 17 14
f 5 14 33
f 41 2 1
f 41 17 39
f 41 1 18
f 41 18 7
f 41 15 17
f 41 7 15
f 55 54 42
f 55 42 4
f 55 31 20
f 55 8 31
f 55 4 8
f 38 13 54
f 38 37 13
f 19 18 37
f 19 38 54
f 19 37 38
f 19 20 31
f 19 31 18
f 56 34 16
f 56 36 34
f 56 16 15
f 56 15 36
f 35 36 52
f 35 52 28
f 24 25 6
f 24 6 26
f 24 7 25
f 22 58 47
f 22 46 58
f 23 47 43
f 23 22 47
f 23 21 22
f 48 45 6
f 48 6 49
f 50 45 48
f 50 48 49
f 51 25 7
f 51 49 25
f 51 50 49
f 51 45 50
f 51 46 45
f 51 7 46
f 30 4 42
f 30 42 12
f 30 8 4
f 30 12 8
f 40 41 39
f 40 39 5
f 40 5 2
f 32 55 20
f 32 54 55
f 32 20 19
f 32 19 54
f 29 28 27
f 29 35 28
f 29 27 26
f 29 16 34
f 29 26 16
f 53 10 24
f 11 10 7
f 11 7 24
f 11 24 10
f 44 21 23
f 44 43 6
f 44 23 43
f 44 45 46
f 44 6 45
f 44 46 22
f 44 22 21
f 57 2 41
f 57 40 2
f 57 41 40
f 60 52 10
f 60 10 53
f 60 26 52
f 60 24 26
f 60 53 24
f 29 36 35
f 29 34 36
