v 0.1168877 0.062391051 -0.14192357
v 0.011515568 0.063500522 -0.14045075
v 0.069006405 0.11359736 -0.072752162
v -0.037133601 0.037954434 -0.097732355
v -0.027876276 0.056459098 -0.11037584
v -0.04059211 0.024540299 -0.11144391
v -0.029371688 0.034234786 0.0071597889
v -0.024514332 0.038571157 -0.13943484
v -0.0071989397 0.065285876 -0.12831374
v 0.061202136 0.10454552 -0.0066595769
v 0.094646728 0.10742699 -0.042278249
v 0.027388003 0.10806487 -0.032333244
v 0.11765144 0.043930092 -0.1549484
v 0.006732771 0.031231769 -0.15927401
v 0.11814506 0.0051462139 -0.1598191
v 0.0049650766 0.049664459 0.015569068
v 0.11235799 0.048732238 0.015977009
v 0.16037473 0.006200117 0.00051425988
v 0.15812714 0.038075 -0.11353028
v 0.15025555 0.032741628 0.0098587548
v 0.13362368 0.065931609 -0.11749813
v 0.029505075 0.10990099 -0.058603094
v 0.10382558 -0.039573259 -0.11906119
v 0.10975996 -0.021233762 -0.14660698
v 0.13151417 -0.030560014 -0.12294009
v 0.14199263 0.001362459 -0.14357894
v 0.14445192 0.040657489 -0.13736304
v 0.039769165 0.10148638 -0.010807892
v -0.0097983794 0.023737782 0.013167279
v 0.09164568 0.10295802 -0.022620176
v 0.14950682 0.053813231 -0.10599856
v 0.088529878 0.11019856 -0.060181519
v 0.049427919 0.1123784 -0.072544813
v 0.11209141 -0.057676018 -0.0101353
v 0.13883128 -0.045030061 -0.0087596719
v 0.052044571 -0.032083639 -0.13416464
v 0.15930434 0.0048246029 -0.11185746
v -0.011887568 -0.049325072 -0.01183119
v -0.017131022 -0.025832599 -0.12232011
v 0.003577055 -0.036343439 -0.12596152
v 0.017442517 -0.040270374 -0.11512769
v -0.013424153 -0.0010435357 -0.14947281
v -0.030066285 -0.013147253 -0.11447332
v -0.039176382 0.0085039675 -0.1192865
v -0.039292496 -0.014023068 -0.0056834689
v -0.022560487 -0.041478108 -0.0070240725
v -0.037959654 0.017517201 0.0013934952
v -0.017376556 0.044123726 0.01020871
v 0.13148967 0.046350837 0.012201187
v 0.15283868 -0.028816038 0.00064564634
v 0.14677663 -0.016821256 -0.1199916
v 0.0099406996 -0.021852682 -0.14615092
v -0.027489767 -0.013706358 0.0059111918
v 0.015643371 -0.05836601 -0.012494296
v 0.080871675 0.10166568 -0.011790071
v 0.0073667331 -0.0043931208 -0.15638569
v 0.0078788201 -0.05309334 -0.0027335346
v 0.11542184 -0.016810138 0.0063034842
v 0.11671149 -0.05254498 -0.0026112649
v 0.013095979 -0.031634576 0.0030659068
f 1 2 3
f 4 5 6
f 4 7 5
f 8 6 5
f 9 2 8
f 9 8 5
f 11 3 10
f 12 10 3
f 12 5 7
f 13 2 1
f 14 8 2
f 14 13 15
f 14 2 13
f 16 17 10
f 20 18 19
f 21 1 3
f 22 9 5
f 22 5 12
f 23 24 25
f 26 24 15
f 26 25 24
f 27 13 1
f 27 1 21
f 27 19 26
f 27 15 13
f 27 26 15
f 28 10 12
f 28 16 10
f 29 17 16
f 30 11 10
f 30 20 11
f 31 21 11
f 31 20 19
f 31 11 20
f 31 19 27
f 31 27 21
f 32 3 11
f 32 21 3
f 32 11 21
f 33 12 3
f 33 22 12
f 33 9 22
f 33 3 2
f 33 2 9
f 34 25 35
f 34 23 25
f 36 24 23
f 37 19 18
f 37 26 19
f 40 38 39
f 40 23 41
f 40 36 23
f 42 8 14
f 42 39 43
f 44 45 6
f 44 43 45
f 44 42 43
f 44 6 8
f 44 8 42
f 46 45 43
f 46 43 39
f 46 39 38
f 47 4 6
f 47 6 45
f 47 7 4
f 48 16 28
f 48 7 29
f 48 29 16
f 48 12 7
f 48 28 12
f 49 20 30
f 49 10 17
f 49 17 20
f 50 37 18
f 50 18 20
f 51 25 26
f 51 26 37
f 51 37 50
f 51 35 25
f 51 50 35
f 52 36 40
f 52 24 36
f 52 40 39
f 52 39 42
f 53 45 46
f 53 47 45
f 53 29 7
f 53 7 47
f 54 40 41
f 54 38 40
f 54 41 23
f 54 23 34
f 55 30 10
f 55 10 49
f 55 49 30
f 56 15 24
f 56 24 52
f 56 14 15
f 56 42 14
f 56 52 42
f 57 54 34
f 57 53 46
f 57 46 38
f 57 38 54
f 58 17 29
f 58 20 17
f 58 50 20
f 59 50 58
f 59 57 34
f 59 34 35
f 59 35 50
f 60 53 57
f 60 29 53
f 60 58 29
f 60 57 59
f 60 59 58
